M48
;GenerationSoftware,Autodesk,EAGLE,8.7.0*%
;CreationDate,2018-05-23T17:39:28Z*%
FMAT,2
ICI,OFF
METRIC,TZ,000.000
T5C0.813
T4C0.900
T3C1.016
T2C1.300
%
G90
M71
T2
X19809Y4321
X5667Y18463
T3
X18491Y9169
X11989Y9169
X18491Y13691
X11989Y13691
X18491Y16789
X11989Y16789
X18491Y21311
X11989Y21311
X18491Y24409
X11989Y24409
X18491Y28931
X18491Y32029
X11989Y28931
X11989Y36551
X18491Y36551
X11989Y32029
T4
X8890Y54610
X8890Y46990
X19050Y39370
X11430Y39370
X15240Y41910
X22860Y41910
X24130Y13970
X24130Y21590
X21590Y26670
X21590Y19050
X24130Y31750
X24130Y24130
X21590Y29210
X21590Y36830
T5
X8890Y57150
X11430Y57150
X21551Y57177
X16551Y57177
X19051Y57177
X11430Y52070
X11430Y44450
X19050Y44450
X19050Y46990
X19050Y49530
X19050Y52070
X22860Y46990
X22860Y44450
X11430Y46990
X11430Y49530
M30