M48
;GenerationSoftware,Autodesk,EAGLE,8.7.0*%
;CreationDate,2018-06-06T15:16:04Z*%
FMAT,2
ICI,OFF
METRIC,TZ,000.000
T4C0.350
T3C0.813
T2C0.900
%
G90
M71
T2
X7620Y45720
X54326Y43310
X52354Y50670
X39370Y43180
X39370Y50800
X27940Y43180
X27940Y50800
X1554Y43310
X3526Y50670
X7620Y53340
X48260Y45720
X48260Y53340
X16510Y50800
X16510Y43180
T3
X50759Y6323
X45759Y6323
X48259Y6323
X27940Y76200
X27940Y73660
X27940Y60960
X35560Y60960
X45759Y24103
X25359Y21563
X20359Y21563
X33019Y21563
X35519Y21563
X30519Y21563
X7619Y24103
X10119Y24103
X5119Y24103
X48259Y24103
X50759Y24103
X27940Y71120
X22859Y3783
X25359Y3783
X20359Y3783
X33019Y3783
X35519Y3783
X30519Y3783
X7619Y6323
X10119Y6323
X5119Y6323
X13970Y63500
X48260Y73660
X48260Y76200
X6350Y76200
X6350Y73660
X6350Y60960
X13970Y60960
X6350Y71120
X6350Y68580
X6350Y63500
X6350Y66040
X48260Y71120
X13970Y66040
X13970Y68580
X13970Y71120
X13970Y73660
X13970Y76200
X31750Y81280
X29210Y81280
X26670Y81280
X24130Y81280
X40640Y73660
X27940Y68580
X27940Y63500
X27940Y66040
X35560Y63500
X35560Y66040
X35560Y68580
X35560Y71120
X35560Y73660
X35560Y76200
X40640Y76200
X22859Y21563
X40640Y60960
X48260Y60960
X40640Y71120
X40640Y68580
X40640Y63500
X40640Y66040
X48260Y63500
X48260Y66040
X48260Y68580
X17780Y39370
X38100Y19050
X27940Y21590
X27940Y19050
X17780Y21590
X17780Y19050
X5080Y21590
X5080Y19050
X50800Y39370
X50800Y36830
X38100Y39370
X38100Y36830
X27940Y39370
X27940Y36830
X45759Y41883
X17780Y36830
X5080Y39370
X5080Y36830
X50800Y57150
X50800Y54610
X38100Y57150
X38100Y54610
X27940Y57150
X27940Y54610
X17780Y57150
X17780Y54610
X5080Y57150
X5080Y54610
X50800Y19050
X38100Y21590
X50759Y41883
X48259Y41883
X5119Y41883
X10119Y41883
X7619Y41883
X30519Y39343
X35519Y39343
X33019Y39343
X20359Y39343
X25359Y39343
X22859Y39343
X21590Y74930
X50800Y3810
X21590Y72390
X50800Y21590
X5080Y1270
X5080Y3810
X17780Y1270
X17780Y3810
X27940Y1270
X27940Y3810
X38100Y1270
X38100Y3810
X50800Y1270
T4
X53340Y60960
X45720Y10160
X45720Y27940
X50800Y60960
X52070Y60960
X45720Y45720
X30480Y10160
X45720Y64770
X30480Y27940
X44450Y66040
X30480Y45720
X43180Y67310
X27940Y46990
X31750Y71120
X19050Y73660
X2540Y68580
X5080Y45720
X5080Y27940
X1270Y68580
X5080Y10160
X8890Y60960
X16510Y64770
X20320Y45720
X11430Y60960
X20320Y27940
X10160Y60960
X20320Y10160
X30480Y80010
X33020Y66040
X25400Y80010
M30