G04 EAGLE Gerber X2 export*
%TF.Part,Single*%
%TF.FileFunction,Copper,L2,Bot,Mixed*%
%TF.FilePolarity,Positive*%
%TF.GenerationSoftware,Autodesk,EAGLE,8.7.0*%
%TF.CreationDate,2018-05-28T14:24:44Z*%
G75*
%MOMM*%
%FSLAX34Y34*%
%LPD*%
%AMOC8*
5,1,8,0,0,1.08239X$1,22.5*%
G01*
%ADD10C,0.762000*%
%ADD11C,0.152400*%
%ADD12C,0.254000*%
%ADD13C,1.320800*%
%ADD14C,1.879600*%
%ADD15P,1.429621X8X202.500000*%
%ADD16P,1.732040X8X22.500000*%
%ADD17C,0.508000*%
%ADD18C,0.756400*%

G36*
X304835Y-2536D02*
X304835Y-2536D01*
X304869Y-2538D01*
X305058Y-2516D01*
X305249Y-2499D01*
X305282Y-2490D01*
X305316Y-2486D01*
X305499Y-2431D01*
X305683Y-2381D01*
X305714Y-2366D01*
X305747Y-2356D01*
X305918Y-2269D01*
X306090Y-2187D01*
X306118Y-2167D01*
X306149Y-2152D01*
X306301Y-2036D01*
X306456Y-1925D01*
X306480Y-1900D01*
X306507Y-1880D01*
X306636Y-1740D01*
X306770Y-1603D01*
X306789Y-1574D01*
X306813Y-1548D01*
X306915Y-1387D01*
X307022Y-1230D01*
X307036Y-1198D01*
X307054Y-1169D01*
X307127Y-992D01*
X307204Y-818D01*
X307212Y-784D01*
X307225Y-752D01*
X307265Y-565D01*
X307311Y-380D01*
X307313Y-346D01*
X307320Y-312D01*
X307339Y0D01*
X307339Y736600D01*
X307336Y736635D01*
X307338Y736669D01*
X307316Y736858D01*
X307299Y737049D01*
X307290Y737082D01*
X307286Y737116D01*
X307231Y737299D01*
X307181Y737483D01*
X307166Y737514D01*
X307156Y737547D01*
X307069Y737718D01*
X306987Y737890D01*
X306967Y737918D01*
X306952Y737949D01*
X306836Y738101D01*
X306725Y738256D01*
X306700Y738280D01*
X306680Y738307D01*
X306540Y738436D01*
X306403Y738570D01*
X306374Y738589D01*
X306348Y738613D01*
X306187Y738715D01*
X306030Y738822D01*
X305998Y738836D01*
X305969Y738854D01*
X305792Y738927D01*
X305618Y739004D01*
X305584Y739012D01*
X305552Y739025D01*
X305365Y739065D01*
X305180Y739111D01*
X305146Y739113D01*
X305112Y739120D01*
X304800Y739139D01*
X269805Y739139D01*
X269676Y739128D01*
X269546Y739126D01*
X269452Y739108D01*
X269357Y739099D01*
X269231Y739065D01*
X269104Y739040D01*
X269014Y739006D01*
X268922Y738981D01*
X268805Y738925D01*
X268684Y738878D01*
X268602Y738828D01*
X268516Y738787D01*
X268410Y738712D01*
X268299Y738644D01*
X268227Y738581D01*
X268150Y738525D01*
X268059Y738432D01*
X267962Y738346D01*
X267902Y738271D01*
X267836Y738203D01*
X267763Y738095D01*
X267682Y737993D01*
X267637Y737909D01*
X267584Y737830D01*
X267531Y737711D01*
X267469Y737596D01*
X267440Y737505D01*
X267401Y737418D01*
X267370Y737291D01*
X267330Y737168D01*
X267317Y737073D01*
X267295Y736980D01*
X267287Y736851D01*
X267269Y736722D01*
X267273Y736626D01*
X267267Y736531D01*
X267282Y736402D01*
X267287Y736272D01*
X267308Y736179D01*
X267319Y736084D01*
X267357Y735959D01*
X267385Y735832D01*
X267422Y735744D01*
X267449Y735653D01*
X267508Y735537D01*
X267558Y735417D01*
X267610Y735336D01*
X267654Y735251D01*
X267732Y735148D01*
X267803Y735039D01*
X267889Y734941D01*
X267926Y734893D01*
X267959Y734862D01*
X268010Y734804D01*
X269807Y733007D01*
X275376Y727438D01*
X275502Y727333D01*
X275623Y727221D01*
X275674Y727189D01*
X275721Y727150D01*
X275864Y727068D01*
X276003Y726980D01*
X276059Y726956D01*
X276112Y726926D01*
X276267Y726871D01*
X276419Y726809D01*
X276479Y726796D01*
X276536Y726775D01*
X276698Y726749D01*
X276859Y726714D01*
X276937Y726709D01*
X276981Y726702D01*
X277041Y726703D01*
X277171Y726695D01*
X282482Y726695D01*
X288177Y724336D01*
X292536Y719977D01*
X294895Y714282D01*
X294895Y708118D01*
X292536Y702423D01*
X288177Y698064D01*
X285446Y696933D01*
X285373Y696895D01*
X285296Y696865D01*
X285174Y696791D01*
X285047Y696725D01*
X284982Y696674D01*
X284912Y696631D01*
X284805Y696537D01*
X284691Y696449D01*
X284636Y696388D01*
X284574Y696333D01*
X284485Y696221D01*
X284390Y696115D01*
X284346Y696045D01*
X284295Y695980D01*
X284227Y695854D01*
X284152Y695732D01*
X284121Y695656D01*
X284082Y695583D01*
X284038Y695447D01*
X283985Y695314D01*
X283969Y695233D01*
X283943Y695155D01*
X283924Y695013D01*
X283895Y694873D01*
X283893Y694791D01*
X283882Y694709D01*
X283888Y694566D01*
X283884Y694423D01*
X283897Y694341D01*
X283900Y694259D01*
X283931Y694119D01*
X283953Y693978D01*
X283980Y693900D01*
X283998Y693819D01*
X284053Y693687D01*
X284099Y693552D01*
X284140Y693480D01*
X284171Y693404D01*
X284249Y693284D01*
X284319Y693159D01*
X284371Y693095D01*
X284416Y693026D01*
X284579Y692841D01*
X284604Y692810D01*
X284612Y692803D01*
X284623Y692792D01*
X287079Y690336D01*
X287079Y690335D01*
X297397Y680017D01*
X300184Y677230D01*
X301499Y674056D01*
X301499Y595944D01*
X300184Y592770D01*
X297397Y589983D01*
X294241Y586827D01*
X294136Y586701D01*
X294024Y586580D01*
X293992Y586529D01*
X293953Y586482D01*
X293871Y586339D01*
X293783Y586200D01*
X293759Y586144D01*
X293729Y586091D01*
X293674Y585936D01*
X293612Y585784D01*
X293599Y585724D01*
X293578Y585667D01*
X293552Y585504D01*
X293517Y585344D01*
X293512Y585267D01*
X293505Y585222D01*
X293506Y585161D01*
X293498Y585032D01*
X293498Y578361D01*
X285239Y570102D01*
X273561Y570102D01*
X264634Y579029D01*
X264607Y579051D01*
X264585Y579077D01*
X264436Y579195D01*
X264289Y579318D01*
X264258Y579335D01*
X264231Y579356D01*
X264064Y579446D01*
X263898Y579541D01*
X263865Y579553D01*
X263835Y579569D01*
X263653Y579628D01*
X263473Y579692D01*
X263439Y579698D01*
X263406Y579708D01*
X263217Y579734D01*
X263029Y579765D01*
X262995Y579765D01*
X262960Y579770D01*
X262769Y579762D01*
X262579Y579759D01*
X262545Y579753D01*
X262510Y579751D01*
X262324Y579710D01*
X262137Y579674D01*
X262105Y579661D01*
X262071Y579654D01*
X261895Y579580D01*
X261717Y579511D01*
X261687Y579493D01*
X261655Y579480D01*
X261495Y579376D01*
X261332Y579277D01*
X261306Y579255D01*
X261277Y579236D01*
X261043Y579029D01*
X251274Y569260D01*
X251199Y569170D01*
X251117Y569087D01*
X251055Y568998D01*
X250985Y568914D01*
X250927Y568813D01*
X250861Y568717D01*
X250793Y568578D01*
X250762Y568523D01*
X250750Y568489D01*
X250723Y568436D01*
X249675Y565904D01*
X246896Y563125D01*
X243265Y561621D01*
X239335Y561621D01*
X235704Y563125D01*
X232925Y565904D01*
X231421Y569535D01*
X231421Y573465D01*
X232925Y577096D01*
X235704Y579875D01*
X238236Y580923D01*
X238339Y580978D01*
X238447Y581023D01*
X238539Y581082D01*
X238635Y581132D01*
X238727Y581204D01*
X238826Y581267D01*
X238941Y581369D01*
X238991Y581408D01*
X239015Y581435D01*
X239060Y581474D01*
X251548Y593962D01*
X251664Y594101D01*
X251786Y594237D01*
X251808Y594274D01*
X251836Y594307D01*
X251927Y594465D01*
X252022Y594620D01*
X252038Y594660D01*
X252060Y594698D01*
X252121Y594870D01*
X252187Y595039D01*
X252196Y595081D01*
X252211Y595122D01*
X252240Y595302D01*
X252276Y595480D01*
X252277Y595523D01*
X252284Y595566D01*
X252282Y595749D01*
X252285Y595930D01*
X252279Y595973D01*
X252278Y596017D01*
X252243Y596196D01*
X252215Y596375D01*
X252201Y596416D01*
X252192Y596459D01*
X252127Y596629D01*
X252067Y596800D01*
X252046Y596838D01*
X252030Y596879D01*
X251936Y597034D01*
X251847Y597193D01*
X251819Y597226D01*
X251796Y597264D01*
X251676Y597400D01*
X251560Y597540D01*
X251527Y597568D01*
X251498Y597601D01*
X251355Y597714D01*
X251217Y597831D01*
X251179Y597853D01*
X251145Y597880D01*
X250984Y597966D01*
X250827Y598057D01*
X250778Y598077D01*
X250748Y598093D01*
X250688Y598112D01*
X250537Y598172D01*
X249417Y598536D01*
X247743Y599389D01*
X246222Y600494D01*
X244894Y601822D01*
X243789Y603343D01*
X242936Y605017D01*
X242355Y606804D01*
X242315Y607061D01*
X254000Y607061D01*
X254034Y607064D01*
X254069Y607062D01*
X254258Y607084D01*
X254448Y607100D01*
X254482Y607110D01*
X254516Y607114D01*
X254699Y607169D01*
X254883Y607219D01*
X254914Y607234D01*
X254947Y607244D01*
X255118Y607331D01*
X255289Y607412D01*
X255317Y607433D01*
X255348Y607448D01*
X255500Y607563D01*
X255655Y607675D01*
X255679Y607699D01*
X255707Y607720D01*
X255707Y607721D01*
X255836Y607860D01*
X255969Y607997D01*
X255970Y607998D01*
X255989Y608026D01*
X256013Y608052D01*
X256115Y608213D01*
X256222Y608371D01*
X256236Y608402D01*
X256254Y608432D01*
X256327Y608608D01*
X256404Y608783D01*
X256412Y608816D01*
X256425Y608848D01*
X256466Y609035D01*
X256511Y609220D01*
X256513Y609254D01*
X256520Y609288D01*
X256539Y609600D01*
X256539Y635000D01*
X256539Y650394D01*
X257510Y650079D01*
X258793Y649425D01*
X259957Y648579D01*
X260975Y647561D01*
X261821Y646397D01*
X262519Y645028D01*
X262523Y645019D01*
X262588Y644849D01*
X262611Y644812D01*
X262628Y644772D01*
X262728Y644620D01*
X262822Y644464D01*
X262851Y644432D01*
X262875Y644395D01*
X263000Y644263D01*
X263121Y644127D01*
X263154Y644100D01*
X263184Y644068D01*
X263331Y643960D01*
X263474Y643847D01*
X263512Y643827D01*
X263547Y643801D01*
X263710Y643721D01*
X263870Y643635D01*
X263912Y643621D01*
X263951Y643602D01*
X264126Y643552D01*
X264299Y643496D01*
X264342Y643490D01*
X264383Y643478D01*
X264564Y643459D01*
X264745Y643434D01*
X264788Y643436D01*
X264831Y643431D01*
X265012Y643445D01*
X265195Y643452D01*
X265237Y643462D01*
X265280Y643465D01*
X265457Y643511D01*
X265634Y643550D01*
X265674Y643567D01*
X265716Y643578D01*
X265881Y643653D01*
X266050Y643724D01*
X266086Y643747D01*
X266125Y643765D01*
X266275Y643869D01*
X266428Y643968D01*
X266468Y644003D01*
X266495Y644022D01*
X266540Y644067D01*
X266662Y644175D01*
X270623Y648136D01*
X276318Y650495D01*
X281686Y650495D01*
X281721Y650498D01*
X281755Y650496D01*
X281944Y650518D01*
X282135Y650535D01*
X282168Y650544D01*
X282202Y650548D01*
X282385Y650603D01*
X282569Y650653D01*
X282600Y650668D01*
X282633Y650678D01*
X282804Y650765D01*
X282976Y650847D01*
X283004Y650867D01*
X283035Y650882D01*
X283187Y650998D01*
X283342Y651109D01*
X283366Y651134D01*
X283393Y651154D01*
X283522Y651294D01*
X283656Y651431D01*
X283675Y651460D01*
X283699Y651486D01*
X283801Y651647D01*
X283908Y651804D01*
X283922Y651836D01*
X283940Y651865D01*
X284013Y652042D01*
X284090Y652216D01*
X284098Y652250D01*
X284111Y652282D01*
X284151Y652469D01*
X284197Y652654D01*
X284199Y652688D01*
X284206Y652722D01*
X284225Y653034D01*
X284225Y667709D01*
X284211Y667872D01*
X284204Y668037D01*
X284191Y668096D01*
X284185Y668157D01*
X284142Y668316D01*
X284106Y668476D01*
X284083Y668533D01*
X284067Y668592D01*
X283996Y668740D01*
X283933Y668892D01*
X283900Y668943D01*
X283873Y668998D01*
X283778Y669132D01*
X283688Y669270D01*
X283637Y669328D01*
X283611Y669364D01*
X283568Y669407D01*
X283482Y669504D01*
X276566Y676420D01*
X276440Y676525D01*
X276319Y676637D01*
X276268Y676669D01*
X276221Y676708D01*
X276078Y676790D01*
X275939Y676878D01*
X275883Y676902D01*
X275830Y676932D01*
X275675Y676987D01*
X275523Y677049D01*
X275463Y677062D01*
X275406Y677083D01*
X275243Y677109D01*
X275083Y677144D01*
X275006Y677149D01*
X274961Y677156D01*
X274900Y677155D01*
X274771Y677163D01*
X166728Y677163D01*
X166564Y677149D01*
X166400Y677142D01*
X166340Y677129D01*
X166279Y677123D01*
X166121Y677080D01*
X165960Y677044D01*
X165904Y677021D01*
X165845Y677005D01*
X165697Y676934D01*
X165545Y676871D01*
X165493Y676838D01*
X165438Y676811D01*
X165305Y676716D01*
X165167Y676626D01*
X165109Y676575D01*
X165072Y676549D01*
X165030Y676506D01*
X164932Y676420D01*
X161177Y672664D01*
X158934Y671735D01*
X158776Y671653D01*
X158616Y671577D01*
X158577Y671549D01*
X158535Y671527D01*
X158394Y671418D01*
X158250Y671314D01*
X158217Y671280D01*
X158179Y671251D01*
X158060Y671119D01*
X157936Y670992D01*
X157909Y670952D01*
X157877Y670917D01*
X157783Y670766D01*
X157684Y670619D01*
X157665Y670575D01*
X157639Y670534D01*
X157574Y670370D01*
X157502Y670207D01*
X157490Y670160D01*
X157473Y670116D01*
X157437Y669942D01*
X157395Y669769D01*
X157392Y669722D01*
X157383Y669675D01*
X157378Y669497D01*
X157367Y669320D01*
X157373Y669273D01*
X157372Y669225D01*
X157399Y669049D01*
X157419Y668873D01*
X157433Y668827D01*
X157441Y668780D01*
X157498Y668612D01*
X157550Y668442D01*
X157571Y668399D01*
X157587Y668354D01*
X157673Y668199D01*
X157754Y668041D01*
X157783Y668002D01*
X157806Y667961D01*
X157919Y667823D01*
X158026Y667682D01*
X158061Y667649D01*
X158092Y667612D01*
X158227Y667497D01*
X158357Y667377D01*
X158398Y667351D01*
X158434Y667320D01*
X158587Y667230D01*
X158737Y667135D01*
X158781Y667117D01*
X158823Y667092D01*
X158989Y667031D01*
X159154Y666964D01*
X159200Y666954D01*
X159245Y666937D01*
X159420Y666907D01*
X159594Y666869D01*
X159653Y666865D01*
X159689Y666859D01*
X159752Y666859D01*
X159906Y666850D01*
X219805Y666850D01*
X222979Y665535D01*
X235922Y652592D01*
X235975Y652464D01*
X236029Y652360D01*
X236074Y652252D01*
X236133Y652161D01*
X236184Y652065D01*
X236255Y651972D01*
X236319Y651874D01*
X236420Y651759D01*
X236459Y651709D01*
X236486Y651684D01*
X236526Y651640D01*
X239367Y648798D01*
X240862Y645189D01*
X240876Y645162D01*
X240886Y645133D01*
X240981Y644962D01*
X241071Y644790D01*
X241089Y644766D01*
X241104Y644739D01*
X241227Y644587D01*
X241347Y644434D01*
X241369Y644413D01*
X241388Y644390D01*
X241537Y644262D01*
X241681Y644132D01*
X241707Y644116D01*
X241730Y644096D01*
X241898Y643997D01*
X242063Y643894D01*
X242091Y643883D01*
X242118Y643867D01*
X242300Y643800D01*
X242481Y643727D01*
X242511Y643721D01*
X242540Y643711D01*
X242731Y643676D01*
X242923Y643637D01*
X242953Y643636D01*
X242983Y643631D01*
X243177Y643631D01*
X243373Y643626D01*
X243403Y643631D01*
X243433Y643631D01*
X243624Y643665D01*
X243818Y643695D01*
X243847Y643705D01*
X243876Y643711D01*
X244059Y643778D01*
X244244Y643842D01*
X244270Y643856D01*
X244299Y643867D01*
X244467Y643966D01*
X244637Y644061D01*
X244660Y644080D01*
X244686Y644096D01*
X244834Y644223D01*
X244985Y644346D01*
X245005Y644369D01*
X245028Y644389D01*
X245151Y644540D01*
X245278Y644689D01*
X245293Y644715D01*
X245312Y644738D01*
X245471Y645008D01*
X246179Y646397D01*
X247025Y647561D01*
X248043Y648579D01*
X249207Y649425D01*
X250490Y650079D01*
X251461Y650394D01*
X251461Y635000D01*
X251461Y612139D01*
X242315Y612139D01*
X242355Y612396D01*
X242936Y614183D01*
X243789Y615857D01*
X244894Y617378D01*
X246223Y618706D01*
X246468Y618885D01*
X246494Y618908D01*
X246523Y618926D01*
X246664Y619055D01*
X246807Y619181D01*
X246829Y619208D01*
X246855Y619231D01*
X246970Y619383D01*
X247089Y619532D01*
X247106Y619562D01*
X247127Y619590D01*
X247213Y619760D01*
X247305Y619927D01*
X247315Y619960D01*
X247331Y619991D01*
X247386Y620173D01*
X247447Y620355D01*
X247452Y620389D01*
X247462Y620422D01*
X247484Y620611D01*
X247511Y620800D01*
X247510Y620835D01*
X247514Y620869D01*
X247502Y621060D01*
X247496Y621250D01*
X247488Y621284D01*
X247486Y621319D01*
X247441Y621504D01*
X247401Y621691D01*
X247388Y621723D01*
X247380Y621756D01*
X247303Y621931D01*
X247230Y622107D01*
X247212Y622136D01*
X247198Y622168D01*
X247030Y622432D01*
X246179Y623603D01*
X245471Y624992D01*
X245455Y625018D01*
X245443Y625046D01*
X245335Y625209D01*
X245232Y625374D01*
X245211Y625396D01*
X245194Y625422D01*
X245060Y625563D01*
X244929Y625707D01*
X244905Y625726D01*
X244884Y625748D01*
X244727Y625863D01*
X244572Y625982D01*
X244545Y625996D01*
X244520Y626014D01*
X244346Y626099D01*
X244172Y626189D01*
X244143Y626198D01*
X244116Y626211D01*
X243929Y626264D01*
X243742Y626322D01*
X243712Y626326D01*
X243683Y626334D01*
X243489Y626354D01*
X243295Y626377D01*
X243265Y626376D01*
X243235Y626379D01*
X243040Y626363D01*
X242846Y626353D01*
X242816Y626346D01*
X242786Y626344D01*
X242597Y626294D01*
X242407Y626249D01*
X242380Y626237D01*
X242350Y626230D01*
X242174Y626148D01*
X241994Y626070D01*
X241969Y626053D01*
X241942Y626040D01*
X241782Y625928D01*
X241620Y625820D01*
X241598Y625799D01*
X241573Y625782D01*
X241435Y625644D01*
X241295Y625509D01*
X241277Y625484D01*
X241255Y625463D01*
X241145Y625302D01*
X241030Y625145D01*
X241017Y625117D01*
X240999Y625092D01*
X240862Y624811D01*
X239367Y621202D01*
X235794Y617629D01*
X231126Y615695D01*
X226074Y615695D01*
X221406Y617629D01*
X217696Y621339D01*
X217669Y621361D01*
X217646Y621387D01*
X217497Y621505D01*
X217350Y621628D01*
X217320Y621645D01*
X217293Y621667D01*
X217125Y621757D01*
X216959Y621851D01*
X216927Y621863D01*
X216896Y621879D01*
X216715Y621938D01*
X216535Y622002D01*
X216501Y622008D01*
X216468Y622018D01*
X216279Y622044D01*
X216091Y622076D01*
X216056Y622075D01*
X216022Y622080D01*
X215831Y622072D01*
X215640Y622069D01*
X215606Y622063D01*
X215572Y622061D01*
X215386Y622020D01*
X215198Y621984D01*
X215166Y621971D01*
X215132Y621964D01*
X214957Y621890D01*
X214778Y621822D01*
X214749Y621803D01*
X214717Y621790D01*
X214557Y621687D01*
X214394Y621588D01*
X214368Y621565D01*
X214339Y621546D01*
X214104Y621339D01*
X212580Y619815D01*
X212475Y619689D01*
X212363Y619568D01*
X212331Y619516D01*
X212292Y619470D01*
X212210Y619327D01*
X212122Y619188D01*
X212098Y619132D01*
X212068Y619079D01*
X212013Y618923D01*
X211951Y618771D01*
X211938Y618712D01*
X211917Y618654D01*
X211891Y618492D01*
X211856Y618331D01*
X211851Y618254D01*
X211844Y618210D01*
X211845Y618149D01*
X211837Y618019D01*
X211837Y607882D01*
X210522Y604708D01*
X182692Y576878D01*
X181489Y576380D01*
X181416Y576342D01*
X181339Y576312D01*
X181217Y576238D01*
X181090Y576171D01*
X181025Y576121D01*
X180955Y576078D01*
X180847Y575983D01*
X180734Y575896D01*
X180679Y575834D01*
X180617Y575780D01*
X180528Y575668D01*
X180432Y575561D01*
X180389Y575491D01*
X180338Y575427D01*
X180270Y575300D01*
X180195Y575179D01*
X180164Y575103D01*
X180125Y575030D01*
X180081Y574894D01*
X180028Y574761D01*
X180011Y574680D01*
X179986Y574602D01*
X179966Y574460D01*
X179938Y574320D01*
X179936Y574237D01*
X179925Y574156D01*
X179930Y574013D01*
X179927Y573869D01*
X179940Y573788D01*
X179943Y573706D01*
X179974Y573566D01*
X179996Y573424D01*
X180023Y573346D01*
X180041Y573266D01*
X180096Y573134D01*
X180142Y572999D01*
X180182Y572927D01*
X180214Y572851D01*
X180292Y572730D01*
X180362Y572605D01*
X180414Y572542D01*
X180458Y572472D01*
X180622Y572288D01*
X180647Y572257D01*
X180655Y572250D01*
X180665Y572238D01*
X182853Y570051D01*
X183897Y567530D01*
X183897Y558198D01*
X182853Y555677D01*
X180923Y553747D01*
X179368Y553103D01*
X179180Y553005D01*
X178991Y552909D01*
X178981Y552901D01*
X178969Y552895D01*
X178800Y552764D01*
X178633Y552637D01*
X178624Y552627D01*
X178613Y552619D01*
X178471Y552462D01*
X178327Y552306D01*
X178320Y552295D01*
X178312Y552285D01*
X178200Y552106D01*
X178086Y551926D01*
X178081Y551914D01*
X178074Y551903D01*
X177995Y551705D01*
X177915Y551510D01*
X177912Y551497D01*
X177907Y551484D01*
X177864Y551276D01*
X177820Y551069D01*
X177819Y551054D01*
X177817Y551043D01*
X177816Y551004D01*
X177801Y550757D01*
X177801Y540839D01*
X170361Y533399D01*
X159839Y533399D01*
X151681Y541557D01*
X151654Y541580D01*
X151632Y541606D01*
X151483Y541723D01*
X151336Y541846D01*
X151305Y541864D01*
X151278Y541885D01*
X151111Y541975D01*
X150945Y542070D01*
X150912Y542081D01*
X150882Y542098D01*
X150700Y542157D01*
X150520Y542220D01*
X150486Y542226D01*
X150453Y542237D01*
X150264Y542263D01*
X150076Y542294D01*
X150042Y542293D01*
X150007Y542298D01*
X149816Y542290D01*
X149626Y542288D01*
X149592Y542281D01*
X149557Y542280D01*
X149371Y542239D01*
X149184Y542202D01*
X149152Y542190D01*
X149118Y542182D01*
X148942Y542109D01*
X148764Y542040D01*
X148734Y542022D01*
X148702Y542009D01*
X148542Y541905D01*
X148379Y541806D01*
X148353Y541783D01*
X148324Y541764D01*
X148090Y541557D01*
X143488Y536955D01*
X142239Y536955D01*
X142239Y546100D01*
X142236Y546134D01*
X142238Y546169D01*
X142216Y546358D01*
X142199Y546548D01*
X142190Y546582D01*
X142186Y546616D01*
X142131Y546799D01*
X142081Y546983D01*
X142066Y547014D01*
X142056Y547047D01*
X141969Y547218D01*
X141888Y547389D01*
X141867Y547417D01*
X141852Y547448D01*
X141736Y547600D01*
X141625Y547755D01*
X141625Y547756D01*
X141601Y547780D01*
X141580Y547807D01*
X141579Y547807D01*
X141439Y547937D01*
X141302Y548070D01*
X141274Y548089D01*
X141248Y548113D01*
X141087Y548215D01*
X140929Y548322D01*
X140898Y548336D01*
X140868Y548354D01*
X140692Y548427D01*
X140517Y548504D01*
X140484Y548512D01*
X140452Y548525D01*
X140265Y548566D01*
X140080Y548611D01*
X140046Y548613D01*
X140012Y548620D01*
X139700Y548639D01*
X130555Y548639D01*
X130555Y549888D01*
X131953Y551285D01*
X132043Y551394D01*
X132141Y551496D01*
X132188Y551566D01*
X132242Y551631D01*
X132312Y551754D01*
X132390Y551871D01*
X132423Y551949D01*
X132465Y552022D01*
X132512Y552155D01*
X132568Y552285D01*
X132588Y552367D01*
X132616Y552446D01*
X132639Y552585D01*
X132671Y552723D01*
X132676Y552807D01*
X132689Y552890D01*
X132687Y553031D01*
X132695Y553173D01*
X132684Y553256D01*
X132683Y553340D01*
X132656Y553479D01*
X132639Y553620D01*
X132614Y553700D01*
X132598Y553782D01*
X132547Y553914D01*
X132504Y554049D01*
X132466Y554124D01*
X132435Y554202D01*
X132362Y554323D01*
X132296Y554449D01*
X132245Y554515D01*
X132201Y554587D01*
X132108Y554693D01*
X132021Y554805D01*
X131959Y554861D01*
X131944Y554878D01*
X129526Y559067D01*
X129526Y562462D01*
X129526Y566661D01*
X130606Y568532D01*
X130656Y568640D01*
X130715Y568742D01*
X130750Y568843D01*
X130796Y568940D01*
X130826Y569055D01*
X130865Y569167D01*
X130883Y569272D01*
X130910Y569376D01*
X130920Y569494D01*
X130939Y569611D01*
X130937Y569718D01*
X130946Y569825D01*
X130934Y569943D01*
X130933Y570061D01*
X130912Y570166D01*
X130902Y570273D01*
X130870Y570387D01*
X130847Y570503D01*
X130809Y570603D01*
X130780Y570706D01*
X130728Y570813D01*
X130685Y570923D01*
X130629Y571015D01*
X130583Y571111D01*
X130513Y571207D01*
X130451Y571308D01*
X130380Y571388D01*
X130317Y571475D01*
X130231Y571556D01*
X130153Y571645D01*
X130069Y571712D01*
X129992Y571786D01*
X129893Y571851D01*
X129800Y571925D01*
X129705Y571975D01*
X129616Y572034D01*
X129507Y572081D01*
X129403Y572137D01*
X129301Y572170D01*
X129203Y572213D01*
X129087Y572240D01*
X128975Y572277D01*
X128869Y572291D01*
X128764Y572316D01*
X128646Y572322D01*
X128529Y572338D01*
X128422Y572334D01*
X128315Y572339D01*
X128197Y572324D01*
X128079Y572320D01*
X127974Y572296D01*
X127868Y572283D01*
X127755Y572248D01*
X127639Y572222D01*
X127541Y572181D01*
X127438Y572149D01*
X127333Y572094D01*
X127224Y572048D01*
X127134Y571990D01*
X127039Y571941D01*
X126945Y571868D01*
X126845Y571804D01*
X126732Y571704D01*
X126683Y571666D01*
X126657Y571638D01*
X126611Y571597D01*
X124274Y569260D01*
X124199Y569170D01*
X124117Y569087D01*
X124055Y568998D01*
X123985Y568914D01*
X123927Y568813D01*
X123861Y568717D01*
X123793Y568578D01*
X123762Y568523D01*
X123750Y568489D01*
X123723Y568436D01*
X122675Y565904D01*
X119896Y563125D01*
X116265Y561621D01*
X112335Y561621D01*
X108704Y563125D01*
X105925Y565904D01*
X104421Y569535D01*
X104421Y573465D01*
X105925Y577096D01*
X108704Y579875D01*
X111236Y580923D01*
X111339Y580978D01*
X111447Y581023D01*
X111539Y581082D01*
X111635Y581132D01*
X111727Y581204D01*
X111826Y581267D01*
X111941Y581369D01*
X111991Y581408D01*
X112015Y581435D01*
X112060Y581474D01*
X121777Y591192D01*
X121830Y591255D01*
X121890Y591312D01*
X121975Y591427D01*
X122066Y591537D01*
X122107Y591608D01*
X122156Y591675D01*
X122219Y591804D01*
X122290Y591928D01*
X122317Y592006D01*
X122353Y592080D01*
X122393Y592217D01*
X122441Y592352D01*
X122454Y592434D01*
X122476Y592513D01*
X122491Y592655D01*
X122514Y592796D01*
X122513Y592879D01*
X122521Y592961D01*
X122510Y593104D01*
X122508Y593247D01*
X122492Y593328D01*
X122486Y593410D01*
X122450Y593548D01*
X122422Y593689D01*
X122393Y593766D01*
X122372Y593845D01*
X122312Y593975D01*
X122260Y594109D01*
X122217Y594179D01*
X122183Y594254D01*
X122101Y594371D01*
X122026Y594493D01*
X121972Y594555D01*
X121924Y594623D01*
X121823Y594724D01*
X121728Y594831D01*
X121663Y594882D01*
X121605Y594940D01*
X121487Y595022D01*
X121375Y595110D01*
X121302Y595149D01*
X121234Y595196D01*
X121013Y595304D01*
X120978Y595323D01*
X120968Y595326D01*
X120954Y595333D01*
X118223Y596464D01*
X116096Y598592D01*
X116069Y598614D01*
X116046Y598640D01*
X115897Y598758D01*
X115750Y598880D01*
X115720Y598898D01*
X115693Y598919D01*
X115525Y599009D01*
X115359Y599104D01*
X115327Y599115D01*
X115296Y599132D01*
X115115Y599191D01*
X114935Y599255D01*
X114901Y599260D01*
X114868Y599271D01*
X114679Y599297D01*
X114491Y599328D01*
X114456Y599328D01*
X114422Y599332D01*
X114231Y599325D01*
X114041Y599322D01*
X114006Y599315D01*
X113972Y599314D01*
X113786Y599273D01*
X113598Y599236D01*
X113566Y599224D01*
X113532Y599216D01*
X113356Y599143D01*
X113178Y599074D01*
X113149Y599056D01*
X113117Y599043D01*
X112956Y598939D01*
X112794Y598840D01*
X112768Y598817D01*
X112739Y598799D01*
X112504Y598592D01*
X110377Y596464D01*
X104682Y594105D01*
X100076Y594105D01*
X100041Y594102D01*
X100007Y594104D01*
X99818Y594082D01*
X99627Y594065D01*
X99594Y594056D01*
X99560Y594052D01*
X99377Y593997D01*
X99193Y593947D01*
X99162Y593932D01*
X99129Y593922D01*
X98958Y593835D01*
X98786Y593753D01*
X98758Y593733D01*
X98727Y593718D01*
X98575Y593602D01*
X98420Y593491D01*
X98396Y593466D01*
X98369Y593446D01*
X98240Y593306D01*
X98106Y593169D01*
X98087Y593140D01*
X98063Y593114D01*
X97961Y592953D01*
X97854Y592796D01*
X97840Y592764D01*
X97822Y592735D01*
X97749Y592558D01*
X97672Y592384D01*
X97664Y592350D01*
X97651Y592318D01*
X97611Y592131D01*
X97565Y591946D01*
X97563Y591912D01*
X97556Y591878D01*
X97537Y591566D01*
X97537Y576969D01*
X97547Y576852D01*
X97547Y576735D01*
X97567Y576629D01*
X97577Y576520D01*
X97607Y576407D01*
X97628Y576292D01*
X97679Y576146D01*
X97695Y576086D01*
X97711Y576053D01*
X97730Y575997D01*
X98779Y573465D01*
X98779Y569535D01*
X97275Y565904D01*
X94496Y563125D01*
X90865Y561621D01*
X86935Y561621D01*
X83304Y563125D01*
X80525Y565904D01*
X79021Y569535D01*
X79021Y573465D01*
X80070Y575997D01*
X80105Y576108D01*
X80149Y576216D01*
X80172Y576323D01*
X80205Y576426D01*
X80219Y576542D01*
X80244Y576657D01*
X80254Y576810D01*
X80261Y576873D01*
X80260Y576909D01*
X80263Y576969D01*
X80263Y598618D01*
X81578Y601792D01*
X84365Y604579D01*
X85362Y605576D01*
X85467Y605702D01*
X85579Y605823D01*
X85611Y605874D01*
X85650Y605921D01*
X85732Y606064D01*
X85820Y606203D01*
X85844Y606259D01*
X85874Y606312D01*
X85929Y606467D01*
X85991Y606619D01*
X86004Y606679D01*
X86025Y606736D01*
X86051Y606898D01*
X86086Y607059D01*
X86091Y607137D01*
X86098Y607180D01*
X86097Y607241D01*
X86105Y607371D01*
X86105Y612682D01*
X88464Y618377D01*
X90592Y620504D01*
X90614Y620531D01*
X90640Y620554D01*
X90758Y620703D01*
X90881Y620850D01*
X90898Y620880D01*
X90919Y620907D01*
X91009Y621075D01*
X91104Y621241D01*
X91115Y621273D01*
X91132Y621304D01*
X91191Y621485D01*
X91255Y621665D01*
X91260Y621699D01*
X91271Y621732D01*
X91297Y621921D01*
X91328Y622109D01*
X91328Y622144D01*
X91332Y622178D01*
X91325Y622369D01*
X91322Y622560D01*
X91315Y622594D01*
X91314Y622628D01*
X91273Y622814D01*
X91236Y623002D01*
X91224Y623034D01*
X91216Y623068D01*
X91143Y623243D01*
X91074Y623422D01*
X91056Y623451D01*
X91043Y623483D01*
X90939Y623643D01*
X90840Y623806D01*
X90817Y623832D01*
X90799Y623861D01*
X90592Y624096D01*
X89068Y625620D01*
X88942Y625725D01*
X88820Y625837D01*
X88769Y625869D01*
X88722Y625908D01*
X88580Y625990D01*
X88441Y626078D01*
X88384Y626102D01*
X88331Y626132D01*
X88176Y626187D01*
X88024Y626249D01*
X87964Y626262D01*
X87907Y626283D01*
X87745Y626309D01*
X87584Y626344D01*
X87507Y626349D01*
X87463Y626356D01*
X87402Y626355D01*
X87272Y626363D01*
X87182Y626363D01*
X84008Y627678D01*
X60666Y651020D01*
X60540Y651125D01*
X60419Y651237D01*
X60368Y651269D01*
X60321Y651308D01*
X60178Y651390D01*
X60039Y651478D01*
X59983Y651502D01*
X59930Y651532D01*
X59775Y651587D01*
X59623Y651649D01*
X59563Y651662D01*
X59506Y651683D01*
X59343Y651709D01*
X59183Y651744D01*
X59106Y651749D01*
X59061Y651756D01*
X59000Y651755D01*
X58871Y651763D01*
X36680Y651763D01*
X36550Y651752D01*
X36420Y651750D01*
X36327Y651732D01*
X36231Y651723D01*
X36106Y651689D01*
X35978Y651664D01*
X35889Y651630D01*
X35797Y651605D01*
X35680Y651549D01*
X35558Y651502D01*
X35476Y651452D01*
X35390Y651411D01*
X35285Y651336D01*
X35174Y651268D01*
X35102Y651205D01*
X35024Y651149D01*
X34934Y651056D01*
X34836Y650970D01*
X34777Y650895D01*
X34710Y650827D01*
X34637Y650719D01*
X34557Y650617D01*
X34512Y650533D01*
X34458Y650454D01*
X34406Y650335D01*
X34344Y650220D01*
X34315Y650129D01*
X34276Y650042D01*
X34245Y649915D01*
X34205Y649792D01*
X34192Y649697D01*
X34169Y649604D01*
X34161Y649475D01*
X34144Y649346D01*
X34147Y649250D01*
X34142Y649155D01*
X34157Y649026D01*
X34162Y648896D01*
X34183Y648803D01*
X34194Y648708D01*
X34231Y648583D01*
X34259Y648456D01*
X34296Y648368D01*
X34324Y648277D01*
X34383Y648161D01*
X34433Y648041D01*
X34485Y647961D01*
X34528Y647875D01*
X34607Y647772D01*
X34677Y647663D01*
X34763Y647565D01*
X34800Y647517D01*
X34833Y647486D01*
X34884Y647428D01*
X38536Y643777D01*
X40895Y638082D01*
X40895Y631918D01*
X38536Y626223D01*
X36408Y624096D01*
X36386Y624069D01*
X36360Y624046D01*
X36242Y623897D01*
X36120Y623750D01*
X36102Y623720D01*
X36081Y623693D01*
X35991Y623525D01*
X35896Y623359D01*
X35885Y623327D01*
X35868Y623296D01*
X35809Y623115D01*
X35745Y622935D01*
X35740Y622901D01*
X35729Y622868D01*
X35703Y622679D01*
X35672Y622491D01*
X35672Y622456D01*
X35668Y622422D01*
X35675Y622230D01*
X35678Y622041D01*
X35685Y622006D01*
X35686Y621972D01*
X35727Y621786D01*
X35764Y621598D01*
X35776Y621566D01*
X35784Y621532D01*
X35857Y621356D01*
X35926Y621178D01*
X35944Y621149D01*
X35957Y621117D01*
X36061Y620956D01*
X36160Y620794D01*
X36183Y620768D01*
X36201Y620739D01*
X36408Y620504D01*
X38536Y618377D01*
X40895Y612682D01*
X40895Y607371D01*
X40909Y607208D01*
X40916Y607043D01*
X40929Y606984D01*
X40935Y606923D01*
X40978Y606764D01*
X41014Y606604D01*
X41037Y606547D01*
X41053Y606488D01*
X41124Y606340D01*
X41187Y606188D01*
X41220Y606137D01*
X41247Y606082D01*
X41342Y605948D01*
X41432Y605810D01*
X41483Y605752D01*
X41509Y605716D01*
X41552Y605673D01*
X41638Y605576D01*
X65740Y581474D01*
X65830Y581399D01*
X65913Y581317D01*
X66002Y581255D01*
X66086Y581185D01*
X66187Y581127D01*
X66283Y581061D01*
X66422Y580993D01*
X66477Y580962D01*
X66511Y580950D01*
X66564Y580923D01*
X69096Y579875D01*
X71875Y577096D01*
X73379Y573465D01*
X73379Y569535D01*
X71875Y565904D01*
X69096Y563125D01*
X65465Y561621D01*
X61535Y561621D01*
X57904Y563125D01*
X55125Y565904D01*
X54077Y568436D01*
X54022Y568539D01*
X53977Y568647D01*
X53918Y568739D01*
X53868Y568835D01*
X53796Y568927D01*
X53733Y569026D01*
X53631Y569141D01*
X53592Y569191D01*
X53565Y569215D01*
X53526Y569260D01*
X52210Y570576D01*
X52147Y570628D01*
X52090Y570688D01*
X51974Y570773D01*
X51865Y570865D01*
X51793Y570906D01*
X51727Y570954D01*
X51598Y571017D01*
X51474Y571088D01*
X51396Y571116D01*
X51322Y571152D01*
X51185Y571191D01*
X51050Y571239D01*
X50968Y571252D01*
X50889Y571275D01*
X50747Y571289D01*
X50605Y571312D01*
X50523Y571311D01*
X50441Y571319D01*
X50298Y571308D01*
X50155Y571306D01*
X50074Y571291D01*
X49992Y571284D01*
X49854Y571248D01*
X49713Y571221D01*
X49636Y571191D01*
X49556Y571170D01*
X49427Y571110D01*
X49293Y571058D01*
X49223Y571016D01*
X49148Y570981D01*
X49031Y570899D01*
X48908Y570824D01*
X48846Y570770D01*
X48779Y570723D01*
X48678Y570621D01*
X48571Y570526D01*
X48520Y570462D01*
X48462Y570403D01*
X48380Y570286D01*
X48291Y570173D01*
X48253Y570101D01*
X48206Y570033D01*
X48098Y569811D01*
X48079Y569776D01*
X48075Y569766D01*
X48069Y569752D01*
X46475Y565904D01*
X43696Y563125D01*
X40065Y561621D01*
X36135Y561621D01*
X32504Y563125D01*
X29725Y565904D01*
X28677Y568436D01*
X28622Y568539D01*
X28577Y568647D01*
X28518Y568739D01*
X28468Y568835D01*
X28396Y568927D01*
X28333Y569026D01*
X28231Y569141D01*
X28192Y569191D01*
X28165Y569215D01*
X28126Y569260D01*
X4616Y592770D01*
X3301Y595944D01*
X3301Y642294D01*
X3870Y643667D01*
X3905Y643779D01*
X3949Y643887D01*
X3972Y643993D01*
X4005Y644097D01*
X4019Y644213D01*
X4044Y644327D01*
X4054Y644481D01*
X4061Y644543D01*
X4060Y644580D01*
X4063Y644639D01*
X4063Y649418D01*
X5378Y652592D01*
X20508Y667722D01*
X23022Y668763D01*
X23137Y668824D01*
X23256Y668875D01*
X23336Y668927D01*
X23421Y668972D01*
X23524Y669051D01*
X23632Y669123D01*
X23701Y669189D01*
X23777Y669247D01*
X23864Y669344D01*
X23958Y669434D01*
X24015Y669511D01*
X24078Y669582D01*
X24147Y669692D01*
X24224Y669797D01*
X24266Y669883D01*
X24316Y669964D01*
X24364Y670085D01*
X24422Y670202D01*
X24448Y670293D01*
X24483Y670382D01*
X24509Y670510D01*
X24545Y670635D01*
X24554Y670730D01*
X24573Y670823D01*
X24576Y670953D01*
X24589Y671083D01*
X24582Y671178D01*
X24584Y671274D01*
X24564Y671402D01*
X24554Y671532D01*
X24530Y671624D01*
X24515Y671719D01*
X24473Y671842D01*
X24440Y671967D01*
X24400Y672054D01*
X24369Y672144D01*
X24305Y672258D01*
X24251Y672376D01*
X24196Y672454D01*
X24149Y672538D01*
X24067Y672638D01*
X23992Y672745D01*
X23925Y672812D01*
X23864Y672886D01*
X23765Y672970D01*
X23673Y673062D01*
X23594Y673116D01*
X23522Y673178D01*
X23410Y673244D01*
X23303Y673318D01*
X23186Y673375D01*
X23133Y673406D01*
X23091Y673421D01*
X23022Y673455D01*
X19652Y674851D01*
X15293Y679210D01*
X12934Y684905D01*
X12934Y691069D01*
X14692Y695314D01*
X14742Y695471D01*
X14798Y695626D01*
X14809Y695686D01*
X14827Y695744D01*
X14848Y695907D01*
X14876Y696069D01*
X14876Y696130D01*
X14884Y696191D01*
X14876Y696355D01*
X14875Y696519D01*
X14864Y696579D01*
X14861Y696640D01*
X14824Y696800D01*
X14794Y696962D01*
X14769Y697035D01*
X14759Y697079D01*
X14735Y697135D01*
X14692Y697258D01*
X12699Y702070D01*
X12699Y720330D01*
X14633Y724998D01*
X18206Y728571D01*
X22874Y730505D01*
X27926Y730505D01*
X32594Y728571D01*
X36167Y724998D01*
X37662Y721389D01*
X37676Y721362D01*
X37686Y721333D01*
X37781Y721162D01*
X37871Y720990D01*
X37889Y720966D01*
X37904Y720939D01*
X38027Y720787D01*
X38147Y720634D01*
X38169Y720613D01*
X38188Y720590D01*
X38337Y720462D01*
X38481Y720332D01*
X38507Y720316D01*
X38530Y720296D01*
X38698Y720197D01*
X38863Y720094D01*
X38891Y720083D01*
X38918Y720067D01*
X39100Y720000D01*
X39281Y719927D01*
X39311Y719921D01*
X39340Y719911D01*
X39531Y719876D01*
X39723Y719837D01*
X39753Y719836D01*
X39783Y719831D01*
X39977Y719831D01*
X40173Y719826D01*
X40203Y719831D01*
X40233Y719831D01*
X40424Y719865D01*
X40618Y719895D01*
X40647Y719905D01*
X40676Y719911D01*
X40859Y719978D01*
X41044Y720042D01*
X41070Y720056D01*
X41099Y720067D01*
X41267Y720166D01*
X41437Y720261D01*
X41460Y720280D01*
X41486Y720296D01*
X41634Y720423D01*
X41785Y720546D01*
X41805Y720569D01*
X41828Y720589D01*
X41951Y720740D01*
X42078Y720889D01*
X42093Y720915D01*
X42112Y720938D01*
X42271Y721208D01*
X42979Y722597D01*
X43825Y723761D01*
X44843Y724779D01*
X46007Y725625D01*
X47290Y726279D01*
X48261Y726594D01*
X48261Y711200D01*
X48261Y695806D01*
X47290Y696121D01*
X46503Y696522D01*
X46499Y696524D01*
X46496Y696526D01*
X46289Y696608D01*
X46086Y696690D01*
X46081Y696691D01*
X46077Y696692D01*
X45856Y696738D01*
X45645Y696782D01*
X45640Y696782D01*
X45636Y696783D01*
X45416Y696788D01*
X45195Y696794D01*
X45190Y696793D01*
X45186Y696793D01*
X44972Y696760D01*
X44749Y696727D01*
X44745Y696725D01*
X44741Y696725D01*
X44535Y696654D01*
X44323Y696582D01*
X44319Y696580D01*
X44315Y696578D01*
X44120Y696469D01*
X43929Y696364D01*
X43926Y696361D01*
X43922Y696359D01*
X43751Y696219D01*
X43580Y696080D01*
X43577Y696076D01*
X43574Y696074D01*
X43431Y695907D01*
X43286Y695738D01*
X43284Y695734D01*
X43281Y695731D01*
X43168Y695538D01*
X43057Y695350D01*
X43056Y695346D01*
X43054Y695343D01*
X42976Y695132D01*
X42901Y694928D01*
X42900Y694924D01*
X42899Y694920D01*
X42859Y694698D01*
X42821Y694485D01*
X42821Y694481D01*
X42820Y694476D01*
X42821Y694256D01*
X42821Y694035D01*
X42822Y694030D01*
X42822Y694026D01*
X42861Y693810D01*
X42901Y693592D01*
X42902Y693588D01*
X42903Y693583D01*
X43004Y693288D01*
X43923Y691069D01*
X43923Y684905D01*
X41565Y679210D01*
X37206Y674851D01*
X34963Y673922D01*
X34805Y673839D01*
X34645Y673763D01*
X34606Y673736D01*
X34564Y673713D01*
X34423Y673605D01*
X34279Y673501D01*
X34246Y673467D01*
X34208Y673438D01*
X34089Y673306D01*
X33965Y673179D01*
X33938Y673139D01*
X33906Y673103D01*
X33812Y672953D01*
X33713Y672806D01*
X33693Y672762D01*
X33668Y672721D01*
X33603Y672556D01*
X33531Y672394D01*
X33519Y672347D01*
X33502Y672303D01*
X33466Y672129D01*
X33424Y671956D01*
X33421Y671909D01*
X33411Y671862D01*
X33407Y671684D01*
X33396Y671507D01*
X33402Y671459D01*
X33401Y671412D01*
X33428Y671236D01*
X33448Y671060D01*
X33462Y671014D01*
X33469Y670967D01*
X33527Y670799D01*
X33579Y670629D01*
X33600Y670586D01*
X33616Y670541D01*
X33702Y670386D01*
X33783Y670227D01*
X33812Y670189D01*
X33835Y670148D01*
X33948Y670010D01*
X34055Y669869D01*
X34090Y669836D01*
X34120Y669799D01*
X34256Y669684D01*
X34386Y669563D01*
X34426Y669538D01*
X34463Y669507D01*
X34616Y669417D01*
X34766Y669322D01*
X34810Y669303D01*
X34851Y669279D01*
X35018Y669218D01*
X35182Y669151D01*
X35229Y669141D01*
X35274Y669124D01*
X35449Y669093D01*
X35623Y669056D01*
X35682Y669052D01*
X35717Y669046D01*
X35781Y669046D01*
X35934Y669037D01*
X65218Y669037D01*
X68392Y667722D01*
X71179Y664935D01*
X78742Y657372D01*
X78841Y657289D01*
X78935Y657198D01*
X79014Y657145D01*
X79087Y657084D01*
X79200Y657019D01*
X79308Y656946D01*
X79395Y656908D01*
X79478Y656860D01*
X79601Y656817D01*
X79719Y656764D01*
X79812Y656741D01*
X79902Y656709D01*
X80031Y656688D01*
X80157Y656657D01*
X80252Y656652D01*
X80347Y656636D01*
X80476Y656638D01*
X80606Y656630D01*
X80701Y656641D01*
X80797Y656642D01*
X80924Y656667D01*
X81054Y656682D01*
X81145Y656709D01*
X81239Y656728D01*
X81360Y656774D01*
X81485Y656812D01*
X81570Y656855D01*
X81659Y656890D01*
X81770Y656957D01*
X81886Y657016D01*
X81962Y657074D01*
X82044Y657124D01*
X82141Y657210D01*
X82245Y657288D01*
X82309Y657359D01*
X82381Y657422D01*
X82462Y657524D01*
X82550Y657620D01*
X82601Y657700D01*
X82660Y657775D01*
X82722Y657890D01*
X82792Y657999D01*
X82828Y658088D01*
X82873Y658172D01*
X82913Y658296D01*
X82963Y658416D01*
X82983Y658509D01*
X83012Y658600D01*
X83030Y658729D01*
X83057Y658856D01*
X83065Y658986D01*
X83074Y659046D01*
X83072Y659091D01*
X83076Y659168D01*
X83076Y661295D01*
X85435Y666990D01*
X89794Y671349D01*
X92037Y672278D01*
X92195Y672361D01*
X92355Y672437D01*
X92394Y672464D01*
X92436Y672487D01*
X92577Y672596D01*
X92721Y672699D01*
X92754Y672733D01*
X92792Y672762D01*
X92911Y672894D01*
X93035Y673021D01*
X93062Y673061D01*
X93094Y673097D01*
X93188Y673247D01*
X93287Y673394D01*
X93307Y673438D01*
X93332Y673479D01*
X93398Y673644D01*
X93470Y673806D01*
X93481Y673853D01*
X93499Y673897D01*
X93534Y674071D01*
X93576Y674244D01*
X93579Y674291D01*
X93589Y674338D01*
X93593Y674516D01*
X93604Y674693D01*
X93598Y674741D01*
X93599Y674788D01*
X93572Y674964D01*
X93552Y675140D01*
X93538Y675186D01*
X93531Y675233D01*
X93473Y675401D01*
X93421Y675571D01*
X93400Y675614D01*
X93384Y675659D01*
X93298Y675814D01*
X93217Y675973D01*
X93188Y676011D01*
X93165Y676052D01*
X93052Y676190D01*
X92945Y676331D01*
X92910Y676364D01*
X92880Y676401D01*
X92745Y676516D01*
X92614Y676637D01*
X92574Y676662D01*
X92537Y676693D01*
X92384Y676783D01*
X92234Y676878D01*
X92190Y676897D01*
X92149Y676921D01*
X91982Y676982D01*
X91818Y677049D01*
X91771Y677059D01*
X91726Y677076D01*
X91551Y677107D01*
X91377Y677144D01*
X91318Y677148D01*
X91283Y677154D01*
X91220Y677154D01*
X91066Y677163D01*
X87182Y677163D01*
X84008Y678478D01*
X69290Y693196D01*
X68757Y694482D01*
X68703Y694585D01*
X68658Y694693D01*
X68599Y694784D01*
X68549Y694881D01*
X68477Y694973D01*
X68414Y695071D01*
X68312Y695187D01*
X68273Y695237D01*
X68246Y695261D01*
X68207Y695305D01*
X65845Y697668D01*
X64175Y701700D01*
X64172Y701704D01*
X64171Y701708D01*
X64069Y701902D01*
X63966Y702099D01*
X63963Y702103D01*
X63961Y702106D01*
X63826Y702280D01*
X63690Y702455D01*
X63687Y702458D01*
X63684Y702461D01*
X63522Y702607D01*
X63356Y702757D01*
X63352Y702759D01*
X63349Y702762D01*
X63162Y702877D01*
X62974Y702995D01*
X62970Y702996D01*
X62966Y702999D01*
X62760Y703080D01*
X62555Y703161D01*
X62551Y703162D01*
X62547Y703164D01*
X62330Y703207D01*
X62114Y703251D01*
X62110Y703252D01*
X62106Y703252D01*
X61886Y703257D01*
X61664Y703262D01*
X61660Y703262D01*
X61656Y703262D01*
X61440Y703228D01*
X61219Y703193D01*
X61215Y703192D01*
X61211Y703191D01*
X61000Y703118D01*
X60793Y703047D01*
X60790Y703045D01*
X60785Y703043D01*
X60593Y702935D01*
X60400Y702828D01*
X60397Y702825D01*
X60393Y702823D01*
X60223Y702682D01*
X60052Y702542D01*
X60049Y702539D01*
X60046Y702536D01*
X59900Y702364D01*
X59759Y702200D01*
X59757Y702196D01*
X59754Y702193D01*
X59641Y701999D01*
X59532Y701811D01*
X59530Y701807D01*
X59528Y701804D01*
X59414Y701513D01*
X59275Y701086D01*
X58621Y699803D01*
X57775Y698639D01*
X56757Y697621D01*
X55593Y696775D01*
X54310Y696121D01*
X53339Y695806D01*
X53339Y711200D01*
X53339Y726594D01*
X54310Y726279D01*
X55593Y725625D01*
X56757Y724779D01*
X57775Y723761D01*
X58621Y722597D01*
X59275Y721314D01*
X59317Y721185D01*
X59318Y721181D01*
X59319Y721177D01*
X59407Y720974D01*
X59493Y720771D01*
X59496Y720767D01*
X59497Y720763D01*
X59621Y720577D01*
X59740Y720394D01*
X59743Y720391D01*
X59746Y720388D01*
X59903Y720223D01*
X60050Y720067D01*
X60053Y720065D01*
X60056Y720062D01*
X60240Y719927D01*
X60412Y719800D01*
X60416Y719798D01*
X60420Y719796D01*
X60617Y719700D01*
X60816Y719601D01*
X60820Y719600D01*
X60824Y719598D01*
X61032Y719539D01*
X61249Y719477D01*
X61253Y719476D01*
X61257Y719475D01*
X61477Y719453D01*
X61697Y719431D01*
X61701Y719431D01*
X61705Y719431D01*
X61929Y719448D01*
X62146Y719465D01*
X62150Y719466D01*
X62154Y719466D01*
X62369Y719522D01*
X62582Y719577D01*
X62586Y719579D01*
X62590Y719580D01*
X62792Y719674D01*
X62991Y719765D01*
X62995Y719767D01*
X62998Y719769D01*
X63182Y719897D01*
X63361Y720022D01*
X63364Y720025D01*
X63367Y720027D01*
X63523Y720185D01*
X63679Y720340D01*
X63682Y720344D01*
X63685Y720347D01*
X63811Y720530D01*
X63936Y720710D01*
X63938Y720714D01*
X63941Y720717D01*
X64078Y720998D01*
X65845Y725264D01*
X69418Y728837D01*
X74086Y730771D01*
X79138Y730771D01*
X83806Y728837D01*
X87379Y725264D01*
X88695Y722088D01*
X88709Y722061D01*
X88719Y722032D01*
X88813Y721862D01*
X88903Y721689D01*
X88922Y721665D01*
X88937Y721638D01*
X89059Y721487D01*
X89179Y721333D01*
X89202Y721312D01*
X89221Y721289D01*
X89369Y721162D01*
X89513Y721031D01*
X89539Y721015D01*
X89562Y720995D01*
X89730Y720896D01*
X89896Y720793D01*
X89924Y720782D01*
X89950Y720766D01*
X90133Y720699D01*
X90314Y720626D01*
X90344Y720620D01*
X90372Y720610D01*
X90564Y720575D01*
X90755Y720536D01*
X90786Y720536D01*
X90815Y720530D01*
X91010Y720530D01*
X91205Y720525D01*
X91235Y720530D01*
X91266Y720530D01*
X91457Y720564D01*
X91650Y720594D01*
X91679Y720604D01*
X91709Y720610D01*
X91892Y720677D01*
X92076Y720741D01*
X92103Y720755D01*
X92131Y720766D01*
X92299Y720865D01*
X92469Y720960D01*
X92493Y720979D01*
X92519Y720995D01*
X92667Y721122D01*
X92818Y721245D01*
X92837Y721268D01*
X92860Y721288D01*
X92984Y721440D01*
X93110Y721588D01*
X93126Y721614D01*
X93145Y721637D01*
X93303Y721907D01*
X93791Y722863D01*
X94637Y724027D01*
X95655Y725045D01*
X96819Y725891D01*
X98102Y726545D01*
X99073Y726860D01*
X99073Y711466D01*
X99076Y711432D01*
X99074Y711397D01*
X99096Y711208D01*
X99112Y711018D01*
X99122Y710984D01*
X99126Y710950D01*
X99181Y710767D01*
X99231Y710583D01*
X99246Y710552D01*
X99256Y710519D01*
X99343Y710348D01*
X99424Y710177D01*
X99445Y710149D01*
X99460Y710118D01*
X99575Y709966D01*
X99687Y709811D01*
X99711Y709787D01*
X99732Y709759D01*
X99872Y709630D01*
X100009Y709497D01*
X100038Y709477D01*
X100063Y709454D01*
X100224Y709351D01*
X100382Y709245D01*
X100414Y709231D01*
X100443Y709212D01*
X100620Y709140D01*
X100794Y709062D01*
X100828Y709054D01*
X100860Y709041D01*
X101046Y709001D01*
X101231Y708956D01*
X101266Y708954D01*
X101300Y708946D01*
X101612Y708927D01*
X101647Y708930D01*
X101681Y708928D01*
X101871Y708950D01*
X102061Y708967D01*
X102094Y708976D01*
X102128Y708980D01*
X102311Y709035D01*
X102495Y709086D01*
X102526Y709100D01*
X102559Y709110D01*
X102730Y709197D01*
X102902Y709279D01*
X102930Y709299D01*
X102961Y709315D01*
X103113Y709430D01*
X103268Y709541D01*
X103292Y709566D01*
X103319Y709587D01*
X103449Y709727D01*
X103582Y709864D01*
X103601Y709892D01*
X103625Y709918D01*
X103727Y710079D01*
X103834Y710237D01*
X103848Y710268D01*
X103866Y710298D01*
X103939Y710474D01*
X104016Y710649D01*
X104024Y710682D01*
X104037Y710714D01*
X104078Y710901D01*
X104123Y711086D01*
X104125Y711120D01*
X104132Y711154D01*
X104151Y711466D01*
X104151Y726860D01*
X105122Y726545D01*
X106405Y725891D01*
X107569Y725045D01*
X108587Y724027D01*
X109433Y722863D01*
X109921Y721907D01*
X109937Y721881D01*
X109949Y721853D01*
X110056Y721690D01*
X110160Y721525D01*
X110180Y721503D01*
X110197Y721477D01*
X110332Y721336D01*
X110463Y721192D01*
X110487Y721173D01*
X110508Y721151D01*
X110665Y721036D01*
X110819Y720917D01*
X110846Y720903D01*
X110871Y720885D01*
X111046Y720800D01*
X111219Y720710D01*
X111248Y720701D01*
X111276Y720688D01*
X111463Y720635D01*
X111649Y720577D01*
X111680Y720573D01*
X111709Y720565D01*
X111903Y720546D01*
X112096Y720522D01*
X112126Y720523D01*
X112157Y720520D01*
X112351Y720536D01*
X112546Y720546D01*
X112575Y720553D01*
X112606Y720556D01*
X112794Y720605D01*
X112984Y720650D01*
X113012Y720662D01*
X113041Y720670D01*
X113218Y720751D01*
X113397Y720829D01*
X113422Y720846D01*
X113450Y720859D01*
X113610Y720971D01*
X113772Y721079D01*
X113794Y721100D01*
X113819Y721117D01*
X113956Y721255D01*
X114097Y721390D01*
X114115Y721415D01*
X114136Y721436D01*
X114247Y721597D01*
X114361Y721755D01*
X114375Y721782D01*
X114392Y721807D01*
X114529Y722088D01*
X115845Y725264D01*
X119418Y728837D01*
X124086Y730771D01*
X129138Y730771D01*
X133806Y728837D01*
X137379Y725264D01*
X138978Y721404D01*
X139076Y721216D01*
X139172Y721027D01*
X139180Y721017D01*
X139187Y721005D01*
X139317Y720837D01*
X139444Y720669D01*
X139454Y720660D01*
X139462Y720649D01*
X139619Y720508D01*
X139776Y720363D01*
X139787Y720356D01*
X139797Y720348D01*
X139975Y720236D01*
X140155Y720122D01*
X140168Y720117D01*
X140179Y720110D01*
X140376Y720031D01*
X140572Y719951D01*
X140585Y719948D01*
X140597Y719943D01*
X140805Y719900D01*
X141012Y719856D01*
X141028Y719855D01*
X141038Y719853D01*
X141078Y719852D01*
X141324Y719837D01*
X147771Y719837D01*
X147934Y719851D01*
X148099Y719858D01*
X148158Y719871D01*
X148219Y719877D01*
X148378Y719920D01*
X148538Y719956D01*
X148595Y719979D01*
X148654Y719995D01*
X148802Y720066D01*
X148954Y720129D01*
X149005Y720162D01*
X149060Y720189D01*
X149194Y720284D01*
X149332Y720374D01*
X149390Y720425D01*
X149426Y720451D01*
X149469Y720494D01*
X149566Y720580D01*
X163790Y734804D01*
X163874Y734904D01*
X163964Y734997D01*
X164018Y735077D01*
X164079Y735150D01*
X164144Y735263D01*
X164216Y735370D01*
X164255Y735458D01*
X164303Y735541D01*
X164346Y735663D01*
X164399Y735782D01*
X164421Y735875D01*
X164453Y735965D01*
X164475Y736094D01*
X164505Y736220D01*
X164511Y736315D01*
X164527Y736409D01*
X164525Y736540D01*
X164533Y736669D01*
X164522Y736764D01*
X164521Y736860D01*
X164496Y736987D01*
X164481Y737116D01*
X164453Y737208D01*
X164435Y737302D01*
X164388Y737423D01*
X164351Y737547D01*
X164307Y737632D01*
X164273Y737722D01*
X164205Y737833D01*
X164146Y737949D01*
X164089Y738025D01*
X164039Y738106D01*
X163953Y738204D01*
X163874Y738307D01*
X163804Y738372D01*
X163741Y738444D01*
X163639Y738524D01*
X163543Y738613D01*
X163462Y738664D01*
X163388Y738723D01*
X163273Y738784D01*
X163163Y738854D01*
X163075Y738891D01*
X162991Y738936D01*
X162867Y738976D01*
X162747Y739025D01*
X162653Y739045D01*
X162563Y739075D01*
X162434Y739093D01*
X162307Y739120D01*
X162177Y739128D01*
X162117Y739136D01*
X162072Y739135D01*
X161995Y739139D01*
X0Y739139D01*
X-35Y739136D01*
X-69Y739138D01*
X-258Y739116D01*
X-449Y739099D01*
X-482Y739090D01*
X-516Y739086D01*
X-699Y739031D01*
X-883Y738981D01*
X-914Y738966D01*
X-947Y738956D01*
X-1118Y738869D01*
X-1290Y738787D01*
X-1318Y738767D01*
X-1349Y738752D01*
X-1501Y738636D01*
X-1656Y738525D01*
X-1680Y738500D01*
X-1707Y738480D01*
X-1836Y738340D01*
X-1970Y738203D01*
X-1989Y738174D01*
X-2013Y738148D01*
X-2115Y737987D01*
X-2222Y737830D01*
X-2236Y737798D01*
X-2254Y737769D01*
X-2327Y737592D01*
X-2404Y737418D01*
X-2412Y737384D01*
X-2425Y737352D01*
X-2465Y737165D01*
X-2511Y736980D01*
X-2513Y736946D01*
X-2520Y736912D01*
X-2539Y736600D01*
X-2539Y0D01*
X-2536Y-35D01*
X-2538Y-69D01*
X-2516Y-258D01*
X-2499Y-449D01*
X-2490Y-482D01*
X-2486Y-516D01*
X-2431Y-699D01*
X-2381Y-883D01*
X-2366Y-914D01*
X-2356Y-947D01*
X-2269Y-1118D01*
X-2187Y-1290D01*
X-2167Y-1318D01*
X-2152Y-1349D01*
X-2036Y-1501D01*
X-1925Y-1656D01*
X-1900Y-1680D01*
X-1880Y-1707D01*
X-1740Y-1836D01*
X-1603Y-1970D01*
X-1574Y-1989D01*
X-1548Y-2013D01*
X-1387Y-2115D01*
X-1230Y-2222D01*
X-1198Y-2236D01*
X-1169Y-2254D01*
X-992Y-2327D01*
X-818Y-2404D01*
X-784Y-2412D01*
X-752Y-2425D01*
X-565Y-2465D01*
X-380Y-2511D01*
X-346Y-2513D01*
X-312Y-2520D01*
X0Y-2539D01*
X304800Y-2539D01*
X304835Y-2536D01*
G37*
%LPC*%
G36*
X148205Y70268D02*
X148205Y70268D01*
X146365Y71188D01*
X146338Y71199D01*
X146313Y71213D01*
X146128Y71281D01*
X145946Y71353D01*
X145918Y71358D01*
X145890Y71369D01*
X145697Y71403D01*
X145505Y71441D01*
X145475Y71442D01*
X145447Y71447D01*
X145251Y71446D01*
X145054Y71450D01*
X145025Y71445D01*
X144996Y71445D01*
X144804Y71410D01*
X144610Y71379D01*
X144582Y71370D01*
X144553Y71364D01*
X144258Y71263D01*
X141459Y70103D01*
X137518Y70103D01*
X133877Y71611D01*
X133826Y71663D01*
X133709Y71760D01*
X133598Y71865D01*
X133536Y71904D01*
X133480Y71952D01*
X133348Y72027D01*
X133220Y72110D01*
X133153Y72139D01*
X133089Y72175D01*
X132946Y72226D01*
X132806Y72285D01*
X132734Y72301D01*
X132665Y72326D01*
X132515Y72351D01*
X132366Y72384D01*
X132293Y72387D01*
X132221Y72399D01*
X132069Y72397D01*
X131916Y72404D01*
X131844Y72394D01*
X131771Y72393D01*
X131621Y72364D01*
X131470Y72344D01*
X131379Y72317D01*
X131328Y72308D01*
X131276Y72287D01*
X131170Y72256D01*
X128503Y71297D01*
X127197Y71059D01*
X122197Y70150D01*
X121468Y70140D01*
X121467Y70140D01*
X118992Y70104D01*
X116121Y70063D01*
X110791Y72206D01*
X106702Y76240D01*
X104488Y81540D01*
X104493Y87284D01*
X106756Y92676D01*
X106756Y92677D01*
X106775Y92708D01*
X106797Y92736D01*
X106888Y92902D01*
X106983Y93066D01*
X106995Y93099D01*
X107013Y93131D01*
X107073Y93311D01*
X107137Y93489D01*
X107144Y93524D01*
X107155Y93558D01*
X107182Y93746D01*
X107215Y93932D01*
X107214Y93968D01*
X107220Y94004D01*
X107213Y94193D01*
X107212Y94382D01*
X107206Y94418D01*
X107205Y94454D01*
X107165Y94639D01*
X107130Y94825D01*
X107118Y94859D01*
X107110Y94894D01*
X107000Y95187D01*
X106469Y96366D01*
X106349Y100306D01*
X107746Y103991D01*
X110447Y106861D01*
X112244Y107670D01*
X114968Y108897D01*
X120802Y110193D01*
X121314Y110200D01*
X123789Y110236D01*
X126232Y110271D01*
X126248Y110272D01*
X126265Y110271D01*
X126473Y110296D01*
X126680Y110317D01*
X126696Y110321D01*
X126712Y110323D01*
X126914Y110384D01*
X127113Y110442D01*
X127127Y110449D01*
X127143Y110454D01*
X127329Y110549D01*
X127516Y110641D01*
X127530Y110651D01*
X127544Y110658D01*
X127711Y110784D01*
X127879Y110908D01*
X127890Y110920D01*
X127903Y110930D01*
X128044Y111083D01*
X128188Y111235D01*
X128197Y111249D01*
X128208Y111261D01*
X128321Y111438D01*
X128435Y111612D01*
X128441Y111627D01*
X128450Y111641D01*
X128530Y111835D01*
X128611Y112026D01*
X128615Y112042D01*
X128621Y112058D01*
X128665Y112262D01*
X128680Y112328D01*
X130243Y116102D01*
X133030Y118889D01*
X136671Y120397D01*
X142306Y120397D01*
X145947Y118889D01*
X146533Y118302D01*
X146697Y118165D01*
X146857Y118029D01*
X146868Y118022D01*
X146878Y118014D01*
X147063Y117908D01*
X147245Y117801D01*
X147258Y117797D01*
X147269Y117790D01*
X147468Y117719D01*
X147668Y117646D01*
X147681Y117644D01*
X147693Y117639D01*
X147903Y117605D01*
X148111Y117568D01*
X148125Y117568D01*
X148138Y117566D01*
X148351Y117569D01*
X148562Y117569D01*
X148574Y117572D01*
X148588Y117572D01*
X148797Y117613D01*
X149005Y117650D01*
X149019Y117656D01*
X149030Y117658D01*
X149067Y117672D01*
X149300Y117752D01*
X155685Y120397D01*
X169777Y120397D01*
X172890Y119107D01*
X173047Y119058D01*
X173201Y119001D01*
X173261Y118991D01*
X173319Y118973D01*
X173483Y118952D01*
X173645Y118923D01*
X173705Y118923D01*
X173766Y118916D01*
X173931Y118924D01*
X174095Y118925D01*
X174155Y118936D01*
X174216Y118939D01*
X174376Y118976D01*
X174538Y119006D01*
X174611Y119031D01*
X174654Y119041D01*
X174710Y119065D01*
X174833Y119107D01*
X177946Y120397D01*
X188661Y120397D01*
X192302Y118889D01*
X195089Y116102D01*
X196597Y112461D01*
X196597Y108519D01*
X195089Y104878D01*
X193954Y103744D01*
X193848Y103617D01*
X193737Y103496D01*
X193704Y103445D01*
X193665Y103398D01*
X193583Y103256D01*
X193495Y103117D01*
X193472Y103060D01*
X193442Y103007D01*
X193387Y102852D01*
X193324Y102700D01*
X193311Y102641D01*
X193291Y102583D01*
X193264Y102421D01*
X193229Y102260D01*
X193225Y102183D01*
X193217Y102139D01*
X193218Y102078D01*
X193210Y101948D01*
X193210Y88552D01*
X193225Y88388D01*
X193231Y88224D01*
X193245Y88164D01*
X193250Y88103D01*
X193293Y87945D01*
X193329Y87784D01*
X193352Y87728D01*
X193369Y87669D01*
X193439Y87521D01*
X193503Y87369D01*
X193536Y87317D01*
X193562Y87262D01*
X193657Y87129D01*
X193747Y86991D01*
X193798Y86933D01*
X193824Y86896D01*
X193868Y86854D01*
X193954Y86756D01*
X195089Y85622D01*
X196597Y81981D01*
X196597Y78039D01*
X195089Y74398D01*
X192302Y71611D01*
X188661Y70103D01*
X177946Y70103D01*
X174833Y71393D01*
X174677Y71442D01*
X174522Y71499D01*
X174462Y71509D01*
X174404Y71527D01*
X174240Y71548D01*
X174078Y71577D01*
X174018Y71577D01*
X173957Y71584D01*
X173793Y71576D01*
X173628Y71575D01*
X173568Y71564D01*
X173507Y71561D01*
X173347Y71524D01*
X173185Y71494D01*
X173112Y71469D01*
X173069Y71459D01*
X173013Y71435D01*
X172890Y71393D01*
X169777Y70103D01*
X165836Y70103D01*
X162195Y71611D01*
X161134Y72672D01*
X161004Y72781D01*
X160878Y72896D01*
X160831Y72926D01*
X160788Y72961D01*
X160641Y73046D01*
X160497Y73136D01*
X160446Y73157D01*
X160397Y73185D01*
X160237Y73242D01*
X160080Y73305D01*
X160026Y73317D01*
X159973Y73336D01*
X159805Y73363D01*
X159639Y73398D01*
X159584Y73400D01*
X159529Y73409D01*
X159359Y73407D01*
X159189Y73412D01*
X159134Y73404D01*
X159079Y73403D01*
X158912Y73371D01*
X158744Y73346D01*
X158691Y73328D01*
X158637Y73317D01*
X158478Y73256D01*
X158317Y73202D01*
X158268Y73175D01*
X158217Y73155D01*
X158071Y73067D01*
X157923Y72985D01*
X157867Y72943D01*
X157832Y72921D01*
X157785Y72880D01*
X157674Y72795D01*
X155875Y71235D01*
X152136Y69989D01*
X148205Y70268D01*
G37*
%LPD*%
%LPC*%
G36*
X116806Y362711D02*
X116806Y362711D01*
X111111Y365070D01*
X106752Y369429D01*
X104393Y375124D01*
X104393Y381288D01*
X106752Y386983D01*
X111111Y391342D01*
X111140Y391354D01*
X111256Y391414D01*
X111375Y391466D01*
X111455Y391518D01*
X111540Y391563D01*
X111642Y391642D01*
X111751Y391714D01*
X111820Y391780D01*
X111896Y391838D01*
X111983Y391935D01*
X112077Y392025D01*
X112133Y392102D01*
X112197Y392173D01*
X112266Y392283D01*
X112343Y392388D01*
X112385Y392474D01*
X112435Y392555D01*
X112483Y392676D01*
X112540Y392793D01*
X112566Y392884D01*
X112602Y392973D01*
X112628Y393101D01*
X112663Y393226D01*
X112673Y393321D01*
X112692Y393414D01*
X112695Y393544D01*
X112708Y393674D01*
X112700Y393769D01*
X112703Y393864D01*
X112683Y393993D01*
X112673Y394123D01*
X112648Y394215D01*
X112634Y394309D01*
X112592Y394432D01*
X112559Y394558D01*
X112518Y394645D01*
X112487Y394735D01*
X112424Y394849D01*
X112369Y394967D01*
X112315Y395045D01*
X112268Y395128D01*
X112186Y395229D01*
X112111Y395336D01*
X112043Y395403D01*
X111983Y395477D01*
X111884Y395561D01*
X111792Y395653D01*
X111713Y395707D01*
X111640Y395769D01*
X111528Y395835D01*
X111421Y395909D01*
X111305Y395966D01*
X111252Y395997D01*
X111210Y396012D01*
X111140Y396046D01*
X111111Y396058D01*
X106752Y400417D01*
X104393Y406112D01*
X104393Y412276D01*
X106752Y417971D01*
X111111Y422330D01*
X116806Y424689D01*
X122970Y424689D01*
X128665Y422330D01*
X132646Y418349D01*
X132818Y418205D01*
X132983Y418066D01*
X132987Y418063D01*
X132992Y418060D01*
X133183Y417950D01*
X133373Y417841D01*
X133378Y417839D01*
X133383Y417836D01*
X133591Y417762D01*
X133797Y417688D01*
X133802Y417687D01*
X133807Y417686D01*
X134029Y417649D01*
X134240Y417613D01*
X134246Y417613D01*
X134251Y417612D01*
X134474Y417615D01*
X134691Y417617D01*
X134696Y417618D01*
X134701Y417618D01*
X134919Y417660D01*
X135133Y417701D01*
X135138Y417703D01*
X135143Y417704D01*
X135352Y417784D01*
X135554Y417861D01*
X135558Y417864D01*
X135563Y417866D01*
X135755Y417982D01*
X135939Y418094D01*
X135943Y418097D01*
X135948Y418100D01*
X136112Y418245D01*
X136278Y418390D01*
X136282Y418395D01*
X136285Y418398D01*
X136420Y418568D01*
X136559Y418742D01*
X136562Y418747D01*
X136565Y418751D01*
X136668Y418943D01*
X136773Y419138D01*
X136775Y419143D01*
X136778Y419148D01*
X136845Y419356D01*
X136914Y419566D01*
X136915Y419571D01*
X136917Y419576D01*
X136947Y419794D01*
X136978Y420012D01*
X136978Y420018D01*
X136978Y420022D01*
X136977Y420043D01*
X136975Y420324D01*
X136905Y421310D01*
X137706Y423714D01*
X137712Y423741D01*
X137723Y423765D01*
X137764Y423960D01*
X137810Y424153D01*
X137812Y424179D01*
X137817Y424206D01*
X137826Y424350D01*
X138263Y425404D01*
X138281Y425461D01*
X138326Y425573D01*
X140360Y431675D01*
X140397Y431833D01*
X140442Y431988D01*
X140453Y432068D01*
X140464Y432113D01*
X140467Y432173D01*
X140484Y432298D01*
X140499Y432514D01*
X140840Y433195D01*
X140848Y433217D01*
X140860Y433238D01*
X140977Y433528D01*
X141218Y434250D01*
X141360Y434413D01*
X141455Y434545D01*
X141556Y434671D01*
X141596Y434741D01*
X141624Y434778D01*
X141650Y434833D01*
X141713Y434942D01*
X141810Y435135D01*
X142385Y435634D01*
X142401Y435651D01*
X142420Y435666D01*
X142639Y435889D01*
X143138Y436464D01*
X143332Y436561D01*
X143470Y436646D01*
X143612Y436724D01*
X143676Y436773D01*
X143715Y436797D01*
X143760Y436837D01*
X143860Y436913D01*
X144024Y437055D01*
X144746Y437296D01*
X144768Y437306D01*
X144791Y437312D01*
X145078Y437434D01*
X145759Y437774D01*
X145976Y437790D01*
X146136Y437815D01*
X146297Y437833D01*
X146374Y437854D01*
X146420Y437861D01*
X146477Y437881D01*
X146599Y437914D01*
X146804Y437982D01*
X147563Y437928D01*
X147587Y437929D01*
X147611Y437925D01*
X147923Y437928D01*
X148683Y437982D01*
X148888Y437914D01*
X149046Y437876D01*
X149201Y437831D01*
X149281Y437820D01*
X149326Y437810D01*
X149386Y437806D01*
X149511Y437790D01*
X149727Y437774D01*
X150408Y437434D01*
X150430Y437425D01*
X150451Y437413D01*
X150741Y437296D01*
X151463Y437055D01*
X151627Y436913D01*
X151758Y436819D01*
X151884Y436717D01*
X151954Y436677D01*
X151992Y436650D01*
X152046Y436624D01*
X152155Y436560D01*
X152349Y436464D01*
X152847Y435889D01*
X152864Y435872D01*
X152879Y435853D01*
X153102Y435634D01*
X153677Y435135D01*
X153774Y434941D01*
X153859Y434803D01*
X153937Y434662D01*
X153986Y434598D01*
X154010Y434558D01*
X154050Y434513D01*
X154127Y434413D01*
X154269Y434250D01*
X154509Y433528D01*
X154519Y433505D01*
X154525Y433482D01*
X154647Y433195D01*
X154988Y432514D01*
X155003Y432298D01*
X155029Y432138D01*
X155047Y431977D01*
X155067Y431899D01*
X155075Y431853D01*
X155095Y431796D01*
X155127Y431675D01*
X157161Y425573D01*
X157184Y425519D01*
X157224Y425404D01*
X157664Y424341D01*
X157672Y424267D01*
X157690Y424069D01*
X157697Y424043D01*
X157700Y424016D01*
X157780Y423714D01*
X158582Y421309D01*
X158374Y418386D01*
X157064Y415765D01*
X154850Y413845D01*
X152069Y412918D01*
X149146Y413126D01*
X148879Y413259D01*
X148768Y413303D01*
X148661Y413356D01*
X148559Y413385D01*
X148460Y413424D01*
X148343Y413447D01*
X148228Y413481D01*
X148123Y413492D01*
X148019Y413512D01*
X147899Y413515D01*
X147780Y413527D01*
X147675Y413519D01*
X147568Y413521D01*
X147450Y413503D01*
X147331Y413494D01*
X147229Y413467D01*
X147124Y413451D01*
X147011Y413411D01*
X146895Y413382D01*
X146758Y413323D01*
X146698Y413302D01*
X146665Y413284D01*
X146608Y413259D01*
X146341Y413126D01*
X143417Y412918D01*
X140637Y413845D01*
X139549Y414788D01*
X139478Y414840D01*
X139412Y414899D01*
X139295Y414972D01*
X139184Y415052D01*
X139105Y415090D01*
X139030Y415137D01*
X138902Y415188D01*
X138778Y415247D01*
X138693Y415271D01*
X138612Y415303D01*
X138477Y415331D01*
X138344Y415368D01*
X138257Y415376D01*
X138170Y415393D01*
X138033Y415397D01*
X137896Y415409D01*
X137808Y415402D01*
X137720Y415404D01*
X137584Y415383D01*
X137447Y415371D01*
X137362Y415349D01*
X137275Y415335D01*
X137145Y415290D01*
X137012Y415255D01*
X136933Y415217D01*
X136850Y415189D01*
X136729Y415122D01*
X136605Y415063D01*
X136533Y415012D01*
X136456Y414969D01*
X136350Y414882D01*
X136238Y414802D01*
X136176Y414740D01*
X136108Y414684D01*
X136019Y414579D01*
X135922Y414481D01*
X135873Y414408D01*
X135816Y414341D01*
X135746Y414223D01*
X135669Y414109D01*
X135633Y414029D01*
X135588Y413953D01*
X135541Y413824D01*
X135485Y413698D01*
X135463Y413613D01*
X135433Y413530D01*
X135409Y413395D01*
X135376Y413261D01*
X135370Y413173D01*
X135355Y413087D01*
X135356Y412949D01*
X135347Y412812D01*
X135356Y412724D01*
X135357Y412636D01*
X135381Y412501D01*
X135383Y412489D01*
X135383Y406112D01*
X133024Y400417D01*
X128665Y396058D01*
X128636Y396046D01*
X128520Y395986D01*
X128401Y395934D01*
X128321Y395882D01*
X128237Y395838D01*
X128134Y395758D01*
X128025Y395686D01*
X127956Y395620D01*
X127881Y395562D01*
X127793Y395465D01*
X127699Y395376D01*
X127643Y395298D01*
X127579Y395228D01*
X127510Y395117D01*
X127433Y395012D01*
X127391Y394926D01*
X127341Y394845D01*
X127293Y394724D01*
X127236Y394608D01*
X127210Y394516D01*
X127174Y394427D01*
X127148Y394299D01*
X127113Y394174D01*
X127103Y394080D01*
X127084Y393986D01*
X127081Y393856D01*
X127068Y393726D01*
X127076Y393631D01*
X127073Y393536D01*
X127093Y393407D01*
X127103Y393278D01*
X127128Y393185D01*
X127142Y393091D01*
X127184Y392968D01*
X127217Y392842D01*
X127258Y392755D01*
X127289Y392665D01*
X127352Y392551D01*
X127407Y392433D01*
X127461Y392355D01*
X127508Y392272D01*
X127590Y392171D01*
X127665Y392065D01*
X127733Y391997D01*
X127793Y391923D01*
X127892Y391839D01*
X127984Y391747D01*
X128063Y391693D01*
X128135Y391631D01*
X128248Y391565D01*
X128355Y391491D01*
X128471Y391434D01*
X128524Y391403D01*
X128566Y391388D01*
X128636Y391354D01*
X128665Y391342D01*
X133024Y386983D01*
X135383Y381288D01*
X135383Y375124D01*
X133024Y369429D01*
X128665Y365070D01*
X122970Y362711D01*
X116806Y362711D01*
G37*
%LPD*%
%LPC*%
G36*
X181830Y362711D02*
X181830Y362711D01*
X176135Y365070D01*
X171776Y369429D01*
X169417Y375124D01*
X169417Y381288D01*
X171776Y386983D01*
X176135Y391342D01*
X176164Y391354D01*
X176280Y391414D01*
X176399Y391466D01*
X176479Y391518D01*
X176564Y391563D01*
X176666Y391642D01*
X176775Y391714D01*
X176844Y391780D01*
X176920Y391838D01*
X177007Y391935D01*
X177101Y392025D01*
X177157Y392102D01*
X177221Y392173D01*
X177290Y392283D01*
X177367Y392388D01*
X177409Y392474D01*
X177459Y392555D01*
X177507Y392676D01*
X177564Y392793D01*
X177590Y392884D01*
X177626Y392973D01*
X177652Y393101D01*
X177687Y393226D01*
X177697Y393321D01*
X177716Y393414D01*
X177719Y393544D01*
X177732Y393674D01*
X177724Y393769D01*
X177727Y393864D01*
X177707Y393993D01*
X177697Y394123D01*
X177672Y394215D01*
X177658Y394309D01*
X177616Y394432D01*
X177583Y394558D01*
X177542Y394645D01*
X177511Y394735D01*
X177448Y394849D01*
X177393Y394967D01*
X177339Y395045D01*
X177292Y395128D01*
X177210Y395229D01*
X177135Y395336D01*
X177067Y395403D01*
X177007Y395477D01*
X176908Y395561D01*
X176816Y395653D01*
X176737Y395707D01*
X176664Y395769D01*
X176552Y395835D01*
X176445Y395909D01*
X176329Y395966D01*
X176276Y395997D01*
X176234Y396012D01*
X176164Y396046D01*
X176135Y396058D01*
X171776Y400417D01*
X169417Y406112D01*
X169417Y412276D01*
X171776Y417971D01*
X176135Y422330D01*
X181830Y424689D01*
X187994Y424689D01*
X193689Y422330D01*
X198048Y417971D01*
X200407Y412276D01*
X200407Y406112D01*
X198048Y400417D01*
X193689Y396058D01*
X193660Y396046D01*
X193544Y395986D01*
X193425Y395934D01*
X193345Y395882D01*
X193261Y395838D01*
X193158Y395758D01*
X193049Y395686D01*
X192980Y395620D01*
X192905Y395562D01*
X192817Y395465D01*
X192723Y395376D01*
X192667Y395298D01*
X192603Y395228D01*
X192534Y395117D01*
X192457Y395012D01*
X192415Y394926D01*
X192365Y394845D01*
X192317Y394724D01*
X192260Y394608D01*
X192234Y394516D01*
X192198Y394427D01*
X192172Y394299D01*
X192137Y394174D01*
X192127Y394080D01*
X192108Y393986D01*
X192105Y393856D01*
X192092Y393726D01*
X192100Y393631D01*
X192097Y393536D01*
X192117Y393407D01*
X192127Y393278D01*
X192152Y393185D01*
X192166Y393091D01*
X192208Y392968D01*
X192241Y392842D01*
X192282Y392755D01*
X192313Y392665D01*
X192376Y392551D01*
X192431Y392433D01*
X192485Y392355D01*
X192532Y392272D01*
X192614Y392171D01*
X192689Y392065D01*
X192757Y391997D01*
X192817Y391923D01*
X192916Y391839D01*
X193008Y391747D01*
X193087Y391693D01*
X193159Y391631D01*
X193272Y391565D01*
X193379Y391491D01*
X193495Y391434D01*
X193548Y391403D01*
X193590Y391388D01*
X193660Y391354D01*
X193689Y391342D01*
X198048Y386983D01*
X200407Y381288D01*
X200407Y375124D01*
X198048Y369429D01*
X193689Y365070D01*
X187994Y362711D01*
X181830Y362711D01*
G37*
%LPD*%
%LPC*%
G36*
X181830Y286511D02*
X181830Y286511D01*
X176135Y288870D01*
X171776Y293229D01*
X169417Y298924D01*
X169417Y305088D01*
X171776Y310783D01*
X176135Y315142D01*
X176164Y315154D01*
X176280Y315214D01*
X176399Y315266D01*
X176479Y315318D01*
X176564Y315363D01*
X176666Y315442D01*
X176775Y315514D01*
X176844Y315580D01*
X176920Y315638D01*
X177007Y315735D01*
X177101Y315825D01*
X177157Y315902D01*
X177221Y315973D01*
X177290Y316083D01*
X177367Y316188D01*
X177409Y316274D01*
X177459Y316355D01*
X177507Y316476D01*
X177564Y316593D01*
X177590Y316684D01*
X177626Y316773D01*
X177652Y316901D01*
X177687Y317026D01*
X177697Y317121D01*
X177716Y317214D01*
X177719Y317344D01*
X177732Y317474D01*
X177724Y317569D01*
X177727Y317664D01*
X177707Y317793D01*
X177697Y317923D01*
X177672Y318015D01*
X177658Y318109D01*
X177616Y318232D01*
X177583Y318358D01*
X177542Y318445D01*
X177511Y318535D01*
X177448Y318649D01*
X177393Y318767D01*
X177339Y318845D01*
X177292Y318928D01*
X177210Y319029D01*
X177135Y319136D01*
X177067Y319203D01*
X177007Y319277D01*
X176908Y319361D01*
X176816Y319453D01*
X176737Y319507D01*
X176664Y319569D01*
X176552Y319635D01*
X176445Y319709D01*
X176329Y319766D01*
X176276Y319797D01*
X176234Y319812D01*
X176164Y319846D01*
X176135Y319858D01*
X171776Y324217D01*
X169417Y329912D01*
X169417Y336076D01*
X171776Y341771D01*
X176135Y346130D01*
X181830Y348489D01*
X187994Y348489D01*
X193689Y346130D01*
X198048Y341771D01*
X200407Y336076D01*
X200407Y329912D01*
X198048Y324217D01*
X193689Y319858D01*
X193660Y319846D01*
X193544Y319786D01*
X193425Y319734D01*
X193345Y319682D01*
X193261Y319638D01*
X193158Y319558D01*
X193049Y319486D01*
X192980Y319420D01*
X192905Y319362D01*
X192817Y319265D01*
X192723Y319176D01*
X192667Y319098D01*
X192603Y319028D01*
X192534Y318917D01*
X192457Y318812D01*
X192415Y318726D01*
X192365Y318645D01*
X192317Y318524D01*
X192260Y318408D01*
X192234Y318316D01*
X192198Y318227D01*
X192172Y318099D01*
X192137Y317974D01*
X192127Y317880D01*
X192108Y317786D01*
X192105Y317656D01*
X192092Y317526D01*
X192100Y317431D01*
X192097Y317336D01*
X192117Y317207D01*
X192127Y317078D01*
X192152Y316985D01*
X192166Y316891D01*
X192208Y316768D01*
X192241Y316642D01*
X192282Y316555D01*
X192313Y316465D01*
X192376Y316351D01*
X192431Y316233D01*
X192485Y316155D01*
X192532Y316072D01*
X192614Y315971D01*
X192689Y315865D01*
X192757Y315797D01*
X192817Y315723D01*
X192916Y315639D01*
X193008Y315547D01*
X193087Y315493D01*
X193159Y315431D01*
X193272Y315365D01*
X193379Y315291D01*
X193495Y315234D01*
X193548Y315203D01*
X193590Y315188D01*
X193660Y315154D01*
X193689Y315142D01*
X198048Y310783D01*
X200407Y305088D01*
X200407Y298924D01*
X198048Y293229D01*
X193689Y288870D01*
X187994Y286511D01*
X181830Y286511D01*
G37*
%LPD*%
%LPC*%
G36*
X116806Y210311D02*
X116806Y210311D01*
X111111Y212670D01*
X106752Y217029D01*
X104393Y222724D01*
X104393Y228888D01*
X106752Y234583D01*
X111111Y238942D01*
X111140Y238954D01*
X111256Y239014D01*
X111375Y239066D01*
X111455Y239118D01*
X111540Y239163D01*
X111642Y239242D01*
X111751Y239314D01*
X111820Y239380D01*
X111896Y239438D01*
X111983Y239535D01*
X112077Y239625D01*
X112133Y239702D01*
X112197Y239773D01*
X112266Y239883D01*
X112343Y239988D01*
X112385Y240074D01*
X112435Y240155D01*
X112483Y240276D01*
X112540Y240393D01*
X112566Y240484D01*
X112602Y240573D01*
X112628Y240701D01*
X112663Y240826D01*
X112673Y240921D01*
X112692Y241014D01*
X112695Y241144D01*
X112708Y241274D01*
X112700Y241369D01*
X112703Y241464D01*
X112683Y241593D01*
X112673Y241723D01*
X112648Y241815D01*
X112634Y241909D01*
X112592Y242032D01*
X112559Y242158D01*
X112518Y242245D01*
X112487Y242335D01*
X112424Y242449D01*
X112369Y242567D01*
X112315Y242645D01*
X112268Y242728D01*
X112186Y242829D01*
X112111Y242936D01*
X112043Y243003D01*
X111983Y243077D01*
X111884Y243161D01*
X111792Y243253D01*
X111713Y243307D01*
X111640Y243369D01*
X111528Y243435D01*
X111421Y243509D01*
X111305Y243566D01*
X111252Y243597D01*
X111210Y243612D01*
X111140Y243646D01*
X111111Y243658D01*
X106752Y248017D01*
X104393Y253712D01*
X104393Y259876D01*
X106752Y265571D01*
X111111Y269930D01*
X116806Y272289D01*
X122970Y272289D01*
X128665Y269930D01*
X133024Y265571D01*
X135383Y259876D01*
X135383Y253712D01*
X133024Y248017D01*
X128665Y243658D01*
X128636Y243646D01*
X128520Y243586D01*
X128401Y243534D01*
X128321Y243482D01*
X128237Y243438D01*
X128134Y243358D01*
X128025Y243286D01*
X127956Y243220D01*
X127881Y243162D01*
X127793Y243065D01*
X127699Y242976D01*
X127643Y242898D01*
X127579Y242828D01*
X127510Y242717D01*
X127433Y242612D01*
X127391Y242526D01*
X127341Y242445D01*
X127293Y242324D01*
X127236Y242208D01*
X127210Y242116D01*
X127174Y242027D01*
X127148Y241899D01*
X127113Y241774D01*
X127103Y241680D01*
X127084Y241586D01*
X127081Y241456D01*
X127068Y241326D01*
X127076Y241231D01*
X127073Y241136D01*
X127093Y241007D01*
X127103Y240878D01*
X127128Y240785D01*
X127142Y240691D01*
X127184Y240568D01*
X127217Y240442D01*
X127258Y240355D01*
X127289Y240265D01*
X127352Y240151D01*
X127407Y240033D01*
X127461Y239955D01*
X127508Y239872D01*
X127590Y239771D01*
X127665Y239665D01*
X127733Y239597D01*
X127793Y239523D01*
X127892Y239439D01*
X127984Y239347D01*
X128063Y239293D01*
X128135Y239231D01*
X128248Y239165D01*
X128355Y239091D01*
X128471Y239034D01*
X128524Y239003D01*
X128566Y238988D01*
X128636Y238954D01*
X128665Y238942D01*
X133024Y234583D01*
X135383Y228888D01*
X135383Y222724D01*
X133024Y217029D01*
X128665Y212670D01*
X122970Y210311D01*
X116806Y210311D01*
G37*
%LPD*%
%LPC*%
G36*
X181830Y210311D02*
X181830Y210311D01*
X176135Y212670D01*
X171776Y217029D01*
X169417Y222724D01*
X169417Y228888D01*
X171776Y234583D01*
X176135Y238942D01*
X176164Y238954D01*
X176280Y239014D01*
X176399Y239066D01*
X176479Y239118D01*
X176564Y239163D01*
X176666Y239242D01*
X176775Y239314D01*
X176844Y239380D01*
X176920Y239438D01*
X177007Y239535D01*
X177101Y239625D01*
X177157Y239702D01*
X177221Y239773D01*
X177290Y239883D01*
X177367Y239988D01*
X177409Y240074D01*
X177459Y240155D01*
X177507Y240276D01*
X177564Y240393D01*
X177590Y240484D01*
X177626Y240573D01*
X177652Y240701D01*
X177687Y240826D01*
X177697Y240921D01*
X177716Y241014D01*
X177719Y241144D01*
X177732Y241274D01*
X177724Y241369D01*
X177727Y241464D01*
X177707Y241593D01*
X177697Y241723D01*
X177672Y241815D01*
X177658Y241909D01*
X177616Y242032D01*
X177583Y242158D01*
X177542Y242245D01*
X177511Y242335D01*
X177448Y242449D01*
X177393Y242567D01*
X177339Y242645D01*
X177292Y242728D01*
X177210Y242829D01*
X177135Y242936D01*
X177067Y243003D01*
X177007Y243077D01*
X176908Y243161D01*
X176816Y243253D01*
X176737Y243307D01*
X176664Y243369D01*
X176552Y243435D01*
X176445Y243509D01*
X176329Y243566D01*
X176276Y243597D01*
X176234Y243612D01*
X176164Y243646D01*
X176135Y243658D01*
X171776Y248017D01*
X169417Y253712D01*
X169417Y259876D01*
X171776Y265571D01*
X176135Y269930D01*
X181830Y272289D01*
X187994Y272289D01*
X193689Y269930D01*
X198048Y265571D01*
X200407Y259876D01*
X200407Y253712D01*
X198048Y248017D01*
X193689Y243658D01*
X193660Y243646D01*
X193544Y243586D01*
X193425Y243534D01*
X193345Y243482D01*
X193261Y243438D01*
X193158Y243358D01*
X193049Y243286D01*
X192980Y243220D01*
X192905Y243162D01*
X192817Y243065D01*
X192723Y242976D01*
X192667Y242898D01*
X192603Y242828D01*
X192534Y242717D01*
X192457Y242612D01*
X192415Y242526D01*
X192365Y242445D01*
X192317Y242324D01*
X192260Y242208D01*
X192234Y242116D01*
X192198Y242027D01*
X192172Y241899D01*
X192137Y241774D01*
X192127Y241680D01*
X192108Y241586D01*
X192105Y241456D01*
X192092Y241326D01*
X192100Y241231D01*
X192097Y241136D01*
X192117Y241007D01*
X192127Y240878D01*
X192152Y240785D01*
X192166Y240691D01*
X192208Y240568D01*
X192241Y240442D01*
X192282Y240355D01*
X192313Y240265D01*
X192376Y240151D01*
X192431Y240033D01*
X192485Y239955D01*
X192532Y239872D01*
X192614Y239771D01*
X192689Y239665D01*
X192757Y239597D01*
X192817Y239523D01*
X192916Y239439D01*
X193008Y239347D01*
X193087Y239293D01*
X193159Y239231D01*
X193272Y239165D01*
X193379Y239091D01*
X193495Y239034D01*
X193548Y239003D01*
X193590Y238988D01*
X193660Y238954D01*
X193689Y238942D01*
X198048Y234583D01*
X200407Y228888D01*
X200407Y222724D01*
X198048Y217029D01*
X193689Y212670D01*
X187994Y210311D01*
X181830Y210311D01*
G37*
%LPD*%
%LPC*%
G36*
X116806Y286511D02*
X116806Y286511D01*
X111111Y288870D01*
X106752Y293229D01*
X104393Y298924D01*
X104393Y305088D01*
X106752Y310783D01*
X111111Y315142D01*
X111140Y315154D01*
X111256Y315214D01*
X111375Y315266D01*
X111455Y315318D01*
X111540Y315363D01*
X111642Y315442D01*
X111751Y315514D01*
X111820Y315580D01*
X111896Y315638D01*
X111983Y315735D01*
X112077Y315825D01*
X112133Y315902D01*
X112197Y315973D01*
X112266Y316083D01*
X112343Y316188D01*
X112385Y316274D01*
X112435Y316355D01*
X112483Y316476D01*
X112540Y316593D01*
X112566Y316684D01*
X112602Y316773D01*
X112628Y316901D01*
X112663Y317026D01*
X112673Y317121D01*
X112692Y317214D01*
X112695Y317344D01*
X112708Y317474D01*
X112700Y317569D01*
X112703Y317664D01*
X112683Y317793D01*
X112673Y317923D01*
X112648Y318015D01*
X112634Y318109D01*
X112592Y318232D01*
X112559Y318358D01*
X112518Y318445D01*
X112487Y318535D01*
X112424Y318649D01*
X112369Y318767D01*
X112315Y318845D01*
X112268Y318928D01*
X112186Y319029D01*
X112111Y319136D01*
X112043Y319203D01*
X111983Y319277D01*
X111884Y319361D01*
X111792Y319453D01*
X111713Y319507D01*
X111640Y319569D01*
X111528Y319635D01*
X111421Y319709D01*
X111305Y319766D01*
X111252Y319797D01*
X111210Y319812D01*
X111140Y319846D01*
X111111Y319858D01*
X106752Y324217D01*
X104393Y329912D01*
X104393Y336076D01*
X106752Y341771D01*
X111111Y346130D01*
X116806Y348489D01*
X122970Y348489D01*
X128665Y346130D01*
X133024Y341771D01*
X135383Y336076D01*
X135383Y329912D01*
X133024Y324217D01*
X128665Y319858D01*
X128636Y319846D01*
X128520Y319786D01*
X128401Y319734D01*
X128321Y319682D01*
X128237Y319638D01*
X128134Y319558D01*
X128025Y319486D01*
X127956Y319420D01*
X127881Y319362D01*
X127793Y319265D01*
X127699Y319176D01*
X127643Y319098D01*
X127579Y319028D01*
X127510Y318917D01*
X127433Y318812D01*
X127391Y318726D01*
X127341Y318645D01*
X127293Y318524D01*
X127236Y318408D01*
X127210Y318316D01*
X127174Y318227D01*
X127148Y318099D01*
X127113Y317974D01*
X127103Y317880D01*
X127084Y317786D01*
X127081Y317656D01*
X127068Y317526D01*
X127076Y317431D01*
X127073Y317336D01*
X127093Y317207D01*
X127103Y317078D01*
X127128Y316985D01*
X127142Y316891D01*
X127184Y316768D01*
X127217Y316642D01*
X127258Y316555D01*
X127289Y316465D01*
X127352Y316351D01*
X127407Y316233D01*
X127461Y316155D01*
X127508Y316072D01*
X127590Y315971D01*
X127665Y315865D01*
X127733Y315797D01*
X127793Y315723D01*
X127892Y315639D01*
X127984Y315547D01*
X128063Y315493D01*
X128135Y315431D01*
X128248Y315365D01*
X128355Y315291D01*
X128471Y315234D01*
X128524Y315203D01*
X128566Y315188D01*
X128636Y315154D01*
X128665Y315142D01*
X133024Y310783D01*
X135383Y305088D01*
X135383Y298924D01*
X133024Y293229D01*
X128665Y288870D01*
X122970Y286511D01*
X116806Y286511D01*
G37*
%LPD*%
%LPC*%
G36*
X116806Y438911D02*
X116806Y438911D01*
X111111Y441270D01*
X106752Y445629D01*
X104393Y451324D01*
X104393Y457488D01*
X106752Y463183D01*
X111111Y467542D01*
X116806Y469901D01*
X122970Y469901D01*
X128665Y467542D01*
X133024Y463183D01*
X135383Y457488D01*
X135383Y451324D01*
X133024Y445629D01*
X128665Y441270D01*
X122970Y438911D01*
X116806Y438911D01*
G37*
%LPD*%
%LPC*%
G36*
X181830Y438911D02*
X181830Y438911D01*
X176135Y441270D01*
X171776Y445629D01*
X169417Y451324D01*
X169417Y457488D01*
X171776Y463183D01*
X176135Y467542D01*
X181830Y469901D01*
X187994Y469901D01*
X193689Y467542D01*
X198048Y463183D01*
X200407Y457488D01*
X200407Y451324D01*
X198048Y445629D01*
X193689Y441270D01*
X187994Y438911D01*
X181830Y438911D01*
G37*
%LPD*%
%LPC*%
G36*
X116806Y165099D02*
X116806Y165099D01*
X111111Y167458D01*
X106752Y171817D01*
X104393Y177512D01*
X104393Y183676D01*
X106752Y189371D01*
X111111Y193730D01*
X116806Y196089D01*
X122970Y196089D01*
X128665Y193730D01*
X133024Y189371D01*
X135383Y183676D01*
X135383Y177512D01*
X133024Y171817D01*
X128665Y167458D01*
X122970Y165099D01*
X116806Y165099D01*
G37*
%LPD*%
%LPC*%
G36*
X146281Y184403D02*
X146281Y184403D01*
X142536Y185954D01*
X139670Y188821D01*
X138119Y192566D01*
X138119Y197137D01*
X138119Y197138D01*
X138119Y201134D01*
X139670Y204879D01*
X142536Y207746D01*
X146281Y209297D01*
X152595Y209297D01*
X155303Y208175D01*
X157375Y206103D01*
X158497Y203395D01*
X158497Y190305D01*
X157375Y187597D01*
X155303Y185525D01*
X152595Y184403D01*
X146281Y184403D01*
G37*
%LPD*%
%LPC*%
G36*
X145982Y336803D02*
X145982Y336803D01*
X141792Y338821D01*
X138892Y342458D01*
X137857Y346992D01*
X138597Y350235D01*
X138623Y350422D01*
X138653Y350607D01*
X138653Y350644D01*
X138658Y350682D01*
X138650Y350869D01*
X138648Y351057D01*
X138640Y351103D01*
X138639Y351131D01*
X138626Y351192D01*
X138597Y351366D01*
X138436Y352072D01*
X139413Y356356D01*
X142153Y359790D01*
X146111Y361697D01*
X152595Y361697D01*
X155303Y360575D01*
X157375Y358503D01*
X158497Y355795D01*
X158497Y342705D01*
X157375Y339997D01*
X155303Y337925D01*
X152595Y336803D01*
X145982Y336803D01*
G37*
%LPD*%
%LPC*%
G36*
X145149Y260603D02*
X145149Y260603D01*
X142442Y261725D01*
X140369Y263797D01*
X139248Y266505D01*
X139248Y269435D01*
X140342Y272078D01*
X140392Y272235D01*
X140448Y272390D01*
X140459Y272450D01*
X140477Y272508D01*
X140498Y272671D01*
X140526Y272833D01*
X140526Y272894D01*
X140534Y272955D01*
X140526Y273119D01*
X140525Y273283D01*
X140514Y273343D01*
X140511Y273404D01*
X140474Y273564D01*
X140444Y273726D01*
X140419Y273799D01*
X140409Y273843D01*
X140385Y273899D01*
X140342Y274022D01*
X139248Y276665D01*
X139248Y279595D01*
X140369Y282303D01*
X142442Y284375D01*
X145149Y285497D01*
X150787Y285497D01*
X154324Y284031D01*
X157031Y281324D01*
X158497Y277787D01*
X158497Y268313D01*
X157031Y264776D01*
X154324Y262069D01*
X150787Y260603D01*
X145149Y260603D01*
G37*
%LPD*%
%LPC*%
G36*
X187451Y183133D02*
X187451Y183133D01*
X187451Y192279D01*
X187708Y192239D01*
X189495Y191658D01*
X191169Y190805D01*
X192690Y189700D01*
X194018Y188372D01*
X195123Y186851D01*
X195976Y185177D01*
X196557Y183390D01*
X196597Y183133D01*
X187451Y183133D01*
G37*
%LPD*%
%LPC*%
G36*
X173227Y183133D02*
X173227Y183133D01*
X173267Y183390D01*
X173848Y185177D01*
X174701Y186851D01*
X175806Y188372D01*
X177134Y189700D01*
X178655Y190805D01*
X180329Y191658D01*
X182116Y192239D01*
X182373Y192279D01*
X182373Y183133D01*
X173227Y183133D01*
G37*
%LPD*%
%LPC*%
G36*
X187451Y178055D02*
X187451Y178055D01*
X196597Y178055D01*
X196557Y177798D01*
X195976Y176011D01*
X195123Y174337D01*
X194018Y172816D01*
X192690Y171488D01*
X191169Y170383D01*
X189495Y169530D01*
X187708Y168949D01*
X187451Y168909D01*
X187451Y178055D01*
G37*
%LPD*%
%LPC*%
G36*
X182116Y168949D02*
X182116Y168949D01*
X180329Y169530D01*
X178655Y170383D01*
X177134Y171488D01*
X175806Y172816D01*
X174701Y174337D01*
X173848Y176011D01*
X173267Y177798D01*
X173227Y178055D01*
X182373Y178055D01*
X182373Y168909D01*
X182116Y168949D01*
G37*
%LPD*%
%LPC*%
G36*
X218439Y586739D02*
X218439Y586739D01*
X218439Y594742D01*
X220267Y594742D01*
X226442Y588567D01*
X226442Y586739D01*
X218439Y586739D01*
G37*
%LPD*%
%LPC*%
G36*
X218439Y573658D02*
X218439Y573658D01*
X218439Y581661D01*
X226442Y581661D01*
X226442Y579833D01*
X220267Y573658D01*
X218439Y573658D01*
G37*
%LPD*%
%LPC*%
G36*
X205358Y586739D02*
X205358Y586739D01*
X205358Y588567D01*
X211533Y594742D01*
X213361Y594742D01*
X213361Y586739D01*
X205358Y586739D01*
G37*
%LPD*%
%LPC*%
G36*
X211533Y573658D02*
X211533Y573658D01*
X205358Y579833D01*
X205358Y581661D01*
X213361Y581661D01*
X213361Y573658D01*
X211533Y573658D01*
G37*
%LPD*%
%LPC*%
G36*
X135912Y536955D02*
X135912Y536955D01*
X130555Y542312D01*
X130555Y543561D01*
X137161Y543561D01*
X137161Y536955D01*
X135912Y536955D01*
G37*
%LPD*%
D10*
X183303Y110490D02*
X183303Y80010D01*
X179917Y80010D02*
X186690Y80010D01*
X186690Y110490D02*
X179917Y110490D01*
X167806Y110490D02*
X167806Y80010D01*
X167806Y110490D02*
X159340Y110490D01*
X159134Y110487D01*
X158928Y110480D01*
X158722Y110467D01*
X158517Y110450D01*
X158312Y110427D01*
X158107Y110400D01*
X157904Y110367D01*
X157701Y110330D01*
X157499Y110287D01*
X157298Y110240D01*
X157099Y110188D01*
X156901Y110131D01*
X156704Y110069D01*
X156509Y110003D01*
X156315Y109931D01*
X156124Y109855D01*
X155934Y109775D01*
X155746Y109689D01*
X155561Y109600D01*
X155377Y109505D01*
X155196Y109407D01*
X155018Y109304D01*
X154842Y109196D01*
X154668Y109084D01*
X154498Y108969D01*
X154330Y108849D01*
X154165Y108725D01*
X154004Y108597D01*
X153845Y108465D01*
X153690Y108329D01*
X153538Y108190D01*
X153389Y108046D01*
X153245Y107900D01*
X153103Y107750D01*
X152966Y107596D01*
X152832Y107439D01*
X152702Y107279D01*
X152576Y107116D01*
X152454Y106950D01*
X152336Y106780D01*
X152222Y106608D01*
X152113Y106434D01*
X152007Y106257D01*
X151906Y106077D01*
X151810Y105894D01*
X151718Y105710D01*
X151630Y105523D01*
X151547Y105334D01*
X151469Y105144D01*
X151395Y104951D01*
X151326Y104757D01*
X151262Y104561D01*
X151203Y104363D01*
X151148Y104165D01*
X151099Y103964D01*
X151054Y103763D01*
X151014Y103561D01*
X150979Y103358D01*
X150949Y103154D01*
X150924Y102949D01*
X150904Y102744D01*
X150889Y102538D01*
X150879Y102332D01*
X150874Y102126D01*
X150874Y101920D01*
X150879Y101714D01*
X150889Y101508D01*
X150904Y101302D01*
X150924Y101097D01*
X150949Y100892D01*
X150979Y100688D01*
X151014Y100485D01*
X151054Y100283D01*
X151099Y100082D01*
X151148Y99881D01*
X151203Y99683D01*
X151262Y99485D01*
X151326Y99289D01*
X151395Y99095D01*
X151469Y98902D01*
X151547Y98712D01*
X151630Y98523D01*
X151718Y98336D01*
X151810Y98152D01*
X151906Y97969D01*
X152007Y97789D01*
X152113Y97612D01*
X152222Y97438D01*
X152336Y97266D01*
X152454Y97096D01*
X152576Y96930D01*
X152702Y96767D01*
X152832Y96607D01*
X152966Y96450D01*
X153103Y96296D01*
X153245Y96146D01*
X153389Y96000D01*
X153538Y95856D01*
X153690Y95717D01*
X153845Y95581D01*
X154004Y95449D01*
X154165Y95321D01*
X154330Y95197D01*
X154498Y95077D01*
X154668Y94962D01*
X154842Y94850D01*
X155018Y94742D01*
X155196Y94639D01*
X155377Y94541D01*
X155561Y94446D01*
X155746Y94357D01*
X155934Y94271D01*
X156124Y94191D01*
X156315Y94115D01*
X156509Y94043D01*
X156704Y93977D01*
X156901Y93915D01*
X157099Y93858D01*
X157298Y93806D01*
X157499Y93759D01*
X157701Y93716D01*
X157904Y93679D01*
X158107Y93646D01*
X158312Y93619D01*
X158517Y93596D01*
X158722Y93579D01*
X158928Y93566D01*
X159134Y93559D01*
X159340Y93556D01*
X159340Y93557D02*
X167806Y93557D01*
X157646Y93557D02*
X150873Y80010D01*
X139488Y80010D02*
X139488Y100330D01*
X140335Y108797D02*
X140335Y110490D01*
X138642Y110490D01*
X138642Y108797D01*
X140335Y108797D01*
X125624Y91863D02*
X117158Y88477D01*
X125625Y91863D02*
X125746Y91914D01*
X125865Y91968D01*
X125983Y92025D01*
X126099Y92086D01*
X126213Y92151D01*
X126325Y92219D01*
X126435Y92290D01*
X126543Y92364D01*
X126648Y92442D01*
X126751Y92523D01*
X126852Y92607D01*
X126950Y92693D01*
X127046Y92783D01*
X127139Y92875D01*
X127229Y92971D01*
X127316Y93068D01*
X127400Y93169D01*
X127481Y93272D01*
X127559Y93377D01*
X127634Y93484D01*
X127706Y93594D01*
X127774Y93706D01*
X127839Y93820D01*
X127901Y93935D01*
X127959Y94053D01*
X128013Y94172D01*
X128064Y94293D01*
X128112Y94415D01*
X128155Y94539D01*
X128195Y94663D01*
X128232Y94789D01*
X128264Y94916D01*
X128293Y95044D01*
X128317Y95173D01*
X128338Y95302D01*
X128356Y95432D01*
X128369Y95562D01*
X128378Y95693D01*
X128383Y95824D01*
X128385Y95955D01*
X128383Y96086D01*
X128376Y96217D01*
X128366Y96348D01*
X128352Y96478D01*
X128334Y96608D01*
X128312Y96737D01*
X128286Y96865D01*
X128257Y96993D01*
X128224Y97120D01*
X128186Y97245D01*
X128146Y97370D01*
X128101Y97493D01*
X128053Y97615D01*
X128001Y97735D01*
X127946Y97854D01*
X127887Y97971D01*
X127825Y98086D01*
X127759Y98200D01*
X127690Y98311D01*
X127617Y98420D01*
X127542Y98527D01*
X127463Y98632D01*
X127381Y98734D01*
X127296Y98834D01*
X127208Y98931D01*
X127118Y99026D01*
X127024Y99118D01*
X126928Y99207D01*
X126829Y99293D01*
X126728Y99376D01*
X126624Y99456D01*
X126518Y99533D01*
X126410Y99607D01*
X126299Y99677D01*
X126187Y99744D01*
X126072Y99808D01*
X125956Y99868D01*
X125838Y99925D01*
X125718Y99978D01*
X125597Y100028D01*
X125474Y100074D01*
X125350Y100116D01*
X125225Y100155D01*
X125099Y100190D01*
X124971Y100221D01*
X124843Y100248D01*
X124714Y100272D01*
X124585Y100291D01*
X124455Y100307D01*
X124324Y100319D01*
X124193Y100326D01*
X124062Y100330D01*
X123931Y100331D01*
X123931Y100330D02*
X123469Y100318D01*
X123007Y100295D01*
X122546Y100260D01*
X122086Y100215D01*
X121627Y100158D01*
X121170Y100091D01*
X120714Y100012D01*
X120260Y99923D01*
X119809Y99823D01*
X119360Y99711D01*
X118914Y99590D01*
X118471Y99457D01*
X118032Y99314D01*
X117595Y99160D01*
X117163Y98996D01*
X116735Y98821D01*
X116311Y98637D01*
X117157Y88477D02*
X117036Y88426D01*
X116917Y88372D01*
X116799Y88315D01*
X116683Y88254D01*
X116569Y88189D01*
X116457Y88121D01*
X116347Y88050D01*
X116239Y87976D01*
X116134Y87898D01*
X116031Y87817D01*
X115930Y87733D01*
X115832Y87647D01*
X115736Y87557D01*
X115643Y87465D01*
X115553Y87369D01*
X115466Y87272D01*
X115382Y87171D01*
X115301Y87068D01*
X115223Y86963D01*
X115148Y86856D01*
X115076Y86746D01*
X115008Y86634D01*
X114943Y86520D01*
X114881Y86405D01*
X114823Y86287D01*
X114769Y86168D01*
X114718Y86047D01*
X114670Y85925D01*
X114627Y85801D01*
X114587Y85677D01*
X114550Y85551D01*
X114518Y85424D01*
X114489Y85296D01*
X114465Y85167D01*
X114444Y85038D01*
X114426Y84908D01*
X114413Y84778D01*
X114404Y84647D01*
X114399Y84516D01*
X114397Y84385D01*
X114399Y84254D01*
X114406Y84123D01*
X114416Y83992D01*
X114430Y83862D01*
X114448Y83732D01*
X114470Y83603D01*
X114496Y83475D01*
X114525Y83347D01*
X114558Y83220D01*
X114596Y83095D01*
X114636Y82970D01*
X114681Y82847D01*
X114729Y82725D01*
X114781Y82605D01*
X114836Y82486D01*
X114895Y82369D01*
X114957Y82254D01*
X115023Y82140D01*
X115092Y82029D01*
X115165Y81920D01*
X115240Y81813D01*
X115319Y81708D01*
X115401Y81606D01*
X115486Y81506D01*
X115574Y81409D01*
X115664Y81314D01*
X115758Y81222D01*
X115854Y81133D01*
X115953Y81047D01*
X116054Y80964D01*
X116158Y80884D01*
X116264Y80807D01*
X116372Y80733D01*
X116483Y80663D01*
X116595Y80596D01*
X116710Y80532D01*
X116826Y80472D01*
X116944Y80415D01*
X117064Y80362D01*
X117185Y80312D01*
X117308Y80266D01*
X117432Y80224D01*
X117557Y80185D01*
X117683Y80150D01*
X117811Y80119D01*
X117939Y80092D01*
X118068Y80068D01*
X118197Y80049D01*
X118327Y80033D01*
X118458Y80021D01*
X118589Y80014D01*
X118720Y80010D01*
X118851Y80009D01*
X118851Y80010D02*
X119530Y80028D01*
X120208Y80061D01*
X120886Y80111D01*
X121562Y80177D01*
X122236Y80259D01*
X122908Y80357D01*
X123578Y80470D01*
X124245Y80600D01*
X124908Y80745D01*
X125568Y80906D01*
X126224Y81082D01*
X126876Y81274D01*
X127523Y81481D01*
X128164Y81703D01*
D11*
X177038Y559562D02*
X177038Y566166D01*
X175204Y566166D01*
X175119Y566164D01*
X175035Y566158D01*
X174951Y566148D01*
X174867Y566135D01*
X174784Y566117D01*
X174702Y566096D01*
X174621Y566071D01*
X174541Y566042D01*
X174463Y566010D01*
X174387Y565974D01*
X174312Y565934D01*
X174239Y565891D01*
X174168Y565845D01*
X174099Y565796D01*
X174032Y565743D01*
X173968Y565687D01*
X173907Y565629D01*
X173849Y565568D01*
X173793Y565504D01*
X173740Y565437D01*
X173691Y565368D01*
X173645Y565297D01*
X173602Y565224D01*
X173562Y565149D01*
X173526Y565073D01*
X173494Y564995D01*
X173465Y564915D01*
X173440Y564834D01*
X173419Y564752D01*
X173401Y564669D01*
X173388Y564585D01*
X173378Y564501D01*
X173372Y564417D01*
X173370Y564332D01*
X173372Y564247D01*
X173378Y564163D01*
X173388Y564079D01*
X173401Y563995D01*
X173419Y563912D01*
X173440Y563830D01*
X173465Y563749D01*
X173494Y563669D01*
X173526Y563591D01*
X173562Y563515D01*
X173602Y563440D01*
X173645Y563367D01*
X173691Y563296D01*
X173740Y563227D01*
X173793Y563160D01*
X173849Y563096D01*
X173907Y563035D01*
X173968Y562977D01*
X174032Y562921D01*
X174099Y562868D01*
X174168Y562819D01*
X174239Y562773D01*
X174312Y562730D01*
X174387Y562690D01*
X174463Y562654D01*
X174541Y562622D01*
X174621Y562593D01*
X174702Y562568D01*
X174784Y562547D01*
X174867Y562529D01*
X174951Y562516D01*
X175035Y562506D01*
X175119Y562500D01*
X175204Y562498D01*
X175204Y562497D02*
X177038Y562497D01*
X174837Y562497D02*
X173369Y559562D01*
X168822Y559562D02*
X166987Y559562D01*
X168822Y559562D02*
X168886Y559564D01*
X168950Y559569D01*
X169013Y559579D01*
X169076Y559592D01*
X169138Y559608D01*
X169199Y559628D01*
X169258Y559652D01*
X169316Y559679D01*
X169373Y559710D01*
X169427Y559743D01*
X169479Y559780D01*
X169530Y559820D01*
X169578Y559862D01*
X169623Y559907D01*
X169665Y559955D01*
X169705Y560006D01*
X169742Y560058D01*
X169776Y560113D01*
X169806Y560169D01*
X169833Y560227D01*
X169857Y560286D01*
X169877Y560347D01*
X169893Y560409D01*
X169906Y560472D01*
X169916Y560535D01*
X169921Y560599D01*
X169923Y560663D01*
X169922Y560663D02*
X169922Y562497D01*
X169923Y562497D02*
X169921Y562573D01*
X169915Y562648D01*
X169906Y562723D01*
X169892Y562797D01*
X169875Y562871D01*
X169853Y562943D01*
X169829Y563015D01*
X169800Y563085D01*
X169768Y563153D01*
X169733Y563220D01*
X169694Y563285D01*
X169651Y563348D01*
X169606Y563408D01*
X169558Y563466D01*
X169506Y563522D01*
X169452Y563574D01*
X169395Y563624D01*
X169336Y563671D01*
X169275Y563715D01*
X169211Y563756D01*
X169145Y563793D01*
X169077Y563827D01*
X169008Y563857D01*
X168937Y563884D01*
X168865Y563907D01*
X168792Y563926D01*
X168718Y563941D01*
X168643Y563953D01*
X168568Y563961D01*
X168493Y563965D01*
X168417Y563965D01*
X168342Y563961D01*
X168267Y563953D01*
X168192Y563941D01*
X168118Y563926D01*
X168045Y563907D01*
X167973Y563884D01*
X167902Y563857D01*
X167833Y563827D01*
X167765Y563793D01*
X167699Y563756D01*
X167635Y563715D01*
X167574Y563671D01*
X167515Y563624D01*
X167458Y563574D01*
X167404Y563522D01*
X167352Y563466D01*
X167304Y563408D01*
X167259Y563348D01*
X167216Y563285D01*
X167177Y563220D01*
X167142Y563153D01*
X167110Y563085D01*
X167081Y563015D01*
X167057Y562943D01*
X167035Y562871D01*
X167018Y562797D01*
X167004Y562723D01*
X166995Y562648D01*
X166989Y562573D01*
X166987Y562497D01*
X166987Y561763D01*
X169922Y561763D01*
X160710Y559562D02*
X160710Y566166D01*
X160710Y559562D02*
X162545Y559562D01*
X162609Y559564D01*
X162673Y559569D01*
X162736Y559579D01*
X162799Y559592D01*
X162861Y559608D01*
X162922Y559628D01*
X162981Y559652D01*
X163039Y559679D01*
X163096Y559710D01*
X163150Y559743D01*
X163202Y559780D01*
X163253Y559820D01*
X163301Y559862D01*
X163346Y559907D01*
X163388Y559955D01*
X163428Y560006D01*
X163465Y560058D01*
X163499Y560113D01*
X163529Y560169D01*
X163556Y560227D01*
X163580Y560286D01*
X163600Y560347D01*
X163616Y560409D01*
X163629Y560472D01*
X163639Y560535D01*
X163644Y560599D01*
X163646Y560663D01*
X163646Y562864D01*
X163644Y562928D01*
X163639Y562992D01*
X163629Y563055D01*
X163616Y563118D01*
X163600Y563180D01*
X163580Y563241D01*
X163556Y563300D01*
X163529Y563358D01*
X163498Y563415D01*
X163465Y563469D01*
X163428Y563521D01*
X163388Y563572D01*
X163346Y563620D01*
X163301Y563665D01*
X163253Y563707D01*
X163202Y563747D01*
X163150Y563784D01*
X163096Y563817D01*
X163039Y563848D01*
X162981Y563875D01*
X162922Y563899D01*
X162861Y563919D01*
X162799Y563935D01*
X162736Y563948D01*
X162673Y563958D01*
X162609Y563963D01*
X162545Y563965D01*
X160710Y563965D01*
X152709Y566166D02*
X152709Y559562D01*
X149774Y559562D01*
X146369Y559562D02*
X143434Y559562D01*
X146369Y559562D02*
X146369Y566166D01*
X143434Y566166D01*
X144168Y563231D02*
X146369Y563231D01*
X140053Y566166D02*
X140053Y559562D01*
X140053Y566166D02*
X138219Y566166D01*
X138134Y566164D01*
X138050Y566158D01*
X137966Y566148D01*
X137882Y566135D01*
X137799Y566117D01*
X137717Y566096D01*
X137636Y566071D01*
X137556Y566042D01*
X137478Y566010D01*
X137402Y565974D01*
X137327Y565934D01*
X137254Y565891D01*
X137183Y565845D01*
X137114Y565796D01*
X137047Y565743D01*
X136983Y565687D01*
X136922Y565629D01*
X136864Y565568D01*
X136808Y565504D01*
X136755Y565437D01*
X136706Y565368D01*
X136660Y565297D01*
X136617Y565224D01*
X136577Y565149D01*
X136541Y565073D01*
X136509Y564995D01*
X136480Y564915D01*
X136455Y564834D01*
X136434Y564752D01*
X136416Y564669D01*
X136403Y564585D01*
X136393Y564501D01*
X136387Y564417D01*
X136385Y564332D01*
X136384Y564332D02*
X136384Y561396D01*
X136385Y561396D02*
X136387Y561311D01*
X136393Y561227D01*
X136403Y561143D01*
X136416Y561059D01*
X136434Y560976D01*
X136455Y560894D01*
X136480Y560813D01*
X136509Y560733D01*
X136541Y560655D01*
X136577Y560579D01*
X136617Y560504D01*
X136660Y560431D01*
X136706Y560360D01*
X136755Y560291D01*
X136808Y560224D01*
X136864Y560160D01*
X136922Y560099D01*
X136983Y560041D01*
X137047Y559985D01*
X137114Y559932D01*
X137183Y559883D01*
X137254Y559837D01*
X137327Y559794D01*
X137402Y559754D01*
X137478Y559718D01*
X137556Y559686D01*
X137636Y559657D01*
X137717Y559632D01*
X137799Y559611D01*
X137882Y559593D01*
X137966Y559580D01*
X138050Y559570D01*
X138134Y559564D01*
X138219Y559562D01*
X140053Y559562D01*
D12*
X147743Y430530D02*
X151130Y420370D01*
X144357Y420370D02*
X147743Y430530D01*
X145203Y422910D02*
X150283Y422910D01*
X151130Y349814D02*
X148308Y349814D01*
X148202Y349812D01*
X148097Y349806D01*
X147992Y349796D01*
X147887Y349782D01*
X147783Y349765D01*
X147680Y349743D01*
X147578Y349718D01*
X147476Y349689D01*
X147376Y349656D01*
X147277Y349619D01*
X147180Y349579D01*
X147084Y349535D01*
X146989Y349487D01*
X146897Y349436D01*
X146807Y349381D01*
X146718Y349324D01*
X146632Y349263D01*
X146549Y349198D01*
X146467Y349131D01*
X146389Y349061D01*
X146313Y348987D01*
X146239Y348911D01*
X146169Y348833D01*
X146102Y348751D01*
X146037Y348668D01*
X145976Y348582D01*
X145919Y348493D01*
X145864Y348403D01*
X145813Y348311D01*
X145765Y348216D01*
X145721Y348120D01*
X145681Y348023D01*
X145644Y347924D01*
X145611Y347824D01*
X145582Y347722D01*
X145557Y347620D01*
X145535Y347517D01*
X145518Y347413D01*
X145504Y347308D01*
X145494Y347203D01*
X145488Y347098D01*
X145486Y346992D01*
X145488Y346886D01*
X145494Y346781D01*
X145504Y346676D01*
X145518Y346571D01*
X145535Y346467D01*
X145557Y346364D01*
X145582Y346262D01*
X145611Y346160D01*
X145644Y346060D01*
X145681Y345961D01*
X145721Y345864D01*
X145765Y345768D01*
X145813Y345673D01*
X145864Y345581D01*
X145919Y345491D01*
X145976Y345402D01*
X146037Y345316D01*
X146102Y345233D01*
X146169Y345151D01*
X146239Y345073D01*
X146313Y344997D01*
X146389Y344923D01*
X146467Y344853D01*
X146549Y344786D01*
X146632Y344721D01*
X146718Y344660D01*
X146807Y344603D01*
X146897Y344548D01*
X146989Y344497D01*
X147084Y344449D01*
X147180Y344405D01*
X147277Y344365D01*
X147376Y344328D01*
X147476Y344295D01*
X147578Y344266D01*
X147680Y344241D01*
X147783Y344219D01*
X147887Y344202D01*
X147992Y344188D01*
X148097Y344178D01*
X148202Y344172D01*
X148308Y344170D01*
X151130Y344170D01*
X151130Y354330D01*
X148308Y354330D01*
X148215Y354328D01*
X148122Y354322D01*
X148029Y354313D01*
X147936Y354299D01*
X147845Y354282D01*
X147754Y354261D01*
X147664Y354236D01*
X147575Y354208D01*
X147487Y354176D01*
X147401Y354140D01*
X147316Y354101D01*
X147233Y354058D01*
X147152Y354012D01*
X147073Y353962D01*
X146996Y353910D01*
X146921Y353854D01*
X146849Y353795D01*
X146779Y353733D01*
X146711Y353669D01*
X146647Y353601D01*
X146585Y353531D01*
X146526Y353459D01*
X146470Y353384D01*
X146418Y353307D01*
X146368Y353228D01*
X146322Y353147D01*
X146279Y353064D01*
X146240Y352979D01*
X146204Y352893D01*
X146172Y352805D01*
X146144Y352716D01*
X146119Y352626D01*
X146098Y352535D01*
X146081Y352444D01*
X146067Y352351D01*
X146058Y352258D01*
X146052Y352165D01*
X146050Y352072D01*
X146052Y351979D01*
X146058Y351886D01*
X146067Y351793D01*
X146081Y351700D01*
X146098Y351609D01*
X146119Y351518D01*
X146144Y351428D01*
X146172Y351339D01*
X146204Y351251D01*
X146240Y351165D01*
X146279Y351080D01*
X146322Y350997D01*
X146368Y350916D01*
X146418Y350837D01*
X146470Y350760D01*
X146526Y350685D01*
X146585Y350613D01*
X146647Y350543D01*
X146711Y350475D01*
X146779Y350411D01*
X146849Y350349D01*
X146921Y350290D01*
X146996Y350234D01*
X147073Y350182D01*
X147152Y350132D01*
X147233Y350086D01*
X147316Y350043D01*
X147401Y350004D01*
X147487Y349968D01*
X147575Y349936D01*
X147664Y349908D01*
X147754Y349883D01*
X147845Y349862D01*
X147936Y349845D01*
X148029Y349831D01*
X148122Y349822D01*
X148215Y349816D01*
X148308Y349814D01*
X148872Y267970D02*
X146614Y267970D01*
X148872Y267970D02*
X148965Y267972D01*
X149058Y267978D01*
X149151Y267987D01*
X149244Y268001D01*
X149335Y268018D01*
X149426Y268039D01*
X149516Y268064D01*
X149605Y268092D01*
X149693Y268124D01*
X149779Y268160D01*
X149864Y268199D01*
X149947Y268242D01*
X150028Y268288D01*
X150107Y268338D01*
X150184Y268390D01*
X150259Y268446D01*
X150331Y268505D01*
X150401Y268567D01*
X150469Y268631D01*
X150533Y268699D01*
X150595Y268769D01*
X150654Y268841D01*
X150710Y268916D01*
X150762Y268993D01*
X150812Y269072D01*
X150858Y269153D01*
X150901Y269236D01*
X150940Y269321D01*
X150976Y269407D01*
X151008Y269495D01*
X151036Y269584D01*
X151061Y269674D01*
X151082Y269765D01*
X151099Y269856D01*
X151113Y269949D01*
X151122Y270042D01*
X151128Y270135D01*
X151130Y270228D01*
X151130Y275872D01*
X151128Y275965D01*
X151122Y276058D01*
X151113Y276151D01*
X151099Y276244D01*
X151082Y276335D01*
X151061Y276426D01*
X151036Y276516D01*
X151008Y276605D01*
X150976Y276693D01*
X150940Y276779D01*
X150901Y276864D01*
X150858Y276947D01*
X150812Y277028D01*
X150762Y277107D01*
X150710Y277184D01*
X150654Y277259D01*
X150595Y277331D01*
X150533Y277401D01*
X150469Y277469D01*
X150401Y277533D01*
X150331Y277595D01*
X150259Y277654D01*
X150184Y277710D01*
X150107Y277762D01*
X150028Y277812D01*
X149947Y277858D01*
X149864Y277901D01*
X149779Y277940D01*
X149693Y277976D01*
X149605Y278008D01*
X149516Y278036D01*
X149426Y278061D01*
X149335Y278082D01*
X149244Y278099D01*
X149151Y278113D01*
X149058Y278122D01*
X148965Y278128D01*
X148872Y278130D01*
X146614Y278130D01*
X151130Y201930D02*
X151130Y191770D01*
X151130Y201930D02*
X148308Y201930D01*
X148202Y201928D01*
X148097Y201922D01*
X147992Y201912D01*
X147887Y201898D01*
X147783Y201881D01*
X147680Y201859D01*
X147578Y201834D01*
X147476Y201805D01*
X147376Y201772D01*
X147277Y201735D01*
X147180Y201695D01*
X147084Y201651D01*
X146989Y201603D01*
X146897Y201552D01*
X146807Y201497D01*
X146718Y201440D01*
X146632Y201379D01*
X146549Y201314D01*
X146467Y201247D01*
X146389Y201177D01*
X146313Y201103D01*
X146239Y201027D01*
X146169Y200949D01*
X146102Y200867D01*
X146037Y200784D01*
X145976Y200698D01*
X145919Y200609D01*
X145864Y200519D01*
X145813Y200427D01*
X145765Y200332D01*
X145721Y200236D01*
X145681Y200139D01*
X145644Y200040D01*
X145611Y199940D01*
X145582Y199838D01*
X145557Y199736D01*
X145535Y199633D01*
X145518Y199529D01*
X145504Y199424D01*
X145494Y199319D01*
X145488Y199214D01*
X145486Y199108D01*
X145486Y194592D01*
X145488Y194486D01*
X145494Y194381D01*
X145504Y194276D01*
X145518Y194171D01*
X145535Y194067D01*
X145557Y193964D01*
X145582Y193862D01*
X145611Y193760D01*
X145644Y193660D01*
X145681Y193561D01*
X145721Y193464D01*
X145765Y193368D01*
X145813Y193273D01*
X145864Y193181D01*
X145919Y193091D01*
X145976Y193002D01*
X146037Y192916D01*
X146102Y192833D01*
X146169Y192751D01*
X146239Y192673D01*
X146313Y192597D01*
X146389Y192523D01*
X146467Y192453D01*
X146549Y192386D01*
X146632Y192321D01*
X146718Y192260D01*
X146807Y192203D01*
X146897Y192148D01*
X146989Y192097D01*
X147084Y192049D01*
X147180Y192005D01*
X147277Y191965D01*
X147376Y191928D01*
X147476Y191895D01*
X147578Y191866D01*
X147680Y191841D01*
X147783Y191819D01*
X147887Y191802D01*
X147992Y191788D01*
X148097Y191778D01*
X148202Y191772D01*
X148308Y191770D01*
X151130Y191770D01*
D13*
X177800Y628396D02*
X177800Y641604D01*
X203200Y641604D02*
X203200Y628396D01*
X228600Y628396D02*
X228600Y641604D01*
X254000Y641604D02*
X254000Y628396D01*
X254000Y704596D02*
X254000Y717804D01*
X228600Y717804D02*
X228600Y704596D01*
X203200Y704596D02*
X203200Y717804D01*
X177800Y717804D02*
X177800Y704596D01*
D14*
X184912Y454406D03*
X119888Y454406D03*
X184912Y409194D03*
X119888Y409194D03*
X184912Y378206D03*
X119888Y378206D03*
X184912Y332994D03*
X119888Y332994D03*
X184912Y302006D03*
X119888Y302006D03*
X184912Y256794D03*
X119888Y256794D03*
X184912Y225806D03*
X119888Y225806D03*
X184912Y180594D03*
X119888Y180594D03*
D13*
X101612Y704862D02*
X101612Y718070D01*
X76612Y718070D02*
X76612Y704862D01*
X126612Y704862D02*
X126612Y718070D01*
X50800Y717804D02*
X50800Y704596D01*
X25400Y704596D02*
X25400Y717804D01*
D14*
X152400Y609600D03*
X152400Y685800D03*
X98571Y658213D03*
X28429Y687987D03*
D15*
X165100Y546100D03*
X139700Y546100D03*
D14*
X127000Y609600D03*
X127000Y685800D03*
X25400Y635000D03*
X101600Y635000D03*
X25400Y609600D03*
X101600Y609600D03*
X279400Y711200D03*
X279400Y635000D03*
X177800Y609600D03*
X254000Y609600D03*
D16*
X279400Y584200D03*
X215900Y584200D03*
D17*
X101612Y711466D02*
X101612Y723888D01*
X93980Y731520D01*
X254000Y635000D02*
X254000Y609600D01*
X254000Y635000D02*
X254000Y660400D01*
X93980Y731520D02*
X58420Y731520D01*
X50800Y723900D01*
X241300Y673100D02*
X254000Y660400D01*
X241300Y673100D02*
X158738Y673100D01*
X50800Y711200D02*
X50800Y723900D01*
X50800Y711200D02*
X50800Y698500D01*
X157976Y672338D02*
X158738Y673100D01*
X157976Y672338D02*
X76962Y672338D01*
X50800Y698500D01*
X228600Y584200D02*
X254000Y609600D01*
X228600Y584200D02*
X215900Y584200D01*
X203200Y571500D01*
X190500Y571500D01*
D18*
X190500Y571500D03*
D17*
X25400Y609600D02*
X25400Y635000D01*
X25400Y609600D02*
X63500Y571500D01*
D18*
X63500Y571500D03*
D17*
X101600Y609600D02*
X127000Y609600D01*
X101600Y609600D02*
X88900Y596900D01*
X88900Y571500D01*
D18*
X88900Y571500D03*
D17*
X152400Y635000D02*
X177800Y609600D01*
X152400Y635000D02*
X101600Y635000D01*
X88900Y635000D01*
X63500Y660400D01*
X25400Y660400D01*
X12700Y647700D01*
D18*
X38100Y571500D03*
D17*
X12700Y641338D02*
X12700Y647700D01*
X12700Y641338D02*
X11938Y640576D01*
X11938Y597662D01*
X38100Y571500D01*
X76612Y698088D02*
X76612Y711466D01*
X76612Y698088D02*
X88900Y685800D01*
X127000Y685800D01*
X152400Y685800D01*
X177800Y698500D02*
X177800Y711200D01*
X177800Y698500D02*
X190500Y685800D01*
X152400Y685800D01*
X190500Y685800D02*
X279400Y685800D01*
X254000Y711200D01*
X292862Y672338D02*
X292862Y597662D01*
X279400Y584200D01*
X292862Y672338D02*
X279400Y685800D01*
X28429Y687987D02*
X25400Y691016D01*
X25400Y711200D01*
X98571Y658213D02*
X218087Y658213D01*
X228600Y647700D01*
X228600Y635000D01*
X203200Y635000D02*
X203200Y609600D01*
X177800Y584200D01*
X127000Y584200D01*
X152400Y609600D01*
X127000Y584200D02*
X114300Y571500D01*
D18*
X114300Y571500D03*
D17*
X203200Y711200D02*
X185928Y728472D01*
X169672Y728472D02*
X152400Y711200D01*
X126878Y711200D01*
X126612Y711466D01*
X169672Y728472D02*
X185928Y728472D01*
X228600Y711200D02*
X245872Y728472D01*
X262128Y728472D02*
X279400Y711200D01*
X262128Y728472D02*
X245872Y728472D01*
X279400Y635000D02*
X279400Y609600D01*
X241300Y571500D01*
D18*
X241300Y571500D03*
M02*
