G04 EAGLE Gerber X2 export*
%TF.Part,Single*%
%TF.FileFunction,Copper,L1,Top,Mixed*%
%TF.FilePolarity,Positive*%
%TF.GenerationSoftware,Autodesk,EAGLE,8.7.0*%
%TF.CreationDate,2018-05-28T14:24:44Z*%
G75*
%MOMM*%
%FSLAX34Y34*%
%LPD*%
%AMOC8*
5,1,8,0,0,1.08239X$1,22.5*%
G01*
%ADD10C,0.152400*%
%ADD11C,0.762000*%
%ADD12C,1.320800*%
%ADD13C,1.879600*%
%ADD14P,1.429621X8X202.500000*%
%ADD15P,1.732040X8X22.500000*%
%ADD16C,0.756400*%
%ADD17C,0.508000*%

G36*
X304835Y-2536D02*
X304835Y-2536D01*
X304869Y-2538D01*
X305058Y-2516D01*
X305249Y-2499D01*
X305282Y-2490D01*
X305316Y-2486D01*
X305499Y-2431D01*
X305683Y-2381D01*
X305714Y-2366D01*
X305747Y-2356D01*
X305918Y-2269D01*
X306090Y-2187D01*
X306118Y-2167D01*
X306149Y-2152D01*
X306301Y-2036D01*
X306456Y-1925D01*
X306480Y-1900D01*
X306507Y-1880D01*
X306636Y-1740D01*
X306770Y-1603D01*
X306789Y-1574D01*
X306813Y-1548D01*
X306915Y-1387D01*
X307022Y-1230D01*
X307036Y-1198D01*
X307054Y-1169D01*
X307127Y-992D01*
X307204Y-818D01*
X307212Y-784D01*
X307225Y-752D01*
X307265Y-565D01*
X307311Y-380D01*
X307313Y-346D01*
X307320Y-312D01*
X307339Y0D01*
X307339Y736600D01*
X307336Y736635D01*
X307338Y736669D01*
X307316Y736858D01*
X307299Y737049D01*
X307290Y737082D01*
X307286Y737116D01*
X307231Y737299D01*
X307181Y737483D01*
X307166Y737514D01*
X307156Y737547D01*
X307069Y737718D01*
X306987Y737890D01*
X306967Y737918D01*
X306952Y737949D01*
X306836Y738101D01*
X306725Y738256D01*
X306700Y738280D01*
X306680Y738307D01*
X306540Y738436D01*
X306403Y738570D01*
X306374Y738589D01*
X306348Y738613D01*
X306187Y738715D01*
X306030Y738822D01*
X305998Y738836D01*
X305969Y738854D01*
X305792Y738927D01*
X305618Y739004D01*
X305584Y739012D01*
X305552Y739025D01*
X305365Y739065D01*
X305180Y739111D01*
X305146Y739113D01*
X305112Y739120D01*
X304800Y739139D01*
X0Y739139D01*
X-35Y739136D01*
X-69Y739138D01*
X-258Y739116D01*
X-449Y739099D01*
X-482Y739090D01*
X-516Y739086D01*
X-699Y739031D01*
X-883Y738981D01*
X-914Y738966D01*
X-947Y738956D01*
X-1118Y738869D01*
X-1290Y738787D01*
X-1318Y738767D01*
X-1349Y738752D01*
X-1501Y738636D01*
X-1656Y738525D01*
X-1680Y738500D01*
X-1707Y738480D01*
X-1836Y738340D01*
X-1970Y738203D01*
X-1989Y738174D01*
X-2013Y738148D01*
X-2115Y737987D01*
X-2222Y737830D01*
X-2236Y737798D01*
X-2254Y737769D01*
X-2327Y737592D01*
X-2404Y737418D01*
X-2412Y737384D01*
X-2425Y737352D01*
X-2465Y737165D01*
X-2511Y736980D01*
X-2513Y736946D01*
X-2520Y736912D01*
X-2539Y736600D01*
X-2539Y726363D01*
X-2537Y726340D01*
X-2539Y726317D01*
X-2517Y726116D01*
X-2499Y725915D01*
X-2493Y725892D01*
X-2491Y725869D01*
X-2434Y725676D01*
X-2381Y725480D01*
X-2371Y725459D01*
X-2364Y725437D01*
X-2274Y725256D01*
X-2187Y725074D01*
X-2174Y725055D01*
X-2164Y725034D01*
X-2043Y724871D01*
X-1925Y724708D01*
X-1909Y724692D01*
X-1895Y724673D01*
X-1747Y724535D01*
X-1603Y724394D01*
X-1583Y724381D01*
X-1567Y724365D01*
X-1397Y724255D01*
X-1230Y724141D01*
X-1208Y724132D01*
X-1189Y724120D01*
X-1003Y724041D01*
X-818Y723959D01*
X-795Y723954D01*
X-774Y723945D01*
X-577Y723901D01*
X-380Y723853D01*
X-357Y723851D01*
X-335Y723846D01*
X-133Y723837D01*
X69Y723825D01*
X92Y723828D01*
X115Y723827D01*
X315Y723853D01*
X516Y723877D01*
X539Y723884D01*
X561Y723887D01*
X753Y723948D01*
X947Y724007D01*
X968Y724018D01*
X990Y724025D01*
X1270Y724164D01*
X4839Y726225D01*
X7040Y726225D01*
X12433Y726225D01*
X12918Y725945D01*
X13057Y725881D01*
X13191Y725808D01*
X13260Y725786D01*
X13326Y725755D01*
X13474Y725716D01*
X13620Y725669D01*
X13692Y725659D01*
X13762Y725641D01*
X13914Y725629D01*
X14066Y725608D01*
X14138Y725611D01*
X14211Y725605D01*
X14363Y725620D01*
X14516Y725626D01*
X14587Y725642D01*
X14659Y725649D01*
X14806Y725690D01*
X14955Y725724D01*
X15022Y725752D01*
X15092Y725771D01*
X15230Y725838D01*
X15371Y725897D01*
X15432Y725937D01*
X15497Y725968D01*
X15620Y726058D01*
X15749Y726142D01*
X15819Y726203D01*
X15860Y726234D01*
X15900Y726275D01*
X15983Y726349D01*
X18206Y728571D01*
X22874Y730505D01*
X27926Y730505D01*
X32594Y728571D01*
X36167Y724998D01*
X37662Y721389D01*
X37676Y721362D01*
X37686Y721333D01*
X37781Y721162D01*
X37871Y720990D01*
X37889Y720966D01*
X37904Y720939D01*
X38027Y720787D01*
X38147Y720634D01*
X38169Y720613D01*
X38188Y720590D01*
X38337Y720462D01*
X38481Y720332D01*
X38507Y720316D01*
X38530Y720296D01*
X38698Y720197D01*
X38863Y720094D01*
X38891Y720083D01*
X38918Y720067D01*
X39100Y720000D01*
X39281Y719927D01*
X39311Y719921D01*
X39340Y719911D01*
X39531Y719876D01*
X39723Y719837D01*
X39753Y719836D01*
X39783Y719831D01*
X39977Y719831D01*
X40173Y719826D01*
X40203Y719831D01*
X40233Y719831D01*
X40424Y719865D01*
X40618Y719895D01*
X40647Y719905D01*
X40676Y719911D01*
X40859Y719978D01*
X41044Y720042D01*
X41070Y720056D01*
X41099Y720067D01*
X41267Y720166D01*
X41437Y720261D01*
X41460Y720280D01*
X41486Y720296D01*
X41634Y720423D01*
X41785Y720546D01*
X41805Y720569D01*
X41828Y720589D01*
X41951Y720740D01*
X42078Y720889D01*
X42093Y720915D01*
X42112Y720938D01*
X42271Y721208D01*
X42979Y722597D01*
X43825Y723761D01*
X44843Y724779D01*
X46007Y725625D01*
X47290Y726279D01*
X48261Y726594D01*
X48261Y711200D01*
X48261Y695806D01*
X47290Y696121D01*
X46503Y696522D01*
X46499Y696524D01*
X46496Y696526D01*
X46289Y696608D01*
X46086Y696690D01*
X46081Y696691D01*
X46077Y696692D01*
X45856Y696738D01*
X45645Y696782D01*
X45640Y696782D01*
X45636Y696783D01*
X45416Y696788D01*
X45195Y696794D01*
X45190Y696793D01*
X45186Y696793D01*
X44972Y696760D01*
X44749Y696727D01*
X44745Y696725D01*
X44741Y696725D01*
X44535Y696654D01*
X44323Y696582D01*
X44319Y696580D01*
X44315Y696578D01*
X44120Y696469D01*
X43929Y696364D01*
X43926Y696361D01*
X43922Y696359D01*
X43751Y696219D01*
X43580Y696080D01*
X43577Y696076D01*
X43574Y696074D01*
X43431Y695907D01*
X43286Y695738D01*
X43284Y695734D01*
X43281Y695731D01*
X43169Y695540D01*
X43057Y695350D01*
X43056Y695346D01*
X43054Y695343D01*
X42976Y695132D01*
X42901Y694928D01*
X42900Y694924D01*
X42899Y694920D01*
X42859Y694698D01*
X42821Y694485D01*
X42821Y694481D01*
X42820Y694476D01*
X42821Y694256D01*
X42821Y694035D01*
X42822Y694030D01*
X42822Y694026D01*
X42861Y693810D01*
X42901Y693592D01*
X42902Y693588D01*
X42903Y693583D01*
X43004Y693288D01*
X43923Y691069D01*
X43923Y687658D01*
X43941Y687460D01*
X43954Y687264D01*
X43961Y687237D01*
X43963Y687209D01*
X44015Y687019D01*
X44063Y686827D01*
X44075Y686802D01*
X44082Y686775D01*
X44166Y686597D01*
X44247Y686417D01*
X44263Y686393D01*
X44275Y686368D01*
X44390Y686208D01*
X44501Y686045D01*
X44521Y686025D01*
X44537Y686002D01*
X44679Y685864D01*
X44817Y685724D01*
X44840Y685707D01*
X44860Y685688D01*
X45024Y685577D01*
X45185Y685463D01*
X45210Y685452D01*
X45233Y685436D01*
X45414Y685356D01*
X45592Y685272D01*
X45619Y685265D01*
X45645Y685254D01*
X45837Y685207D01*
X46027Y685156D01*
X46055Y685154D01*
X46082Y685147D01*
X46279Y685135D01*
X46476Y685118D01*
X46504Y685121D01*
X46532Y685119D01*
X46728Y685142D01*
X46924Y685161D01*
X46951Y685168D01*
X46979Y685171D01*
X47168Y685228D01*
X47358Y685281D01*
X47383Y685293D01*
X47410Y685302D01*
X47586Y685391D01*
X47764Y685477D01*
X47786Y685493D01*
X47811Y685506D01*
X47968Y685625D01*
X48128Y685741D01*
X48139Y685751D01*
X51670Y687325D01*
X55860Y687325D01*
X56100Y687186D01*
X56227Y687127D01*
X56348Y687060D01*
X56430Y687033D01*
X56509Y686996D01*
X56643Y686961D01*
X56775Y686917D01*
X56860Y686904D01*
X56944Y686882D01*
X57082Y686871D01*
X57220Y686850D01*
X57307Y686853D01*
X57393Y686846D01*
X57531Y686859D01*
X57670Y686864D01*
X57755Y686881D01*
X57841Y686890D01*
X57975Y686928D01*
X58111Y686956D01*
X58218Y686997D01*
X58274Y687012D01*
X58319Y687034D01*
X58404Y687066D01*
X58985Y687325D01*
X63175Y687325D01*
X66294Y685524D01*
X66315Y685514D01*
X66334Y685501D01*
X66519Y685419D01*
X66703Y685334D01*
X66725Y685328D01*
X66746Y685319D01*
X66943Y685271D01*
X67138Y685220D01*
X67161Y685218D01*
X67184Y685212D01*
X67385Y685200D01*
X67587Y685184D01*
X67610Y685186D01*
X67633Y685185D01*
X67834Y685208D01*
X68035Y685228D01*
X68057Y685234D01*
X68080Y685237D01*
X68275Y685295D01*
X68468Y685350D01*
X68489Y685360D01*
X68511Y685367D01*
X68691Y685459D01*
X68873Y685547D01*
X68892Y685561D01*
X68913Y685571D01*
X69073Y685693D01*
X69237Y685813D01*
X69253Y685829D01*
X69271Y685843D01*
X69409Y685992D01*
X69548Y686138D01*
X69561Y686157D01*
X69577Y686174D01*
X69685Y686345D01*
X69797Y686514D01*
X69806Y686535D01*
X69818Y686554D01*
X69895Y686741D01*
X69975Y686927D01*
X69981Y686950D01*
X69989Y686971D01*
X70032Y687169D01*
X70078Y687365D01*
X70079Y687388D01*
X70084Y687411D01*
X70103Y687723D01*
X70103Y687926D01*
X70240Y688255D01*
X70247Y688278D01*
X70258Y688300D01*
X70314Y688493D01*
X70374Y688685D01*
X70377Y688709D01*
X70384Y688732D01*
X70406Y688932D01*
X70431Y689132D01*
X70430Y689156D01*
X70432Y689180D01*
X70418Y689380D01*
X70408Y689581D01*
X70403Y689605D01*
X70401Y689629D01*
X70332Y689934D01*
X69995Y691100D01*
X70102Y692063D01*
X70103Y692143D01*
X70114Y692222D01*
X70108Y692368D01*
X70111Y692513D01*
X70099Y692592D01*
X70096Y692672D01*
X70064Y692814D01*
X70042Y692958D01*
X70016Y693033D01*
X69998Y693111D01*
X69942Y693246D01*
X69894Y693384D01*
X69855Y693453D01*
X69825Y693527D01*
X69745Y693650D01*
X69674Y693776D01*
X69624Y693838D01*
X69580Y693905D01*
X69409Y694098D01*
X69388Y694124D01*
X69382Y694130D01*
X69373Y694139D01*
X65845Y697668D01*
X64175Y701700D01*
X64173Y701704D01*
X64171Y701708D01*
X64067Y701905D01*
X63966Y702099D01*
X63963Y702103D01*
X63961Y702106D01*
X63825Y702282D01*
X63690Y702455D01*
X63687Y702458D01*
X63684Y702461D01*
X63522Y702607D01*
X63356Y702757D01*
X63352Y702759D01*
X63349Y702762D01*
X63162Y702878D01*
X62974Y702995D01*
X62970Y702996D01*
X62966Y702999D01*
X62760Y703080D01*
X62555Y703161D01*
X62551Y703162D01*
X62547Y703164D01*
X62331Y703207D01*
X62114Y703251D01*
X62110Y703252D01*
X62106Y703252D01*
X61881Y703257D01*
X61664Y703262D01*
X61660Y703262D01*
X61656Y703262D01*
X61432Y703226D01*
X61219Y703193D01*
X61215Y703192D01*
X61211Y703191D01*
X60999Y703118D01*
X60793Y703047D01*
X60790Y703045D01*
X60786Y703043D01*
X60594Y702936D01*
X60400Y702828D01*
X60397Y702825D01*
X60393Y702823D01*
X60225Y702684D01*
X60052Y702542D01*
X60049Y702539D01*
X60046Y702536D01*
X59902Y702367D01*
X59759Y702200D01*
X59757Y702196D01*
X59754Y702193D01*
X59641Y701998D01*
X59532Y701811D01*
X59530Y701807D01*
X59528Y701804D01*
X59414Y701513D01*
X59275Y701086D01*
X58621Y699803D01*
X57775Y698639D01*
X56757Y697621D01*
X55593Y696775D01*
X54310Y696121D01*
X53339Y695806D01*
X53339Y711200D01*
X53339Y726594D01*
X54310Y726279D01*
X55593Y725625D01*
X56757Y724779D01*
X57775Y723761D01*
X58621Y722597D01*
X59275Y721314D01*
X59317Y721185D01*
X59318Y721181D01*
X59319Y721177D01*
X59407Y720974D01*
X59493Y720771D01*
X59496Y720767D01*
X59497Y720763D01*
X59621Y720577D01*
X59740Y720394D01*
X59743Y720391D01*
X59746Y720388D01*
X59903Y720223D01*
X60050Y720067D01*
X60053Y720065D01*
X60056Y720062D01*
X60240Y719927D01*
X60412Y719800D01*
X60416Y719798D01*
X60420Y719796D01*
X60617Y719700D01*
X60816Y719601D01*
X60820Y719600D01*
X60824Y719598D01*
X61032Y719539D01*
X61249Y719477D01*
X61253Y719476D01*
X61257Y719475D01*
X61477Y719453D01*
X61697Y719431D01*
X61701Y719431D01*
X61705Y719431D01*
X61929Y719448D01*
X62146Y719465D01*
X62150Y719466D01*
X62154Y719466D01*
X62369Y719522D01*
X62582Y719577D01*
X62586Y719579D01*
X62590Y719580D01*
X62792Y719674D01*
X62991Y719765D01*
X62995Y719767D01*
X62998Y719769D01*
X63182Y719897D01*
X63361Y720022D01*
X63364Y720025D01*
X63367Y720027D01*
X63523Y720185D01*
X63679Y720340D01*
X63682Y720344D01*
X63685Y720347D01*
X63811Y720530D01*
X63936Y720710D01*
X63938Y720714D01*
X63941Y720717D01*
X64078Y720998D01*
X65845Y725264D01*
X69418Y728837D01*
X74086Y730771D01*
X79138Y730771D01*
X83806Y728837D01*
X87379Y725264D01*
X88695Y722088D01*
X88709Y722061D01*
X88719Y722032D01*
X88813Y721862D01*
X88903Y721689D01*
X88922Y721665D01*
X88937Y721638D01*
X89059Y721487D01*
X89179Y721333D01*
X89202Y721312D01*
X89221Y721289D01*
X89369Y721162D01*
X89513Y721031D01*
X89539Y721015D01*
X89562Y720995D01*
X89730Y720896D01*
X89896Y720793D01*
X89924Y720782D01*
X89950Y720766D01*
X90133Y720699D01*
X90314Y720626D01*
X90344Y720620D01*
X90372Y720610D01*
X90564Y720575D01*
X90755Y720536D01*
X90786Y720536D01*
X90815Y720530D01*
X91010Y720530D01*
X91205Y720525D01*
X91235Y720530D01*
X91266Y720530D01*
X91457Y720564D01*
X91650Y720594D01*
X91679Y720604D01*
X91709Y720610D01*
X91892Y720677D01*
X92076Y720741D01*
X92103Y720755D01*
X92131Y720766D01*
X92299Y720865D01*
X92469Y720960D01*
X92493Y720979D01*
X92519Y720995D01*
X92667Y721122D01*
X92818Y721245D01*
X92837Y721268D01*
X92860Y721288D01*
X92984Y721440D01*
X93110Y721588D01*
X93126Y721614D01*
X93145Y721637D01*
X93303Y721907D01*
X93791Y722863D01*
X94637Y724027D01*
X95655Y725045D01*
X96819Y725891D01*
X98102Y726545D01*
X99073Y726860D01*
X99073Y711466D01*
X99076Y711432D01*
X99074Y711397D01*
X99096Y711208D01*
X99112Y711018D01*
X99122Y710984D01*
X99126Y710950D01*
X99181Y710767D01*
X99231Y710583D01*
X99246Y710552D01*
X99256Y710519D01*
X99343Y710348D01*
X99424Y710177D01*
X99445Y710149D01*
X99460Y710118D01*
X99575Y709966D01*
X99687Y709811D01*
X99711Y709787D01*
X99732Y709759D01*
X99872Y709630D01*
X100009Y709497D01*
X100038Y709477D01*
X100063Y709454D01*
X100224Y709351D01*
X100382Y709245D01*
X100414Y709231D01*
X100443Y709212D01*
X100620Y709140D01*
X100794Y709062D01*
X100828Y709054D01*
X100860Y709041D01*
X101046Y709001D01*
X101231Y708956D01*
X101266Y708954D01*
X101300Y708946D01*
X101612Y708927D01*
X101647Y708930D01*
X101681Y708928D01*
X101871Y708950D01*
X102061Y708967D01*
X102094Y708976D01*
X102128Y708980D01*
X102311Y709035D01*
X102495Y709086D01*
X102526Y709100D01*
X102559Y709110D01*
X102730Y709197D01*
X102902Y709279D01*
X102930Y709299D01*
X102961Y709315D01*
X103113Y709430D01*
X103268Y709541D01*
X103292Y709566D01*
X103319Y709587D01*
X103449Y709727D01*
X103582Y709864D01*
X103601Y709892D01*
X103625Y709918D01*
X103727Y710079D01*
X103834Y710237D01*
X103848Y710268D01*
X103866Y710298D01*
X103939Y710474D01*
X104016Y710649D01*
X104024Y710682D01*
X104037Y710714D01*
X104078Y710901D01*
X104123Y711086D01*
X104125Y711120D01*
X104132Y711154D01*
X104151Y711466D01*
X104151Y726860D01*
X105122Y726545D01*
X106405Y725891D01*
X107569Y725045D01*
X108587Y724027D01*
X109433Y722863D01*
X109921Y721907D01*
X109937Y721881D01*
X109949Y721853D01*
X110056Y721690D01*
X110160Y721525D01*
X110180Y721503D01*
X110197Y721477D01*
X110332Y721336D01*
X110463Y721192D01*
X110487Y721173D01*
X110508Y721151D01*
X110665Y721036D01*
X110819Y720917D01*
X110846Y720903D01*
X110871Y720885D01*
X111046Y720800D01*
X111219Y720710D01*
X111248Y720701D01*
X111276Y720688D01*
X111463Y720635D01*
X111649Y720577D01*
X111680Y720573D01*
X111709Y720565D01*
X111903Y720546D01*
X112096Y720522D01*
X112126Y720523D01*
X112157Y720520D01*
X112351Y720536D01*
X112546Y720546D01*
X112575Y720553D01*
X112606Y720556D01*
X112794Y720605D01*
X112984Y720650D01*
X113012Y720662D01*
X113041Y720670D01*
X113218Y720751D01*
X113397Y720829D01*
X113422Y720846D01*
X113450Y720859D01*
X113610Y720971D01*
X113772Y721079D01*
X113794Y721100D01*
X113819Y721117D01*
X113956Y721255D01*
X114097Y721390D01*
X114115Y721415D01*
X114136Y721436D01*
X114247Y721597D01*
X114361Y721755D01*
X114375Y721782D01*
X114392Y721807D01*
X114529Y722088D01*
X115845Y725264D01*
X119418Y728837D01*
X124086Y730771D01*
X129138Y730771D01*
X133806Y728837D01*
X137379Y725264D01*
X139313Y720596D01*
X139313Y702336D01*
X138746Y700968D01*
X138693Y700798D01*
X138633Y700631D01*
X138626Y700584D01*
X138611Y700538D01*
X138589Y700362D01*
X138560Y700187D01*
X138561Y700139D01*
X138555Y700091D01*
X138564Y699914D01*
X138566Y699736D01*
X138575Y699689D01*
X138578Y699642D01*
X138618Y699469D01*
X138652Y699294D01*
X138669Y699250D01*
X138680Y699203D01*
X138750Y699040D01*
X138814Y698874D01*
X138839Y698834D01*
X138858Y698790D01*
X138956Y698641D01*
X139048Y698490D01*
X139080Y698454D01*
X139106Y698414D01*
X139228Y698286D01*
X139346Y698152D01*
X139384Y698123D01*
X139417Y698088D01*
X139560Y697983D01*
X139699Y697873D01*
X139741Y697850D01*
X139780Y697822D01*
X139939Y697744D01*
X140096Y697660D01*
X140141Y697645D01*
X140184Y697624D01*
X140355Y697576D01*
X140524Y697521D01*
X140572Y697514D01*
X140618Y697501D01*
X140794Y697484D01*
X140970Y697460D01*
X141018Y697462D01*
X141066Y697457D01*
X141242Y697471D01*
X141420Y697478D01*
X141467Y697488D01*
X141515Y697492D01*
X141686Y697537D01*
X141860Y697576D01*
X141904Y697594D01*
X141950Y697606D01*
X142111Y697681D01*
X142275Y697749D01*
X142315Y697775D01*
X142359Y697795D01*
X142504Y697897D01*
X142653Y697994D01*
X142698Y698033D01*
X142728Y698054D01*
X142772Y698098D01*
X142888Y698200D01*
X143623Y698936D01*
X149318Y701295D01*
X155482Y701295D01*
X157739Y700360D01*
X157828Y700332D01*
X157915Y700295D01*
X158043Y700265D01*
X158168Y700225D01*
X158262Y700213D01*
X158353Y700192D01*
X158484Y700185D01*
X158615Y700168D01*
X158709Y700173D01*
X158803Y700168D01*
X158933Y700185D01*
X159065Y700192D01*
X159156Y700213D01*
X159249Y700225D01*
X159375Y700264D01*
X159503Y700294D01*
X159590Y700331D01*
X159679Y700359D01*
X159796Y700419D01*
X159917Y700472D01*
X159995Y700523D01*
X160078Y700567D01*
X160183Y700647D01*
X160293Y700720D01*
X160361Y700785D01*
X160435Y700842D01*
X160523Y700940D01*
X160618Y701030D01*
X160674Y701106D01*
X160737Y701176D01*
X160852Y701350D01*
X160884Y701394D01*
X160893Y701411D01*
X160910Y701436D01*
X161234Y701999D01*
X163830Y703497D01*
X163867Y703524D01*
X163909Y703545D01*
X164051Y703653D01*
X164198Y703756D01*
X164231Y703789D01*
X164267Y703817D01*
X164389Y703949D01*
X164515Y704076D01*
X164541Y704114D01*
X164573Y704148D01*
X164669Y704299D01*
X164770Y704447D01*
X164790Y704489D01*
X164814Y704528D01*
X164883Y704694D01*
X164956Y704857D01*
X164968Y704901D01*
X164985Y704944D01*
X165023Y705119D01*
X165067Y705293D01*
X165070Y705339D01*
X165080Y705384D01*
X165099Y705696D01*
X165099Y720330D01*
X167033Y724998D01*
X170606Y728571D01*
X175274Y730505D01*
X180326Y730505D01*
X184994Y728571D01*
X188704Y724861D01*
X188731Y724839D01*
X188754Y724813D01*
X188903Y724695D01*
X189050Y724572D01*
X189080Y724555D01*
X189107Y724533D01*
X189275Y724443D01*
X189441Y724349D01*
X189473Y724337D01*
X189504Y724321D01*
X189685Y724262D01*
X189865Y724198D01*
X189899Y724192D01*
X189932Y724182D01*
X190121Y724156D01*
X190309Y724124D01*
X190344Y724125D01*
X190378Y724120D01*
X190569Y724128D01*
X190760Y724131D01*
X190794Y724137D01*
X190828Y724139D01*
X191014Y724180D01*
X191202Y724216D01*
X191234Y724229D01*
X191268Y724236D01*
X191443Y724310D01*
X191622Y724378D01*
X191651Y724397D01*
X191683Y724410D01*
X191843Y724513D01*
X192006Y724612D01*
X192032Y724635D01*
X192061Y724654D01*
X192296Y724861D01*
X196006Y728571D01*
X200674Y730505D01*
X205726Y730505D01*
X210394Y728571D01*
X214104Y724861D01*
X214131Y724839D01*
X214154Y724813D01*
X214303Y724695D01*
X214450Y724572D01*
X214480Y724555D01*
X214507Y724533D01*
X214675Y724443D01*
X214841Y724349D01*
X214873Y724337D01*
X214904Y724321D01*
X215085Y724262D01*
X215265Y724198D01*
X215299Y724192D01*
X215332Y724182D01*
X215521Y724156D01*
X215709Y724124D01*
X215744Y724125D01*
X215778Y724120D01*
X215969Y724128D01*
X216160Y724131D01*
X216194Y724137D01*
X216228Y724139D01*
X216414Y724180D01*
X216602Y724216D01*
X216634Y724229D01*
X216668Y724236D01*
X216843Y724310D01*
X217022Y724378D01*
X217051Y724397D01*
X217083Y724410D01*
X217243Y724513D01*
X217406Y724612D01*
X217432Y724635D01*
X217461Y724654D01*
X217696Y724861D01*
X221406Y728571D01*
X226074Y730505D01*
X231126Y730505D01*
X235794Y728571D01*
X239504Y724861D01*
X239531Y724839D01*
X239554Y724813D01*
X239703Y724695D01*
X239850Y724572D01*
X239880Y724555D01*
X239907Y724533D01*
X240075Y724443D01*
X240241Y724349D01*
X240273Y724337D01*
X240304Y724321D01*
X240485Y724262D01*
X240665Y724198D01*
X240699Y724192D01*
X240732Y724182D01*
X240921Y724156D01*
X241109Y724124D01*
X241144Y724125D01*
X241178Y724120D01*
X241369Y724128D01*
X241560Y724131D01*
X241594Y724137D01*
X241628Y724139D01*
X241814Y724180D01*
X242002Y724216D01*
X242034Y724229D01*
X242068Y724236D01*
X242243Y724310D01*
X242422Y724378D01*
X242451Y724397D01*
X242483Y724410D01*
X242643Y724513D01*
X242806Y724612D01*
X242832Y724635D01*
X242861Y724654D01*
X243096Y724861D01*
X246806Y728571D01*
X251474Y730505D01*
X256526Y730505D01*
X261194Y728571D01*
X264767Y724998D01*
X265222Y723900D01*
X265260Y723827D01*
X265290Y723750D01*
X265364Y723628D01*
X265431Y723501D01*
X265481Y723436D01*
X265524Y723366D01*
X265619Y723258D01*
X265706Y723145D01*
X265767Y723090D01*
X265822Y723028D01*
X265934Y722940D01*
X266040Y722843D01*
X266111Y722800D01*
X266175Y722749D01*
X266301Y722681D01*
X266423Y722606D01*
X266499Y722575D01*
X266572Y722536D01*
X266708Y722492D01*
X266841Y722439D01*
X266922Y722422D01*
X267000Y722397D01*
X267142Y722377D01*
X267282Y722349D01*
X267365Y722347D01*
X267446Y722336D01*
X267589Y722341D01*
X267732Y722338D01*
X267814Y722351D01*
X267896Y722354D01*
X268036Y722385D01*
X268177Y722407D01*
X268255Y722434D01*
X268336Y722452D01*
X268468Y722507D01*
X268603Y722553D01*
X268675Y722593D01*
X268751Y722625D01*
X268872Y722703D01*
X268996Y722773D01*
X269060Y722825D01*
X269129Y722869D01*
X269314Y723033D01*
X269345Y723058D01*
X269352Y723066D01*
X269364Y723076D01*
X270623Y724336D01*
X276318Y726695D01*
X282482Y726695D01*
X288177Y724336D01*
X292536Y719977D01*
X294895Y714282D01*
X294895Y708118D01*
X292536Y702423D01*
X288177Y698064D01*
X282482Y695705D01*
X276318Y695705D01*
X270623Y698064D01*
X269364Y699324D01*
X269300Y699377D01*
X269243Y699436D01*
X269128Y699521D01*
X269018Y699613D01*
X268947Y699653D01*
X268880Y699702D01*
X268751Y699765D01*
X268627Y699836D01*
X268550Y699863D01*
X268476Y699900D01*
X268338Y699939D01*
X268203Y699987D01*
X268121Y700000D01*
X268042Y700023D01*
X267900Y700037D01*
X267759Y700060D01*
X267676Y700059D01*
X267594Y700067D01*
X267452Y700056D01*
X267308Y700054D01*
X267227Y700038D01*
X267145Y700032D01*
X267007Y699996D01*
X266866Y699968D01*
X266789Y699939D01*
X266710Y699918D01*
X266580Y699858D01*
X266446Y699806D01*
X266376Y699763D01*
X266301Y699729D01*
X266184Y699647D01*
X266062Y699572D01*
X266000Y699518D01*
X265932Y699470D01*
X265831Y699369D01*
X265724Y699274D01*
X265673Y699210D01*
X265615Y699151D01*
X265534Y699033D01*
X265445Y698921D01*
X265406Y698848D01*
X265359Y698781D01*
X265251Y698559D01*
X265232Y698524D01*
X265229Y698514D01*
X265222Y698500D01*
X264767Y697402D01*
X261194Y693829D01*
X256526Y691895D01*
X251474Y691895D01*
X246806Y693829D01*
X243096Y697539D01*
X243069Y697561D01*
X243046Y697587D01*
X242897Y697705D01*
X242750Y697828D01*
X242720Y697845D01*
X242693Y697867D01*
X242525Y697957D01*
X242359Y698051D01*
X242327Y698063D01*
X242296Y698079D01*
X242115Y698138D01*
X241935Y698202D01*
X241901Y698208D01*
X241868Y698218D01*
X241679Y698244D01*
X241491Y698275D01*
X241456Y698275D01*
X241422Y698280D01*
X241231Y698272D01*
X241041Y698269D01*
X241006Y698263D01*
X240972Y698261D01*
X240786Y698220D01*
X240598Y698184D01*
X240566Y698171D01*
X240532Y698164D01*
X240356Y698090D01*
X240178Y698022D01*
X240149Y698004D01*
X240117Y697990D01*
X239956Y697887D01*
X239794Y697788D01*
X239768Y697765D01*
X239739Y697746D01*
X239504Y697539D01*
X235794Y693829D01*
X231126Y691895D01*
X226074Y691895D01*
X221406Y693829D01*
X217696Y697539D01*
X217669Y697561D01*
X217646Y697587D01*
X217497Y697705D01*
X217350Y697828D01*
X217320Y697845D01*
X217293Y697867D01*
X217125Y697957D01*
X216959Y698051D01*
X216927Y698063D01*
X216896Y698079D01*
X216715Y698138D01*
X216535Y698202D01*
X216501Y698208D01*
X216468Y698218D01*
X216279Y698244D01*
X216091Y698275D01*
X216056Y698275D01*
X216022Y698280D01*
X215831Y698272D01*
X215641Y698269D01*
X215606Y698263D01*
X215572Y698261D01*
X215386Y698220D01*
X215198Y698184D01*
X215166Y698171D01*
X215132Y698164D01*
X214956Y698090D01*
X214778Y698022D01*
X214749Y698004D01*
X214717Y697990D01*
X214556Y697887D01*
X214394Y697788D01*
X214368Y697765D01*
X214339Y697746D01*
X214104Y697539D01*
X210394Y693829D01*
X205726Y691895D01*
X200674Y691895D01*
X196006Y693829D01*
X192296Y697539D01*
X192269Y697561D01*
X192246Y697587D01*
X192097Y697705D01*
X191950Y697828D01*
X191920Y697845D01*
X191893Y697867D01*
X191725Y697957D01*
X191559Y698051D01*
X191527Y698063D01*
X191496Y698079D01*
X191315Y698138D01*
X191135Y698202D01*
X191101Y698208D01*
X191068Y698218D01*
X190879Y698244D01*
X190691Y698275D01*
X190656Y698275D01*
X190622Y698280D01*
X190431Y698272D01*
X190241Y698269D01*
X190206Y698263D01*
X190172Y698261D01*
X189986Y698220D01*
X189798Y698184D01*
X189766Y698171D01*
X189732Y698164D01*
X189556Y698090D01*
X189378Y698022D01*
X189349Y698004D01*
X189317Y697990D01*
X189156Y697887D01*
X188994Y697788D01*
X188968Y697765D01*
X188939Y697746D01*
X188704Y697539D01*
X184994Y693829D01*
X180326Y691895D01*
X179821Y691895D01*
X179776Y691891D01*
X179729Y691894D01*
X179551Y691871D01*
X179373Y691855D01*
X179328Y691843D01*
X179283Y691837D01*
X179111Y691784D01*
X178939Y691737D01*
X178897Y691717D01*
X178853Y691703D01*
X178693Y691620D01*
X178532Y691543D01*
X178494Y691517D01*
X178453Y691495D01*
X178312Y691386D01*
X178166Y691281D01*
X178134Y691248D01*
X178097Y691220D01*
X177977Y691087D01*
X177852Y690959D01*
X177826Y690920D01*
X177795Y690886D01*
X177622Y690626D01*
X176995Y689540D01*
X172961Y687210D01*
X170434Y687210D01*
X170399Y687207D01*
X170365Y687209D01*
X170176Y687187D01*
X169985Y687170D01*
X169952Y687161D01*
X169918Y687157D01*
X169735Y687102D01*
X169551Y687052D01*
X169520Y687037D01*
X169487Y687027D01*
X169316Y686940D01*
X169144Y686859D01*
X169116Y686838D01*
X169085Y686823D01*
X168933Y686707D01*
X168778Y686596D01*
X168754Y686572D01*
X168727Y686551D01*
X168598Y686411D01*
X168464Y686274D01*
X168445Y686245D01*
X168421Y686220D01*
X168319Y686059D01*
X168212Y685901D01*
X168198Y685869D01*
X168180Y685840D01*
X168107Y685663D01*
X168030Y685489D01*
X168022Y685455D01*
X168009Y685423D01*
X167969Y685237D01*
X167923Y685051D01*
X167921Y685017D01*
X167914Y684983D01*
X167895Y684671D01*
X167895Y682718D01*
X165536Y677023D01*
X161177Y672664D01*
X156420Y670694D01*
X156241Y670600D01*
X156061Y670510D01*
X156042Y670496D01*
X156021Y670485D01*
X155861Y670362D01*
X155700Y670241D01*
X155684Y670224D01*
X155665Y670210D01*
X155530Y670060D01*
X155392Y669913D01*
X155379Y669893D01*
X155363Y669875D01*
X155257Y669704D01*
X155147Y669535D01*
X155138Y669513D01*
X155125Y669493D01*
X155051Y669306D01*
X154973Y669120D01*
X154967Y669097D01*
X154959Y669075D01*
X154918Y668876D01*
X154874Y668680D01*
X154873Y668657D01*
X154869Y668634D01*
X154864Y668431D01*
X154855Y668230D01*
X154858Y668207D01*
X154858Y668183D01*
X154889Y667984D01*
X154916Y667784D01*
X154923Y667762D01*
X154927Y667738D01*
X154992Y667548D01*
X155054Y667356D01*
X155065Y667335D01*
X155073Y667313D01*
X155171Y667136D01*
X155266Y666959D01*
X155281Y666940D01*
X155292Y666919D01*
X155420Y666763D01*
X155545Y666605D01*
X155566Y666586D01*
X155578Y666571D01*
X155619Y666536D01*
X155773Y666391D01*
X157061Y665326D01*
X157745Y664034D01*
X157790Y663965D01*
X157805Y663935D01*
X157834Y663897D01*
X157847Y663876D01*
X157945Y663715D01*
X157970Y663687D01*
X157990Y663656D01*
X158119Y663519D01*
X158243Y663378D01*
X158273Y663355D01*
X158298Y663328D01*
X158449Y663215D01*
X158596Y663099D01*
X158629Y663081D01*
X158659Y663059D01*
X158828Y662975D01*
X158993Y662886D01*
X159029Y662874D01*
X159062Y662858D01*
X159243Y662805D01*
X159422Y662747D01*
X159459Y662742D01*
X159495Y662731D01*
X159681Y662711D01*
X159868Y662685D01*
X159905Y662687D01*
X159942Y662683D01*
X160129Y662696D01*
X160318Y662704D01*
X160354Y662712D01*
X160391Y662715D01*
X160574Y662761D01*
X160757Y662801D01*
X160792Y662816D01*
X160828Y662825D01*
X160999Y662903D01*
X161173Y662975D01*
X161204Y662995D01*
X161238Y663011D01*
X161393Y663117D01*
X161551Y663219D01*
X161585Y663250D01*
X161609Y663266D01*
X161653Y663310D01*
X161785Y663426D01*
X161977Y663618D01*
X162005Y663630D01*
X162184Y663723D01*
X162364Y663813D01*
X162387Y663829D01*
X162404Y663838D01*
X162446Y663871D01*
X162619Y663993D01*
X162643Y664012D01*
X163453Y664246D01*
X163494Y664262D01*
X163718Y664339D01*
X164498Y664662D01*
X164528Y664662D01*
X164729Y664680D01*
X164930Y664694D01*
X164957Y664701D01*
X164976Y664702D01*
X165029Y664716D01*
X165235Y664763D01*
X165263Y664771D01*
X166102Y664678D01*
X166146Y664677D01*
X166383Y664662D01*
X166739Y664662D01*
X166902Y664677D01*
X167067Y664684D01*
X167126Y664697D01*
X167187Y664702D01*
X167346Y664746D01*
X167506Y664781D01*
X167563Y664805D01*
X167622Y664821D01*
X167770Y664891D01*
X167922Y664955D01*
X167973Y664988D01*
X168028Y665014D01*
X168162Y665110D01*
X168300Y665199D01*
X168358Y665250D01*
X168394Y665276D01*
X168437Y665320D01*
X168534Y665406D01*
X168581Y665453D01*
X171102Y666497D01*
X173830Y666497D01*
X176351Y665453D01*
X178281Y663523D01*
X179325Y661002D01*
X179325Y656416D01*
X179344Y656205D01*
X179360Y655994D01*
X179363Y655981D01*
X179365Y655968D01*
X179421Y655762D01*
X179474Y655558D01*
X179480Y655546D01*
X179483Y655533D01*
X179574Y655343D01*
X179663Y655150D01*
X179671Y655139D01*
X179677Y655127D01*
X179800Y654954D01*
X179922Y654781D01*
X179931Y654771D01*
X179939Y654761D01*
X180091Y654612D01*
X180241Y654463D01*
X180252Y654456D01*
X180261Y654447D01*
X180438Y654327D01*
X180611Y654207D01*
X180626Y654200D01*
X180634Y654195D01*
X180670Y654179D01*
X180892Y654070D01*
X184994Y652371D01*
X188704Y648661D01*
X188731Y648639D01*
X188754Y648613D01*
X188903Y648495D01*
X189050Y648372D01*
X189080Y648355D01*
X189107Y648333D01*
X189275Y648243D01*
X189441Y648149D01*
X189473Y648137D01*
X189504Y648121D01*
X189685Y648062D01*
X189865Y647998D01*
X189899Y647992D01*
X189932Y647982D01*
X190121Y647956D01*
X190309Y647925D01*
X190344Y647925D01*
X190378Y647920D01*
X190569Y647928D01*
X190759Y647931D01*
X190794Y647937D01*
X190828Y647939D01*
X191014Y647980D01*
X191202Y648016D01*
X191234Y648029D01*
X191268Y648036D01*
X191444Y648110D01*
X191622Y648178D01*
X191651Y648196D01*
X191683Y648210D01*
X191844Y648313D01*
X192006Y648412D01*
X192032Y648435D01*
X192061Y648454D01*
X192296Y648661D01*
X196006Y652371D01*
X200674Y654305D01*
X205726Y654305D01*
X210394Y652371D01*
X214104Y648661D01*
X214131Y648639D01*
X214154Y648613D01*
X214303Y648495D01*
X214450Y648372D01*
X214480Y648355D01*
X214507Y648333D01*
X214675Y648243D01*
X214841Y648149D01*
X214873Y648137D01*
X214904Y648121D01*
X215085Y648062D01*
X215265Y647998D01*
X215299Y647992D01*
X215332Y647982D01*
X215521Y647956D01*
X215709Y647925D01*
X215744Y647925D01*
X215778Y647920D01*
X215969Y647928D01*
X216159Y647931D01*
X216194Y647937D01*
X216228Y647939D01*
X216414Y647980D01*
X216602Y648016D01*
X216634Y648029D01*
X216668Y648036D01*
X216844Y648110D01*
X217022Y648178D01*
X217051Y648196D01*
X217083Y648210D01*
X217244Y648313D01*
X217406Y648412D01*
X217432Y648435D01*
X217461Y648454D01*
X217696Y648661D01*
X221406Y652371D01*
X226074Y654305D01*
X231126Y654305D01*
X235794Y652371D01*
X239367Y648798D01*
X240862Y645189D01*
X240876Y645162D01*
X240886Y645133D01*
X240981Y644962D01*
X241071Y644790D01*
X241089Y644766D01*
X241104Y644739D01*
X241227Y644588D01*
X241347Y644434D01*
X241369Y644413D01*
X241388Y644390D01*
X241536Y644263D01*
X241681Y644132D01*
X241707Y644116D01*
X241730Y644096D01*
X241897Y643997D01*
X242063Y643894D01*
X242091Y643883D01*
X242117Y643867D01*
X242300Y643800D01*
X242481Y643727D01*
X242511Y643721D01*
X242540Y643711D01*
X242731Y643676D01*
X242923Y643637D01*
X242953Y643637D01*
X242983Y643631D01*
X243178Y643631D01*
X243373Y643626D01*
X243403Y643631D01*
X243433Y643631D01*
X243625Y643666D01*
X243818Y643695D01*
X243846Y643705D01*
X243876Y643711D01*
X244059Y643778D01*
X244244Y643842D01*
X244270Y643857D01*
X244298Y643867D01*
X244466Y643966D01*
X244637Y644061D01*
X244660Y644080D01*
X244686Y644096D01*
X244834Y644223D01*
X244985Y644346D01*
X245005Y644369D01*
X245028Y644389D01*
X245151Y644541D01*
X245278Y644689D01*
X245293Y644715D01*
X245312Y644738D01*
X245471Y645008D01*
X246179Y646397D01*
X247025Y647561D01*
X248043Y648579D01*
X249207Y649425D01*
X250490Y650079D01*
X251461Y650394D01*
X251461Y635000D01*
X251461Y612139D01*
X242315Y612139D01*
X242355Y612396D01*
X242936Y614183D01*
X243789Y615857D01*
X244894Y617378D01*
X246222Y618706D01*
X246468Y618885D01*
X246494Y618908D01*
X246523Y618926D01*
X246664Y619056D01*
X246807Y619181D01*
X246829Y619208D01*
X246855Y619231D01*
X246970Y619383D01*
X247089Y619532D01*
X247106Y619562D01*
X247127Y619590D01*
X247214Y619760D01*
X247304Y619927D01*
X247315Y619960D01*
X247331Y619991D01*
X247386Y620174D01*
X247447Y620355D01*
X247452Y620389D01*
X247462Y620422D01*
X247484Y620612D01*
X247511Y620800D01*
X247510Y620835D01*
X247514Y620869D01*
X247502Y621060D01*
X247496Y621250D01*
X247488Y621284D01*
X247486Y621319D01*
X247441Y621504D01*
X247401Y621690D01*
X247388Y621723D01*
X247380Y621756D01*
X247303Y621930D01*
X247230Y622107D01*
X247212Y622136D01*
X247198Y622168D01*
X247030Y622432D01*
X246179Y623603D01*
X245471Y624992D01*
X245455Y625018D01*
X245443Y625046D01*
X245335Y625209D01*
X245232Y625374D01*
X245211Y625396D01*
X245194Y625422D01*
X245060Y625563D01*
X244929Y625707D01*
X244905Y625726D01*
X244884Y625748D01*
X244727Y625863D01*
X244572Y625982D01*
X244545Y625996D01*
X244520Y626014D01*
X244345Y626099D01*
X244172Y626189D01*
X244143Y626198D01*
X244116Y626211D01*
X243929Y626264D01*
X243742Y626322D01*
X243712Y626326D01*
X243683Y626334D01*
X243489Y626353D01*
X243295Y626377D01*
X243265Y626376D01*
X243235Y626379D01*
X243040Y626363D01*
X242846Y626353D01*
X242816Y626346D01*
X242786Y626343D01*
X242597Y626294D01*
X242407Y626249D01*
X242380Y626237D01*
X242350Y626229D01*
X242173Y626148D01*
X241994Y626070D01*
X241969Y626053D01*
X241942Y626040D01*
X241782Y625928D01*
X241620Y625820D01*
X241598Y625799D01*
X241573Y625782D01*
X241436Y625644D01*
X241295Y625509D01*
X241277Y625484D01*
X241255Y625463D01*
X241145Y625302D01*
X241030Y625144D01*
X241017Y625117D01*
X240999Y625092D01*
X240862Y624811D01*
X239367Y621202D01*
X235794Y617629D01*
X230852Y615582D01*
X230701Y615503D01*
X230547Y615430D01*
X230502Y615399D01*
X230453Y615373D01*
X230318Y615269D01*
X230179Y615170D01*
X230141Y615131D01*
X230097Y615097D01*
X229983Y614971D01*
X229863Y614850D01*
X229832Y614804D01*
X229795Y614763D01*
X229705Y614619D01*
X229609Y614478D01*
X229587Y614428D01*
X229558Y614381D01*
X229494Y614223D01*
X229425Y614067D01*
X229411Y614014D01*
X229391Y613963D01*
X229357Y613795D01*
X229315Y613630D01*
X229312Y613575D01*
X229301Y613522D01*
X229297Y613351D01*
X229285Y613181D01*
X229291Y613127D01*
X229290Y613071D01*
X229306Y612965D01*
X229307Y612951D01*
X229651Y609736D01*
X228881Y607118D01*
X227935Y605944D01*
X227168Y604994D01*
X224773Y603687D01*
X222060Y603397D01*
X221789Y603477D01*
X221760Y603483D01*
X221732Y603493D01*
X221539Y603527D01*
X221347Y603565D01*
X221318Y603566D01*
X221289Y603571D01*
X221092Y603570D01*
X220897Y603574D01*
X220868Y603569D01*
X220838Y603569D01*
X220646Y603534D01*
X220453Y603503D01*
X217653Y603503D01*
X217204Y603689D01*
X217022Y603747D01*
X216841Y603808D01*
X216807Y603814D01*
X216774Y603824D01*
X216585Y603848D01*
X216396Y603877D01*
X216362Y603876D01*
X216328Y603881D01*
X216137Y603871D01*
X215946Y603866D01*
X215912Y603860D01*
X215878Y603858D01*
X215692Y603815D01*
X215505Y603776D01*
X215466Y603762D01*
X215439Y603756D01*
X215383Y603732D01*
X215212Y603669D01*
X214835Y603503D01*
X211388Y603503D01*
X211218Y603578D01*
X211038Y603639D01*
X210858Y603705D01*
X210824Y603711D01*
X210791Y603722D01*
X210603Y603750D01*
X210415Y603783D01*
X210380Y603783D01*
X210346Y603788D01*
X210155Y603782D01*
X209964Y603781D01*
X209930Y603775D01*
X209896Y603774D01*
X209709Y603735D01*
X209521Y603700D01*
X209481Y603687D01*
X209455Y603681D01*
X209399Y603658D01*
X209226Y603599D01*
X208712Y603386D01*
X208534Y603293D01*
X208355Y603204D01*
X208335Y603189D01*
X208313Y603178D01*
X208154Y603055D01*
X207994Y602935D01*
X207977Y602917D01*
X207957Y602902D01*
X207823Y602753D01*
X207686Y602607D01*
X207672Y602586D01*
X207656Y602568D01*
X207550Y602398D01*
X207441Y602229D01*
X207431Y602206D01*
X207418Y602185D01*
X207344Y601999D01*
X207266Y601814D01*
X207260Y601790D01*
X207251Y601767D01*
X207211Y601571D01*
X207167Y601375D01*
X207166Y601350D01*
X207161Y601326D01*
X207156Y601125D01*
X207148Y600925D01*
X207151Y600901D01*
X207150Y600876D01*
X207181Y600678D01*
X207208Y600479D01*
X207215Y600455D01*
X207219Y600431D01*
X207284Y600242D01*
X207346Y600050D01*
X207359Y600024D01*
X207366Y600005D01*
X207392Y599957D01*
X207485Y599771D01*
X209559Y596178D01*
X209567Y596163D01*
X209649Y595991D01*
X209669Y595963D01*
X209684Y595932D01*
X209800Y595780D01*
X209911Y595625D01*
X209936Y595601D01*
X209956Y595574D01*
X210097Y595445D01*
X210233Y595311D01*
X210262Y595292D01*
X210288Y595268D01*
X210449Y595166D01*
X210606Y595059D01*
X210638Y595045D01*
X210667Y595027D01*
X210844Y594954D01*
X211018Y594877D01*
X211052Y594869D01*
X211084Y594856D01*
X211271Y594816D01*
X211456Y594770D01*
X211490Y594768D01*
X211524Y594761D01*
X211836Y594742D01*
X213361Y594742D01*
X213361Y584200D01*
X213361Y573658D01*
X211533Y573658D01*
X205358Y579833D01*
X205358Y580136D01*
X205355Y580171D01*
X205357Y580205D01*
X205335Y580394D01*
X205318Y580585D01*
X205309Y580618D01*
X205305Y580652D01*
X205250Y580835D01*
X205200Y581019D01*
X205185Y581050D01*
X205175Y581083D01*
X205088Y581253D01*
X205006Y581426D01*
X204986Y581454D01*
X204971Y581485D01*
X204855Y581637D01*
X204744Y581792D01*
X204719Y581816D01*
X204699Y581843D01*
X204559Y581972D01*
X204422Y582106D01*
X204393Y582125D01*
X204367Y582149D01*
X204206Y582251D01*
X204049Y582358D01*
X204017Y582372D01*
X203988Y582390D01*
X203811Y582463D01*
X203637Y582540D01*
X203603Y582548D01*
X203571Y582561D01*
X203384Y582601D01*
X203199Y582647D01*
X203165Y582649D01*
X203131Y582656D01*
X202819Y582675D01*
X197331Y582675D01*
X197303Y582680D01*
X197244Y582699D01*
X197081Y582719D01*
X196919Y582748D01*
X196858Y582748D01*
X196798Y582755D01*
X196633Y582747D01*
X196469Y582746D01*
X196409Y582735D01*
X196348Y582732D01*
X196187Y582695D01*
X196080Y582675D01*
X195173Y582675D01*
X195138Y582672D01*
X194883Y582659D01*
X194063Y582564D01*
X194016Y582578D01*
X193824Y582615D01*
X193631Y582656D01*
X193596Y582658D01*
X193574Y582662D01*
X193517Y582663D01*
X193319Y582675D01*
X189528Y582675D01*
X189500Y582680D01*
X189442Y582699D01*
X189278Y582719D01*
X189116Y582748D01*
X189055Y582748D01*
X188995Y582755D01*
X188830Y582747D01*
X188666Y582746D01*
X188606Y582735D01*
X188545Y582732D01*
X188385Y582695D01*
X188277Y582675D01*
X182400Y582675D01*
X178536Y584906D01*
X176305Y588771D01*
X176305Y591751D01*
X176286Y591963D01*
X176269Y592174D01*
X176266Y592187D01*
X176265Y592200D01*
X176209Y592406D01*
X176155Y592609D01*
X176150Y592621D01*
X176146Y592634D01*
X176056Y592825D01*
X175966Y593018D01*
X175958Y593029D01*
X175953Y593041D01*
X175830Y593213D01*
X175708Y593387D01*
X175698Y593396D01*
X175691Y593407D01*
X175538Y593556D01*
X175388Y593704D01*
X175378Y593712D01*
X175368Y593721D01*
X175192Y593840D01*
X175018Y593960D01*
X175004Y593967D01*
X174995Y593973D01*
X174959Y593989D01*
X174737Y594097D01*
X169023Y596464D01*
X166896Y598592D01*
X166869Y598614D01*
X166846Y598640D01*
X166697Y598758D01*
X166550Y598881D01*
X166520Y598898D01*
X166493Y598919D01*
X166324Y599009D01*
X166159Y599104D01*
X166127Y599115D01*
X166096Y599132D01*
X165915Y599191D01*
X165735Y599255D01*
X165701Y599260D01*
X165668Y599271D01*
X165479Y599297D01*
X165291Y599328D01*
X165256Y599328D01*
X165222Y599332D01*
X165031Y599325D01*
X164840Y599322D01*
X164806Y599315D01*
X164772Y599314D01*
X164586Y599273D01*
X164398Y599236D01*
X164366Y599224D01*
X164332Y599216D01*
X164157Y599143D01*
X163978Y599074D01*
X163949Y599056D01*
X163917Y599043D01*
X163757Y598940D01*
X163594Y598840D01*
X163568Y598817D01*
X163539Y598799D01*
X163304Y598592D01*
X161177Y596464D01*
X155482Y594105D01*
X149318Y594105D01*
X143623Y596464D01*
X141496Y598592D01*
X141469Y598614D01*
X141446Y598640D01*
X141297Y598758D01*
X141150Y598880D01*
X141120Y598898D01*
X141093Y598919D01*
X140925Y599009D01*
X140759Y599104D01*
X140727Y599115D01*
X140696Y599132D01*
X140515Y599191D01*
X140335Y599255D01*
X140301Y599260D01*
X140268Y599271D01*
X140079Y599297D01*
X139891Y599328D01*
X139856Y599328D01*
X139822Y599332D01*
X139631Y599325D01*
X139441Y599322D01*
X139406Y599315D01*
X139372Y599314D01*
X139186Y599273D01*
X138998Y599236D01*
X138966Y599224D01*
X138932Y599216D01*
X138756Y599143D01*
X138578Y599074D01*
X138549Y599056D01*
X138517Y599043D01*
X138356Y598939D01*
X138194Y598840D01*
X138168Y598817D01*
X138139Y598799D01*
X137904Y598592D01*
X135777Y596464D01*
X130082Y594105D01*
X123918Y594105D01*
X118223Y596464D01*
X116096Y598592D01*
X116069Y598614D01*
X116046Y598640D01*
X115897Y598758D01*
X115750Y598880D01*
X115720Y598898D01*
X115693Y598919D01*
X115525Y599009D01*
X115359Y599104D01*
X115327Y599115D01*
X115296Y599132D01*
X115115Y599191D01*
X114935Y599255D01*
X114901Y599260D01*
X114868Y599271D01*
X114679Y599297D01*
X114491Y599328D01*
X114456Y599328D01*
X114422Y599332D01*
X114231Y599325D01*
X114041Y599322D01*
X114006Y599315D01*
X113972Y599314D01*
X113786Y599273D01*
X113598Y599236D01*
X113566Y599224D01*
X113532Y599216D01*
X113356Y599143D01*
X113178Y599074D01*
X113149Y599056D01*
X113117Y599043D01*
X112956Y598939D01*
X112794Y598840D01*
X112768Y598817D01*
X112739Y598799D01*
X112504Y598592D01*
X110377Y596464D01*
X104682Y594105D01*
X98518Y594105D01*
X92823Y596464D01*
X88464Y600823D01*
X86105Y606518D01*
X86105Y612682D01*
X88464Y618377D01*
X90592Y620504D01*
X90614Y620531D01*
X90640Y620554D01*
X90758Y620703D01*
X90881Y620850D01*
X90898Y620880D01*
X90919Y620907D01*
X91009Y621076D01*
X91104Y621241D01*
X91115Y621273D01*
X91132Y621304D01*
X91191Y621485D01*
X91255Y621665D01*
X91260Y621699D01*
X91271Y621732D01*
X91297Y621921D01*
X91328Y622109D01*
X91328Y622144D01*
X91332Y622178D01*
X91325Y622369D01*
X91322Y622560D01*
X91315Y622594D01*
X91314Y622628D01*
X91273Y622814D01*
X91236Y623002D01*
X91224Y623034D01*
X91216Y623068D01*
X91143Y623243D01*
X91074Y623422D01*
X91056Y623451D01*
X91043Y623483D01*
X90940Y623643D01*
X90840Y623806D01*
X90817Y623832D01*
X90799Y623861D01*
X90592Y624096D01*
X88464Y626223D01*
X86105Y631918D01*
X86105Y638082D01*
X88585Y644069D01*
X88605Y644132D01*
X88614Y644152D01*
X88623Y644188D01*
X88649Y644273D01*
X88714Y644473D01*
X88716Y644486D01*
X88720Y644499D01*
X88747Y644710D01*
X88776Y644919D01*
X88775Y644933D01*
X88777Y644946D01*
X88766Y645156D01*
X88757Y645369D01*
X88754Y645382D01*
X88754Y645395D01*
X88706Y645601D01*
X88660Y645809D01*
X88655Y645821D01*
X88652Y645834D01*
X88568Y646029D01*
X88486Y646224D01*
X88479Y646235D01*
X88474Y646248D01*
X88356Y646425D01*
X88242Y646602D01*
X88231Y646614D01*
X88225Y646623D01*
X88198Y646652D01*
X88035Y646837D01*
X85435Y649436D01*
X83076Y655131D01*
X83076Y661295D01*
X85435Y666990D01*
X89794Y671349D01*
X95489Y673708D01*
X101653Y673708D01*
X107348Y671349D01*
X111707Y666990D01*
X113688Y662207D01*
X113732Y662123D01*
X113767Y662035D01*
X113836Y661924D01*
X113897Y661808D01*
X113955Y661733D01*
X114005Y661652D01*
X114092Y661556D01*
X114172Y661452D01*
X114243Y661388D01*
X114307Y661318D01*
X114410Y661238D01*
X114507Y661151D01*
X114587Y661100D01*
X114662Y661042D01*
X114778Y660981D01*
X114889Y660913D01*
X114977Y660878D01*
X115061Y660833D01*
X115186Y660794D01*
X115307Y660746D01*
X115401Y660727D01*
X115491Y660699D01*
X115620Y660682D01*
X115748Y660656D01*
X115844Y660654D01*
X115938Y660642D01*
X116068Y660648D01*
X116199Y660645D01*
X116293Y660660D01*
X116387Y660664D01*
X116514Y660694D01*
X116643Y660714D01*
X116733Y660745D01*
X116826Y660766D01*
X117016Y660842D01*
X117069Y660860D01*
X117087Y660870D01*
X117116Y660882D01*
X117945Y661272D01*
X120670Y661402D01*
X121962Y660938D01*
X121976Y660934D01*
X121988Y660929D01*
X122192Y660877D01*
X122397Y660824D01*
X122411Y660823D01*
X122425Y660819D01*
X122636Y660805D01*
X122846Y660788D01*
X122860Y660790D01*
X122874Y660789D01*
X123085Y660812D01*
X123294Y660833D01*
X123308Y660837D01*
X123322Y660838D01*
X123525Y660898D01*
X123727Y660956D01*
X123740Y660962D01*
X123754Y660966D01*
X124037Y661098D01*
X124151Y661161D01*
X126864Y661451D01*
X129482Y660681D01*
X131606Y658968D01*
X132913Y656573D01*
X133155Y654311D01*
X133158Y654296D01*
X133158Y654280D01*
X133202Y654074D01*
X133242Y653870D01*
X133248Y653855D01*
X133251Y653839D01*
X133330Y653644D01*
X133406Y653450D01*
X133414Y653437D01*
X133420Y653422D01*
X133532Y653245D01*
X133642Y653067D01*
X133652Y653055D01*
X133661Y653041D01*
X133802Y652887D01*
X133941Y652731D01*
X133954Y652721D01*
X133965Y652709D01*
X134131Y652582D01*
X134296Y652453D01*
X134310Y652445D01*
X134322Y652436D01*
X134508Y652340D01*
X134693Y652242D01*
X134709Y652237D01*
X134723Y652230D01*
X134924Y652168D01*
X135122Y652104D01*
X135138Y652102D01*
X135153Y652098D01*
X135361Y652073D01*
X135569Y652045D01*
X135584Y652046D01*
X135600Y652044D01*
X135809Y652056D01*
X136018Y652065D01*
X136034Y652069D01*
X136050Y652070D01*
X136253Y652118D01*
X136457Y652165D01*
X136472Y652171D01*
X136488Y652175D01*
X136681Y652259D01*
X136872Y652340D01*
X136885Y652349D01*
X136900Y652355D01*
X137075Y652472D01*
X137249Y652586D01*
X137261Y652597D01*
X137274Y652606D01*
X137425Y652751D01*
X137577Y652895D01*
X137587Y652907D01*
X137598Y652918D01*
X137721Y653088D01*
X137845Y653256D01*
X137852Y653270D01*
X137862Y653283D01*
X138005Y653561D01*
X138307Y654251D01*
X138368Y654432D01*
X138434Y654611D01*
X138440Y654645D01*
X138451Y654677D01*
X138479Y654866D01*
X138512Y655054D01*
X138512Y655089D01*
X138517Y655123D01*
X138511Y655313D01*
X138510Y655504D01*
X138504Y655538D01*
X138503Y655573D01*
X138464Y655760D01*
X138429Y655947D01*
X138416Y655987D01*
X138410Y656013D01*
X138387Y656070D01*
X138328Y656243D01*
X138175Y656611D01*
X138175Y659340D01*
X139219Y661861D01*
X140483Y663124D01*
X140587Y663248D01*
X140697Y663367D01*
X140742Y663434D01*
X140772Y663469D01*
X140801Y663522D01*
X140872Y663626D01*
X142029Y665579D01*
X144212Y667216D01*
X144595Y667314D01*
X144675Y667343D01*
X144757Y667362D01*
X144887Y667418D01*
X145019Y667464D01*
X145093Y667506D01*
X145171Y667540D01*
X145288Y667617D01*
X145411Y667687D01*
X145476Y667741D01*
X145547Y667788D01*
X145649Y667885D01*
X145757Y667975D01*
X145811Y668040D01*
X145873Y668099D01*
X145956Y668212D01*
X146046Y668320D01*
X146089Y668394D01*
X146139Y668462D01*
X146200Y668588D01*
X146270Y668711D01*
X146299Y668791D01*
X146336Y668867D01*
X146375Y669002D01*
X146422Y669135D01*
X146436Y669218D01*
X146459Y669300D01*
X146473Y669440D01*
X146496Y669579D01*
X146495Y669663D01*
X146504Y669748D01*
X146493Y669888D01*
X146491Y670029D01*
X146475Y670112D01*
X146468Y670197D01*
X146433Y670333D01*
X146406Y670471D01*
X146376Y670550D01*
X146354Y670632D01*
X146295Y670760D01*
X146245Y670891D01*
X146201Y670964D01*
X146165Y671041D01*
X146084Y671156D01*
X146012Y671277D01*
X145956Y671340D01*
X145907Y671410D01*
X145807Y671509D01*
X145714Y671615D01*
X145648Y671667D01*
X145588Y671727D01*
X145472Y671807D01*
X145362Y671895D01*
X145287Y671935D01*
X145217Y671983D01*
X145004Y672087D01*
X144965Y672108D01*
X144953Y672112D01*
X144936Y672120D01*
X143623Y672664D01*
X141496Y674792D01*
X141469Y674814D01*
X141446Y674840D01*
X141297Y674958D01*
X141150Y675080D01*
X141120Y675098D01*
X141093Y675119D01*
X140925Y675209D01*
X140759Y675304D01*
X140727Y675315D01*
X140696Y675332D01*
X140515Y675391D01*
X140335Y675455D01*
X140301Y675460D01*
X140268Y675471D01*
X140079Y675497D01*
X139891Y675528D01*
X139856Y675528D01*
X139822Y675532D01*
X139631Y675525D01*
X139441Y675522D01*
X139406Y675515D01*
X139372Y675514D01*
X139186Y675473D01*
X138998Y675436D01*
X138966Y675424D01*
X138932Y675416D01*
X138756Y675343D01*
X138578Y675274D01*
X138549Y675256D01*
X138517Y675243D01*
X138356Y675139D01*
X138194Y675040D01*
X138168Y675017D01*
X138139Y674999D01*
X137904Y674792D01*
X135777Y672664D01*
X130082Y670305D01*
X123918Y670305D01*
X118223Y672664D01*
X113864Y677023D01*
X113403Y678136D01*
X113305Y678324D01*
X113209Y678513D01*
X113201Y678523D01*
X113195Y678535D01*
X113065Y678703D01*
X112937Y678871D01*
X112927Y678880D01*
X112919Y678891D01*
X112762Y679033D01*
X112606Y679177D01*
X112595Y679184D01*
X112585Y679192D01*
X112405Y679304D01*
X112226Y679418D01*
X112214Y679423D01*
X112202Y679430D01*
X112006Y679508D01*
X111809Y679589D01*
X111796Y679592D01*
X111784Y679597D01*
X111577Y679639D01*
X111369Y679684D01*
X111353Y679685D01*
X111343Y679687D01*
X111304Y679688D01*
X111057Y679703D01*
X105284Y679703D01*
X105152Y679758D01*
X105052Y679789D01*
X104955Y679830D01*
X104837Y679856D01*
X104723Y679892D01*
X104618Y679906D01*
X104515Y679929D01*
X104395Y679934D01*
X104276Y679949D01*
X104171Y679944D01*
X104065Y679948D01*
X103947Y679932D01*
X103826Y679926D01*
X103723Y679902D01*
X103619Y679888D01*
X103505Y679851D01*
X103388Y679824D01*
X103291Y679782D01*
X103191Y679750D01*
X103097Y679703D01*
X98413Y679703D01*
X98354Y679737D01*
X98312Y679757D01*
X98273Y679782D01*
X98108Y679851D01*
X97946Y679927D01*
X97901Y679939D01*
X97858Y679956D01*
X97683Y679996D01*
X97510Y680041D01*
X97464Y680045D01*
X97419Y680055D01*
X97240Y680063D01*
X97061Y680077D01*
X97015Y680073D01*
X96969Y680075D01*
X96792Y680051D01*
X96613Y680033D01*
X96569Y680021D01*
X96523Y680015D01*
X96352Y679960D01*
X96180Y679911D01*
X96139Y679891D01*
X96094Y679876D01*
X95815Y679737D01*
X95756Y679703D01*
X90204Y679703D01*
X90147Y679728D01*
X90029Y679754D01*
X89915Y679790D01*
X89810Y679803D01*
X89707Y679826D01*
X89587Y679831D01*
X89468Y679847D01*
X89363Y679841D01*
X89257Y679846D01*
X89138Y679830D01*
X89019Y679824D01*
X88916Y679800D01*
X88811Y679786D01*
X88697Y679749D01*
X88580Y679721D01*
X88538Y679703D01*
X83691Y679703D01*
X83610Y679725D01*
X83511Y679761D01*
X83393Y679782D01*
X83277Y679812D01*
X83171Y679821D01*
X83067Y679839D01*
X82948Y679839D01*
X82828Y679848D01*
X82723Y679838D01*
X82617Y679838D01*
X82499Y679816D01*
X82380Y679804D01*
X82278Y679776D01*
X82174Y679757D01*
X82019Y679703D01*
X75598Y679703D01*
X72916Y680814D01*
X72837Y680839D01*
X72762Y680872D01*
X72623Y680906D01*
X72486Y680949D01*
X72404Y680959D01*
X72324Y680979D01*
X72182Y680988D01*
X72039Y681006D01*
X71957Y681001D01*
X71875Y681007D01*
X71733Y680990D01*
X71590Y680983D01*
X71510Y680964D01*
X71428Y680954D01*
X71290Y680913D01*
X71151Y680881D01*
X71076Y680848D01*
X70997Y680824D01*
X70869Y680759D01*
X70738Y680703D01*
X70669Y680657D01*
X70596Y680620D01*
X70481Y680533D01*
X70362Y680454D01*
X70302Y680398D01*
X70237Y680348D01*
X70140Y680242D01*
X70036Y680144D01*
X69987Y680077D01*
X69932Y680017D01*
X69855Y679896D01*
X69770Y679780D01*
X69734Y679706D01*
X69690Y679637D01*
X69635Y679504D01*
X69573Y679376D01*
X69550Y679296D01*
X69519Y679220D01*
X69489Y679080D01*
X69450Y678943D01*
X69441Y678861D01*
X69424Y678780D01*
X69409Y678534D01*
X69405Y678495D01*
X69406Y678484D01*
X69405Y678468D01*
X69405Y677015D01*
X69388Y676963D01*
X69326Y676794D01*
X69318Y676749D01*
X69304Y676706D01*
X69279Y676528D01*
X69248Y676350D01*
X69248Y676305D01*
X69241Y676260D01*
X69248Y676080D01*
X69249Y675900D01*
X69257Y675855D01*
X69259Y675810D01*
X69298Y675634D01*
X69330Y675457D01*
X69348Y675404D01*
X69356Y675370D01*
X69380Y675312D01*
X69405Y675240D01*
X69405Y672498D01*
X68361Y669977D01*
X66431Y668047D01*
X63910Y667003D01*
X59258Y667003D01*
X59195Y666998D01*
X59052Y666995D01*
X58042Y666913D01*
X57945Y666934D01*
X57740Y666980D01*
X57726Y666981D01*
X57712Y666984D01*
X57400Y667003D01*
X51943Y667003D01*
X51880Y666998D01*
X51737Y666995D01*
X50727Y666913D01*
X50630Y666934D01*
X50425Y666980D01*
X50411Y666981D01*
X50397Y666984D01*
X50217Y666995D01*
X49289Y667380D01*
X49229Y667398D01*
X49096Y667451D01*
X48131Y667762D01*
X48050Y667818D01*
X47878Y667939D01*
X47865Y667945D01*
X47853Y667954D01*
X47692Y668032D01*
X46981Y668743D01*
X46933Y668783D01*
X46830Y668882D01*
X46058Y669539D01*
X46004Y669622D01*
X45892Y669800D01*
X45882Y669811D01*
X45875Y669823D01*
X45756Y669957D01*
X45371Y670886D01*
X45342Y670941D01*
X45285Y671072D01*
X44822Y671974D01*
X44805Y672069D01*
X44769Y672279D01*
X44764Y672293D01*
X44762Y672307D01*
X44703Y672476D01*
X44703Y673481D01*
X44698Y673544D01*
X44695Y673687D01*
X44613Y674697D01*
X44634Y674794D01*
X44680Y674999D01*
X44681Y675013D01*
X44684Y675027D01*
X44695Y675207D01*
X44740Y675315D01*
X44752Y675353D01*
X44770Y675390D01*
X44819Y675568D01*
X44875Y675745D01*
X44880Y675785D01*
X44891Y675823D01*
X44908Y676008D01*
X44932Y676191D01*
X44930Y676232D01*
X44933Y676272D01*
X44918Y676456D01*
X44909Y676641D01*
X44899Y676680D01*
X44896Y676720D01*
X44848Y676899D01*
X44806Y677080D01*
X44791Y677116D01*
X44780Y677155D01*
X44655Y677442D01*
X44649Y677454D01*
X44647Y677460D01*
X44639Y677474D01*
X44629Y677495D01*
X44620Y677517D01*
X44519Y677683D01*
X44423Y677851D01*
X44402Y677875D01*
X44386Y677902D01*
X44258Y678047D01*
X44133Y678195D01*
X44109Y678216D01*
X44088Y678240D01*
X43936Y678360D01*
X43787Y678483D01*
X43759Y678499D01*
X43735Y678519D01*
X43564Y678610D01*
X43396Y678706D01*
X43366Y678716D01*
X43338Y678732D01*
X43153Y678792D01*
X42971Y678856D01*
X42940Y678861D01*
X42909Y678871D01*
X42717Y678897D01*
X42527Y678928D01*
X42495Y678928D01*
X42463Y678932D01*
X42270Y678924D01*
X42076Y678921D01*
X42045Y678915D01*
X42013Y678914D01*
X41825Y678872D01*
X41635Y678835D01*
X41605Y678823D01*
X41574Y678816D01*
X41396Y678742D01*
X41215Y678671D01*
X41188Y678655D01*
X41158Y678643D01*
X40996Y678538D01*
X40831Y678437D01*
X40807Y678415D01*
X40780Y678398D01*
X40546Y678191D01*
X37206Y674851D01*
X31511Y672492D01*
X25347Y672492D01*
X19652Y674851D01*
X15543Y678960D01*
X15417Y679065D01*
X15296Y679177D01*
X15245Y679209D01*
X15198Y679248D01*
X15055Y679330D01*
X14916Y679418D01*
X14860Y679442D01*
X14807Y679472D01*
X14652Y679527D01*
X14500Y679589D01*
X14440Y679602D01*
X14383Y679623D01*
X14220Y679649D01*
X14060Y679684D01*
X13982Y679689D01*
X13938Y679696D01*
X13878Y679695D01*
X13748Y679703D01*
X10574Y679703D01*
X9608Y680103D01*
X9451Y680153D01*
X9296Y680209D01*
X9236Y680220D01*
X9178Y680238D01*
X9015Y680259D01*
X8853Y680287D01*
X8792Y680287D01*
X8731Y680295D01*
X8567Y680286D01*
X8403Y680286D01*
X8343Y680275D01*
X8282Y680272D01*
X8122Y680235D01*
X7960Y680205D01*
X7887Y680180D01*
X7843Y680170D01*
X7787Y680146D01*
X7664Y680103D01*
X6698Y679703D01*
X3970Y679703D01*
X1088Y680897D01*
X1063Y680911D01*
X992Y680937D01*
X982Y680941D01*
X969Y680945D01*
X939Y680956D01*
X818Y681009D01*
X727Y681031D01*
X639Y681063D01*
X509Y681085D01*
X380Y681116D01*
X287Y681122D01*
X195Y681137D01*
X63Y681135D01*
X-69Y681144D01*
X-162Y681133D01*
X-256Y681132D01*
X-385Y681107D01*
X-516Y681091D01*
X-606Y681064D01*
X-698Y681047D01*
X-821Y680999D01*
X-947Y680961D01*
X-1031Y680919D01*
X-1118Y680885D01*
X-1231Y680817D01*
X-1349Y680757D01*
X-1423Y680700D01*
X-1503Y680652D01*
X-1602Y680564D01*
X-1707Y680485D01*
X-1771Y680416D01*
X-1841Y680354D01*
X-1923Y680251D01*
X-2013Y680154D01*
X-2063Y680075D01*
X-2121Y680001D01*
X-2184Y679885D01*
X-2254Y679774D01*
X-2290Y679687D01*
X-2334Y679605D01*
X-2375Y679479D01*
X-2425Y679357D01*
X-2445Y679266D01*
X-2474Y679177D01*
X-2492Y679046D01*
X-2520Y678917D01*
X-2528Y678791D01*
X-2536Y678731D01*
X-2534Y678685D01*
X-2539Y678605D01*
X-2539Y0D01*
X-2536Y-35D01*
X-2538Y-69D01*
X-2516Y-258D01*
X-2499Y-449D01*
X-2490Y-482D01*
X-2486Y-516D01*
X-2431Y-699D01*
X-2381Y-883D01*
X-2366Y-914D01*
X-2356Y-947D01*
X-2269Y-1118D01*
X-2187Y-1290D01*
X-2167Y-1318D01*
X-2152Y-1349D01*
X-2036Y-1501D01*
X-1925Y-1656D01*
X-1900Y-1680D01*
X-1880Y-1707D01*
X-1740Y-1836D01*
X-1603Y-1970D01*
X-1574Y-1989D01*
X-1548Y-2013D01*
X-1387Y-2115D01*
X-1230Y-2222D01*
X-1198Y-2236D01*
X-1169Y-2254D01*
X-992Y-2327D01*
X-818Y-2404D01*
X-784Y-2412D01*
X-752Y-2425D01*
X-565Y-2465D01*
X-380Y-2511D01*
X-346Y-2513D01*
X-312Y-2520D01*
X0Y-2539D01*
X304800Y-2539D01*
X304835Y-2536D01*
G37*
%LPC*%
G36*
X116806Y210311D02*
X116806Y210311D01*
X111111Y212670D01*
X106752Y217029D01*
X104393Y222724D01*
X104393Y228888D01*
X106752Y234583D01*
X111111Y238942D01*
X111140Y238954D01*
X111256Y239014D01*
X111375Y239066D01*
X111455Y239118D01*
X111540Y239163D01*
X111642Y239242D01*
X111751Y239314D01*
X111820Y239380D01*
X111896Y239438D01*
X111983Y239535D01*
X112077Y239625D01*
X112133Y239702D01*
X112197Y239773D01*
X112266Y239883D01*
X112343Y239988D01*
X112385Y240074D01*
X112435Y240155D01*
X112483Y240276D01*
X112540Y240393D01*
X112566Y240484D01*
X112602Y240573D01*
X112628Y240701D01*
X112663Y240826D01*
X112673Y240921D01*
X112692Y241014D01*
X112695Y241144D01*
X112708Y241274D01*
X112700Y241369D01*
X112703Y241464D01*
X112683Y241593D01*
X112673Y241723D01*
X112648Y241815D01*
X112634Y241909D01*
X112592Y242032D01*
X112559Y242158D01*
X112518Y242245D01*
X112487Y242335D01*
X112424Y242449D01*
X112369Y242567D01*
X112315Y242645D01*
X112268Y242728D01*
X112186Y242829D01*
X112111Y242936D01*
X112043Y243003D01*
X111983Y243077D01*
X111884Y243161D01*
X111792Y243253D01*
X111713Y243307D01*
X111640Y243369D01*
X111528Y243435D01*
X111421Y243509D01*
X111305Y243566D01*
X111252Y243597D01*
X111210Y243612D01*
X111140Y243646D01*
X111111Y243658D01*
X106752Y248017D01*
X104393Y253712D01*
X104393Y259023D01*
X104391Y259049D01*
X104392Y259073D01*
X104379Y259191D01*
X104372Y259351D01*
X104359Y259410D01*
X104353Y259471D01*
X104340Y259519D01*
X104340Y259520D01*
X104339Y259524D01*
X104310Y259630D01*
X104274Y259790D01*
X104251Y259847D01*
X104235Y259906D01*
X104164Y260054D01*
X104101Y260206D01*
X104068Y260257D01*
X104041Y260312D01*
X103946Y260446D01*
X103856Y260584D01*
X103805Y260642D01*
X103779Y260678D01*
X103736Y260721D01*
X103650Y260818D01*
X58965Y305503D01*
X56178Y308290D01*
X54863Y311464D01*
X54863Y541471D01*
X54849Y541634D01*
X54842Y541799D01*
X54829Y541858D01*
X54823Y541919D01*
X54780Y542078D01*
X54744Y542238D01*
X54721Y542295D01*
X54705Y542354D01*
X54634Y542502D01*
X54571Y542654D01*
X54538Y542705D01*
X54511Y542760D01*
X54416Y542894D01*
X54326Y543032D01*
X54275Y543090D01*
X54249Y543126D01*
X54206Y543169D01*
X54120Y543266D01*
X35860Y561526D01*
X35770Y561601D01*
X35687Y561683D01*
X35598Y561745D01*
X35514Y561815D01*
X35413Y561873D01*
X35317Y561939D01*
X35178Y562007D01*
X35123Y562038D01*
X35089Y562050D01*
X35036Y562077D01*
X32504Y563125D01*
X29725Y565904D01*
X28221Y569535D01*
X28221Y573465D01*
X29725Y577096D01*
X32504Y579875D01*
X36135Y581379D01*
X40065Y581379D01*
X43696Y579875D01*
X46475Y577096D01*
X47523Y574564D01*
X47578Y574461D01*
X47623Y574353D01*
X47682Y574261D01*
X47732Y574165D01*
X47804Y574073D01*
X47867Y573974D01*
X47969Y573859D01*
X48008Y573809D01*
X48035Y573785D01*
X48074Y573740D01*
X49390Y572424D01*
X49453Y572371D01*
X49510Y572312D01*
X49625Y572227D01*
X49735Y572135D01*
X49807Y572094D01*
X49873Y572046D01*
X50002Y571983D01*
X50126Y571912D01*
X50204Y571884D01*
X50278Y571848D01*
X50416Y571809D01*
X50551Y571761D01*
X50632Y571748D01*
X50711Y571725D01*
X50853Y571711D01*
X50995Y571688D01*
X51077Y571689D01*
X51159Y571681D01*
X51302Y571692D01*
X51445Y571694D01*
X51526Y571709D01*
X51608Y571716D01*
X51746Y571752D01*
X51887Y571779D01*
X51964Y571809D01*
X52044Y571830D01*
X52173Y571890D01*
X52307Y571942D01*
X52377Y571984D01*
X52452Y572019D01*
X52569Y572101D01*
X52692Y572176D01*
X52753Y572230D01*
X52821Y572277D01*
X52922Y572379D01*
X53029Y572474D01*
X53080Y572538D01*
X53138Y572597D01*
X53220Y572715D01*
X53309Y572827D01*
X53347Y572899D01*
X53394Y572967D01*
X53503Y573189D01*
X53521Y573224D01*
X53524Y573234D01*
X53531Y573248D01*
X55125Y577096D01*
X57904Y579875D01*
X61535Y581379D01*
X65465Y581379D01*
X69096Y579875D01*
X71875Y577096D01*
X72923Y574564D01*
X72978Y574461D01*
X73023Y574353D01*
X73082Y574261D01*
X73132Y574165D01*
X73204Y574073D01*
X73267Y573974D01*
X73369Y573859D01*
X73408Y573809D01*
X73435Y573785D01*
X73474Y573740D01*
X74790Y572424D01*
X74853Y572372D01*
X74910Y572312D01*
X75026Y572227D01*
X75135Y572135D01*
X75207Y572094D01*
X75273Y572046D01*
X75402Y571983D01*
X75526Y571912D01*
X75604Y571884D01*
X75678Y571848D01*
X75815Y571809D01*
X75950Y571761D01*
X76032Y571748D01*
X76111Y571725D01*
X76253Y571711D01*
X76395Y571688D01*
X76477Y571689D01*
X76559Y571681D01*
X76702Y571692D01*
X76845Y571694D01*
X76926Y571709D01*
X77008Y571716D01*
X77146Y571752D01*
X77287Y571779D01*
X77364Y571809D01*
X77444Y571830D01*
X77573Y571890D01*
X77707Y571942D01*
X77777Y571984D01*
X77852Y572019D01*
X77969Y572101D01*
X78092Y572176D01*
X78154Y572230D01*
X78221Y572277D01*
X78322Y572379D01*
X78429Y572474D01*
X78480Y572538D01*
X78538Y572597D01*
X78620Y572714D01*
X78709Y572827D01*
X78747Y572899D01*
X78794Y572967D01*
X78902Y573189D01*
X78921Y573224D01*
X78925Y573234D01*
X78931Y573248D01*
X80525Y577096D01*
X83304Y579875D01*
X86935Y581379D01*
X90865Y581379D01*
X94496Y579875D01*
X97275Y577096D01*
X98779Y573465D01*
X98779Y569535D01*
X97730Y567003D01*
X97695Y566892D01*
X97651Y566784D01*
X97628Y566677D01*
X97595Y566574D01*
X97581Y566458D01*
X97556Y566343D01*
X97546Y566190D01*
X97539Y566127D01*
X97540Y566091D01*
X97537Y566031D01*
X97537Y444811D01*
X97551Y444648D01*
X97558Y444483D01*
X97571Y444424D01*
X97577Y444363D01*
X97620Y444204D01*
X97656Y444044D01*
X97679Y443987D01*
X97695Y443928D01*
X97766Y443780D01*
X97829Y443628D01*
X97862Y443577D01*
X97889Y443522D01*
X97984Y443388D01*
X98074Y443250D01*
X98125Y443192D01*
X98151Y443156D01*
X98194Y443113D01*
X98280Y443016D01*
X115864Y425432D01*
X115990Y425327D01*
X116111Y425215D01*
X116162Y425183D01*
X116209Y425144D01*
X116352Y425062D01*
X116491Y424974D01*
X116547Y424950D01*
X116600Y424920D01*
X116755Y424865D01*
X116907Y424803D01*
X116967Y424790D01*
X117024Y424769D01*
X117187Y424743D01*
X117347Y424708D01*
X117424Y424703D01*
X117469Y424696D01*
X117530Y424697D01*
X117659Y424689D01*
X122970Y424689D01*
X128665Y422330D01*
X133024Y417971D01*
X135383Y412276D01*
X135383Y406112D01*
X133024Y400417D01*
X128665Y396058D01*
X128636Y396046D01*
X128520Y395986D01*
X128401Y395934D01*
X128321Y395882D01*
X128237Y395838D01*
X128134Y395758D01*
X128025Y395686D01*
X127956Y395620D01*
X127881Y395562D01*
X127793Y395465D01*
X127699Y395375D01*
X127643Y395298D01*
X127579Y395228D01*
X127510Y395117D01*
X127433Y395012D01*
X127391Y394926D01*
X127341Y394845D01*
X127293Y394724D01*
X127236Y394608D01*
X127210Y394516D01*
X127174Y394427D01*
X127148Y394299D01*
X127113Y394174D01*
X127103Y394079D01*
X127084Y393986D01*
X127081Y393856D01*
X127068Y393726D01*
X127076Y393631D01*
X127073Y393536D01*
X127093Y393407D01*
X127103Y393277D01*
X127128Y393185D01*
X127142Y393091D01*
X127184Y392968D01*
X127217Y392842D01*
X127257Y392755D01*
X127289Y392665D01*
X127352Y392551D01*
X127407Y392433D01*
X127461Y392355D01*
X127508Y392272D01*
X127590Y392171D01*
X127665Y392064D01*
X127733Y391997D01*
X127793Y391923D01*
X127892Y391839D01*
X127984Y391747D01*
X128063Y391693D01*
X128135Y391631D01*
X128248Y391565D01*
X128355Y391491D01*
X128471Y391434D01*
X128524Y391403D01*
X128566Y391388D01*
X128636Y391354D01*
X128665Y391342D01*
X133024Y386983D01*
X135383Y381288D01*
X135383Y375124D01*
X133024Y369429D01*
X128665Y365070D01*
X122970Y362711D01*
X116806Y362711D01*
X111111Y365070D01*
X106752Y369429D01*
X104393Y375124D01*
X104393Y381288D01*
X106752Y386983D01*
X111111Y391342D01*
X111140Y391354D01*
X111256Y391414D01*
X111375Y391466D01*
X111455Y391518D01*
X111540Y391563D01*
X111643Y391642D01*
X111751Y391714D01*
X111820Y391780D01*
X111896Y391838D01*
X111983Y391935D01*
X112077Y392025D01*
X112133Y392102D01*
X112197Y392173D01*
X112266Y392283D01*
X112343Y392388D01*
X112385Y392474D01*
X112435Y392555D01*
X112483Y392676D01*
X112540Y392793D01*
X112566Y392885D01*
X112602Y392973D01*
X112628Y393101D01*
X112663Y393226D01*
X112673Y393321D01*
X112692Y393414D01*
X112695Y393544D01*
X112708Y393674D01*
X112700Y393769D01*
X112703Y393864D01*
X112683Y393993D01*
X112673Y394123D01*
X112648Y394215D01*
X112634Y394309D01*
X112592Y394432D01*
X112559Y394558D01*
X112519Y394645D01*
X112487Y394735D01*
X112424Y394849D01*
X112369Y394967D01*
X112315Y395045D01*
X112268Y395128D01*
X112186Y395229D01*
X112111Y395336D01*
X112043Y395403D01*
X111983Y395477D01*
X111884Y395561D01*
X111792Y395653D01*
X111713Y395707D01*
X111641Y395769D01*
X111528Y395835D01*
X111421Y395909D01*
X111304Y395966D01*
X111252Y395997D01*
X111210Y396012D01*
X111140Y396046D01*
X111111Y396058D01*
X106752Y400417D01*
X104393Y406112D01*
X104393Y411423D01*
X104379Y411586D01*
X104372Y411751D01*
X104359Y411810D01*
X104353Y411871D01*
X104310Y412030D01*
X104274Y412190D01*
X104251Y412247D01*
X104235Y412306D01*
X104164Y412454D01*
X104101Y412606D01*
X104068Y412657D01*
X104041Y412712D01*
X103946Y412846D01*
X103856Y412984D01*
X103805Y413042D01*
X103779Y413078D01*
X103736Y413121D01*
X103650Y413218D01*
X89172Y427696D01*
X89072Y427780D01*
X88979Y427870D01*
X88899Y427924D01*
X88826Y427985D01*
X88713Y428050D01*
X88606Y428123D01*
X88518Y428161D01*
X88435Y428209D01*
X88313Y428252D01*
X88194Y428305D01*
X88101Y428327D01*
X88011Y428359D01*
X87882Y428381D01*
X87756Y428411D01*
X87661Y428417D01*
X87567Y428433D01*
X87436Y428431D01*
X87307Y428439D01*
X87212Y428428D01*
X87116Y428427D01*
X86989Y428402D01*
X86860Y428387D01*
X86768Y428359D01*
X86674Y428341D01*
X86553Y428294D01*
X86429Y428257D01*
X86344Y428213D01*
X86254Y428179D01*
X86143Y428111D01*
X86027Y428052D01*
X85951Y427995D01*
X85870Y427945D01*
X85772Y427859D01*
X85669Y427780D01*
X85604Y427710D01*
X85532Y427647D01*
X85452Y427545D01*
X85363Y427449D01*
X85312Y427368D01*
X85253Y427294D01*
X85192Y427179D01*
X85122Y427069D01*
X85085Y426981D01*
X85040Y426897D01*
X85000Y426773D01*
X84951Y426653D01*
X84931Y426559D01*
X84901Y426469D01*
X84883Y426340D01*
X84856Y426213D01*
X84848Y426083D01*
X84840Y426023D01*
X84841Y425978D01*
X84837Y425901D01*
X84837Y381311D01*
X84851Y381148D01*
X84858Y380983D01*
X84871Y380924D01*
X84877Y380863D01*
X84920Y380704D01*
X84956Y380544D01*
X84979Y380487D01*
X84995Y380428D01*
X85066Y380280D01*
X85129Y380128D01*
X85162Y380077D01*
X85189Y380022D01*
X85284Y379888D01*
X85374Y379750D01*
X85425Y379692D01*
X85451Y379656D01*
X85494Y379613D01*
X85580Y379516D01*
X115864Y349232D01*
X115990Y349127D01*
X116111Y349015D01*
X116162Y348983D01*
X116209Y348944D01*
X116352Y348862D01*
X116491Y348774D01*
X116547Y348750D01*
X116600Y348720D01*
X116755Y348665D01*
X116907Y348603D01*
X116967Y348590D01*
X117024Y348569D01*
X117187Y348543D01*
X117347Y348508D01*
X117424Y348503D01*
X117469Y348496D01*
X117530Y348497D01*
X117659Y348489D01*
X122970Y348489D01*
X128665Y346130D01*
X133024Y341771D01*
X135383Y336076D01*
X135383Y329912D01*
X133024Y324217D01*
X128665Y319858D01*
X128636Y319846D01*
X128520Y319786D01*
X128401Y319734D01*
X128321Y319682D01*
X128237Y319638D01*
X128134Y319558D01*
X128025Y319486D01*
X127956Y319420D01*
X127881Y319362D01*
X127793Y319265D01*
X127699Y319176D01*
X127643Y319098D01*
X127579Y319028D01*
X127510Y318917D01*
X127433Y318812D01*
X127391Y318726D01*
X127341Y318645D01*
X127293Y318524D01*
X127236Y318408D01*
X127210Y318316D01*
X127174Y318227D01*
X127148Y318099D01*
X127113Y317974D01*
X127103Y317880D01*
X127084Y317786D01*
X127081Y317656D01*
X127068Y317526D01*
X127076Y317431D01*
X127073Y317336D01*
X127093Y317207D01*
X127103Y317078D01*
X127128Y316985D01*
X127142Y316891D01*
X127184Y316768D01*
X127217Y316642D01*
X127258Y316555D01*
X127289Y316465D01*
X127352Y316351D01*
X127407Y316233D01*
X127461Y316155D01*
X127508Y316072D01*
X127590Y315971D01*
X127665Y315865D01*
X127733Y315797D01*
X127793Y315723D01*
X127892Y315639D01*
X127984Y315547D01*
X128063Y315493D01*
X128135Y315431D01*
X128248Y315365D01*
X128355Y315291D01*
X128471Y315234D01*
X128524Y315203D01*
X128566Y315188D01*
X128636Y315154D01*
X128665Y315142D01*
X133024Y310783D01*
X135383Y305088D01*
X135383Y298924D01*
X133024Y293229D01*
X128665Y288870D01*
X122970Y286511D01*
X116806Y286511D01*
X111111Y288870D01*
X106752Y293229D01*
X104393Y298924D01*
X104393Y305088D01*
X106752Y310783D01*
X111111Y315142D01*
X111140Y315154D01*
X111256Y315214D01*
X111375Y315266D01*
X111455Y315318D01*
X111540Y315363D01*
X111642Y315442D01*
X111751Y315514D01*
X111820Y315580D01*
X111896Y315638D01*
X111983Y315735D01*
X112077Y315825D01*
X112133Y315902D01*
X112197Y315973D01*
X112266Y316083D01*
X112343Y316188D01*
X112385Y316274D01*
X112435Y316355D01*
X112483Y316476D01*
X112540Y316593D01*
X112566Y316684D01*
X112602Y316773D01*
X112628Y316901D01*
X112663Y317026D01*
X112673Y317121D01*
X112692Y317214D01*
X112695Y317344D01*
X112708Y317474D01*
X112700Y317569D01*
X112703Y317664D01*
X112683Y317793D01*
X112673Y317923D01*
X112648Y318015D01*
X112634Y318109D01*
X112592Y318232D01*
X112559Y318358D01*
X112518Y318445D01*
X112487Y318535D01*
X112424Y318649D01*
X112369Y318767D01*
X112315Y318845D01*
X112268Y318928D01*
X112186Y319029D01*
X112111Y319136D01*
X112043Y319203D01*
X111983Y319277D01*
X111884Y319361D01*
X111792Y319453D01*
X111713Y319507D01*
X111640Y319569D01*
X111528Y319635D01*
X111421Y319709D01*
X111305Y319766D01*
X111252Y319797D01*
X111210Y319812D01*
X111140Y319846D01*
X111111Y319858D01*
X106752Y324217D01*
X104393Y329912D01*
X104393Y335223D01*
X104392Y335240D01*
X104392Y335250D01*
X104386Y335304D01*
X104379Y335386D01*
X104372Y335551D01*
X104359Y335610D01*
X104353Y335671D01*
X104310Y335830D01*
X104274Y335990D01*
X104251Y336047D01*
X104235Y336106D01*
X104164Y336254D01*
X104101Y336406D01*
X104068Y336457D01*
X104041Y336512D01*
X103946Y336646D01*
X103856Y336784D01*
X103805Y336842D01*
X103779Y336878D01*
X103736Y336921D01*
X103650Y337018D01*
X76472Y364196D01*
X76372Y364280D01*
X76279Y364370D01*
X76199Y364424D01*
X76126Y364485D01*
X76013Y364550D01*
X75906Y364623D01*
X75818Y364661D01*
X75735Y364709D01*
X75613Y364752D01*
X75494Y364805D01*
X75401Y364827D01*
X75311Y364859D01*
X75182Y364881D01*
X75056Y364911D01*
X74961Y364917D01*
X74867Y364933D01*
X74736Y364931D01*
X74607Y364939D01*
X74512Y364928D01*
X74416Y364927D01*
X74289Y364902D01*
X74160Y364887D01*
X74068Y364859D01*
X73974Y364841D01*
X73853Y364794D01*
X73729Y364757D01*
X73644Y364713D01*
X73554Y364679D01*
X73443Y364611D01*
X73327Y364552D01*
X73251Y364495D01*
X73170Y364445D01*
X73072Y364359D01*
X72969Y364280D01*
X72904Y364210D01*
X72832Y364147D01*
X72752Y364045D01*
X72663Y363949D01*
X72612Y363869D01*
X72553Y363794D01*
X72492Y363679D01*
X72422Y363569D01*
X72385Y363481D01*
X72340Y363397D01*
X72300Y363273D01*
X72251Y363153D01*
X72231Y363059D01*
X72201Y362969D01*
X72183Y362840D01*
X72156Y362713D01*
X72148Y362583D01*
X72140Y362523D01*
X72141Y362478D01*
X72137Y362401D01*
X72137Y317811D01*
X72151Y317648D01*
X72158Y317483D01*
X72171Y317424D01*
X72177Y317363D01*
X72220Y317204D01*
X72256Y317044D01*
X72279Y316987D01*
X72295Y316928D01*
X72366Y316780D01*
X72429Y316628D01*
X72462Y316577D01*
X72489Y316522D01*
X72584Y316388D01*
X72674Y316250D01*
X72725Y316192D01*
X72751Y316156D01*
X72794Y316113D01*
X72880Y316016D01*
X115864Y273032D01*
X115990Y272927D01*
X116111Y272815D01*
X116162Y272783D01*
X116209Y272744D01*
X116352Y272662D01*
X116491Y272574D01*
X116547Y272550D01*
X116600Y272520D01*
X116755Y272465D01*
X116907Y272403D01*
X116967Y272390D01*
X117024Y272369D01*
X117187Y272343D01*
X117347Y272308D01*
X117424Y272303D01*
X117469Y272296D01*
X117530Y272297D01*
X117659Y272289D01*
X122970Y272289D01*
X128665Y269930D01*
X133024Y265571D01*
X135383Y259876D01*
X135383Y253712D01*
X133024Y248017D01*
X128665Y243658D01*
X128636Y243646D01*
X128520Y243586D01*
X128401Y243534D01*
X128321Y243482D01*
X128237Y243438D01*
X128134Y243358D01*
X128025Y243286D01*
X127956Y243220D01*
X127881Y243162D01*
X127793Y243065D01*
X127699Y242976D01*
X127643Y242898D01*
X127579Y242828D01*
X127510Y242717D01*
X127433Y242612D01*
X127391Y242526D01*
X127341Y242445D01*
X127293Y242324D01*
X127236Y242208D01*
X127210Y242116D01*
X127174Y242027D01*
X127148Y241899D01*
X127113Y241774D01*
X127103Y241680D01*
X127084Y241586D01*
X127081Y241456D01*
X127068Y241326D01*
X127076Y241231D01*
X127073Y241136D01*
X127093Y241007D01*
X127103Y240878D01*
X127128Y240785D01*
X127142Y240691D01*
X127184Y240568D01*
X127217Y240442D01*
X127258Y240355D01*
X127289Y240265D01*
X127352Y240151D01*
X127407Y240033D01*
X127461Y239955D01*
X127508Y239872D01*
X127590Y239771D01*
X127665Y239665D01*
X127733Y239597D01*
X127793Y239523D01*
X127892Y239439D01*
X127984Y239347D01*
X128063Y239293D01*
X128135Y239231D01*
X128248Y239165D01*
X128355Y239091D01*
X128471Y239034D01*
X128524Y239003D01*
X128566Y238988D01*
X128636Y238954D01*
X128665Y238942D01*
X133024Y234583D01*
X135383Y228888D01*
X135383Y222724D01*
X133024Y217029D01*
X128665Y212670D01*
X122970Y210311D01*
X116806Y210311D01*
G37*
%LPD*%
%LPC*%
G36*
X181830Y210311D02*
X181830Y210311D01*
X176135Y212670D01*
X171776Y217029D01*
X169417Y222724D01*
X169417Y228888D01*
X171776Y234583D01*
X176135Y238942D01*
X176164Y238954D01*
X176280Y239014D01*
X176399Y239066D01*
X176479Y239118D01*
X176564Y239163D01*
X176666Y239242D01*
X176775Y239314D01*
X176844Y239380D01*
X176920Y239438D01*
X177007Y239535D01*
X177101Y239625D01*
X177157Y239702D01*
X177221Y239773D01*
X177290Y239883D01*
X177367Y239988D01*
X177409Y240074D01*
X177459Y240155D01*
X177507Y240276D01*
X177564Y240393D01*
X177590Y240484D01*
X177626Y240573D01*
X177652Y240701D01*
X177687Y240826D01*
X177697Y240921D01*
X177716Y241014D01*
X177719Y241144D01*
X177732Y241274D01*
X177724Y241369D01*
X177727Y241464D01*
X177707Y241593D01*
X177697Y241723D01*
X177672Y241815D01*
X177658Y241909D01*
X177616Y242032D01*
X177583Y242158D01*
X177542Y242245D01*
X177511Y242335D01*
X177448Y242449D01*
X177393Y242567D01*
X177339Y242645D01*
X177292Y242728D01*
X177210Y242829D01*
X177135Y242936D01*
X177067Y243003D01*
X177007Y243077D01*
X176908Y243161D01*
X176816Y243253D01*
X176737Y243307D01*
X176664Y243369D01*
X176552Y243435D01*
X176445Y243509D01*
X176329Y243566D01*
X176276Y243597D01*
X176234Y243612D01*
X176164Y243646D01*
X176135Y243658D01*
X171776Y248017D01*
X169417Y253712D01*
X169417Y259876D01*
X171776Y265571D01*
X176135Y269930D01*
X181830Y272289D01*
X187994Y272289D01*
X191052Y271022D01*
X191131Y270997D01*
X191206Y270964D01*
X191345Y270930D01*
X191482Y270887D01*
X191564Y270877D01*
X191644Y270857D01*
X191786Y270849D01*
X191929Y270830D01*
X192011Y270835D01*
X192093Y270830D01*
X192235Y270846D01*
X192378Y270854D01*
X192458Y270872D01*
X192540Y270882D01*
X192678Y270923D01*
X192817Y270956D01*
X192892Y270988D01*
X192971Y271012D01*
X193099Y271077D01*
X193230Y271134D01*
X193299Y271179D01*
X193373Y271216D01*
X193487Y271303D01*
X193606Y271382D01*
X193666Y271439D01*
X193731Y271488D01*
X193828Y271594D01*
X193932Y271692D01*
X193981Y271759D01*
X194037Y271820D01*
X194114Y271940D01*
X194198Y272056D01*
X194234Y272130D01*
X194278Y272199D01*
X194333Y272332D01*
X194396Y272460D01*
X194418Y272540D01*
X194449Y272616D01*
X194479Y272756D01*
X194519Y272894D01*
X194527Y272975D01*
X194544Y273056D01*
X194559Y273302D01*
X194563Y273342D01*
X194562Y273352D01*
X194563Y273368D01*
X194563Y279089D01*
X194549Y279252D01*
X194542Y279417D01*
X194529Y279476D01*
X194523Y279537D01*
X194480Y279696D01*
X194444Y279856D01*
X194421Y279913D01*
X194405Y279972D01*
X194334Y280120D01*
X194271Y280272D01*
X194238Y280323D01*
X194211Y280378D01*
X194116Y280512D01*
X194026Y280650D01*
X193975Y280708D01*
X193949Y280744D01*
X193906Y280787D01*
X193820Y280884D01*
X188936Y285768D01*
X188810Y285873D01*
X188689Y285985D01*
X188638Y286017D01*
X188591Y286056D01*
X188448Y286138D01*
X188309Y286226D01*
X188253Y286250D01*
X188200Y286280D01*
X188045Y286335D01*
X187893Y286397D01*
X187833Y286410D01*
X187776Y286431D01*
X187613Y286457D01*
X187453Y286492D01*
X187376Y286497D01*
X187331Y286504D01*
X187270Y286503D01*
X187141Y286511D01*
X181830Y286511D01*
X176135Y288870D01*
X171776Y293229D01*
X169417Y298924D01*
X169417Y304235D01*
X169403Y304398D01*
X169396Y304563D01*
X169383Y304622D01*
X169377Y304683D01*
X169334Y304842D01*
X169298Y305002D01*
X169275Y305059D01*
X169259Y305118D01*
X169188Y305266D01*
X169125Y305418D01*
X169092Y305469D01*
X169065Y305524D01*
X168970Y305658D01*
X168880Y305796D01*
X168829Y305854D01*
X168803Y305890D01*
X168760Y305933D01*
X168674Y306030D01*
X157778Y316926D01*
X156463Y320100D01*
X156463Y360112D01*
X157778Y363286D01*
X168674Y374182D01*
X168779Y374308D01*
X168891Y374429D01*
X168923Y374480D01*
X168962Y374527D01*
X169044Y374670D01*
X169132Y374809D01*
X169156Y374865D01*
X169186Y374918D01*
X169241Y375073D01*
X169303Y375225D01*
X169316Y375285D01*
X169337Y375342D01*
X169363Y375505D01*
X169398Y375665D01*
X169403Y375742D01*
X169410Y375787D01*
X169409Y375848D01*
X169417Y375977D01*
X169417Y381288D01*
X171776Y386983D01*
X176135Y391342D01*
X176164Y391354D01*
X176280Y391414D01*
X176399Y391466D01*
X176479Y391518D01*
X176564Y391563D01*
X176667Y391642D01*
X176775Y391714D01*
X176844Y391780D01*
X176920Y391838D01*
X177007Y391935D01*
X177101Y392025D01*
X177157Y392102D01*
X177221Y392173D01*
X177290Y392283D01*
X177367Y392388D01*
X177409Y392474D01*
X177459Y392555D01*
X177507Y392676D01*
X177564Y392793D01*
X177590Y392885D01*
X177626Y392973D01*
X177652Y393101D01*
X177687Y393226D01*
X177697Y393321D01*
X177716Y393414D01*
X177719Y393544D01*
X177732Y393674D01*
X177724Y393769D01*
X177727Y393864D01*
X177707Y393993D01*
X177697Y394123D01*
X177672Y394215D01*
X177658Y394309D01*
X177616Y394432D01*
X177583Y394558D01*
X177543Y394645D01*
X177511Y394735D01*
X177448Y394849D01*
X177393Y394967D01*
X177339Y395045D01*
X177292Y395128D01*
X177210Y395229D01*
X177135Y395336D01*
X177067Y395403D01*
X177007Y395477D01*
X176908Y395561D01*
X176816Y395653D01*
X176737Y395707D01*
X176665Y395769D01*
X176552Y395835D01*
X176445Y395909D01*
X176328Y395966D01*
X176276Y395997D01*
X176234Y396012D01*
X176164Y396046D01*
X176135Y396058D01*
X171776Y400417D01*
X169417Y406112D01*
X169417Y412276D01*
X171776Y417971D01*
X176135Y422330D01*
X181830Y424689D01*
X187994Y424689D01*
X191052Y423422D01*
X191131Y423397D01*
X191206Y423364D01*
X191345Y423330D01*
X191482Y423287D01*
X191564Y423277D01*
X191644Y423257D01*
X191786Y423249D01*
X191929Y423230D01*
X192011Y423235D01*
X192093Y423230D01*
X192235Y423246D01*
X192378Y423254D01*
X192458Y423272D01*
X192540Y423282D01*
X192678Y423323D01*
X192817Y423356D01*
X192892Y423388D01*
X192971Y423412D01*
X193099Y423477D01*
X193230Y423534D01*
X193299Y423579D01*
X193373Y423616D01*
X193487Y423703D01*
X193606Y423782D01*
X193666Y423839D01*
X193731Y423888D01*
X193828Y423994D01*
X193932Y424092D01*
X193981Y424159D01*
X194037Y424220D01*
X194114Y424340D01*
X194198Y424456D01*
X194234Y424530D01*
X194278Y424599D01*
X194333Y424732D01*
X194396Y424860D01*
X194418Y424940D01*
X194449Y425016D01*
X194479Y425156D01*
X194519Y425294D01*
X194527Y425375D01*
X194544Y425456D01*
X194559Y425702D01*
X194563Y425742D01*
X194562Y425752D01*
X194563Y425768D01*
X194563Y431489D01*
X194549Y431652D01*
X194542Y431817D01*
X194529Y431876D01*
X194523Y431937D01*
X194480Y432096D01*
X194444Y432256D01*
X194421Y432313D01*
X194405Y432372D01*
X194334Y432520D01*
X194271Y432672D01*
X194238Y432723D01*
X194211Y432778D01*
X194116Y432912D01*
X194026Y433050D01*
X193975Y433108D01*
X193949Y433144D01*
X193906Y433187D01*
X193820Y433284D01*
X188936Y438168D01*
X188810Y438273D01*
X188689Y438385D01*
X188638Y438417D01*
X188591Y438456D01*
X188448Y438538D01*
X188309Y438626D01*
X188253Y438650D01*
X188200Y438680D01*
X188045Y438735D01*
X187893Y438797D01*
X187833Y438810D01*
X187776Y438831D01*
X187613Y438857D01*
X187453Y438892D01*
X187376Y438897D01*
X187331Y438904D01*
X187270Y438903D01*
X187141Y438911D01*
X181830Y438911D01*
X176135Y441270D01*
X171776Y445629D01*
X169417Y451324D01*
X169417Y456635D01*
X169403Y456798D01*
X169396Y456963D01*
X169383Y457022D01*
X169377Y457083D01*
X169334Y457242D01*
X169298Y457402D01*
X169275Y457459D01*
X169259Y457518D01*
X169188Y457666D01*
X169125Y457818D01*
X169092Y457869D01*
X169065Y457924D01*
X168970Y458058D01*
X168880Y458196D01*
X168829Y458254D01*
X168803Y458290D01*
X168760Y458333D01*
X168674Y458430D01*
X106978Y520126D01*
X105663Y523300D01*
X105663Y566031D01*
X105653Y566148D01*
X105653Y566265D01*
X105633Y566372D01*
X105623Y566480D01*
X105593Y566593D01*
X105572Y566708D01*
X105521Y566854D01*
X105505Y566914D01*
X105489Y566947D01*
X105470Y567003D01*
X104421Y569535D01*
X104421Y573465D01*
X105925Y577096D01*
X108704Y579875D01*
X112335Y581379D01*
X116265Y581379D01*
X119896Y579875D01*
X122675Y577096D01*
X124179Y573465D01*
X124179Y569535D01*
X123130Y567003D01*
X123095Y566892D01*
X123051Y566784D01*
X123028Y566677D01*
X122995Y566574D01*
X122981Y566458D01*
X122956Y566343D01*
X122946Y566190D01*
X122939Y566127D01*
X122940Y566091D01*
X122937Y566031D01*
X122937Y529647D01*
X122951Y529484D01*
X122958Y529319D01*
X122971Y529260D01*
X122977Y529199D01*
X123020Y529040D01*
X123056Y528880D01*
X123079Y528823D01*
X123095Y528764D01*
X123166Y528616D01*
X123229Y528464D01*
X123262Y528413D01*
X123289Y528358D01*
X123384Y528224D01*
X123474Y528086D01*
X123525Y528028D01*
X123551Y527992D01*
X123594Y527949D01*
X123680Y527852D01*
X180888Y470644D01*
X181014Y470539D01*
X181135Y470427D01*
X181186Y470395D01*
X181233Y470356D01*
X181376Y470274D01*
X181515Y470186D01*
X181571Y470162D01*
X181624Y470132D01*
X181779Y470077D01*
X181931Y470015D01*
X181991Y470002D01*
X182048Y469981D01*
X182211Y469955D01*
X182371Y469920D01*
X182448Y469915D01*
X182493Y469908D01*
X182554Y469909D01*
X182683Y469901D01*
X187994Y469901D01*
X193689Y467542D01*
X198048Y463183D01*
X200407Y457488D01*
X200407Y452177D01*
X200421Y452014D01*
X200428Y451849D01*
X200441Y451790D01*
X200447Y451729D01*
X200490Y451570D01*
X200526Y451410D01*
X200549Y451353D01*
X200565Y451294D01*
X200636Y451146D01*
X200699Y450994D01*
X200732Y450943D01*
X200759Y450888D01*
X200854Y450754D01*
X200944Y450616D01*
X200995Y450558D01*
X201021Y450522D01*
X201064Y450479D01*
X201150Y450382D01*
X210522Y441010D01*
X211837Y437836D01*
X211837Y394776D01*
X210522Y391602D01*
X201150Y382230D01*
X201045Y382104D01*
X200933Y381983D01*
X200901Y381932D01*
X200862Y381885D01*
X200780Y381742D01*
X200692Y381603D01*
X200668Y381547D01*
X200638Y381494D01*
X200583Y381339D01*
X200521Y381187D01*
X200508Y381127D01*
X200487Y381070D01*
X200461Y380907D01*
X200426Y380747D01*
X200421Y380670D01*
X200414Y380625D01*
X200415Y380564D01*
X200407Y380435D01*
X200407Y375124D01*
X198048Y369429D01*
X193689Y365070D01*
X187994Y362711D01*
X182683Y362711D01*
X182520Y362697D01*
X182355Y362690D01*
X182296Y362677D01*
X182235Y362671D01*
X182076Y362628D01*
X181916Y362592D01*
X181859Y362569D01*
X181800Y362553D01*
X181652Y362482D01*
X181500Y362419D01*
X181449Y362386D01*
X181394Y362359D01*
X181260Y362264D01*
X181122Y362174D01*
X181064Y362123D01*
X181028Y362097D01*
X180985Y362054D01*
X180888Y361968D01*
X174480Y355560D01*
X174375Y355434D01*
X174263Y355313D01*
X174231Y355262D01*
X174192Y355215D01*
X174110Y355072D01*
X174022Y354933D01*
X173998Y354877D01*
X173968Y354824D01*
X173913Y354669D01*
X173851Y354517D01*
X173838Y354457D01*
X173817Y354400D01*
X173791Y354237D01*
X173756Y354077D01*
X173751Y354000D01*
X173744Y353955D01*
X173745Y353894D01*
X173737Y353765D01*
X173737Y348937D01*
X173744Y348854D01*
X173742Y348772D01*
X173764Y348631D01*
X173777Y348488D01*
X173798Y348408D01*
X173811Y348327D01*
X173857Y348192D01*
X173895Y348054D01*
X173931Y347979D01*
X173957Y347901D01*
X174027Y347776D01*
X174089Y347647D01*
X174136Y347580D01*
X174177Y347508D01*
X174267Y347397D01*
X174351Y347281D01*
X174410Y347224D01*
X174462Y347160D01*
X174571Y347067D01*
X174673Y346967D01*
X174742Y346921D01*
X174804Y346867D01*
X174928Y346795D01*
X175046Y346715D01*
X175122Y346682D01*
X175193Y346640D01*
X175327Y346591D01*
X175458Y346533D01*
X175538Y346513D01*
X175616Y346485D01*
X175757Y346460D01*
X175896Y346426D01*
X175978Y346421D01*
X176059Y346407D01*
X176202Y346407D01*
X176345Y346398D01*
X176427Y346408D01*
X176509Y346408D01*
X176650Y346434D01*
X176792Y346450D01*
X176871Y346474D01*
X176952Y346489D01*
X177186Y346569D01*
X177223Y346581D01*
X177233Y346586D01*
X177248Y346591D01*
X181830Y348489D01*
X187994Y348489D01*
X193689Y346130D01*
X198048Y341771D01*
X200407Y336076D01*
X200407Y329912D01*
X198048Y324217D01*
X193689Y319858D01*
X193660Y319846D01*
X193544Y319786D01*
X193425Y319734D01*
X193345Y319682D01*
X193261Y319638D01*
X193158Y319558D01*
X193049Y319486D01*
X192980Y319420D01*
X192905Y319362D01*
X192817Y319265D01*
X192723Y319176D01*
X192667Y319098D01*
X192603Y319028D01*
X192534Y318917D01*
X192457Y318812D01*
X192415Y318726D01*
X192365Y318645D01*
X192317Y318524D01*
X192260Y318408D01*
X192234Y318316D01*
X192198Y318227D01*
X192172Y318099D01*
X192137Y317974D01*
X192127Y317880D01*
X192108Y317786D01*
X192105Y317656D01*
X192092Y317526D01*
X192100Y317431D01*
X192097Y317336D01*
X192117Y317207D01*
X192127Y317078D01*
X192152Y316985D01*
X192166Y316891D01*
X192208Y316768D01*
X192241Y316642D01*
X192282Y316555D01*
X192313Y316465D01*
X192376Y316351D01*
X192431Y316233D01*
X192485Y316155D01*
X192532Y316072D01*
X192614Y315971D01*
X192689Y315865D01*
X192757Y315797D01*
X192817Y315723D01*
X192916Y315639D01*
X193008Y315547D01*
X193087Y315493D01*
X193159Y315431D01*
X193272Y315365D01*
X193379Y315291D01*
X193495Y315234D01*
X193548Y315203D01*
X193590Y315188D01*
X193660Y315154D01*
X193689Y315142D01*
X198048Y310783D01*
X200407Y305088D01*
X200407Y299777D01*
X200421Y299614D01*
X200428Y299449D01*
X200441Y299390D01*
X200447Y299329D01*
X200490Y299170D01*
X200526Y299010D01*
X200549Y298953D01*
X200565Y298894D01*
X200636Y298746D01*
X200699Y298594D01*
X200732Y298543D01*
X200759Y298488D01*
X200854Y298354D01*
X200944Y298216D01*
X200995Y298158D01*
X201021Y298122D01*
X201064Y298079D01*
X201150Y297982D01*
X210522Y288610D01*
X211837Y285436D01*
X211837Y242376D01*
X210522Y239202D01*
X207735Y236415D01*
X201150Y229830D01*
X201045Y229704D01*
X200933Y229583D01*
X200901Y229532D01*
X200862Y229485D01*
X200780Y229342D01*
X200692Y229203D01*
X200668Y229147D01*
X200638Y229094D01*
X200583Y228939D01*
X200521Y228787D01*
X200508Y228727D01*
X200487Y228670D01*
X200461Y228508D01*
X200426Y228347D01*
X200421Y228269D01*
X200414Y228225D01*
X200415Y228165D01*
X200407Y228035D01*
X200407Y222724D01*
X198048Y217029D01*
X193689Y212670D01*
X187994Y210311D01*
X181830Y210311D01*
G37*
%LPD*%
%LPC*%
G36*
X148925Y71235D02*
X148925Y71235D01*
X147126Y72795D01*
X146988Y72895D01*
X146855Y73000D01*
X146806Y73026D01*
X146761Y73059D01*
X146608Y73132D01*
X146458Y73213D01*
X146405Y73230D01*
X146355Y73254D01*
X146191Y73299D01*
X146030Y73352D01*
X145975Y73359D01*
X145921Y73374D01*
X145752Y73390D01*
X145584Y73413D01*
X145528Y73411D01*
X145473Y73416D01*
X145304Y73402D01*
X145134Y73395D01*
X145079Y73383D01*
X145024Y73378D01*
X144860Y73334D01*
X144694Y73297D01*
X144643Y73276D01*
X144589Y73261D01*
X144436Y73189D01*
X144279Y73124D01*
X144232Y73093D01*
X144182Y73070D01*
X144043Y72972D01*
X143901Y72879D01*
X143848Y72833D01*
X143814Y72809D01*
X143771Y72765D01*
X143666Y72672D01*
X142605Y71611D01*
X138964Y70103D01*
X135023Y70103D01*
X131910Y71393D01*
X131753Y71442D01*
X131599Y71499D01*
X131539Y71509D01*
X131481Y71527D01*
X131317Y71548D01*
X131155Y71577D01*
X131094Y71576D01*
X131034Y71584D01*
X130869Y71576D01*
X130705Y71575D01*
X130645Y71564D01*
X130584Y71561D01*
X130424Y71524D01*
X130262Y71494D01*
X130189Y71469D01*
X130146Y71459D01*
X130090Y71435D01*
X129967Y71393D01*
X126854Y70103D01*
X116139Y70103D01*
X112498Y71611D01*
X109711Y74398D01*
X108203Y78039D01*
X108203Y81981D01*
X109711Y85622D01*
X110846Y86756D01*
X110952Y86883D01*
X111063Y87004D01*
X111096Y87055D01*
X111135Y87102D01*
X111217Y87244D01*
X111305Y87383D01*
X111328Y87440D01*
X111358Y87493D01*
X111413Y87648D01*
X111476Y87800D01*
X111489Y87859D01*
X111509Y87917D01*
X111536Y88079D01*
X111571Y88240D01*
X111575Y88317D01*
X111583Y88361D01*
X111582Y88422D01*
X111590Y88552D01*
X111590Y101948D01*
X111575Y102112D01*
X111569Y102276D01*
X111555Y102336D01*
X111550Y102397D01*
X111507Y102555D01*
X111471Y102716D01*
X111448Y102772D01*
X111431Y102831D01*
X111361Y102979D01*
X111297Y103131D01*
X111264Y103183D01*
X111238Y103238D01*
X111143Y103371D01*
X111053Y103509D01*
X111002Y103567D01*
X110976Y103604D01*
X110932Y103646D01*
X110846Y103744D01*
X109711Y104878D01*
X108203Y108519D01*
X108203Y112461D01*
X109711Y116102D01*
X112498Y118889D01*
X116139Y120397D01*
X126854Y120397D01*
X129967Y119107D01*
X130124Y119058D01*
X130278Y119001D01*
X130338Y118991D01*
X130396Y118973D01*
X130560Y118952D01*
X130721Y118923D01*
X130782Y118924D01*
X130843Y118916D01*
X131007Y118924D01*
X131172Y118925D01*
X131232Y118936D01*
X131293Y118939D01*
X131453Y118976D01*
X131615Y119006D01*
X131688Y119031D01*
X131731Y119041D01*
X131787Y119065D01*
X131910Y119107D01*
X135023Y120397D01*
X149115Y120397D01*
X155500Y117752D01*
X155703Y117688D01*
X155904Y117623D01*
X155917Y117621D01*
X155930Y117617D01*
X156141Y117590D01*
X156350Y117562D01*
X156363Y117562D01*
X156376Y117561D01*
X156587Y117571D01*
X156800Y117580D01*
X156813Y117583D01*
X156826Y117584D01*
X157032Y117631D01*
X157239Y117678D01*
X157252Y117683D01*
X157264Y117686D01*
X157459Y117769D01*
X157655Y117851D01*
X157666Y117858D01*
X157678Y117864D01*
X157855Y117981D01*
X158033Y118096D01*
X158045Y118106D01*
X158054Y118112D01*
X158083Y118139D01*
X158267Y118302D01*
X158853Y118889D01*
X162494Y120397D01*
X168129Y120397D01*
X171770Y118889D01*
X174557Y116102D01*
X176105Y112365D01*
X176105Y112361D01*
X176109Y112345D01*
X176111Y112329D01*
X176169Y112128D01*
X176223Y111927D01*
X176230Y111912D01*
X176235Y111896D01*
X176328Y111707D01*
X176417Y111520D01*
X176426Y111507D01*
X176434Y111492D01*
X176558Y111323D01*
X176679Y111154D01*
X176691Y111143D01*
X176701Y111129D01*
X176852Y110986D01*
X177002Y110840D01*
X177015Y110831D01*
X177027Y110819D01*
X177202Y110705D01*
X177375Y110588D01*
X177390Y110581D01*
X177404Y110572D01*
X177596Y110490D01*
X177786Y110406D01*
X177802Y110402D01*
X177818Y110395D01*
X178022Y110348D01*
X178224Y110299D01*
X178240Y110298D01*
X178256Y110294D01*
X178568Y110271D01*
X181011Y110236D01*
X183485Y110200D01*
X183486Y110200D01*
X183998Y110193D01*
X189832Y108897D01*
X192556Y107670D01*
X194353Y106861D01*
X197054Y103991D01*
X198451Y100306D01*
X198331Y96366D01*
X197800Y95187D01*
X197788Y95152D01*
X197772Y95120D01*
X197715Y94939D01*
X197653Y94761D01*
X197647Y94726D01*
X197636Y94691D01*
X197612Y94503D01*
X197582Y94317D01*
X197583Y94280D01*
X197578Y94244D01*
X197588Y94055D01*
X197592Y93866D01*
X197599Y93831D01*
X197601Y93795D01*
X197643Y93610D01*
X197680Y93425D01*
X197694Y93391D01*
X197702Y93356D01*
X197776Y93182D01*
X197846Y93006D01*
X197865Y92975D01*
X197879Y92942D01*
X197983Y92784D01*
X198032Y92705D01*
X200307Y87284D01*
X200312Y81540D01*
X198098Y76240D01*
X194009Y72206D01*
X188679Y70063D01*
X185808Y70104D01*
X183333Y70140D01*
X183332Y70140D01*
X182603Y70150D01*
X176297Y71297D01*
X173630Y72256D01*
X173483Y72295D01*
X173338Y72342D01*
X173265Y72352D01*
X173194Y72371D01*
X173043Y72383D01*
X172892Y72403D01*
X172818Y72400D01*
X172745Y72406D01*
X172594Y72391D01*
X172442Y72385D01*
X172370Y72369D01*
X172297Y72362D01*
X172151Y72320D01*
X172002Y72288D01*
X171935Y72259D01*
X171864Y72239D01*
X171727Y72173D01*
X171587Y72114D01*
X171525Y72074D01*
X171459Y72042D01*
X171336Y71952D01*
X171209Y71870D01*
X171138Y71807D01*
X171096Y71776D01*
X171057Y71735D01*
X170974Y71663D01*
X170923Y71611D01*
X167282Y70103D01*
X163341Y70103D01*
X160542Y71263D01*
X160514Y71271D01*
X160488Y71284D01*
X160300Y71338D01*
X160112Y71397D01*
X160083Y71401D01*
X160055Y71409D01*
X159861Y71429D01*
X159666Y71454D01*
X159636Y71453D01*
X159607Y71456D01*
X159412Y71441D01*
X159216Y71431D01*
X159188Y71424D01*
X159158Y71422D01*
X158968Y71373D01*
X158778Y71329D01*
X158751Y71317D01*
X158722Y71310D01*
X158435Y71188D01*
X156595Y70268D01*
X152664Y69989D01*
X148925Y71235D01*
G37*
%LPD*%
%LPC*%
G36*
X159839Y533399D02*
X159839Y533399D01*
X151681Y541557D01*
X151654Y541580D01*
X151632Y541606D01*
X151483Y541723D01*
X151336Y541846D01*
X151305Y541864D01*
X151278Y541885D01*
X151111Y541975D01*
X150945Y542070D01*
X150912Y542081D01*
X150882Y542098D01*
X150700Y542157D01*
X150520Y542220D01*
X150486Y542226D01*
X150453Y542237D01*
X150264Y542263D01*
X150076Y542294D01*
X150042Y542293D01*
X150007Y542298D01*
X149816Y542290D01*
X149626Y542288D01*
X149592Y542281D01*
X149557Y542280D01*
X149371Y542239D01*
X149184Y542202D01*
X149152Y542190D01*
X149118Y542182D01*
X148942Y542109D01*
X148764Y542040D01*
X148734Y542022D01*
X148702Y542009D01*
X148542Y541905D01*
X148379Y541806D01*
X148353Y541783D01*
X148324Y541764D01*
X148090Y541557D01*
X143488Y536955D01*
X142239Y536955D01*
X142239Y546100D01*
X142239Y555245D01*
X143488Y555245D01*
X148090Y550643D01*
X148117Y550620D01*
X148140Y550594D01*
X148288Y550477D01*
X148435Y550354D01*
X148466Y550336D01*
X148493Y550315D01*
X148661Y550225D01*
X148826Y550130D01*
X148859Y550119D01*
X148890Y550102D01*
X149071Y550043D01*
X149251Y549980D01*
X149285Y549974D01*
X149318Y549963D01*
X149506Y549937D01*
X149695Y549906D01*
X149729Y549906D01*
X149764Y549902D01*
X149954Y549910D01*
X150145Y549912D01*
X150179Y549919D01*
X150214Y549920D01*
X150400Y549961D01*
X150587Y549998D01*
X150620Y550010D01*
X150653Y550018D01*
X150829Y550091D01*
X151007Y550160D01*
X151037Y550178D01*
X151069Y550191D01*
X151229Y550295D01*
X151392Y550394D01*
X151418Y550417D01*
X151447Y550436D01*
X151681Y550643D01*
X159839Y558801D01*
X170361Y558801D01*
X173681Y555480D01*
X173807Y555375D01*
X173928Y555263D01*
X173980Y555231D01*
X174026Y555192D01*
X174169Y555110D01*
X174308Y555022D01*
X174364Y554998D01*
X174417Y554968D01*
X174572Y554913D01*
X174724Y554851D01*
X174784Y554838D01*
X174842Y554817D01*
X175004Y554791D01*
X175165Y554756D01*
X175242Y554751D01*
X175286Y554744D01*
X175347Y554745D01*
X175477Y554737D01*
X211271Y554737D01*
X211434Y554751D01*
X211599Y554758D01*
X211658Y554771D01*
X211719Y554777D01*
X211878Y554820D01*
X212038Y554856D01*
X212095Y554879D01*
X212154Y554895D01*
X212302Y554966D01*
X212454Y555029D01*
X212505Y555062D01*
X212560Y555089D01*
X212694Y555184D01*
X212832Y555274D01*
X212890Y555325D01*
X212926Y555351D01*
X212969Y555394D01*
X213066Y555480D01*
X231326Y573740D01*
X231401Y573830D01*
X231483Y573913D01*
X231545Y574002D01*
X231615Y574086D01*
X231673Y574187D01*
X231739Y574283D01*
X231807Y574422D01*
X231838Y574477D01*
X231850Y574511D01*
X231877Y574564D01*
X232925Y577096D01*
X235704Y579875D01*
X239335Y581379D01*
X243265Y581379D01*
X244232Y580978D01*
X244273Y580965D01*
X244311Y580947D01*
X244487Y580898D01*
X244662Y580843D01*
X244704Y580838D01*
X244745Y580827D01*
X244926Y580810D01*
X245108Y580787D01*
X245151Y580789D01*
X245193Y580785D01*
X245375Y580800D01*
X245558Y580810D01*
X245599Y580819D01*
X245642Y580823D01*
X245819Y580870D01*
X245997Y580912D01*
X246036Y580929D01*
X246077Y580940D01*
X246242Y581017D01*
X246410Y581090D01*
X246446Y581113D01*
X246484Y581131D01*
X246633Y581237D01*
X246786Y581338D01*
X246817Y581367D01*
X246851Y581392D01*
X246979Y581522D01*
X247112Y581649D01*
X247137Y581683D01*
X247167Y581713D01*
X247269Y581864D01*
X247378Y582012D01*
X247396Y582050D01*
X247420Y582085D01*
X247495Y582252D01*
X247575Y582417D01*
X247587Y582458D01*
X247604Y582496D01*
X247648Y582674D01*
X247698Y582850D01*
X247702Y582892D01*
X247713Y582933D01*
X247725Y583116D01*
X247743Y583298D01*
X247740Y583340D01*
X247742Y583383D01*
X247722Y583564D01*
X247708Y583747D01*
X247697Y583788D01*
X247692Y583830D01*
X247640Y584005D01*
X247594Y584182D01*
X247576Y584221D01*
X247564Y584262D01*
X247481Y584425D01*
X247404Y584591D01*
X247380Y584626D01*
X247361Y584664D01*
X247251Y584810D01*
X247146Y584960D01*
X247116Y584990D01*
X247090Y585024D01*
X246867Y585242D01*
X246863Y585246D01*
X246783Y585407D01*
X246698Y585545D01*
X246619Y585687D01*
X246571Y585751D01*
X246546Y585790D01*
X246506Y585835D01*
X246430Y585935D01*
X246312Y586071D01*
X246092Y586731D01*
X246082Y586753D01*
X246076Y586777D01*
X245954Y587064D01*
X245643Y587687D01*
X245630Y587866D01*
X245604Y588026D01*
X245586Y588187D01*
X245566Y588265D01*
X245558Y588310D01*
X245538Y588367D01*
X245506Y588489D01*
X243248Y595263D01*
X243441Y597985D01*
X244480Y600062D01*
X244518Y600158D01*
X244564Y600250D01*
X244600Y600367D01*
X244645Y600481D01*
X244665Y600582D01*
X244695Y600681D01*
X244709Y600803D01*
X244733Y600923D01*
X244735Y601026D01*
X244747Y601128D01*
X244739Y601250D01*
X244742Y601373D01*
X244726Y601475D01*
X244719Y601577D01*
X244690Y601697D01*
X244671Y601818D01*
X244637Y601915D01*
X244613Y602015D01*
X244563Y602127D01*
X244523Y602243D01*
X244472Y602333D01*
X244431Y602427D01*
X244332Y602583D01*
X244302Y602635D01*
X244285Y602655D01*
X244263Y602690D01*
X243789Y603343D01*
X242936Y605017D01*
X242355Y606804D01*
X242315Y607061D01*
X254000Y607061D01*
X265685Y607061D01*
X265645Y606804D01*
X265064Y605017D01*
X264794Y604487D01*
X264726Y604319D01*
X264653Y604152D01*
X264642Y604110D01*
X264626Y604070D01*
X264589Y603892D01*
X264546Y603715D01*
X264543Y603671D01*
X264535Y603629D01*
X264530Y603447D01*
X264518Y603266D01*
X264523Y603222D01*
X264522Y603179D01*
X264549Y602999D01*
X264570Y602818D01*
X264583Y602777D01*
X264590Y602734D01*
X264648Y602562D01*
X264701Y602387D01*
X264720Y602348D01*
X264734Y602307D01*
X264822Y602148D01*
X264905Y601986D01*
X264931Y601951D01*
X264952Y601913D01*
X265067Y601772D01*
X265177Y601627D01*
X265209Y601598D01*
X265237Y601564D01*
X265374Y601445D01*
X265508Y601322D01*
X265545Y601299D01*
X265578Y601270D01*
X265734Y601178D01*
X265888Y601080D01*
X265928Y601064D01*
X265966Y601042D01*
X266136Y600979D01*
X266305Y600909D01*
X266347Y600900D01*
X266388Y600885D01*
X266567Y600853D01*
X266745Y600815D01*
X266798Y600811D01*
X266831Y600805D01*
X266894Y600805D01*
X267057Y600795D01*
X267302Y600795D01*
X269823Y599751D01*
X270623Y598951D01*
X270650Y598929D01*
X270673Y598903D01*
X270822Y598785D01*
X270968Y598662D01*
X270999Y598645D01*
X271026Y598623D01*
X271194Y598534D01*
X271359Y598439D01*
X271392Y598427D01*
X271423Y598411D01*
X271604Y598352D01*
X271784Y598288D01*
X271818Y598283D01*
X271851Y598272D01*
X272039Y598246D01*
X272228Y598215D01*
X272263Y598215D01*
X272297Y598210D01*
X272487Y598218D01*
X272678Y598221D01*
X272712Y598227D01*
X272747Y598229D01*
X272933Y598270D01*
X273075Y598298D01*
X285239Y598298D01*
X293498Y590039D01*
X293498Y578361D01*
X285239Y570102D01*
X273561Y570102D01*
X265302Y578361D01*
X265302Y580136D01*
X265299Y580171D01*
X265301Y580205D01*
X265279Y580394D01*
X265262Y580585D01*
X265253Y580618D01*
X265249Y580652D01*
X265194Y580835D01*
X265144Y581019D01*
X265129Y581050D01*
X265119Y581083D01*
X265032Y581253D01*
X264950Y581426D01*
X264930Y581454D01*
X264915Y581485D01*
X264799Y581637D01*
X264688Y581792D01*
X264663Y581816D01*
X264643Y581843D01*
X264503Y581972D01*
X264366Y582106D01*
X264337Y582125D01*
X264311Y582149D01*
X264150Y582251D01*
X263993Y582358D01*
X263961Y582372D01*
X263932Y582390D01*
X263755Y582463D01*
X263581Y582540D01*
X263547Y582548D01*
X263515Y582561D01*
X263328Y582601D01*
X263143Y582647D01*
X263109Y582649D01*
X263075Y582656D01*
X262763Y582675D01*
X256729Y582675D01*
X256649Y582722D01*
X256472Y582804D01*
X256297Y582890D01*
X256268Y582899D01*
X256241Y582911D01*
X256052Y582961D01*
X255864Y583015D01*
X255834Y583018D01*
X255805Y583026D01*
X255610Y583042D01*
X255416Y583062D01*
X255386Y583059D01*
X255356Y583062D01*
X255161Y583043D01*
X254967Y583028D01*
X254938Y583021D01*
X254908Y583018D01*
X254720Y582965D01*
X254531Y582916D01*
X254498Y582902D01*
X254475Y582895D01*
X254422Y582870D01*
X254244Y582794D01*
X254234Y582789D01*
X254055Y582777D01*
X253895Y582751D01*
X253734Y582733D01*
X253657Y582712D01*
X253611Y582705D01*
X253554Y582685D01*
X253432Y582653D01*
X253262Y582596D01*
X252567Y582645D01*
X252543Y582645D01*
X252520Y582648D01*
X252207Y582645D01*
X251513Y582596D01*
X251343Y582653D01*
X251185Y582690D01*
X251029Y582735D01*
X250949Y582746D01*
X250904Y582757D01*
X250844Y582760D01*
X250720Y582776D01*
X250277Y582808D01*
X250276Y582808D01*
X250266Y582809D01*
X250051Y582805D01*
X249826Y582802D01*
X249821Y582801D01*
X249816Y582801D01*
X249602Y582758D01*
X249384Y582716D01*
X249379Y582714D01*
X249374Y582713D01*
X249171Y582634D01*
X248964Y582554D01*
X248960Y582551D01*
X248955Y582549D01*
X248770Y582436D01*
X248579Y582320D01*
X248575Y582317D01*
X248571Y582314D01*
X248405Y582166D01*
X248242Y582022D01*
X248239Y582018D01*
X248235Y582014D01*
X248097Y581838D01*
X247963Y581669D01*
X247960Y581664D01*
X247957Y581660D01*
X247854Y581467D01*
X247750Y581272D01*
X247748Y581267D01*
X247746Y581262D01*
X247679Y581052D01*
X247611Y580844D01*
X247610Y580838D01*
X247608Y580833D01*
X247580Y580617D01*
X247549Y580398D01*
X247550Y580392D01*
X247549Y580387D01*
X247559Y580170D01*
X247568Y579948D01*
X247569Y579943D01*
X247569Y579937D01*
X247618Y579723D01*
X247665Y579508D01*
X247667Y579503D01*
X247669Y579498D01*
X247754Y579297D01*
X247839Y579093D01*
X247842Y579088D01*
X247844Y579083D01*
X247963Y578900D01*
X248083Y578715D01*
X248088Y578710D01*
X248090Y578706D01*
X248104Y578692D01*
X248290Y578480D01*
X249675Y577096D01*
X251179Y573465D01*
X251179Y569535D01*
X249675Y565904D01*
X246896Y563125D01*
X244364Y562077D01*
X244261Y562022D01*
X244153Y561977D01*
X244061Y561918D01*
X243965Y561868D01*
X243873Y561796D01*
X243774Y561733D01*
X243659Y561631D01*
X243609Y561592D01*
X243585Y561565D01*
X243540Y561526D01*
X220792Y538778D01*
X217618Y537463D01*
X175477Y537463D01*
X175313Y537449D01*
X175148Y537442D01*
X175089Y537429D01*
X175028Y537423D01*
X174869Y537380D01*
X174709Y537344D01*
X174653Y537321D01*
X174594Y537305D01*
X174445Y537234D01*
X174293Y537171D01*
X174242Y537138D01*
X174187Y537111D01*
X174053Y537016D01*
X173915Y536926D01*
X173857Y536875D01*
X173821Y536849D01*
X173778Y536806D01*
X173681Y536720D01*
X170361Y533399D01*
X159839Y533399D01*
G37*
%LPD*%
%LPC*%
G36*
X22318Y594105D02*
X22318Y594105D01*
X16623Y596464D01*
X12264Y600823D01*
X9905Y606518D01*
X9905Y612682D01*
X12264Y618377D01*
X14392Y620504D01*
X14414Y620531D01*
X14440Y620554D01*
X14558Y620703D01*
X14681Y620850D01*
X14698Y620880D01*
X14719Y620907D01*
X14809Y621076D01*
X14904Y621241D01*
X14915Y621273D01*
X14932Y621304D01*
X14991Y621485D01*
X15055Y621665D01*
X15060Y621699D01*
X15071Y621732D01*
X15097Y621921D01*
X15128Y622109D01*
X15128Y622144D01*
X15132Y622178D01*
X15125Y622369D01*
X15122Y622560D01*
X15115Y622594D01*
X15114Y622628D01*
X15073Y622814D01*
X15036Y623002D01*
X15024Y623034D01*
X15016Y623068D01*
X14943Y623243D01*
X14874Y623422D01*
X14856Y623451D01*
X14843Y623483D01*
X14740Y623643D01*
X14640Y623806D01*
X14617Y623832D01*
X14599Y623861D01*
X14392Y624096D01*
X12264Y626223D01*
X9905Y631918D01*
X9905Y638082D01*
X12264Y643777D01*
X16623Y648136D01*
X22318Y650495D01*
X28482Y650495D01*
X34177Y648136D01*
X38536Y643777D01*
X39839Y640632D01*
X39856Y640599D01*
X39868Y640564D01*
X39960Y640399D01*
X40047Y640233D01*
X40070Y640203D01*
X40088Y640171D01*
X40208Y640025D01*
X40323Y639877D01*
X40350Y639852D01*
X40374Y639823D01*
X40518Y639701D01*
X40657Y639575D01*
X40689Y639555D01*
X40717Y639531D01*
X40880Y639437D01*
X41039Y639337D01*
X41074Y639323D01*
X41106Y639305D01*
X41283Y639240D01*
X41458Y639171D01*
X41494Y639163D01*
X41529Y639150D01*
X41714Y639118D01*
X41899Y639080D01*
X41936Y639080D01*
X41973Y639073D01*
X42160Y639074D01*
X42349Y639070D01*
X42386Y639075D01*
X42423Y639076D01*
X42607Y639110D01*
X42794Y639139D01*
X42829Y639151D01*
X42866Y639157D01*
X43042Y639224D01*
X43220Y639285D01*
X43252Y639303D01*
X43287Y639316D01*
X43449Y639413D01*
X43613Y639504D01*
X43642Y639528D01*
X43674Y639547D01*
X43816Y639670D01*
X43961Y639790D01*
X43986Y639818D01*
X44014Y639842D01*
X44132Y639989D01*
X44254Y640132D01*
X44273Y640164D01*
X44296Y640193D01*
X44386Y640359D01*
X44481Y640521D01*
X44494Y640555D01*
X44512Y640588D01*
X44572Y640766D01*
X44636Y640943D01*
X44643Y640980D01*
X44655Y641015D01*
X44708Y641323D01*
X44896Y643012D01*
X46212Y645402D01*
X48705Y647396D01*
X48737Y647427D01*
X48914Y647584D01*
X49511Y648181D01*
X49539Y648192D01*
X49718Y648286D01*
X49898Y648375D01*
X49921Y648392D01*
X49938Y648401D01*
X49981Y648434D01*
X50154Y648555D01*
X50177Y648574D01*
X50988Y648809D01*
X51029Y648825D01*
X51253Y648902D01*
X52032Y649225D01*
X52062Y649225D01*
X52263Y649243D01*
X52464Y649257D01*
X52492Y649263D01*
X52511Y649265D01*
X52563Y649279D01*
X52769Y649325D01*
X52798Y649333D01*
X53637Y649240D01*
X53681Y649239D01*
X53917Y649225D01*
X54761Y649225D01*
X54788Y649213D01*
X54981Y649153D01*
X55172Y649089D01*
X55200Y649084D01*
X55218Y649078D01*
X55272Y649072D01*
X55480Y649035D01*
X55510Y649032D01*
X55760Y648894D01*
X55857Y648852D01*
X55950Y648800D01*
X56063Y648761D01*
X56172Y648713D01*
X56276Y648688D01*
X56376Y648654D01*
X56494Y648635D01*
X56610Y648607D01*
X56716Y648601D01*
X56821Y648585D01*
X56940Y648588D01*
X57059Y648580D01*
X57165Y648593D01*
X57271Y648596D01*
X57388Y648619D01*
X57506Y648634D01*
X57608Y648664D01*
X57712Y648686D01*
X57878Y648747D01*
X57937Y648765D01*
X57963Y648778D01*
X58005Y648793D01*
X58988Y649225D01*
X62435Y649225D01*
X62812Y649059D01*
X62992Y648999D01*
X63172Y648933D01*
X63206Y648927D01*
X63239Y648916D01*
X63427Y648888D01*
X63615Y648855D01*
X63650Y648855D01*
X63684Y648850D01*
X63875Y648855D01*
X64065Y648856D01*
X64099Y648862D01*
X64134Y648863D01*
X64321Y648903D01*
X64508Y648937D01*
X64548Y648951D01*
X64575Y648956D01*
X64631Y648979D01*
X64804Y649039D01*
X65253Y649225D01*
X68079Y649225D01*
X68107Y649216D01*
X68283Y649194D01*
X68458Y649165D01*
X68517Y649164D01*
X68554Y649159D01*
X68616Y649162D01*
X68770Y649160D01*
X71323Y649282D01*
X73890Y648359D01*
X75909Y646523D01*
X77072Y644055D01*
X77202Y641330D01*
X76738Y640038D01*
X76734Y640024D01*
X76729Y640012D01*
X76677Y639808D01*
X76624Y639603D01*
X76623Y639589D01*
X76619Y639575D01*
X76605Y639364D01*
X76588Y639154D01*
X76590Y639140D01*
X76589Y639126D01*
X76612Y638915D01*
X76633Y638706D01*
X76637Y638692D01*
X76638Y638678D01*
X76698Y638475D01*
X76756Y638273D01*
X76762Y638260D01*
X76766Y638246D01*
X76898Y637963D01*
X76961Y637849D01*
X77251Y635136D01*
X76481Y632518D01*
X74768Y630394D01*
X72373Y629087D01*
X71098Y628951D01*
X70950Y628922D01*
X70801Y628901D01*
X70730Y628878D01*
X70656Y628864D01*
X70516Y628809D01*
X70373Y628762D01*
X70307Y628727D01*
X70237Y628699D01*
X70109Y628621D01*
X69976Y628550D01*
X69917Y628503D01*
X69853Y628464D01*
X69741Y628364D01*
X69623Y628270D01*
X69573Y628214D01*
X69517Y628164D01*
X69424Y628046D01*
X69324Y627933D01*
X69285Y627869D01*
X69239Y627810D01*
X69169Y627677D01*
X69090Y627549D01*
X69063Y627478D01*
X69028Y627412D01*
X68982Y627269D01*
X68928Y627129D01*
X68914Y627055D01*
X68891Y626983D01*
X68871Y626834D01*
X68842Y626687D01*
X68841Y626611D01*
X68831Y626537D01*
X68838Y626387D01*
X68836Y626236D01*
X68848Y626162D01*
X68851Y626087D01*
X68885Y625941D01*
X68909Y625792D01*
X68934Y625721D01*
X68951Y625648D01*
X69009Y625510D01*
X69060Y625368D01*
X69097Y625302D01*
X69126Y625233D01*
X69208Y625108D01*
X69283Y624977D01*
X69331Y624919D01*
X69372Y624856D01*
X69475Y624747D01*
X69572Y624631D01*
X69630Y624583D01*
X69681Y624528D01*
X69801Y624439D01*
X69917Y624342D01*
X69982Y624305D01*
X70043Y624260D01*
X70177Y624194D01*
X70308Y624119D01*
X70379Y624094D01*
X70446Y624060D01*
X70590Y624018D01*
X70732Y623968D01*
X70806Y623956D01*
X70878Y623935D01*
X71028Y623919D01*
X71176Y623894D01*
X71274Y623893D01*
X71300Y623890D01*
X73890Y622959D01*
X75909Y621123D01*
X77072Y618655D01*
X77202Y615930D01*
X76738Y614638D01*
X76734Y614624D01*
X76729Y614612D01*
X76677Y614408D01*
X76624Y614203D01*
X76623Y614189D01*
X76619Y614175D01*
X76605Y613964D01*
X76588Y613754D01*
X76590Y613740D01*
X76589Y613726D01*
X76612Y613515D01*
X76633Y613306D01*
X76637Y613292D01*
X76638Y613278D01*
X76698Y613075D01*
X76756Y612873D01*
X76762Y612860D01*
X76766Y612846D01*
X76898Y612563D01*
X76961Y612449D01*
X77251Y609736D01*
X76481Y607118D01*
X75535Y605944D01*
X74768Y604994D01*
X72373Y603687D01*
X69660Y603397D01*
X69389Y603477D01*
X69360Y603483D01*
X69332Y603493D01*
X69139Y603527D01*
X68947Y603565D01*
X68918Y603566D01*
X68889Y603571D01*
X68692Y603570D01*
X68497Y603574D01*
X68468Y603569D01*
X68438Y603569D01*
X68246Y603534D01*
X68053Y603503D01*
X65253Y603503D01*
X64804Y603689D01*
X64622Y603747D01*
X64441Y603808D01*
X64407Y603814D01*
X64374Y603824D01*
X64185Y603848D01*
X63996Y603877D01*
X63962Y603876D01*
X63928Y603881D01*
X63737Y603871D01*
X63546Y603866D01*
X63512Y603860D01*
X63478Y603858D01*
X63292Y603815D01*
X63105Y603776D01*
X63066Y603762D01*
X63039Y603756D01*
X62983Y603732D01*
X62812Y603669D01*
X62435Y603503D01*
X58988Y603503D01*
X58818Y603578D01*
X58637Y603639D01*
X58458Y603705D01*
X58424Y603711D01*
X58391Y603722D01*
X58202Y603750D01*
X58014Y603783D01*
X57980Y603783D01*
X57946Y603788D01*
X57755Y603782D01*
X57564Y603781D01*
X57530Y603775D01*
X57496Y603774D01*
X57309Y603735D01*
X57121Y603700D01*
X57082Y603687D01*
X57055Y603681D01*
X56999Y603658D01*
X56826Y603599D01*
X56595Y603503D01*
X50198Y603503D01*
X47677Y604547D01*
X45747Y606477D01*
X45659Y606691D01*
X45598Y606807D01*
X45547Y606926D01*
X45494Y607006D01*
X45450Y607091D01*
X45370Y607193D01*
X45299Y607302D01*
X45233Y607371D01*
X45174Y607446D01*
X45078Y607533D01*
X44988Y607628D01*
X44911Y607684D01*
X44840Y607748D01*
X44730Y607817D01*
X44625Y607894D01*
X44539Y607936D01*
X44458Y607986D01*
X44337Y608034D01*
X44220Y608091D01*
X44128Y608117D01*
X44039Y608153D01*
X43912Y608179D01*
X43787Y608214D01*
X43692Y608224D01*
X43598Y608243D01*
X43468Y608246D01*
X43339Y608259D01*
X43244Y608251D01*
X43148Y608254D01*
X43020Y608234D01*
X42890Y608224D01*
X42798Y608199D01*
X42703Y608185D01*
X42580Y608142D01*
X42454Y608110D01*
X42368Y608069D01*
X42277Y608038D01*
X42164Y607975D01*
X42046Y607920D01*
X41967Y607866D01*
X41884Y607819D01*
X41784Y607737D01*
X41677Y607662D01*
X41610Y607594D01*
X41536Y607534D01*
X41451Y607435D01*
X41360Y607343D01*
X41305Y607264D01*
X41243Y607191D01*
X41178Y607079D01*
X41104Y606972D01*
X41047Y606855D01*
X41016Y606803D01*
X41001Y606761D01*
X40967Y606691D01*
X38536Y600823D01*
X34177Y596464D01*
X28482Y594105D01*
X22318Y594105D01*
G37*
%LPD*%
%LPC*%
G36*
X256539Y612139D02*
X256539Y612139D01*
X256539Y635000D01*
X256539Y650394D01*
X257510Y650079D01*
X258793Y649425D01*
X259957Y648579D01*
X260975Y647561D01*
X261821Y646397D01*
X262519Y645028D01*
X262523Y645019D01*
X262588Y644849D01*
X262611Y644812D01*
X262628Y644771D01*
X262728Y644619D01*
X262822Y644464D01*
X262851Y644432D01*
X262875Y644395D01*
X263000Y644263D01*
X263121Y644127D01*
X263155Y644100D01*
X263185Y644068D01*
X263331Y643960D01*
X263474Y643847D01*
X263512Y643827D01*
X263547Y643801D01*
X263710Y643721D01*
X263871Y643635D01*
X263912Y643621D01*
X263951Y643602D01*
X264126Y643552D01*
X264299Y643496D01*
X264342Y643490D01*
X264384Y643477D01*
X264565Y643459D01*
X264745Y643434D01*
X264789Y643436D01*
X264832Y643431D01*
X265012Y643445D01*
X265195Y643452D01*
X265237Y643462D01*
X265281Y643465D01*
X265457Y643511D01*
X265634Y643550D01*
X265674Y643567D01*
X265717Y643578D01*
X265882Y643654D01*
X266050Y643724D01*
X266086Y643747D01*
X266126Y643766D01*
X266275Y643869D01*
X266428Y643968D01*
X266468Y644004D01*
X266496Y644023D01*
X266540Y644067D01*
X266662Y644175D01*
X270623Y648136D01*
X273768Y649439D01*
X273801Y649456D01*
X273836Y649468D01*
X274001Y649560D01*
X274167Y649647D01*
X274197Y649670D01*
X274229Y649688D01*
X274375Y649808D01*
X274523Y649923D01*
X274548Y649950D01*
X274577Y649974D01*
X274699Y650118D01*
X274825Y650257D01*
X274845Y650289D01*
X274869Y650317D01*
X274963Y650480D01*
X275063Y650639D01*
X275077Y650674D01*
X275095Y650706D01*
X275160Y650883D01*
X275229Y651058D01*
X275237Y651094D01*
X275250Y651129D01*
X275282Y651314D01*
X275320Y651499D01*
X275320Y651536D01*
X275327Y651573D01*
X275326Y651760D01*
X275330Y651949D01*
X275325Y651986D01*
X275324Y652023D01*
X275290Y652207D01*
X275261Y652394D01*
X275249Y652429D01*
X275243Y652466D01*
X275176Y652642D01*
X275115Y652820D01*
X275097Y652852D01*
X275084Y652887D01*
X274987Y653049D01*
X274896Y653213D01*
X274872Y653242D01*
X274853Y653274D01*
X274730Y653416D01*
X274610Y653561D01*
X274582Y653586D01*
X274558Y653614D01*
X274411Y653732D01*
X274268Y653854D01*
X274236Y653873D01*
X274207Y653896D01*
X274041Y653986D01*
X273879Y654081D01*
X273845Y654094D01*
X273812Y654112D01*
X273634Y654172D01*
X273457Y654236D01*
X273420Y654243D01*
X273385Y654255D01*
X273077Y654308D01*
X271388Y654496D01*
X268998Y655812D01*
X267004Y658305D01*
X266973Y658337D01*
X266816Y658514D01*
X266219Y659111D01*
X266208Y659139D01*
X266114Y659318D01*
X266025Y659498D01*
X266008Y659521D01*
X265999Y659538D01*
X265966Y659581D01*
X265845Y659754D01*
X265826Y659777D01*
X265591Y660588D01*
X265575Y660629D01*
X265498Y660853D01*
X265175Y661632D01*
X265175Y661662D01*
X265157Y661863D01*
X265143Y662064D01*
X265137Y662092D01*
X265135Y662111D01*
X265121Y662163D01*
X265075Y662369D01*
X265067Y662398D01*
X265160Y663237D01*
X265161Y663281D01*
X265175Y663517D01*
X265175Y664361D01*
X265187Y664388D01*
X265206Y664450D01*
X265213Y664466D01*
X265220Y664495D01*
X265247Y664581D01*
X265311Y664772D01*
X265316Y664800D01*
X265322Y664818D01*
X265328Y664872D01*
X265365Y665080D01*
X265368Y665110D01*
X265506Y665360D01*
X265548Y665457D01*
X265600Y665550D01*
X265639Y665663D01*
X265687Y665772D01*
X265712Y665876D01*
X265746Y665976D01*
X265765Y666094D01*
X265793Y666210D01*
X265799Y666316D01*
X265815Y666421D01*
X265812Y666540D01*
X265820Y666659D01*
X265807Y666765D01*
X265804Y666871D01*
X265781Y666988D01*
X265766Y667106D01*
X265736Y667208D01*
X265714Y667312D01*
X265653Y667478D01*
X265635Y667537D01*
X265622Y667563D01*
X265607Y667605D01*
X265175Y668588D01*
X265175Y672035D01*
X265341Y672412D01*
X265401Y672592D01*
X265467Y672772D01*
X265473Y672806D01*
X265484Y672839D01*
X265512Y673026D01*
X265545Y673215D01*
X265545Y673250D01*
X265550Y673284D01*
X265545Y673475D01*
X265544Y673665D01*
X265538Y673699D01*
X265537Y673734D01*
X265497Y673921D01*
X265463Y674108D01*
X265449Y674148D01*
X265444Y674175D01*
X265421Y674231D01*
X265361Y674404D01*
X265175Y674853D01*
X265175Y677679D01*
X265184Y677707D01*
X265206Y677883D01*
X265235Y678058D01*
X265236Y678117D01*
X265241Y678154D01*
X265238Y678216D01*
X265240Y678370D01*
X265118Y680923D01*
X266041Y683490D01*
X267877Y685509D01*
X270345Y686672D01*
X273070Y686802D01*
X274362Y686338D01*
X274376Y686334D01*
X274388Y686329D01*
X274592Y686277D01*
X274797Y686224D01*
X274811Y686223D01*
X274825Y686219D01*
X275036Y686205D01*
X275246Y686188D01*
X275260Y686190D01*
X275274Y686189D01*
X275485Y686212D01*
X275694Y686233D01*
X275708Y686237D01*
X275722Y686238D01*
X275925Y686298D01*
X276127Y686356D01*
X276140Y686362D01*
X276154Y686366D01*
X276437Y686498D01*
X276551Y686561D01*
X279264Y686851D01*
X281882Y686081D01*
X284006Y684368D01*
X285313Y681973D01*
X285603Y679260D01*
X285523Y678989D01*
X285517Y678960D01*
X285507Y678932D01*
X285473Y678739D01*
X285435Y678547D01*
X285434Y678518D01*
X285429Y678489D01*
X285430Y678292D01*
X285426Y678097D01*
X285431Y678068D01*
X285431Y678038D01*
X285466Y677846D01*
X285497Y677653D01*
X285497Y674853D01*
X285311Y674404D01*
X285253Y674221D01*
X285192Y674041D01*
X285186Y674007D01*
X285176Y673974D01*
X285152Y673785D01*
X285123Y673596D01*
X285124Y673562D01*
X285119Y673528D01*
X285129Y673337D01*
X285133Y673146D01*
X285140Y673112D01*
X285142Y673078D01*
X285185Y672893D01*
X285224Y672705D01*
X285238Y672665D01*
X285244Y672639D01*
X285268Y672584D01*
X285331Y672412D01*
X285497Y672035D01*
X285497Y668588D01*
X285422Y668418D01*
X285361Y668237D01*
X285295Y668058D01*
X285289Y668024D01*
X285278Y667991D01*
X285250Y667803D01*
X285217Y667614D01*
X285217Y667580D01*
X285212Y667546D01*
X285218Y667355D01*
X285219Y667164D01*
X285225Y667130D01*
X285226Y667096D01*
X285265Y666909D01*
X285300Y666721D01*
X285313Y666682D01*
X285319Y666655D01*
X285342Y666599D01*
X285401Y666426D01*
X285497Y666195D01*
X285497Y659798D01*
X284453Y657277D01*
X282523Y655347D01*
X282309Y655259D01*
X282193Y655198D01*
X282074Y655147D01*
X281994Y655094D01*
X281909Y655050D01*
X281807Y654970D01*
X281698Y654899D01*
X281629Y654833D01*
X281554Y654774D01*
X281467Y654678D01*
X281372Y654588D01*
X281316Y654511D01*
X281252Y654440D01*
X281183Y654330D01*
X281106Y654225D01*
X281064Y654139D01*
X281014Y654058D01*
X280966Y653937D01*
X280909Y653820D01*
X280883Y653728D01*
X280847Y653639D01*
X280821Y653512D01*
X280786Y653387D01*
X280776Y653292D01*
X280757Y653198D01*
X280754Y653068D01*
X280741Y652939D01*
X280749Y652844D01*
X280746Y652748D01*
X280766Y652620D01*
X280776Y652490D01*
X280801Y652398D01*
X280815Y652303D01*
X280858Y652180D01*
X280890Y652054D01*
X280931Y651968D01*
X280962Y651877D01*
X281025Y651764D01*
X281080Y651646D01*
X281134Y651567D01*
X281181Y651484D01*
X281263Y651384D01*
X281338Y651277D01*
X281406Y651210D01*
X281466Y651136D01*
X281565Y651051D01*
X281657Y650960D01*
X281736Y650905D01*
X281809Y650843D01*
X281921Y650778D01*
X282028Y650704D01*
X282145Y650647D01*
X282197Y650616D01*
X282239Y650601D01*
X282309Y650567D01*
X288177Y648136D01*
X292536Y643777D01*
X294895Y638082D01*
X294895Y631918D01*
X292536Y626223D01*
X288177Y621864D01*
X282482Y619505D01*
X276318Y619505D01*
X270623Y621864D01*
X266662Y625825D01*
X266522Y625942D01*
X266387Y626063D01*
X266350Y626086D01*
X266317Y626114D01*
X266159Y626204D01*
X266004Y626300D01*
X265963Y626316D01*
X265926Y626337D01*
X265754Y626398D01*
X265585Y626465D01*
X265542Y626474D01*
X265501Y626488D01*
X265322Y626518D01*
X265143Y626554D01*
X265100Y626555D01*
X265057Y626562D01*
X264875Y626559D01*
X264693Y626563D01*
X264651Y626556D01*
X264607Y626556D01*
X264428Y626521D01*
X264248Y626492D01*
X264208Y626478D01*
X264165Y626470D01*
X263995Y626404D01*
X263823Y626345D01*
X263785Y626323D01*
X263745Y626308D01*
X263589Y626213D01*
X263431Y626124D01*
X263397Y626096D01*
X263360Y626074D01*
X263224Y625953D01*
X263083Y625837D01*
X263055Y625804D01*
X263023Y625776D01*
X262910Y625633D01*
X262792Y625494D01*
X262770Y625456D01*
X262743Y625422D01*
X262657Y625262D01*
X262566Y625105D01*
X262547Y625055D01*
X262531Y625026D01*
X262511Y624966D01*
X262497Y624929D01*
X261821Y623603D01*
X260970Y622432D01*
X260952Y622402D01*
X260930Y622375D01*
X260837Y622209D01*
X260739Y622045D01*
X260727Y622013D01*
X260710Y621983D01*
X260647Y621803D01*
X260579Y621624D01*
X260573Y621590D01*
X260562Y621557D01*
X260532Y621370D01*
X260497Y621182D01*
X260497Y621147D01*
X260491Y621113D01*
X260495Y620923D01*
X260494Y620731D01*
X260500Y620697D01*
X260500Y620663D01*
X260538Y620476D01*
X260570Y620288D01*
X260582Y620255D01*
X260589Y620221D01*
X260659Y620044D01*
X260724Y619864D01*
X260741Y619834D01*
X260754Y619802D01*
X260854Y619640D01*
X260950Y619475D01*
X260972Y619448D01*
X260990Y619419D01*
X261118Y619277D01*
X261241Y619132D01*
X261268Y619109D01*
X261291Y619084D01*
X261532Y618885D01*
X261778Y618706D01*
X263106Y617378D01*
X264211Y615857D01*
X265064Y614183D01*
X265645Y612396D01*
X265685Y612139D01*
X256539Y612139D01*
G37*
%LPD*%
%LPC*%
G36*
X116806Y438911D02*
X116806Y438911D01*
X111111Y441270D01*
X106752Y445629D01*
X104393Y451324D01*
X104393Y457488D01*
X106752Y463183D01*
X111111Y467542D01*
X116806Y469901D01*
X122970Y469901D01*
X128665Y467542D01*
X133024Y463183D01*
X135383Y457488D01*
X135383Y451324D01*
X133024Y445629D01*
X128665Y441270D01*
X122970Y438911D01*
X116806Y438911D01*
G37*
%LPD*%
%LPC*%
G36*
X116806Y165099D02*
X116806Y165099D01*
X111111Y167458D01*
X106752Y171817D01*
X104393Y177512D01*
X104393Y183676D01*
X106752Y189371D01*
X111111Y193730D01*
X116806Y196089D01*
X122970Y196089D01*
X128665Y193730D01*
X133024Y189371D01*
X135383Y183676D01*
X135383Y177512D01*
X133024Y171817D01*
X128665Y167458D01*
X122970Y165099D01*
X116806Y165099D01*
G37*
%LPD*%
%LPC*%
G36*
X187451Y183133D02*
X187451Y183133D01*
X187451Y192279D01*
X187708Y192239D01*
X189495Y191658D01*
X191169Y190805D01*
X192690Y189700D01*
X194018Y188372D01*
X195123Y186851D01*
X195976Y185177D01*
X196557Y183390D01*
X196597Y183133D01*
X187451Y183133D01*
G37*
%LPD*%
%LPC*%
G36*
X173227Y183133D02*
X173227Y183133D01*
X173267Y183390D01*
X173848Y185177D01*
X174701Y186851D01*
X175806Y188372D01*
X177134Y189700D01*
X178655Y190805D01*
X180329Y191658D01*
X182116Y192239D01*
X182373Y192279D01*
X182373Y183133D01*
X173227Y183133D01*
G37*
%LPD*%
%LPC*%
G36*
X187451Y178055D02*
X187451Y178055D01*
X196597Y178055D01*
X196557Y177798D01*
X195976Y176011D01*
X195123Y174337D01*
X194018Y172816D01*
X192690Y171488D01*
X191169Y170383D01*
X189495Y169530D01*
X187708Y168949D01*
X187451Y168909D01*
X187451Y178055D01*
G37*
%LPD*%
%LPC*%
G36*
X182116Y168949D02*
X182116Y168949D01*
X180329Y169530D01*
X178655Y170383D01*
X177134Y171488D01*
X175806Y172816D01*
X174701Y174337D01*
X173848Y176011D01*
X173267Y177798D01*
X173227Y178055D01*
X182373Y178055D01*
X182373Y168909D01*
X182116Y168949D01*
G37*
%LPD*%
%LPC*%
G36*
X218439Y586739D02*
X218439Y586739D01*
X218439Y594742D01*
X220267Y594742D01*
X226442Y588567D01*
X226442Y586739D01*
X218439Y586739D01*
G37*
%LPD*%
%LPC*%
G36*
X218439Y573658D02*
X218439Y573658D01*
X218439Y581661D01*
X226442Y581661D01*
X226442Y579833D01*
X220267Y573658D01*
X218439Y573658D01*
G37*
%LPD*%
%LPC*%
G36*
X130555Y548639D02*
X130555Y548639D01*
X130555Y549888D01*
X135912Y555245D01*
X137161Y555245D01*
X137161Y548639D01*
X130555Y548639D01*
G37*
%LPD*%
%LPC*%
G36*
X135912Y536955D02*
X135912Y536955D01*
X130555Y542312D01*
X130555Y543561D01*
X137161Y543561D01*
X137161Y536955D01*
X135912Y536955D01*
G37*
%LPD*%
D10*
X121102Y635762D02*
X119634Y637596D01*
X126238Y637596D01*
X126238Y635762D02*
X126238Y639431D01*
X122936Y643077D02*
X122791Y643079D01*
X122646Y643085D01*
X122501Y643094D01*
X122356Y643108D01*
X122212Y643125D01*
X122069Y643147D01*
X121925Y643172D01*
X121783Y643201D01*
X121642Y643233D01*
X121501Y643270D01*
X121362Y643310D01*
X121223Y643354D01*
X121086Y643401D01*
X120950Y643452D01*
X120816Y643507D01*
X120683Y643565D01*
X120551Y643627D01*
X120552Y643627D02*
X120483Y643653D01*
X120416Y643682D01*
X120350Y643715D01*
X120287Y643751D01*
X120225Y643791D01*
X120166Y643834D01*
X120109Y643880D01*
X120055Y643929D01*
X120003Y643981D01*
X119954Y644036D01*
X119909Y644093D01*
X119866Y644153D01*
X119827Y644215D01*
X119791Y644278D01*
X119758Y644344D01*
X119730Y644411D01*
X119704Y644480D01*
X119683Y644550D01*
X119665Y644621D01*
X119652Y644693D01*
X119642Y644766D01*
X119636Y644839D01*
X119634Y644912D01*
X119636Y644985D01*
X119642Y645058D01*
X119652Y645131D01*
X119665Y645203D01*
X119683Y645274D01*
X119704Y645344D01*
X119730Y645412D01*
X119758Y645480D01*
X119791Y645545D01*
X119827Y645609D01*
X119866Y645671D01*
X119908Y645730D01*
X119954Y645787D01*
X120003Y645842D01*
X120054Y645894D01*
X120109Y645943D01*
X120166Y645989D01*
X120225Y646032D01*
X120286Y646072D01*
X120350Y646108D01*
X120415Y646141D01*
X120482Y646170D01*
X120551Y646196D01*
X120683Y646258D01*
X120816Y646316D01*
X120950Y646371D01*
X121086Y646422D01*
X121223Y646469D01*
X121362Y646513D01*
X121501Y646553D01*
X121642Y646590D01*
X121783Y646622D01*
X121925Y646651D01*
X122068Y646676D01*
X122212Y646698D01*
X122356Y646715D01*
X122501Y646729D01*
X122646Y646738D01*
X122791Y646744D01*
X122936Y646746D01*
X122936Y643078D02*
X123081Y643080D01*
X123226Y643086D01*
X123371Y643095D01*
X123516Y643109D01*
X123660Y643126D01*
X123803Y643148D01*
X123947Y643173D01*
X124089Y643202D01*
X124230Y643234D01*
X124371Y643271D01*
X124510Y643311D01*
X124649Y643355D01*
X124786Y643402D01*
X124922Y643453D01*
X125056Y643508D01*
X125189Y643566D01*
X125321Y643628D01*
X125320Y643627D02*
X125389Y643653D01*
X125456Y643682D01*
X125522Y643715D01*
X125585Y643751D01*
X125647Y643791D01*
X125706Y643834D01*
X125763Y643880D01*
X125817Y643929D01*
X125869Y643981D01*
X125918Y644036D01*
X125963Y644093D01*
X126006Y644153D01*
X126045Y644215D01*
X126081Y644278D01*
X126114Y644344D01*
X126142Y644411D01*
X126168Y644480D01*
X126189Y644550D01*
X126207Y644621D01*
X126220Y644693D01*
X126230Y644766D01*
X126236Y644839D01*
X126238Y644912D01*
X125321Y646196D02*
X125189Y646258D01*
X125056Y646316D01*
X124922Y646371D01*
X124786Y646422D01*
X124649Y646469D01*
X124510Y646513D01*
X124371Y646553D01*
X124230Y646590D01*
X124089Y646622D01*
X123947Y646651D01*
X123804Y646676D01*
X123660Y646698D01*
X123516Y646715D01*
X123371Y646729D01*
X123226Y646738D01*
X123081Y646744D01*
X122936Y646746D01*
X125321Y646196D02*
X125390Y646170D01*
X125457Y646141D01*
X125522Y646108D01*
X125586Y646072D01*
X125647Y646032D01*
X125706Y645989D01*
X125763Y645943D01*
X125818Y645894D01*
X125869Y645842D01*
X125918Y645787D01*
X125964Y645730D01*
X126006Y645671D01*
X126045Y645609D01*
X126081Y645545D01*
X126114Y645480D01*
X126142Y645412D01*
X126168Y645344D01*
X126189Y645274D01*
X126207Y645202D01*
X126220Y645131D01*
X126230Y645058D01*
X126236Y644985D01*
X126238Y644912D01*
X124770Y643444D02*
X121102Y646379D01*
X119634Y650817D02*
X126238Y650817D01*
X123670Y650817D02*
X119634Y654486D01*
X122202Y652285D02*
X126238Y654486D01*
X53396Y642366D02*
X51562Y640898D01*
X53396Y642366D02*
X53396Y635762D01*
X51562Y635762D02*
X55231Y635762D01*
X58877Y639064D02*
X58879Y639209D01*
X58885Y639354D01*
X58894Y639499D01*
X58908Y639644D01*
X58925Y639788D01*
X58947Y639931D01*
X58972Y640075D01*
X59001Y640217D01*
X59033Y640358D01*
X59070Y640499D01*
X59110Y640638D01*
X59154Y640777D01*
X59201Y640914D01*
X59252Y641050D01*
X59307Y641184D01*
X59365Y641317D01*
X59427Y641449D01*
X59453Y641518D01*
X59482Y641585D01*
X59515Y641651D01*
X59551Y641714D01*
X59591Y641776D01*
X59634Y641835D01*
X59680Y641892D01*
X59729Y641946D01*
X59781Y641998D01*
X59836Y642047D01*
X59893Y642092D01*
X59953Y642135D01*
X60015Y642174D01*
X60078Y642210D01*
X60144Y642243D01*
X60211Y642271D01*
X60280Y642297D01*
X60350Y642318D01*
X60421Y642336D01*
X60493Y642349D01*
X60566Y642359D01*
X60639Y642365D01*
X60712Y642367D01*
X60712Y642366D02*
X60785Y642364D01*
X60858Y642358D01*
X60931Y642348D01*
X61003Y642335D01*
X61074Y642317D01*
X61144Y642296D01*
X61212Y642270D01*
X61280Y642242D01*
X61345Y642209D01*
X61409Y642173D01*
X61471Y642134D01*
X61530Y642092D01*
X61587Y642046D01*
X61642Y641997D01*
X61694Y641946D01*
X61743Y641891D01*
X61789Y641834D01*
X61832Y641775D01*
X61872Y641714D01*
X61908Y641650D01*
X61941Y641585D01*
X61970Y641518D01*
X61996Y641449D01*
X62058Y641317D01*
X62116Y641184D01*
X62171Y641050D01*
X62222Y640914D01*
X62269Y640777D01*
X62313Y640638D01*
X62353Y640499D01*
X62390Y640358D01*
X62422Y640217D01*
X62451Y640075D01*
X62476Y639932D01*
X62498Y639788D01*
X62515Y639644D01*
X62529Y639499D01*
X62538Y639354D01*
X62544Y639209D01*
X62546Y639064D01*
X58878Y639064D02*
X58880Y638919D01*
X58886Y638774D01*
X58895Y638629D01*
X58909Y638484D01*
X58926Y638340D01*
X58948Y638197D01*
X58973Y638054D01*
X59001Y637911D01*
X59034Y637770D01*
X59071Y637629D01*
X59111Y637490D01*
X59155Y637351D01*
X59202Y637214D01*
X59253Y637078D01*
X59308Y636944D01*
X59366Y636811D01*
X59428Y636679D01*
X59427Y636680D02*
X59453Y636611D01*
X59482Y636544D01*
X59515Y636478D01*
X59551Y636415D01*
X59591Y636353D01*
X59634Y636294D01*
X59680Y636237D01*
X59729Y636183D01*
X59781Y636131D01*
X59836Y636082D01*
X59893Y636037D01*
X59953Y635994D01*
X60015Y635955D01*
X60078Y635919D01*
X60144Y635886D01*
X60211Y635858D01*
X60280Y635832D01*
X60350Y635811D01*
X60421Y635793D01*
X60493Y635780D01*
X60566Y635770D01*
X60639Y635764D01*
X60712Y635762D01*
X61996Y636679D02*
X62058Y636811D01*
X62116Y636944D01*
X62171Y637078D01*
X62222Y637214D01*
X62269Y637351D01*
X62313Y637490D01*
X62353Y637629D01*
X62390Y637770D01*
X62422Y637911D01*
X62451Y638053D01*
X62476Y638196D01*
X62498Y638340D01*
X62515Y638484D01*
X62529Y638629D01*
X62538Y638774D01*
X62544Y638919D01*
X62546Y639064D01*
X61996Y636679D02*
X61970Y636610D01*
X61941Y636543D01*
X61908Y636478D01*
X61872Y636414D01*
X61832Y636353D01*
X61789Y636294D01*
X61743Y636237D01*
X61694Y636182D01*
X61642Y636131D01*
X61587Y636082D01*
X61530Y636036D01*
X61471Y635994D01*
X61409Y635955D01*
X61345Y635919D01*
X61280Y635886D01*
X61212Y635858D01*
X61144Y635832D01*
X61074Y635811D01*
X61002Y635793D01*
X60931Y635780D01*
X60858Y635770D01*
X60785Y635764D01*
X60712Y635762D01*
X59244Y637230D02*
X62179Y640898D01*
X66617Y642366D02*
X66617Y635762D01*
X66617Y638330D02*
X70286Y642366D01*
X68085Y639798D02*
X70286Y635762D01*
X203962Y615498D02*
X205796Y616966D01*
X205796Y610362D01*
X203962Y610362D02*
X207631Y610362D01*
X211277Y613664D02*
X211279Y613809D01*
X211285Y613954D01*
X211294Y614099D01*
X211308Y614244D01*
X211325Y614388D01*
X211347Y614531D01*
X211372Y614675D01*
X211401Y614817D01*
X211433Y614958D01*
X211470Y615099D01*
X211510Y615238D01*
X211554Y615377D01*
X211601Y615514D01*
X211652Y615650D01*
X211707Y615784D01*
X211765Y615917D01*
X211827Y616049D01*
X211853Y616118D01*
X211882Y616185D01*
X211915Y616251D01*
X211951Y616314D01*
X211991Y616376D01*
X212034Y616435D01*
X212080Y616492D01*
X212129Y616546D01*
X212181Y616598D01*
X212236Y616647D01*
X212293Y616692D01*
X212353Y616735D01*
X212415Y616774D01*
X212478Y616810D01*
X212544Y616843D01*
X212611Y616871D01*
X212680Y616897D01*
X212750Y616918D01*
X212821Y616936D01*
X212893Y616949D01*
X212966Y616959D01*
X213039Y616965D01*
X213112Y616967D01*
X213112Y616966D02*
X213185Y616964D01*
X213258Y616958D01*
X213331Y616948D01*
X213403Y616935D01*
X213474Y616917D01*
X213544Y616896D01*
X213612Y616870D01*
X213680Y616842D01*
X213745Y616809D01*
X213809Y616773D01*
X213871Y616734D01*
X213930Y616692D01*
X213987Y616646D01*
X214042Y616597D01*
X214094Y616546D01*
X214143Y616491D01*
X214189Y616434D01*
X214232Y616375D01*
X214272Y616314D01*
X214308Y616250D01*
X214341Y616185D01*
X214370Y616118D01*
X214396Y616049D01*
X214458Y615917D01*
X214516Y615784D01*
X214571Y615650D01*
X214622Y615514D01*
X214669Y615377D01*
X214713Y615238D01*
X214753Y615099D01*
X214790Y614958D01*
X214822Y614817D01*
X214851Y614675D01*
X214876Y614532D01*
X214898Y614388D01*
X214915Y614244D01*
X214929Y614099D01*
X214938Y613954D01*
X214944Y613809D01*
X214946Y613664D01*
X211278Y613664D02*
X211280Y613519D01*
X211286Y613374D01*
X211295Y613229D01*
X211309Y613084D01*
X211326Y612940D01*
X211348Y612797D01*
X211373Y612654D01*
X211401Y612511D01*
X211434Y612370D01*
X211471Y612229D01*
X211511Y612090D01*
X211555Y611951D01*
X211602Y611814D01*
X211653Y611678D01*
X211708Y611544D01*
X211766Y611411D01*
X211828Y611279D01*
X211827Y611280D02*
X211853Y611211D01*
X211882Y611144D01*
X211915Y611078D01*
X211951Y611015D01*
X211991Y610953D01*
X212034Y610894D01*
X212080Y610837D01*
X212129Y610783D01*
X212181Y610731D01*
X212236Y610682D01*
X212293Y610637D01*
X212353Y610594D01*
X212415Y610555D01*
X212478Y610519D01*
X212544Y610486D01*
X212611Y610458D01*
X212680Y610432D01*
X212750Y610411D01*
X212821Y610393D01*
X212893Y610380D01*
X212966Y610370D01*
X213039Y610364D01*
X213112Y610362D01*
X214396Y611279D02*
X214458Y611411D01*
X214516Y611544D01*
X214571Y611678D01*
X214622Y611814D01*
X214669Y611951D01*
X214713Y612090D01*
X214753Y612229D01*
X214790Y612370D01*
X214822Y612511D01*
X214851Y612653D01*
X214876Y612796D01*
X214898Y612940D01*
X214915Y613084D01*
X214929Y613229D01*
X214938Y613374D01*
X214944Y613519D01*
X214946Y613664D01*
X214396Y611279D02*
X214370Y611210D01*
X214341Y611143D01*
X214308Y611078D01*
X214272Y611014D01*
X214232Y610953D01*
X214189Y610894D01*
X214143Y610837D01*
X214094Y610782D01*
X214042Y610731D01*
X213987Y610682D01*
X213930Y610636D01*
X213871Y610594D01*
X213809Y610555D01*
X213745Y610519D01*
X213680Y610486D01*
X213612Y610458D01*
X213544Y610432D01*
X213474Y610411D01*
X213402Y610393D01*
X213331Y610380D01*
X213258Y610370D01*
X213185Y610364D01*
X213112Y610362D01*
X211644Y611830D02*
X214579Y615498D01*
X219017Y616966D02*
X219017Y610362D01*
X219017Y612930D02*
X222686Y616966D01*
X220485Y614398D02*
X222686Y610362D01*
X273502Y661162D02*
X272034Y662996D01*
X278638Y662996D01*
X278638Y661162D02*
X278638Y664831D01*
X275336Y668477D02*
X275191Y668479D01*
X275046Y668485D01*
X274901Y668494D01*
X274756Y668508D01*
X274612Y668525D01*
X274469Y668547D01*
X274325Y668572D01*
X274183Y668601D01*
X274042Y668633D01*
X273901Y668670D01*
X273762Y668710D01*
X273623Y668754D01*
X273486Y668801D01*
X273350Y668852D01*
X273216Y668907D01*
X273083Y668965D01*
X272951Y669027D01*
X272952Y669027D02*
X272883Y669053D01*
X272816Y669082D01*
X272750Y669115D01*
X272687Y669151D01*
X272625Y669191D01*
X272566Y669234D01*
X272509Y669280D01*
X272455Y669329D01*
X272403Y669381D01*
X272354Y669436D01*
X272309Y669493D01*
X272266Y669553D01*
X272227Y669615D01*
X272191Y669678D01*
X272158Y669744D01*
X272130Y669811D01*
X272104Y669880D01*
X272083Y669950D01*
X272065Y670021D01*
X272052Y670093D01*
X272042Y670166D01*
X272036Y670239D01*
X272034Y670312D01*
X272036Y670385D01*
X272042Y670458D01*
X272052Y670531D01*
X272065Y670603D01*
X272083Y670674D01*
X272104Y670744D01*
X272130Y670812D01*
X272158Y670880D01*
X272191Y670945D01*
X272227Y671009D01*
X272266Y671071D01*
X272308Y671130D01*
X272354Y671187D01*
X272403Y671242D01*
X272454Y671294D01*
X272509Y671343D01*
X272566Y671389D01*
X272625Y671432D01*
X272686Y671472D01*
X272750Y671508D01*
X272815Y671541D01*
X272882Y671570D01*
X272951Y671596D01*
X273083Y671658D01*
X273216Y671716D01*
X273350Y671771D01*
X273486Y671822D01*
X273623Y671869D01*
X273762Y671913D01*
X273901Y671953D01*
X274042Y671990D01*
X274183Y672022D01*
X274325Y672051D01*
X274468Y672076D01*
X274612Y672098D01*
X274756Y672115D01*
X274901Y672129D01*
X275046Y672138D01*
X275191Y672144D01*
X275336Y672146D01*
X275336Y668478D02*
X275481Y668480D01*
X275626Y668486D01*
X275771Y668495D01*
X275916Y668509D01*
X276060Y668526D01*
X276203Y668548D01*
X276347Y668573D01*
X276489Y668602D01*
X276630Y668634D01*
X276771Y668671D01*
X276910Y668711D01*
X277049Y668755D01*
X277186Y668802D01*
X277322Y668853D01*
X277456Y668908D01*
X277589Y668966D01*
X277721Y669028D01*
X277720Y669027D02*
X277789Y669053D01*
X277856Y669082D01*
X277922Y669115D01*
X277985Y669151D01*
X278047Y669191D01*
X278106Y669234D01*
X278163Y669280D01*
X278217Y669329D01*
X278269Y669381D01*
X278318Y669436D01*
X278363Y669493D01*
X278406Y669553D01*
X278445Y669615D01*
X278481Y669678D01*
X278514Y669744D01*
X278542Y669811D01*
X278568Y669880D01*
X278589Y669950D01*
X278607Y670021D01*
X278620Y670093D01*
X278630Y670166D01*
X278636Y670239D01*
X278638Y670312D01*
X277721Y671596D02*
X277589Y671658D01*
X277456Y671716D01*
X277322Y671771D01*
X277186Y671822D01*
X277049Y671869D01*
X276910Y671913D01*
X276771Y671953D01*
X276630Y671990D01*
X276489Y672022D01*
X276347Y672051D01*
X276204Y672076D01*
X276060Y672098D01*
X275916Y672115D01*
X275771Y672129D01*
X275626Y672138D01*
X275481Y672144D01*
X275336Y672146D01*
X277721Y671596D02*
X277790Y671570D01*
X277857Y671541D01*
X277922Y671508D01*
X277986Y671472D01*
X278047Y671432D01*
X278106Y671389D01*
X278163Y671343D01*
X278218Y671294D01*
X278269Y671242D01*
X278318Y671187D01*
X278364Y671130D01*
X278406Y671071D01*
X278445Y671009D01*
X278481Y670945D01*
X278514Y670880D01*
X278542Y670812D01*
X278568Y670744D01*
X278589Y670674D01*
X278607Y670602D01*
X278620Y670531D01*
X278630Y670458D01*
X278636Y670385D01*
X278638Y670312D01*
X277170Y668844D02*
X273502Y671779D01*
X272034Y676217D02*
X278638Y676217D01*
X276070Y676217D02*
X272034Y679886D01*
X274602Y677685D02*
X278638Y679886D01*
X53396Y616966D02*
X51562Y615498D01*
X53396Y616966D02*
X53396Y610362D01*
X51562Y610362D02*
X55231Y610362D01*
X58877Y613664D02*
X58879Y613809D01*
X58885Y613954D01*
X58894Y614099D01*
X58908Y614244D01*
X58925Y614388D01*
X58947Y614531D01*
X58972Y614675D01*
X59001Y614817D01*
X59033Y614958D01*
X59070Y615099D01*
X59110Y615238D01*
X59154Y615377D01*
X59201Y615514D01*
X59252Y615650D01*
X59307Y615784D01*
X59365Y615917D01*
X59427Y616049D01*
X59453Y616118D01*
X59482Y616185D01*
X59515Y616251D01*
X59551Y616314D01*
X59591Y616376D01*
X59634Y616435D01*
X59680Y616492D01*
X59729Y616546D01*
X59781Y616598D01*
X59836Y616647D01*
X59893Y616692D01*
X59953Y616735D01*
X60015Y616774D01*
X60078Y616810D01*
X60144Y616843D01*
X60211Y616871D01*
X60280Y616897D01*
X60350Y616918D01*
X60421Y616936D01*
X60493Y616949D01*
X60566Y616959D01*
X60639Y616965D01*
X60712Y616967D01*
X60712Y616966D02*
X60785Y616964D01*
X60858Y616958D01*
X60931Y616948D01*
X61003Y616935D01*
X61074Y616917D01*
X61144Y616896D01*
X61212Y616870D01*
X61280Y616842D01*
X61345Y616809D01*
X61409Y616773D01*
X61471Y616734D01*
X61530Y616692D01*
X61587Y616646D01*
X61642Y616597D01*
X61694Y616546D01*
X61743Y616491D01*
X61789Y616434D01*
X61832Y616375D01*
X61872Y616314D01*
X61908Y616250D01*
X61941Y616185D01*
X61970Y616118D01*
X61996Y616049D01*
X62058Y615917D01*
X62116Y615784D01*
X62171Y615650D01*
X62222Y615514D01*
X62269Y615377D01*
X62313Y615238D01*
X62353Y615099D01*
X62390Y614958D01*
X62422Y614817D01*
X62451Y614675D01*
X62476Y614532D01*
X62498Y614388D01*
X62515Y614244D01*
X62529Y614099D01*
X62538Y613954D01*
X62544Y613809D01*
X62546Y613664D01*
X58878Y613664D02*
X58880Y613519D01*
X58886Y613374D01*
X58895Y613229D01*
X58909Y613084D01*
X58926Y612940D01*
X58948Y612797D01*
X58973Y612654D01*
X59001Y612511D01*
X59034Y612370D01*
X59071Y612229D01*
X59111Y612090D01*
X59155Y611951D01*
X59202Y611814D01*
X59253Y611678D01*
X59308Y611544D01*
X59366Y611411D01*
X59428Y611279D01*
X59427Y611280D02*
X59453Y611211D01*
X59482Y611144D01*
X59515Y611078D01*
X59551Y611015D01*
X59591Y610953D01*
X59634Y610894D01*
X59680Y610837D01*
X59729Y610783D01*
X59781Y610731D01*
X59836Y610682D01*
X59893Y610637D01*
X59953Y610594D01*
X60015Y610555D01*
X60078Y610519D01*
X60144Y610486D01*
X60211Y610458D01*
X60280Y610432D01*
X60350Y610411D01*
X60421Y610393D01*
X60493Y610380D01*
X60566Y610370D01*
X60639Y610364D01*
X60712Y610362D01*
X61996Y611279D02*
X62058Y611411D01*
X62116Y611544D01*
X62171Y611678D01*
X62222Y611814D01*
X62269Y611951D01*
X62313Y612090D01*
X62353Y612229D01*
X62390Y612370D01*
X62422Y612511D01*
X62451Y612653D01*
X62476Y612796D01*
X62498Y612940D01*
X62515Y613084D01*
X62529Y613229D01*
X62538Y613374D01*
X62544Y613519D01*
X62546Y613664D01*
X61996Y611279D02*
X61970Y611210D01*
X61941Y611143D01*
X61908Y611078D01*
X61872Y611014D01*
X61832Y610953D01*
X61789Y610894D01*
X61743Y610837D01*
X61694Y610782D01*
X61642Y610731D01*
X61587Y610682D01*
X61530Y610636D01*
X61471Y610594D01*
X61409Y610555D01*
X61345Y610519D01*
X61280Y610486D01*
X61212Y610458D01*
X61144Y610432D01*
X61074Y610411D01*
X61002Y610393D01*
X60931Y610380D01*
X60858Y610370D01*
X60785Y610364D01*
X60712Y610362D01*
X59244Y611830D02*
X62179Y615498D01*
X66617Y616966D02*
X66617Y610362D01*
X66617Y612930D02*
X70286Y616966D01*
X68085Y614398D02*
X70286Y610362D01*
X55231Y678815D02*
X55229Y678894D01*
X55224Y678972D01*
X55214Y679050D01*
X55201Y679127D01*
X55184Y679204D01*
X55164Y679280D01*
X55140Y679355D01*
X55113Y679429D01*
X55082Y679501D01*
X55047Y679572D01*
X55010Y679641D01*
X54969Y679708D01*
X54925Y679773D01*
X54878Y679836D01*
X54828Y679896D01*
X54775Y679954D01*
X54719Y680010D01*
X54661Y680063D01*
X54601Y680113D01*
X54538Y680160D01*
X54473Y680204D01*
X54406Y680245D01*
X54337Y680282D01*
X54266Y680317D01*
X54194Y680348D01*
X54120Y680375D01*
X54045Y680399D01*
X53969Y680419D01*
X53892Y680436D01*
X53815Y680449D01*
X53737Y680459D01*
X53659Y680464D01*
X53580Y680466D01*
X53491Y680464D01*
X53402Y680459D01*
X53314Y680449D01*
X53226Y680436D01*
X53139Y680420D01*
X53052Y680399D01*
X52967Y680375D01*
X52882Y680348D01*
X52799Y680317D01*
X52717Y680282D01*
X52636Y680244D01*
X52557Y680203D01*
X52481Y680159D01*
X52405Y680111D01*
X52332Y680060D01*
X52262Y680007D01*
X52193Y679950D01*
X52127Y679890D01*
X52064Y679828D01*
X52003Y679763D01*
X51945Y679696D01*
X51890Y679626D01*
X51837Y679554D01*
X51788Y679480D01*
X51742Y679404D01*
X51700Y679326D01*
X51660Y679246D01*
X51624Y679165D01*
X51591Y679082D01*
X51562Y678998D01*
X54681Y677531D02*
X54737Y677587D01*
X54791Y677646D01*
X54842Y677707D01*
X54891Y677771D01*
X54936Y677836D01*
X54979Y677904D01*
X55018Y677973D01*
X55055Y678044D01*
X55088Y678117D01*
X55117Y678191D01*
X55144Y678266D01*
X55167Y678342D01*
X55186Y678420D01*
X55202Y678498D01*
X55215Y678576D01*
X55224Y678656D01*
X55229Y678735D01*
X55231Y678815D01*
X54681Y677531D02*
X51562Y673862D01*
X55231Y673862D01*
X60895Y680466D02*
X60974Y680464D01*
X61052Y680459D01*
X61130Y680449D01*
X61207Y680436D01*
X61284Y680419D01*
X61360Y680399D01*
X61435Y680375D01*
X61509Y680348D01*
X61581Y680317D01*
X61652Y680282D01*
X61721Y680245D01*
X61788Y680204D01*
X61853Y680160D01*
X61916Y680113D01*
X61976Y680063D01*
X62034Y680010D01*
X62090Y679954D01*
X62143Y679896D01*
X62193Y679836D01*
X62240Y679773D01*
X62284Y679708D01*
X62325Y679641D01*
X62362Y679572D01*
X62397Y679501D01*
X62428Y679429D01*
X62455Y679355D01*
X62479Y679280D01*
X62499Y679204D01*
X62516Y679127D01*
X62529Y679050D01*
X62539Y678972D01*
X62544Y678894D01*
X62546Y678815D01*
X60895Y680466D02*
X60806Y680464D01*
X60717Y680459D01*
X60629Y680449D01*
X60541Y680436D01*
X60454Y680420D01*
X60367Y680399D01*
X60282Y680375D01*
X60197Y680348D01*
X60114Y680317D01*
X60032Y680282D01*
X59951Y680244D01*
X59872Y680203D01*
X59796Y680159D01*
X59720Y680111D01*
X59647Y680060D01*
X59577Y680007D01*
X59508Y679950D01*
X59442Y679890D01*
X59379Y679828D01*
X59318Y679763D01*
X59260Y679696D01*
X59205Y679626D01*
X59152Y679554D01*
X59103Y679480D01*
X59057Y679404D01*
X59015Y679326D01*
X58975Y679246D01*
X58939Y679165D01*
X58906Y679082D01*
X58877Y678998D01*
X61996Y677531D02*
X62052Y677587D01*
X62106Y677646D01*
X62157Y677707D01*
X62206Y677771D01*
X62251Y677836D01*
X62294Y677904D01*
X62333Y677973D01*
X62370Y678044D01*
X62403Y678117D01*
X62432Y678191D01*
X62459Y678266D01*
X62482Y678342D01*
X62501Y678420D01*
X62517Y678498D01*
X62530Y678576D01*
X62539Y678656D01*
X62544Y678735D01*
X62546Y678815D01*
X61996Y677531D02*
X58877Y673862D01*
X62546Y673862D01*
X11938Y687296D02*
X5334Y687296D01*
X11938Y686562D02*
X11938Y688030D01*
X5334Y688030D02*
X5334Y686562D01*
X5334Y691636D02*
X11938Y691636D01*
X5334Y691636D02*
X5334Y693471D01*
X5336Y693556D01*
X5342Y693640D01*
X5352Y693724D01*
X5365Y693808D01*
X5383Y693891D01*
X5404Y693973D01*
X5429Y694054D01*
X5458Y694134D01*
X5490Y694212D01*
X5526Y694288D01*
X5566Y694363D01*
X5609Y694436D01*
X5655Y694507D01*
X5704Y694576D01*
X5757Y694643D01*
X5813Y694707D01*
X5871Y694768D01*
X5932Y694826D01*
X5996Y694882D01*
X6063Y694935D01*
X6132Y694984D01*
X6203Y695030D01*
X6276Y695073D01*
X6351Y695113D01*
X6427Y695149D01*
X6505Y695181D01*
X6585Y695210D01*
X6666Y695235D01*
X6748Y695256D01*
X6831Y695274D01*
X6915Y695287D01*
X6999Y695297D01*
X7083Y695303D01*
X7168Y695305D01*
X7253Y695303D01*
X7337Y695297D01*
X7421Y695287D01*
X7505Y695274D01*
X7588Y695256D01*
X7670Y695235D01*
X7751Y695210D01*
X7831Y695181D01*
X7909Y695149D01*
X7985Y695113D01*
X8060Y695073D01*
X8133Y695030D01*
X8204Y694984D01*
X8273Y694935D01*
X8340Y694882D01*
X8404Y694826D01*
X8465Y694768D01*
X8523Y694707D01*
X8579Y694643D01*
X8632Y694576D01*
X8681Y694507D01*
X8727Y694436D01*
X8770Y694363D01*
X8810Y694288D01*
X8846Y694212D01*
X8878Y694134D01*
X8907Y694054D01*
X8932Y693973D01*
X8953Y693891D01*
X8971Y693808D01*
X8984Y693724D01*
X8994Y693640D01*
X9000Y693556D01*
X9002Y693471D01*
X9003Y693471D02*
X9003Y691636D01*
X9003Y693837D02*
X11938Y695305D01*
X11938Y703042D02*
X5334Y703042D01*
X11938Y703042D02*
X11938Y705977D01*
X11938Y709382D02*
X11938Y712317D01*
X11938Y709382D02*
X5334Y709382D01*
X5334Y712317D01*
X8269Y711583D02*
X8269Y709382D01*
X5334Y715697D02*
X11938Y715697D01*
X5334Y715697D02*
X5334Y717532D01*
X5336Y717617D01*
X5342Y717701D01*
X5352Y717785D01*
X5365Y717869D01*
X5383Y717952D01*
X5404Y718034D01*
X5429Y718115D01*
X5458Y718195D01*
X5490Y718273D01*
X5526Y718349D01*
X5566Y718424D01*
X5609Y718497D01*
X5655Y718568D01*
X5704Y718637D01*
X5757Y718704D01*
X5813Y718768D01*
X5871Y718829D01*
X5932Y718887D01*
X5996Y718943D01*
X6063Y718996D01*
X6132Y719045D01*
X6203Y719091D01*
X6276Y719134D01*
X6351Y719174D01*
X6427Y719210D01*
X6506Y719242D01*
X6585Y719271D01*
X6666Y719296D01*
X6748Y719317D01*
X6831Y719335D01*
X6915Y719348D01*
X6999Y719358D01*
X7083Y719364D01*
X7168Y719366D01*
X10104Y719366D01*
X10189Y719364D01*
X10273Y719358D01*
X10357Y719348D01*
X10441Y719335D01*
X10524Y719317D01*
X10606Y719296D01*
X10687Y719271D01*
X10767Y719242D01*
X10845Y719210D01*
X10921Y719174D01*
X10996Y719134D01*
X11069Y719091D01*
X11140Y719045D01*
X11209Y718996D01*
X11276Y718943D01*
X11340Y718887D01*
X11401Y718829D01*
X11459Y718768D01*
X11515Y718704D01*
X11568Y718637D01*
X11617Y718568D01*
X11663Y718497D01*
X11706Y718424D01*
X11746Y718349D01*
X11782Y718273D01*
X11814Y718195D01*
X11843Y718115D01*
X11868Y718034D01*
X11889Y717952D01*
X11907Y717869D01*
X11920Y717785D01*
X11930Y717701D01*
X11936Y717617D01*
X11938Y717532D01*
X11938Y715697D01*
X76962Y691698D02*
X78796Y693166D01*
X78796Y686562D01*
X76962Y686562D02*
X80631Y686562D01*
X84278Y688396D02*
X84280Y688481D01*
X84286Y688565D01*
X84296Y688649D01*
X84309Y688733D01*
X84327Y688816D01*
X84348Y688898D01*
X84373Y688979D01*
X84402Y689059D01*
X84434Y689137D01*
X84470Y689213D01*
X84510Y689288D01*
X84553Y689361D01*
X84599Y689432D01*
X84648Y689501D01*
X84701Y689568D01*
X84757Y689632D01*
X84815Y689693D01*
X84876Y689751D01*
X84940Y689807D01*
X85007Y689860D01*
X85076Y689909D01*
X85147Y689955D01*
X85220Y689998D01*
X85295Y690038D01*
X85371Y690074D01*
X85449Y690106D01*
X85529Y690135D01*
X85610Y690160D01*
X85692Y690181D01*
X85775Y690199D01*
X85859Y690212D01*
X85943Y690222D01*
X86027Y690228D01*
X86112Y690230D01*
X86197Y690228D01*
X86281Y690222D01*
X86365Y690212D01*
X86449Y690199D01*
X86532Y690181D01*
X86614Y690160D01*
X86695Y690135D01*
X86775Y690106D01*
X86853Y690074D01*
X86929Y690038D01*
X87004Y689998D01*
X87077Y689955D01*
X87148Y689909D01*
X87217Y689860D01*
X87284Y689807D01*
X87348Y689751D01*
X87409Y689693D01*
X87467Y689632D01*
X87523Y689568D01*
X87576Y689501D01*
X87625Y689432D01*
X87671Y689361D01*
X87714Y689288D01*
X87754Y689213D01*
X87790Y689137D01*
X87822Y689059D01*
X87851Y688979D01*
X87876Y688898D01*
X87897Y688816D01*
X87915Y688733D01*
X87928Y688649D01*
X87938Y688565D01*
X87944Y688481D01*
X87946Y688396D01*
X87944Y688311D01*
X87938Y688227D01*
X87928Y688143D01*
X87915Y688059D01*
X87897Y687976D01*
X87876Y687894D01*
X87851Y687813D01*
X87822Y687733D01*
X87790Y687655D01*
X87754Y687579D01*
X87714Y687504D01*
X87671Y687431D01*
X87625Y687360D01*
X87576Y687291D01*
X87523Y687224D01*
X87467Y687160D01*
X87409Y687099D01*
X87348Y687041D01*
X87284Y686985D01*
X87217Y686932D01*
X87148Y686883D01*
X87077Y686837D01*
X87004Y686794D01*
X86929Y686754D01*
X86853Y686718D01*
X86775Y686686D01*
X86695Y686657D01*
X86614Y686632D01*
X86532Y686611D01*
X86449Y686593D01*
X86365Y686580D01*
X86281Y686570D01*
X86197Y686564D01*
X86112Y686562D01*
X86027Y686564D01*
X85943Y686570D01*
X85859Y686580D01*
X85775Y686593D01*
X85692Y686611D01*
X85610Y686632D01*
X85529Y686657D01*
X85449Y686686D01*
X85371Y686718D01*
X85295Y686754D01*
X85220Y686794D01*
X85147Y686837D01*
X85076Y686883D01*
X85007Y686932D01*
X84940Y686985D01*
X84876Y687041D01*
X84815Y687099D01*
X84757Y687160D01*
X84701Y687224D01*
X84648Y687291D01*
X84599Y687360D01*
X84553Y687431D01*
X84510Y687504D01*
X84470Y687579D01*
X84434Y687655D01*
X84402Y687733D01*
X84373Y687813D01*
X84348Y687894D01*
X84327Y687976D01*
X84309Y688059D01*
X84296Y688143D01*
X84286Y688227D01*
X84280Y688311D01*
X84278Y688396D01*
X84644Y691698D02*
X84646Y691774D01*
X84652Y691849D01*
X84661Y691924D01*
X84675Y691998D01*
X84692Y692072D01*
X84714Y692144D01*
X84738Y692216D01*
X84767Y692286D01*
X84799Y692354D01*
X84834Y692421D01*
X84873Y692486D01*
X84916Y692549D01*
X84961Y692609D01*
X85009Y692667D01*
X85061Y692723D01*
X85115Y692775D01*
X85172Y692825D01*
X85231Y692872D01*
X85292Y692916D01*
X85356Y692957D01*
X85422Y692994D01*
X85490Y693028D01*
X85559Y693058D01*
X85630Y693085D01*
X85702Y693108D01*
X85775Y693127D01*
X85849Y693142D01*
X85924Y693154D01*
X85999Y693162D01*
X86074Y693166D01*
X86150Y693166D01*
X86225Y693162D01*
X86300Y693154D01*
X86375Y693142D01*
X86449Y693127D01*
X86522Y693108D01*
X86594Y693085D01*
X86665Y693058D01*
X86734Y693028D01*
X86802Y692994D01*
X86868Y692957D01*
X86932Y692916D01*
X86993Y692872D01*
X87052Y692825D01*
X87109Y692775D01*
X87163Y692723D01*
X87215Y692667D01*
X87263Y692609D01*
X87308Y692549D01*
X87351Y692486D01*
X87390Y692421D01*
X87425Y692354D01*
X87457Y692286D01*
X87486Y692216D01*
X87510Y692144D01*
X87532Y692072D01*
X87549Y691998D01*
X87563Y691924D01*
X87572Y691849D01*
X87578Y691774D01*
X87580Y691698D01*
X87578Y691622D01*
X87572Y691547D01*
X87563Y691472D01*
X87549Y691398D01*
X87532Y691324D01*
X87510Y691252D01*
X87486Y691180D01*
X87457Y691110D01*
X87425Y691042D01*
X87390Y690975D01*
X87351Y690910D01*
X87308Y690847D01*
X87263Y690787D01*
X87215Y690729D01*
X87163Y690673D01*
X87109Y690621D01*
X87052Y690571D01*
X86993Y690524D01*
X86932Y690480D01*
X86868Y690439D01*
X86802Y690402D01*
X86734Y690368D01*
X86665Y690338D01*
X86594Y690311D01*
X86522Y690288D01*
X86449Y690269D01*
X86375Y690254D01*
X86300Y690242D01*
X86225Y690234D01*
X86150Y690230D01*
X86074Y690230D01*
X85999Y690234D01*
X85924Y690242D01*
X85849Y690254D01*
X85775Y690269D01*
X85702Y690288D01*
X85630Y690311D01*
X85559Y690338D01*
X85490Y690368D01*
X85422Y690402D01*
X85356Y690439D01*
X85292Y690480D01*
X85231Y690524D01*
X85172Y690571D01*
X85115Y690621D01*
X85061Y690673D01*
X85009Y690729D01*
X84961Y690787D01*
X84916Y690847D01*
X84873Y690910D01*
X84834Y690975D01*
X84799Y691042D01*
X84767Y691110D01*
X84738Y691180D01*
X84714Y691252D01*
X84692Y691324D01*
X84675Y691398D01*
X84661Y691472D01*
X84652Y691547D01*
X84646Y691622D01*
X84644Y691698D01*
X91592Y686562D02*
X93427Y686562D01*
X93512Y686564D01*
X93596Y686570D01*
X93680Y686580D01*
X93764Y686593D01*
X93847Y686611D01*
X93929Y686632D01*
X94010Y686657D01*
X94090Y686686D01*
X94168Y686718D01*
X94244Y686754D01*
X94319Y686794D01*
X94392Y686837D01*
X94463Y686883D01*
X94532Y686932D01*
X94599Y686985D01*
X94663Y687041D01*
X94724Y687099D01*
X94782Y687160D01*
X94838Y687224D01*
X94891Y687291D01*
X94940Y687360D01*
X94986Y687431D01*
X95029Y687504D01*
X95069Y687579D01*
X95105Y687655D01*
X95137Y687733D01*
X95166Y687813D01*
X95191Y687894D01*
X95212Y687976D01*
X95230Y688059D01*
X95243Y688143D01*
X95253Y688227D01*
X95259Y688311D01*
X95261Y688396D01*
X95259Y688481D01*
X95253Y688565D01*
X95243Y688649D01*
X95230Y688733D01*
X95212Y688816D01*
X95191Y688898D01*
X95166Y688979D01*
X95137Y689059D01*
X95105Y689137D01*
X95069Y689213D01*
X95029Y689288D01*
X94986Y689361D01*
X94940Y689432D01*
X94891Y689501D01*
X94838Y689568D01*
X94782Y689632D01*
X94724Y689693D01*
X94663Y689751D01*
X94599Y689807D01*
X94532Y689860D01*
X94463Y689909D01*
X94392Y689955D01*
X94319Y689998D01*
X94244Y690038D01*
X94168Y690074D01*
X94090Y690106D01*
X94010Y690135D01*
X93929Y690160D01*
X93847Y690181D01*
X93764Y690199D01*
X93680Y690212D01*
X93596Y690222D01*
X93512Y690228D01*
X93427Y690230D01*
X93794Y693166D02*
X91592Y693166D01*
X93794Y693166D02*
X93870Y693164D01*
X93945Y693158D01*
X94020Y693149D01*
X94094Y693135D01*
X94168Y693118D01*
X94240Y693096D01*
X94312Y693072D01*
X94382Y693043D01*
X94450Y693011D01*
X94517Y692976D01*
X94582Y692937D01*
X94645Y692894D01*
X94705Y692849D01*
X94763Y692801D01*
X94819Y692749D01*
X94871Y692695D01*
X94921Y692638D01*
X94968Y692579D01*
X95012Y692518D01*
X95053Y692454D01*
X95090Y692388D01*
X95124Y692320D01*
X95154Y692251D01*
X95181Y692180D01*
X95204Y692108D01*
X95223Y692035D01*
X95238Y691961D01*
X95250Y691886D01*
X95258Y691811D01*
X95262Y691736D01*
X95262Y691660D01*
X95258Y691585D01*
X95250Y691510D01*
X95238Y691435D01*
X95223Y691361D01*
X95204Y691288D01*
X95181Y691216D01*
X95154Y691145D01*
X95124Y691076D01*
X95090Y691008D01*
X95053Y690942D01*
X95012Y690878D01*
X94968Y690817D01*
X94921Y690758D01*
X94871Y690701D01*
X94819Y690647D01*
X94763Y690595D01*
X94705Y690547D01*
X94645Y690502D01*
X94582Y690459D01*
X94517Y690420D01*
X94450Y690385D01*
X94382Y690353D01*
X94312Y690324D01*
X94240Y690300D01*
X94168Y690278D01*
X94094Y690261D01*
X94020Y690247D01*
X93945Y690238D01*
X93870Y690232D01*
X93794Y690230D01*
X93794Y690231D02*
X92326Y690231D01*
X98908Y688396D02*
X98910Y688481D01*
X98916Y688565D01*
X98926Y688649D01*
X98939Y688733D01*
X98957Y688816D01*
X98978Y688898D01*
X99003Y688979D01*
X99032Y689059D01*
X99064Y689137D01*
X99100Y689213D01*
X99140Y689288D01*
X99183Y689361D01*
X99229Y689432D01*
X99278Y689501D01*
X99331Y689568D01*
X99387Y689632D01*
X99445Y689693D01*
X99506Y689751D01*
X99570Y689807D01*
X99637Y689860D01*
X99706Y689909D01*
X99777Y689955D01*
X99850Y689998D01*
X99925Y690038D01*
X100001Y690074D01*
X100079Y690106D01*
X100159Y690135D01*
X100240Y690160D01*
X100322Y690181D01*
X100405Y690199D01*
X100489Y690212D01*
X100573Y690222D01*
X100657Y690228D01*
X100742Y690230D01*
X100827Y690228D01*
X100911Y690222D01*
X100995Y690212D01*
X101079Y690199D01*
X101162Y690181D01*
X101244Y690160D01*
X101325Y690135D01*
X101405Y690106D01*
X101483Y690074D01*
X101559Y690038D01*
X101634Y689998D01*
X101707Y689955D01*
X101778Y689909D01*
X101847Y689860D01*
X101914Y689807D01*
X101978Y689751D01*
X102039Y689693D01*
X102097Y689632D01*
X102153Y689568D01*
X102206Y689501D01*
X102255Y689432D01*
X102301Y689361D01*
X102344Y689288D01*
X102384Y689213D01*
X102420Y689137D01*
X102452Y689059D01*
X102481Y688979D01*
X102506Y688898D01*
X102527Y688816D01*
X102545Y688733D01*
X102558Y688649D01*
X102568Y688565D01*
X102574Y688481D01*
X102576Y688396D01*
X102574Y688311D01*
X102568Y688227D01*
X102558Y688143D01*
X102545Y688059D01*
X102527Y687976D01*
X102506Y687894D01*
X102481Y687813D01*
X102452Y687733D01*
X102420Y687655D01*
X102384Y687579D01*
X102344Y687504D01*
X102301Y687431D01*
X102255Y687360D01*
X102206Y687291D01*
X102153Y687224D01*
X102097Y687160D01*
X102039Y687099D01*
X101978Y687041D01*
X101914Y686985D01*
X101847Y686932D01*
X101778Y686883D01*
X101707Y686837D01*
X101634Y686794D01*
X101559Y686754D01*
X101483Y686718D01*
X101405Y686686D01*
X101325Y686657D01*
X101244Y686632D01*
X101162Y686611D01*
X101079Y686593D01*
X100995Y686580D01*
X100911Y686570D01*
X100827Y686564D01*
X100742Y686562D01*
X100657Y686564D01*
X100573Y686570D01*
X100489Y686580D01*
X100405Y686593D01*
X100322Y686611D01*
X100240Y686632D01*
X100159Y686657D01*
X100079Y686686D01*
X100001Y686718D01*
X99925Y686754D01*
X99850Y686794D01*
X99777Y686837D01*
X99706Y686883D01*
X99637Y686932D01*
X99570Y686985D01*
X99506Y687041D01*
X99445Y687099D01*
X99387Y687160D01*
X99331Y687224D01*
X99278Y687291D01*
X99229Y687360D01*
X99183Y687431D01*
X99140Y687504D01*
X99100Y687579D01*
X99064Y687655D01*
X99032Y687733D01*
X99003Y687813D01*
X98978Y687894D01*
X98957Y687976D01*
X98939Y688059D01*
X98926Y688143D01*
X98916Y688227D01*
X98910Y688311D01*
X98908Y688396D01*
X99274Y691698D02*
X99276Y691774D01*
X99282Y691849D01*
X99291Y691924D01*
X99305Y691998D01*
X99322Y692072D01*
X99344Y692144D01*
X99368Y692216D01*
X99397Y692286D01*
X99429Y692354D01*
X99464Y692421D01*
X99503Y692486D01*
X99546Y692549D01*
X99591Y692609D01*
X99639Y692667D01*
X99691Y692723D01*
X99745Y692775D01*
X99802Y692825D01*
X99861Y692872D01*
X99922Y692916D01*
X99986Y692957D01*
X100052Y692994D01*
X100120Y693028D01*
X100189Y693058D01*
X100260Y693085D01*
X100332Y693108D01*
X100405Y693127D01*
X100479Y693142D01*
X100554Y693154D01*
X100629Y693162D01*
X100704Y693166D01*
X100780Y693166D01*
X100855Y693162D01*
X100930Y693154D01*
X101005Y693142D01*
X101079Y693127D01*
X101152Y693108D01*
X101224Y693085D01*
X101295Y693058D01*
X101364Y693028D01*
X101432Y692994D01*
X101498Y692957D01*
X101562Y692916D01*
X101623Y692872D01*
X101682Y692825D01*
X101739Y692775D01*
X101793Y692723D01*
X101845Y692667D01*
X101893Y692609D01*
X101938Y692549D01*
X101981Y692486D01*
X102020Y692421D01*
X102055Y692354D01*
X102087Y692286D01*
X102116Y692216D01*
X102140Y692144D01*
X102162Y692072D01*
X102179Y691998D01*
X102193Y691924D01*
X102202Y691849D01*
X102208Y691774D01*
X102210Y691698D01*
X102208Y691622D01*
X102202Y691547D01*
X102193Y691472D01*
X102179Y691398D01*
X102162Y691324D01*
X102140Y691252D01*
X102116Y691180D01*
X102087Y691110D01*
X102055Y691042D01*
X102020Y690975D01*
X101981Y690910D01*
X101938Y690847D01*
X101893Y690787D01*
X101845Y690729D01*
X101793Y690673D01*
X101739Y690621D01*
X101682Y690571D01*
X101623Y690524D01*
X101562Y690480D01*
X101498Y690439D01*
X101432Y690402D01*
X101364Y690368D01*
X101295Y690338D01*
X101224Y690311D01*
X101152Y690288D01*
X101079Y690269D01*
X101005Y690254D01*
X100930Y690242D01*
X100855Y690234D01*
X100780Y690230D01*
X100704Y690230D01*
X100629Y690234D01*
X100554Y690242D01*
X100479Y690254D01*
X100405Y690269D01*
X100332Y690288D01*
X100260Y690311D01*
X100189Y690338D01*
X100120Y690368D01*
X100052Y690402D01*
X99986Y690439D01*
X99922Y690480D01*
X99861Y690524D01*
X99802Y690571D01*
X99745Y690621D01*
X99691Y690673D01*
X99639Y690729D01*
X99591Y690787D01*
X99546Y690847D01*
X99503Y690910D01*
X99464Y690975D01*
X99429Y691042D01*
X99397Y691110D01*
X99368Y691180D01*
X99344Y691252D01*
X99322Y691324D01*
X99305Y691398D01*
X99291Y691472D01*
X99282Y691547D01*
X99276Y691622D01*
X99274Y691698D01*
X106648Y690231D02*
X108482Y690231D01*
X108482Y690230D02*
X108567Y690228D01*
X108651Y690222D01*
X108735Y690212D01*
X108819Y690199D01*
X108902Y690181D01*
X108984Y690160D01*
X109065Y690135D01*
X109145Y690106D01*
X109223Y690074D01*
X109299Y690038D01*
X109374Y689998D01*
X109447Y689955D01*
X109518Y689909D01*
X109587Y689860D01*
X109654Y689807D01*
X109718Y689751D01*
X109779Y689693D01*
X109837Y689632D01*
X109893Y689568D01*
X109946Y689501D01*
X109995Y689432D01*
X110041Y689361D01*
X110084Y689288D01*
X110124Y689213D01*
X110160Y689137D01*
X110192Y689059D01*
X110221Y688979D01*
X110246Y688898D01*
X110267Y688816D01*
X110285Y688733D01*
X110298Y688649D01*
X110308Y688565D01*
X110314Y688481D01*
X110316Y688396D01*
X110314Y688311D01*
X110308Y688227D01*
X110298Y688143D01*
X110285Y688059D01*
X110267Y687976D01*
X110246Y687894D01*
X110221Y687813D01*
X110192Y687733D01*
X110160Y687655D01*
X110124Y687579D01*
X110084Y687504D01*
X110041Y687431D01*
X109995Y687360D01*
X109946Y687291D01*
X109893Y687224D01*
X109837Y687160D01*
X109779Y687099D01*
X109718Y687041D01*
X109654Y686985D01*
X109587Y686932D01*
X109518Y686883D01*
X109447Y686837D01*
X109374Y686794D01*
X109299Y686754D01*
X109223Y686718D01*
X109145Y686686D01*
X109065Y686657D01*
X108984Y686632D01*
X108902Y686611D01*
X108819Y686593D01*
X108735Y686580D01*
X108651Y686570D01*
X108567Y686564D01*
X108482Y686562D01*
X106648Y686562D01*
X106648Y693166D01*
X108482Y693166D01*
X108558Y693164D01*
X108633Y693158D01*
X108708Y693149D01*
X108782Y693135D01*
X108856Y693118D01*
X108928Y693096D01*
X109000Y693072D01*
X109070Y693043D01*
X109138Y693011D01*
X109205Y692976D01*
X109270Y692937D01*
X109333Y692894D01*
X109393Y692849D01*
X109451Y692801D01*
X109507Y692749D01*
X109559Y692695D01*
X109609Y692638D01*
X109656Y692579D01*
X109700Y692518D01*
X109741Y692454D01*
X109778Y692388D01*
X109812Y692320D01*
X109842Y692251D01*
X109869Y692180D01*
X109892Y692108D01*
X109911Y692035D01*
X109926Y691961D01*
X109938Y691886D01*
X109946Y691811D01*
X109950Y691736D01*
X109950Y691660D01*
X109946Y691585D01*
X109938Y691510D01*
X109926Y691435D01*
X109911Y691361D01*
X109892Y691288D01*
X109869Y691216D01*
X109842Y691145D01*
X109812Y691076D01*
X109778Y691008D01*
X109741Y690942D01*
X109700Y690878D01*
X109656Y690817D01*
X109609Y690758D01*
X109559Y690701D01*
X109507Y690647D01*
X109451Y690595D01*
X109393Y690547D01*
X109333Y690502D01*
X109270Y690459D01*
X109205Y690420D01*
X109138Y690385D01*
X109070Y690353D01*
X109000Y690324D01*
X108928Y690300D01*
X108856Y690278D01*
X108782Y690261D01*
X108708Y690247D01*
X108633Y690238D01*
X108558Y690232D01*
X108482Y690230D01*
X165862Y657804D02*
X167330Y655969D01*
X165862Y657804D02*
X172466Y657804D01*
X172466Y659638D02*
X172466Y655969D01*
X170632Y694070D02*
X170547Y694072D01*
X170463Y694078D01*
X170379Y694088D01*
X170295Y694101D01*
X170212Y694119D01*
X170130Y694140D01*
X170049Y694165D01*
X169969Y694194D01*
X169891Y694226D01*
X169815Y694262D01*
X169740Y694302D01*
X169667Y694345D01*
X169596Y694391D01*
X169527Y694440D01*
X169460Y694493D01*
X169396Y694549D01*
X169335Y694607D01*
X169277Y694668D01*
X169221Y694732D01*
X169168Y694799D01*
X169119Y694868D01*
X169073Y694939D01*
X169030Y695012D01*
X168990Y695087D01*
X168954Y695163D01*
X168922Y695241D01*
X168893Y695321D01*
X168868Y695402D01*
X168847Y695484D01*
X168829Y695567D01*
X168816Y695651D01*
X168806Y695735D01*
X168800Y695819D01*
X168798Y695904D01*
X168800Y695989D01*
X168806Y696073D01*
X168816Y696157D01*
X168829Y696241D01*
X168847Y696324D01*
X168868Y696406D01*
X168893Y696487D01*
X168922Y696567D01*
X168954Y696645D01*
X168990Y696721D01*
X169030Y696796D01*
X169073Y696869D01*
X169119Y696940D01*
X169168Y697009D01*
X169221Y697076D01*
X169277Y697140D01*
X169335Y697201D01*
X169396Y697259D01*
X169460Y697315D01*
X169527Y697368D01*
X169596Y697417D01*
X169667Y697463D01*
X169740Y697506D01*
X169815Y697546D01*
X169891Y697582D01*
X169969Y697614D01*
X170049Y697643D01*
X170130Y697668D01*
X170212Y697689D01*
X170295Y697707D01*
X170379Y697720D01*
X170463Y697730D01*
X170547Y697736D01*
X170632Y697738D01*
X170717Y697736D01*
X170801Y697730D01*
X170885Y697720D01*
X170969Y697707D01*
X171052Y697689D01*
X171134Y697668D01*
X171215Y697643D01*
X171295Y697614D01*
X171373Y697582D01*
X171449Y697546D01*
X171524Y697506D01*
X171597Y697463D01*
X171668Y697417D01*
X171737Y697368D01*
X171804Y697315D01*
X171868Y697259D01*
X171929Y697201D01*
X171987Y697140D01*
X172043Y697076D01*
X172096Y697009D01*
X172145Y696940D01*
X172191Y696869D01*
X172234Y696796D01*
X172274Y696721D01*
X172310Y696645D01*
X172342Y696567D01*
X172371Y696487D01*
X172396Y696406D01*
X172417Y696324D01*
X172435Y696241D01*
X172448Y696157D01*
X172458Y696073D01*
X172464Y695989D01*
X172466Y695904D01*
X172464Y695819D01*
X172458Y695735D01*
X172448Y695651D01*
X172435Y695567D01*
X172417Y695484D01*
X172396Y695402D01*
X172371Y695321D01*
X172342Y695241D01*
X172310Y695163D01*
X172274Y695087D01*
X172234Y695012D01*
X172191Y694939D01*
X172145Y694868D01*
X172096Y694799D01*
X172043Y694732D01*
X171987Y694668D01*
X171929Y694607D01*
X171868Y694549D01*
X171804Y694493D01*
X171737Y694440D01*
X171668Y694391D01*
X171597Y694345D01*
X171524Y694302D01*
X171449Y694262D01*
X171373Y694226D01*
X171295Y694194D01*
X171215Y694165D01*
X171134Y694140D01*
X171052Y694119D01*
X170969Y694101D01*
X170885Y694088D01*
X170801Y694078D01*
X170717Y694072D01*
X170632Y694070D01*
X167330Y694436D02*
X167254Y694438D01*
X167179Y694444D01*
X167104Y694453D01*
X167030Y694467D01*
X166956Y694484D01*
X166884Y694506D01*
X166812Y694530D01*
X166742Y694559D01*
X166674Y694591D01*
X166607Y694626D01*
X166542Y694665D01*
X166479Y694708D01*
X166419Y694753D01*
X166361Y694801D01*
X166305Y694853D01*
X166253Y694907D01*
X166203Y694964D01*
X166156Y695023D01*
X166112Y695084D01*
X166071Y695148D01*
X166034Y695214D01*
X166000Y695282D01*
X165970Y695351D01*
X165943Y695422D01*
X165920Y695494D01*
X165901Y695567D01*
X165886Y695641D01*
X165874Y695716D01*
X165866Y695791D01*
X165862Y695866D01*
X165862Y695942D01*
X165866Y696017D01*
X165874Y696092D01*
X165886Y696167D01*
X165901Y696241D01*
X165920Y696314D01*
X165943Y696386D01*
X165970Y696457D01*
X166000Y696526D01*
X166034Y696594D01*
X166071Y696660D01*
X166112Y696724D01*
X166156Y696785D01*
X166203Y696844D01*
X166253Y696901D01*
X166305Y696955D01*
X166361Y697007D01*
X166419Y697055D01*
X166479Y697100D01*
X166542Y697143D01*
X166607Y697182D01*
X166674Y697217D01*
X166742Y697249D01*
X166812Y697278D01*
X166884Y697302D01*
X166956Y697324D01*
X167030Y697341D01*
X167104Y697355D01*
X167179Y697364D01*
X167254Y697370D01*
X167330Y697372D01*
X167406Y697370D01*
X167481Y697364D01*
X167556Y697355D01*
X167630Y697341D01*
X167704Y697324D01*
X167776Y697302D01*
X167848Y697278D01*
X167918Y697249D01*
X167986Y697217D01*
X168053Y697182D01*
X168118Y697143D01*
X168181Y697100D01*
X168241Y697055D01*
X168299Y697007D01*
X168355Y696955D01*
X168407Y696901D01*
X168457Y696844D01*
X168504Y696785D01*
X168548Y696724D01*
X168589Y696660D01*
X168626Y696594D01*
X168660Y696526D01*
X168690Y696457D01*
X168717Y696386D01*
X168740Y696314D01*
X168759Y696241D01*
X168774Y696167D01*
X168786Y696092D01*
X168794Y696017D01*
X168798Y695942D01*
X168798Y695866D01*
X168794Y695791D01*
X168786Y695716D01*
X168774Y695641D01*
X168759Y695567D01*
X168740Y695494D01*
X168717Y695422D01*
X168690Y695351D01*
X168660Y695282D01*
X168626Y695214D01*
X168589Y695148D01*
X168548Y695084D01*
X168504Y695023D01*
X168457Y694964D01*
X168407Y694907D01*
X168355Y694853D01*
X168299Y694801D01*
X168241Y694753D01*
X168181Y694708D01*
X168118Y694665D01*
X168053Y694626D01*
X167986Y694591D01*
X167918Y694559D01*
X167848Y694530D01*
X167776Y694506D01*
X167704Y694484D01*
X167630Y694467D01*
X167556Y694453D01*
X167481Y694444D01*
X167406Y694438D01*
X167330Y694436D01*
X185732Y593203D02*
X186832Y593203D01*
X186832Y589534D01*
X184631Y589534D01*
X184557Y589536D01*
X184482Y589542D01*
X184409Y589551D01*
X184335Y589564D01*
X184263Y589581D01*
X184192Y589601D01*
X184121Y589625D01*
X184052Y589653D01*
X183985Y589684D01*
X183919Y589718D01*
X183854Y589756D01*
X183792Y589797D01*
X183732Y589841D01*
X183675Y589888D01*
X183620Y589938D01*
X183567Y589991D01*
X183517Y590046D01*
X183470Y590103D01*
X183426Y590163D01*
X183385Y590225D01*
X183347Y590290D01*
X183313Y590356D01*
X183282Y590423D01*
X183254Y590492D01*
X183230Y590563D01*
X183210Y590634D01*
X183193Y590706D01*
X183180Y590780D01*
X183171Y590853D01*
X183165Y590928D01*
X183163Y591002D01*
X183163Y594670D01*
X183165Y594744D01*
X183171Y594819D01*
X183180Y594892D01*
X183193Y594966D01*
X183210Y595038D01*
X183230Y595109D01*
X183254Y595180D01*
X183282Y595249D01*
X183313Y595316D01*
X183347Y595382D01*
X183385Y595447D01*
X183426Y595509D01*
X183470Y595569D01*
X183517Y595626D01*
X183567Y595681D01*
X183620Y595734D01*
X183675Y595784D01*
X183732Y595831D01*
X183792Y595875D01*
X183854Y595916D01*
X183919Y595954D01*
X183984Y595988D01*
X184052Y596019D01*
X184121Y596047D01*
X184192Y596071D01*
X184263Y596091D01*
X184335Y596108D01*
X184409Y596121D01*
X184482Y596130D01*
X184557Y596136D01*
X184631Y596138D01*
X186832Y596138D01*
X190966Y596138D02*
X190966Y589534D01*
X194635Y589534D02*
X190966Y596138D01*
X194635Y596138D02*
X194635Y589534D01*
X198769Y589534D02*
X198769Y596138D01*
X200604Y596138D01*
X200689Y596136D01*
X200773Y596130D01*
X200857Y596120D01*
X200941Y596107D01*
X201024Y596089D01*
X201106Y596068D01*
X201187Y596043D01*
X201267Y596014D01*
X201345Y595982D01*
X201421Y595946D01*
X201496Y595906D01*
X201569Y595863D01*
X201640Y595817D01*
X201709Y595768D01*
X201776Y595715D01*
X201840Y595659D01*
X201901Y595601D01*
X201959Y595540D01*
X202015Y595476D01*
X202068Y595409D01*
X202117Y595340D01*
X202163Y595269D01*
X202206Y595196D01*
X202246Y595121D01*
X202282Y595045D01*
X202314Y594967D01*
X202343Y594887D01*
X202368Y594806D01*
X202389Y594724D01*
X202407Y594641D01*
X202420Y594557D01*
X202430Y594473D01*
X202436Y594389D01*
X202438Y594304D01*
X202438Y591368D01*
X202436Y591283D01*
X202430Y591199D01*
X202420Y591115D01*
X202407Y591031D01*
X202389Y590948D01*
X202368Y590866D01*
X202343Y590785D01*
X202314Y590705D01*
X202282Y590627D01*
X202246Y590551D01*
X202206Y590476D01*
X202163Y590403D01*
X202117Y590332D01*
X202068Y590263D01*
X202015Y590196D01*
X201959Y590132D01*
X201901Y590071D01*
X201840Y590013D01*
X201776Y589957D01*
X201709Y589904D01*
X201640Y589855D01*
X201569Y589809D01*
X201496Y589766D01*
X201421Y589726D01*
X201345Y589690D01*
X201267Y589658D01*
X201187Y589629D01*
X201106Y589604D01*
X201024Y589583D01*
X200941Y589565D01*
X200857Y589552D01*
X200773Y589542D01*
X200689Y589536D01*
X200604Y589534D01*
X198769Y589534D01*
X250186Y596138D02*
X252387Y589534D01*
X254589Y596138D01*
X258862Y589534D02*
X260330Y589534D01*
X258862Y589534D02*
X258798Y589536D01*
X258734Y589541D01*
X258671Y589551D01*
X258608Y589564D01*
X258546Y589580D01*
X258485Y589600D01*
X258426Y589624D01*
X258368Y589651D01*
X258312Y589682D01*
X258257Y589715D01*
X258205Y589752D01*
X258154Y589792D01*
X258106Y589834D01*
X258061Y589879D01*
X258019Y589927D01*
X257979Y589978D01*
X257942Y590030D01*
X257909Y590085D01*
X257878Y590141D01*
X257851Y590199D01*
X257827Y590258D01*
X257807Y590319D01*
X257791Y590381D01*
X257778Y590444D01*
X257768Y590507D01*
X257763Y590571D01*
X257761Y590635D01*
X257762Y590635D02*
X257762Y592836D01*
X257761Y592836D02*
X257763Y592900D01*
X257768Y592964D01*
X257778Y593027D01*
X257791Y593090D01*
X257807Y593152D01*
X257827Y593213D01*
X257851Y593272D01*
X257878Y593330D01*
X257909Y593387D01*
X257942Y593441D01*
X257979Y593493D01*
X258019Y593544D01*
X258061Y593592D01*
X258106Y593637D01*
X258154Y593679D01*
X258205Y593719D01*
X258257Y593756D01*
X258312Y593790D01*
X258368Y593820D01*
X258426Y593847D01*
X258485Y593871D01*
X258546Y593891D01*
X258608Y593907D01*
X258671Y593920D01*
X258734Y593930D01*
X258798Y593935D01*
X258862Y593937D01*
X260330Y593937D01*
X264470Y589534D02*
X265938Y589534D01*
X264470Y589534D02*
X264406Y589536D01*
X264342Y589541D01*
X264279Y589551D01*
X264216Y589564D01*
X264154Y589580D01*
X264093Y589600D01*
X264034Y589624D01*
X263976Y589651D01*
X263920Y589682D01*
X263865Y589715D01*
X263813Y589752D01*
X263762Y589792D01*
X263714Y589834D01*
X263669Y589879D01*
X263627Y589927D01*
X263587Y589978D01*
X263550Y590030D01*
X263517Y590085D01*
X263486Y590141D01*
X263459Y590199D01*
X263435Y590258D01*
X263415Y590319D01*
X263399Y590381D01*
X263386Y590444D01*
X263376Y590507D01*
X263371Y590571D01*
X263369Y590635D01*
X263370Y590635D02*
X263370Y592836D01*
X263369Y592836D02*
X263371Y592900D01*
X263376Y592964D01*
X263386Y593027D01*
X263399Y593090D01*
X263415Y593152D01*
X263435Y593213D01*
X263459Y593272D01*
X263486Y593330D01*
X263517Y593387D01*
X263550Y593441D01*
X263587Y593493D01*
X263627Y593544D01*
X263669Y593592D01*
X263714Y593637D01*
X263762Y593679D01*
X263813Y593719D01*
X263865Y593756D01*
X263920Y593790D01*
X263976Y593820D01*
X264034Y593847D01*
X264093Y593871D01*
X264154Y593891D01*
X264216Y593907D01*
X264279Y593920D01*
X264342Y593930D01*
X264406Y593935D01*
X264470Y593937D01*
X265938Y593937D01*
X146502Y635762D02*
X145034Y637596D01*
X151638Y637596D01*
X151638Y635762D02*
X151638Y639431D01*
X148336Y643077D02*
X148191Y643079D01*
X148046Y643085D01*
X147901Y643094D01*
X147756Y643108D01*
X147612Y643125D01*
X147469Y643147D01*
X147325Y643172D01*
X147183Y643201D01*
X147042Y643233D01*
X146901Y643270D01*
X146762Y643310D01*
X146623Y643354D01*
X146486Y643401D01*
X146350Y643452D01*
X146216Y643507D01*
X146083Y643565D01*
X145951Y643627D01*
X145952Y643627D02*
X145883Y643653D01*
X145816Y643682D01*
X145750Y643715D01*
X145687Y643751D01*
X145625Y643791D01*
X145566Y643834D01*
X145509Y643880D01*
X145455Y643929D01*
X145403Y643981D01*
X145354Y644036D01*
X145309Y644093D01*
X145266Y644153D01*
X145227Y644215D01*
X145191Y644278D01*
X145158Y644344D01*
X145130Y644411D01*
X145104Y644480D01*
X145083Y644550D01*
X145065Y644621D01*
X145052Y644693D01*
X145042Y644766D01*
X145036Y644839D01*
X145034Y644912D01*
X145036Y644985D01*
X145042Y645058D01*
X145052Y645131D01*
X145065Y645203D01*
X145083Y645274D01*
X145104Y645344D01*
X145130Y645412D01*
X145158Y645480D01*
X145191Y645545D01*
X145227Y645609D01*
X145266Y645671D01*
X145308Y645730D01*
X145354Y645787D01*
X145403Y645842D01*
X145454Y645894D01*
X145509Y645943D01*
X145566Y645989D01*
X145625Y646032D01*
X145686Y646072D01*
X145750Y646108D01*
X145815Y646141D01*
X145882Y646170D01*
X145951Y646196D01*
X146083Y646258D01*
X146216Y646316D01*
X146350Y646371D01*
X146486Y646422D01*
X146623Y646469D01*
X146762Y646513D01*
X146901Y646553D01*
X147042Y646590D01*
X147183Y646622D01*
X147325Y646651D01*
X147468Y646676D01*
X147612Y646698D01*
X147756Y646715D01*
X147901Y646729D01*
X148046Y646738D01*
X148191Y646744D01*
X148336Y646746D01*
X148336Y643078D02*
X148481Y643080D01*
X148626Y643086D01*
X148771Y643095D01*
X148916Y643109D01*
X149060Y643126D01*
X149203Y643148D01*
X149347Y643173D01*
X149489Y643202D01*
X149630Y643234D01*
X149771Y643271D01*
X149910Y643311D01*
X150049Y643355D01*
X150186Y643402D01*
X150322Y643453D01*
X150456Y643508D01*
X150589Y643566D01*
X150721Y643628D01*
X150720Y643627D02*
X150789Y643653D01*
X150856Y643682D01*
X150922Y643715D01*
X150985Y643751D01*
X151047Y643791D01*
X151106Y643834D01*
X151163Y643880D01*
X151217Y643929D01*
X151269Y643981D01*
X151318Y644036D01*
X151363Y644093D01*
X151406Y644153D01*
X151445Y644215D01*
X151481Y644278D01*
X151514Y644344D01*
X151542Y644411D01*
X151568Y644480D01*
X151589Y644550D01*
X151607Y644621D01*
X151620Y644693D01*
X151630Y644766D01*
X151636Y644839D01*
X151638Y644912D01*
X150721Y646196D02*
X150589Y646258D01*
X150456Y646316D01*
X150322Y646371D01*
X150186Y646422D01*
X150049Y646469D01*
X149910Y646513D01*
X149771Y646553D01*
X149630Y646590D01*
X149489Y646622D01*
X149347Y646651D01*
X149204Y646676D01*
X149060Y646698D01*
X148916Y646715D01*
X148771Y646729D01*
X148626Y646738D01*
X148481Y646744D01*
X148336Y646746D01*
X150721Y646196D02*
X150790Y646170D01*
X150857Y646141D01*
X150922Y646108D01*
X150986Y646072D01*
X151047Y646032D01*
X151106Y645989D01*
X151163Y645943D01*
X151218Y645894D01*
X151269Y645842D01*
X151318Y645787D01*
X151364Y645730D01*
X151406Y645671D01*
X151445Y645609D01*
X151481Y645545D01*
X151514Y645480D01*
X151542Y645412D01*
X151568Y645344D01*
X151589Y645274D01*
X151607Y645202D01*
X151620Y645131D01*
X151630Y645058D01*
X151636Y644985D01*
X151638Y644912D01*
X150170Y643444D02*
X146502Y646379D01*
X148336Y650393D02*
X148191Y650395D01*
X148046Y650401D01*
X147901Y650410D01*
X147756Y650424D01*
X147612Y650441D01*
X147469Y650463D01*
X147325Y650488D01*
X147183Y650517D01*
X147042Y650549D01*
X146901Y650586D01*
X146762Y650626D01*
X146623Y650670D01*
X146486Y650717D01*
X146350Y650768D01*
X146216Y650823D01*
X146083Y650881D01*
X145951Y650943D01*
X145952Y650942D02*
X145883Y650968D01*
X145816Y650997D01*
X145750Y651030D01*
X145687Y651066D01*
X145625Y651106D01*
X145566Y651149D01*
X145509Y651195D01*
X145455Y651244D01*
X145403Y651296D01*
X145354Y651351D01*
X145309Y651408D01*
X145266Y651468D01*
X145227Y651530D01*
X145191Y651593D01*
X145158Y651659D01*
X145130Y651726D01*
X145104Y651795D01*
X145083Y651865D01*
X145065Y651936D01*
X145052Y652008D01*
X145042Y652081D01*
X145036Y652154D01*
X145034Y652227D01*
X145036Y652300D01*
X145042Y652373D01*
X145052Y652446D01*
X145065Y652518D01*
X145083Y652589D01*
X145104Y652659D01*
X145130Y652727D01*
X145158Y652795D01*
X145191Y652860D01*
X145227Y652924D01*
X145266Y652986D01*
X145308Y653045D01*
X145354Y653102D01*
X145403Y653157D01*
X145454Y653209D01*
X145509Y653258D01*
X145566Y653304D01*
X145625Y653347D01*
X145686Y653387D01*
X145750Y653423D01*
X145815Y653456D01*
X145882Y653485D01*
X145951Y653511D01*
X146083Y653573D01*
X146216Y653631D01*
X146350Y653686D01*
X146486Y653737D01*
X146623Y653784D01*
X146762Y653828D01*
X146901Y653868D01*
X147042Y653905D01*
X147183Y653937D01*
X147325Y653966D01*
X147468Y653991D01*
X147612Y654013D01*
X147756Y654030D01*
X147901Y654044D01*
X148046Y654053D01*
X148191Y654059D01*
X148336Y654061D01*
X148336Y650393D02*
X148481Y650395D01*
X148626Y650401D01*
X148771Y650410D01*
X148916Y650424D01*
X149060Y650441D01*
X149203Y650463D01*
X149347Y650488D01*
X149489Y650517D01*
X149630Y650549D01*
X149771Y650586D01*
X149910Y650626D01*
X150049Y650670D01*
X150186Y650717D01*
X150322Y650768D01*
X150456Y650823D01*
X150589Y650881D01*
X150721Y650943D01*
X150720Y650942D02*
X150789Y650968D01*
X150856Y650997D01*
X150922Y651030D01*
X150985Y651066D01*
X151047Y651106D01*
X151106Y651149D01*
X151163Y651195D01*
X151217Y651244D01*
X151269Y651296D01*
X151318Y651351D01*
X151363Y651408D01*
X151406Y651468D01*
X151445Y651530D01*
X151481Y651593D01*
X151514Y651659D01*
X151542Y651726D01*
X151568Y651795D01*
X151589Y651865D01*
X151607Y651936D01*
X151620Y652008D01*
X151630Y652081D01*
X151636Y652154D01*
X151638Y652227D01*
X150721Y653511D02*
X150589Y653573D01*
X150456Y653631D01*
X150322Y653686D01*
X150186Y653737D01*
X150049Y653784D01*
X149910Y653828D01*
X149771Y653868D01*
X149630Y653905D01*
X149489Y653937D01*
X149347Y653966D01*
X149204Y653991D01*
X149060Y654013D01*
X148916Y654030D01*
X148771Y654044D01*
X148626Y654053D01*
X148481Y654059D01*
X148336Y654061D01*
X150721Y653511D02*
X150790Y653485D01*
X150857Y653456D01*
X150922Y653423D01*
X150986Y653387D01*
X151047Y653347D01*
X151106Y653304D01*
X151163Y653258D01*
X151218Y653209D01*
X151269Y653157D01*
X151318Y653102D01*
X151364Y653045D01*
X151406Y652986D01*
X151445Y652924D01*
X151481Y652860D01*
X151514Y652795D01*
X151542Y652727D01*
X151568Y652659D01*
X151589Y652589D01*
X151607Y652517D01*
X151620Y652446D01*
X151630Y652373D01*
X151636Y652300D01*
X151638Y652227D01*
X150170Y650759D02*
X146502Y653694D01*
X145034Y657976D02*
X151638Y657976D01*
X149437Y657976D02*
X147235Y660911D01*
X148519Y659260D02*
X151638Y660911D01*
D11*
X121497Y110490D02*
X121497Y80010D01*
X124883Y80010D02*
X118110Y80010D01*
X118110Y110490D02*
X124883Y110490D01*
X136994Y110490D02*
X136994Y80010D01*
X136994Y110490D02*
X145460Y110490D01*
X145666Y110487D01*
X145872Y110480D01*
X146078Y110467D01*
X146283Y110450D01*
X146488Y110427D01*
X146693Y110400D01*
X146896Y110367D01*
X147099Y110330D01*
X147301Y110287D01*
X147502Y110240D01*
X147701Y110188D01*
X147899Y110131D01*
X148096Y110069D01*
X148291Y110003D01*
X148485Y109931D01*
X148676Y109855D01*
X148866Y109775D01*
X149054Y109689D01*
X149239Y109600D01*
X149423Y109505D01*
X149604Y109407D01*
X149782Y109304D01*
X149958Y109196D01*
X150132Y109084D01*
X150302Y108969D01*
X150470Y108849D01*
X150635Y108725D01*
X150796Y108597D01*
X150955Y108465D01*
X151110Y108329D01*
X151262Y108190D01*
X151411Y108046D01*
X151555Y107900D01*
X151697Y107750D01*
X151834Y107596D01*
X151968Y107439D01*
X152098Y107279D01*
X152224Y107116D01*
X152346Y106950D01*
X152464Y106780D01*
X152578Y106608D01*
X152687Y106434D01*
X152793Y106257D01*
X152894Y106077D01*
X152990Y105894D01*
X153082Y105710D01*
X153170Y105523D01*
X153253Y105334D01*
X153331Y105144D01*
X153405Y104951D01*
X153474Y104757D01*
X153538Y104561D01*
X153597Y104363D01*
X153652Y104165D01*
X153701Y103964D01*
X153746Y103763D01*
X153786Y103561D01*
X153821Y103358D01*
X153851Y103154D01*
X153876Y102949D01*
X153896Y102744D01*
X153911Y102538D01*
X153921Y102332D01*
X153926Y102126D01*
X153926Y101920D01*
X153921Y101714D01*
X153911Y101508D01*
X153896Y101302D01*
X153876Y101097D01*
X153851Y100892D01*
X153821Y100688D01*
X153786Y100485D01*
X153746Y100283D01*
X153701Y100082D01*
X153652Y99881D01*
X153597Y99683D01*
X153538Y99485D01*
X153474Y99289D01*
X153405Y99095D01*
X153331Y98902D01*
X153253Y98712D01*
X153170Y98523D01*
X153082Y98336D01*
X152990Y98152D01*
X152894Y97969D01*
X152793Y97790D01*
X152687Y97612D01*
X152578Y97438D01*
X152464Y97266D01*
X152346Y97096D01*
X152224Y96930D01*
X152098Y96767D01*
X151968Y96607D01*
X151834Y96450D01*
X151697Y96296D01*
X151555Y96146D01*
X151411Y96000D01*
X151262Y95856D01*
X151110Y95717D01*
X150955Y95581D01*
X150796Y95449D01*
X150635Y95321D01*
X150470Y95197D01*
X150302Y95077D01*
X150132Y94962D01*
X149958Y94850D01*
X149782Y94742D01*
X149604Y94639D01*
X149423Y94541D01*
X149239Y94446D01*
X149054Y94357D01*
X148866Y94271D01*
X148676Y94191D01*
X148485Y94115D01*
X148291Y94043D01*
X148096Y93977D01*
X147899Y93915D01*
X147701Y93858D01*
X147502Y93806D01*
X147301Y93759D01*
X147099Y93716D01*
X146896Y93679D01*
X146693Y93646D01*
X146488Y93619D01*
X146283Y93596D01*
X146078Y93579D01*
X145872Y93566D01*
X145666Y93559D01*
X145460Y93556D01*
X145460Y93557D02*
X136994Y93557D01*
X147154Y93557D02*
X153927Y80010D01*
X165312Y80010D02*
X165312Y100330D01*
X164465Y108797D02*
X164465Y110490D01*
X166158Y110490D01*
X166158Y108797D01*
X164465Y108797D01*
X179176Y91863D02*
X187642Y88477D01*
X179175Y91863D02*
X179054Y91914D01*
X178935Y91968D01*
X178817Y92025D01*
X178701Y92086D01*
X178587Y92151D01*
X178475Y92219D01*
X178365Y92290D01*
X178257Y92364D01*
X178152Y92442D01*
X178049Y92523D01*
X177948Y92607D01*
X177850Y92693D01*
X177754Y92783D01*
X177661Y92875D01*
X177571Y92971D01*
X177484Y93068D01*
X177400Y93169D01*
X177319Y93272D01*
X177241Y93377D01*
X177166Y93484D01*
X177094Y93594D01*
X177026Y93706D01*
X176961Y93820D01*
X176899Y93935D01*
X176841Y94053D01*
X176787Y94172D01*
X176736Y94293D01*
X176688Y94415D01*
X176645Y94539D01*
X176605Y94663D01*
X176568Y94789D01*
X176536Y94916D01*
X176507Y95044D01*
X176483Y95173D01*
X176462Y95302D01*
X176444Y95432D01*
X176431Y95562D01*
X176422Y95693D01*
X176417Y95824D01*
X176415Y95955D01*
X176417Y96086D01*
X176424Y96217D01*
X176434Y96348D01*
X176448Y96478D01*
X176466Y96608D01*
X176488Y96737D01*
X176514Y96865D01*
X176543Y96993D01*
X176576Y97120D01*
X176614Y97245D01*
X176654Y97370D01*
X176699Y97493D01*
X176747Y97615D01*
X176799Y97735D01*
X176854Y97854D01*
X176913Y97971D01*
X176975Y98086D01*
X177041Y98200D01*
X177110Y98311D01*
X177183Y98420D01*
X177258Y98527D01*
X177337Y98632D01*
X177419Y98734D01*
X177504Y98834D01*
X177592Y98931D01*
X177682Y99026D01*
X177776Y99118D01*
X177872Y99207D01*
X177971Y99293D01*
X178072Y99376D01*
X178176Y99456D01*
X178282Y99533D01*
X178390Y99607D01*
X178501Y99677D01*
X178613Y99744D01*
X178728Y99808D01*
X178844Y99868D01*
X178962Y99925D01*
X179082Y99978D01*
X179203Y100028D01*
X179326Y100074D01*
X179450Y100116D01*
X179575Y100155D01*
X179701Y100190D01*
X179829Y100221D01*
X179957Y100248D01*
X180086Y100272D01*
X180215Y100291D01*
X180345Y100307D01*
X180476Y100319D01*
X180607Y100326D01*
X180738Y100330D01*
X180869Y100331D01*
X180869Y100330D02*
X181331Y100318D01*
X181793Y100295D01*
X182254Y100260D01*
X182714Y100215D01*
X183173Y100158D01*
X183630Y100091D01*
X184086Y100012D01*
X184540Y99923D01*
X184991Y99823D01*
X185440Y99711D01*
X185886Y99590D01*
X186329Y99457D01*
X186768Y99314D01*
X187205Y99160D01*
X187637Y98996D01*
X188065Y98821D01*
X188489Y98637D01*
X187643Y88477D02*
X187764Y88426D01*
X187883Y88372D01*
X188001Y88315D01*
X188117Y88254D01*
X188231Y88189D01*
X188343Y88121D01*
X188453Y88050D01*
X188561Y87976D01*
X188666Y87898D01*
X188769Y87817D01*
X188870Y87733D01*
X188968Y87647D01*
X189064Y87557D01*
X189157Y87465D01*
X189247Y87369D01*
X189334Y87272D01*
X189418Y87171D01*
X189499Y87068D01*
X189577Y86963D01*
X189652Y86856D01*
X189724Y86746D01*
X189792Y86634D01*
X189857Y86520D01*
X189919Y86405D01*
X189977Y86287D01*
X190031Y86168D01*
X190082Y86047D01*
X190130Y85925D01*
X190173Y85801D01*
X190213Y85677D01*
X190250Y85551D01*
X190282Y85424D01*
X190311Y85296D01*
X190335Y85167D01*
X190356Y85038D01*
X190374Y84908D01*
X190387Y84778D01*
X190396Y84647D01*
X190401Y84516D01*
X190403Y84385D01*
X190401Y84254D01*
X190394Y84123D01*
X190384Y83992D01*
X190370Y83862D01*
X190352Y83732D01*
X190330Y83603D01*
X190304Y83475D01*
X190275Y83347D01*
X190242Y83220D01*
X190204Y83095D01*
X190164Y82970D01*
X190119Y82847D01*
X190071Y82725D01*
X190019Y82605D01*
X189964Y82486D01*
X189905Y82369D01*
X189843Y82254D01*
X189777Y82140D01*
X189708Y82029D01*
X189635Y81920D01*
X189560Y81813D01*
X189481Y81708D01*
X189399Y81606D01*
X189314Y81506D01*
X189226Y81409D01*
X189136Y81314D01*
X189042Y81222D01*
X188946Y81133D01*
X188847Y81047D01*
X188746Y80964D01*
X188642Y80884D01*
X188536Y80807D01*
X188428Y80733D01*
X188317Y80663D01*
X188205Y80596D01*
X188090Y80532D01*
X187974Y80472D01*
X187856Y80415D01*
X187736Y80362D01*
X187615Y80312D01*
X187492Y80266D01*
X187368Y80224D01*
X187243Y80185D01*
X187117Y80150D01*
X186989Y80119D01*
X186861Y80092D01*
X186732Y80068D01*
X186603Y80049D01*
X186473Y80033D01*
X186342Y80021D01*
X186211Y80014D01*
X186080Y80010D01*
X185949Y80009D01*
X185949Y80010D02*
X185270Y80028D01*
X184592Y80061D01*
X183914Y80111D01*
X183238Y80177D01*
X182564Y80259D01*
X181892Y80357D01*
X181222Y80470D01*
X180555Y80600D01*
X179892Y80745D01*
X179232Y80906D01*
X178576Y81082D01*
X177924Y81274D01*
X177277Y81481D01*
X176636Y81703D01*
D12*
X177800Y628396D02*
X177800Y641604D01*
X203200Y641604D02*
X203200Y628396D01*
X228600Y628396D02*
X228600Y641604D01*
X254000Y641604D02*
X254000Y628396D01*
X254000Y704596D02*
X254000Y717804D01*
X228600Y717804D02*
X228600Y704596D01*
X203200Y704596D02*
X203200Y717804D01*
X177800Y717804D02*
X177800Y704596D01*
D13*
X184912Y454406D03*
X119888Y454406D03*
X184912Y409194D03*
X119888Y409194D03*
X184912Y378206D03*
X119888Y378206D03*
X184912Y332994D03*
X119888Y332994D03*
X184912Y302006D03*
X119888Y302006D03*
X184912Y256794D03*
X119888Y256794D03*
X184912Y225806D03*
X119888Y225806D03*
X184912Y180594D03*
X119888Y180594D03*
D12*
X101612Y704862D02*
X101612Y718070D01*
X76612Y718070D02*
X76612Y704862D01*
X126612Y704862D02*
X126612Y718070D01*
X50800Y717804D02*
X50800Y704596D01*
X25400Y704596D02*
X25400Y717804D01*
D13*
X152400Y609600D03*
X152400Y685800D03*
X98571Y658213D03*
X28429Y687987D03*
D14*
X165100Y546100D03*
X139700Y546100D03*
D13*
X127000Y609600D03*
X127000Y685800D03*
X25400Y635000D03*
X101600Y635000D03*
X25400Y609600D03*
X101600Y609600D03*
X279400Y711200D03*
X279400Y635000D03*
X177800Y609600D03*
X254000Y609600D03*
D15*
X279400Y584200D03*
X215900Y584200D03*
D16*
X190500Y571500D03*
D17*
X165100Y571500D01*
X139700Y546100D01*
X139700Y533400D01*
X215900Y457200D01*
X215900Y211582D02*
X184912Y180594D01*
X215900Y211582D02*
X215900Y457200D01*
D16*
X63500Y571500D03*
D17*
X76200Y376682D02*
X119888Y332994D01*
X76200Y376682D02*
X76200Y558800D01*
X63500Y571500D01*
D16*
X88900Y571500D03*
D17*
X88900Y440182D02*
X119888Y409194D01*
X88900Y440182D02*
X88900Y571500D01*
D16*
X38100Y571500D03*
D17*
X63500Y313182D02*
X119888Y256794D01*
X63500Y313182D02*
X63500Y546100D01*
X38100Y571500D01*
D16*
X114300Y571500D03*
D17*
X203200Y244094D02*
X184912Y225806D01*
X203200Y283718D02*
X184912Y302006D01*
X203200Y283718D02*
X203200Y244094D01*
X184912Y302006D02*
X165100Y321818D01*
X165100Y358394D02*
X184912Y378206D01*
X165100Y358394D02*
X165100Y321818D01*
X184912Y378206D02*
X203200Y396494D01*
X203200Y436118D02*
X184912Y454406D01*
X203200Y436118D02*
X203200Y396494D01*
X184912Y454406D02*
X114300Y525018D01*
X114300Y571500D01*
D16*
X241300Y571500D03*
D17*
X215900Y546100D01*
X165100Y546100D01*
M02*
