M48
;GenerationSoftware,Autodesk,EAGLE,8.7.0*%
;CreationDate,2018-05-28T14:24:43Z*%
FMAT,2
ICI,OFF
METRIC,TZ,000.000
T5C0.350
T4C0.813
T3C0.900
T2C1.016
%
G90
M71
T2
X11989Y30201
X11989Y37821
X18491Y37821
X11989Y40919
X18491Y40919
X11989Y45441
X18491Y45441
X18491Y33299
X11989Y33299
X18491Y30201
X18491Y25679
X11989Y25679
X18491Y22581
X11989Y22581
X18491Y18059
X11989Y18059
T3
X15240Y60960
X2843Y68799
X9857Y65821
X15240Y68580
X12700Y60960
X12700Y68580
X2540Y63500
X10160Y63500
X2540Y60960
X10160Y60960
X27940Y71120
X27940Y63500
X17780Y60960
X25400Y60960
T4
X16510Y54610
X13970Y54610
X27940Y58420
X21590Y58420
X5080Y71120
X17780Y63500
X20320Y63500
X22860Y63500
X25400Y63500
X25400Y71120
X22860Y71120
X20320Y71120
X17780Y71120
X10161Y71147
X7661Y71147
X12661Y71147
X2540Y71120
T5
X24130Y57150
X11430Y57150
X3810Y57150
X8890Y57150
X6350Y57150
X19050Y57150
M30