G04 EAGLE Gerber X2 export*
%TF.Part,Single*%
%TF.FileFunction,Legend,Bot,1*%
%TF.FilePolarity,Positive*%
%TF.GenerationSoftware,Autodesk,EAGLE,8.7.0*%
%TF.CreationDate,2018-05-28T14:24:44Z*%
G75*
%MOMM*%
%FSLAX34Y34*%
%LPD*%
%AMOC8*
5,1,8,0,0,1.08239X$1,22.5*%
G01*
%ADD10C,0.203200*%
%ADD11C,0.127000*%
%ADD12C,0.254000*%
%ADD13C,0.152400*%


D10*
X130810Y462280D02*
X173990Y462280D01*
X173990Y401320D02*
X130810Y401320D01*
X121920Y421640D02*
X121920Y441780D01*
X182880Y442080D02*
X182880Y421640D01*
X134620Y431800D02*
X134625Y432236D01*
X134641Y432672D01*
X134668Y433108D01*
X134706Y433543D01*
X134754Y433976D01*
X134812Y434409D01*
X134882Y434840D01*
X134962Y435269D01*
X135052Y435696D01*
X135153Y436120D01*
X135264Y436542D01*
X135386Y436961D01*
X135517Y437377D01*
X135659Y437790D01*
X135811Y438199D01*
X135973Y438604D01*
X136145Y439005D01*
X136327Y439402D01*
X136518Y439794D01*
X136719Y440181D01*
X136930Y440564D01*
X137150Y440941D01*
X137379Y441312D01*
X137616Y441678D01*
X137863Y442038D01*
X138119Y442392D01*
X138383Y442739D01*
X138656Y443080D01*
X138937Y443413D01*
X139226Y443740D01*
X139523Y444060D01*
X139828Y444372D01*
X140140Y444677D01*
X140460Y444974D01*
X140787Y445263D01*
X141120Y445544D01*
X141461Y445817D01*
X141808Y446081D01*
X142162Y446337D01*
X142522Y446584D01*
X142888Y446821D01*
X143259Y447050D01*
X143636Y447270D01*
X144019Y447481D01*
X144406Y447682D01*
X144798Y447873D01*
X145195Y448055D01*
X145596Y448227D01*
X146001Y448389D01*
X146410Y448541D01*
X146823Y448683D01*
X147239Y448814D01*
X147658Y448936D01*
X148080Y449047D01*
X148504Y449148D01*
X148931Y449238D01*
X149360Y449318D01*
X149791Y449388D01*
X150224Y449446D01*
X150657Y449494D01*
X151092Y449532D01*
X151528Y449559D01*
X151964Y449575D01*
X152400Y449580D01*
X152836Y449575D01*
X153272Y449559D01*
X153708Y449532D01*
X154143Y449494D01*
X154576Y449446D01*
X155009Y449388D01*
X155440Y449318D01*
X155869Y449238D01*
X156296Y449148D01*
X156720Y449047D01*
X157142Y448936D01*
X157561Y448814D01*
X157977Y448683D01*
X158390Y448541D01*
X158799Y448389D01*
X159204Y448227D01*
X159605Y448055D01*
X160002Y447873D01*
X160394Y447682D01*
X160781Y447481D01*
X161164Y447270D01*
X161541Y447050D01*
X161912Y446821D01*
X162278Y446584D01*
X162638Y446337D01*
X162992Y446081D01*
X163339Y445817D01*
X163680Y445544D01*
X164013Y445263D01*
X164340Y444974D01*
X164660Y444677D01*
X164972Y444372D01*
X165277Y444060D01*
X165574Y443740D01*
X165863Y443413D01*
X166144Y443080D01*
X166417Y442739D01*
X166681Y442392D01*
X166937Y442038D01*
X167184Y441678D01*
X167421Y441312D01*
X167650Y440941D01*
X167870Y440564D01*
X168081Y440181D01*
X168282Y439794D01*
X168473Y439402D01*
X168655Y439005D01*
X168827Y438604D01*
X168989Y438199D01*
X169141Y437790D01*
X169283Y437377D01*
X169414Y436961D01*
X169536Y436542D01*
X169647Y436120D01*
X169748Y435696D01*
X169838Y435269D01*
X169918Y434840D01*
X169988Y434409D01*
X170046Y433976D01*
X170094Y433543D01*
X170132Y433108D01*
X170159Y432672D01*
X170175Y432236D01*
X170180Y431800D01*
X170175Y431364D01*
X170159Y430928D01*
X170132Y430492D01*
X170094Y430057D01*
X170046Y429624D01*
X169988Y429191D01*
X169918Y428760D01*
X169838Y428331D01*
X169748Y427904D01*
X169647Y427480D01*
X169536Y427058D01*
X169414Y426639D01*
X169283Y426223D01*
X169141Y425810D01*
X168989Y425401D01*
X168827Y424996D01*
X168655Y424595D01*
X168473Y424198D01*
X168282Y423806D01*
X168081Y423419D01*
X167870Y423036D01*
X167650Y422659D01*
X167421Y422288D01*
X167184Y421922D01*
X166937Y421562D01*
X166681Y421208D01*
X166417Y420861D01*
X166144Y420520D01*
X165863Y420187D01*
X165574Y419860D01*
X165277Y419540D01*
X164972Y419228D01*
X164660Y418923D01*
X164340Y418626D01*
X164013Y418337D01*
X163680Y418056D01*
X163339Y417783D01*
X162992Y417519D01*
X162638Y417263D01*
X162278Y417016D01*
X161912Y416779D01*
X161541Y416550D01*
X161164Y416330D01*
X160781Y416119D01*
X160394Y415918D01*
X160002Y415727D01*
X159605Y415545D01*
X159204Y415373D01*
X158799Y415211D01*
X158390Y415059D01*
X157977Y414917D01*
X157561Y414786D01*
X157142Y414664D01*
X156720Y414553D01*
X156296Y414452D01*
X155869Y414362D01*
X155440Y414282D01*
X155009Y414212D01*
X154576Y414154D01*
X154143Y414106D01*
X153708Y414068D01*
X153272Y414041D01*
X152836Y414025D01*
X152400Y414020D01*
X151964Y414025D01*
X151528Y414041D01*
X151092Y414068D01*
X150657Y414106D01*
X150224Y414154D01*
X149791Y414212D01*
X149360Y414282D01*
X148931Y414362D01*
X148504Y414452D01*
X148080Y414553D01*
X147658Y414664D01*
X147239Y414786D01*
X146823Y414917D01*
X146410Y415059D01*
X146001Y415211D01*
X145596Y415373D01*
X145195Y415545D01*
X144798Y415727D01*
X144406Y415918D01*
X144019Y416119D01*
X143636Y416330D01*
X143259Y416550D01*
X142888Y416779D01*
X142522Y417016D01*
X142162Y417263D01*
X141808Y417519D01*
X141461Y417783D01*
X141120Y418056D01*
X140787Y418337D01*
X140460Y418626D01*
X140140Y418923D01*
X139828Y419228D01*
X139523Y419540D01*
X139226Y419860D01*
X138937Y420187D01*
X138656Y420520D01*
X138383Y420861D01*
X138119Y421208D01*
X137863Y421562D01*
X137616Y421922D01*
X137379Y422288D01*
X137150Y422659D01*
X136930Y423036D01*
X136719Y423419D01*
X136518Y423806D01*
X136327Y424198D01*
X136145Y424595D01*
X135973Y424996D01*
X135811Y425401D01*
X135659Y425810D01*
X135517Y426223D01*
X135386Y426639D01*
X135264Y427058D01*
X135153Y427480D01*
X135052Y427904D01*
X134962Y428331D01*
X134882Y428760D01*
X134812Y429191D01*
X134754Y429624D01*
X134706Y430057D01*
X134668Y430492D01*
X134641Y430928D01*
X134625Y431364D01*
X134620Y431800D01*
D11*
X163933Y466796D02*
X163933Y468940D01*
X163931Y469011D01*
X163925Y469083D01*
X163916Y469153D01*
X163903Y469223D01*
X163886Y469293D01*
X163865Y469361D01*
X163841Y469428D01*
X163813Y469494D01*
X163782Y469558D01*
X163747Y469621D01*
X163709Y469681D01*
X163668Y469740D01*
X163624Y469796D01*
X163577Y469850D01*
X163528Y469901D01*
X163475Y469949D01*
X163420Y469995D01*
X163363Y470037D01*
X163303Y470077D01*
X163242Y470113D01*
X163178Y470146D01*
X163113Y470175D01*
X163047Y470201D01*
X162979Y470224D01*
X162910Y470243D01*
X162840Y470258D01*
X162770Y470269D01*
X162699Y470277D01*
X162628Y470281D01*
X162556Y470281D01*
X162485Y470277D01*
X162414Y470269D01*
X162344Y470258D01*
X162274Y470243D01*
X162205Y470224D01*
X162137Y470201D01*
X162071Y470175D01*
X162006Y470146D01*
X161942Y470113D01*
X161881Y470077D01*
X161821Y470037D01*
X161764Y469995D01*
X161709Y469949D01*
X161656Y469901D01*
X161607Y469850D01*
X161560Y469796D01*
X161516Y469740D01*
X161475Y469681D01*
X161437Y469621D01*
X161402Y469558D01*
X161371Y469494D01*
X161343Y469428D01*
X161319Y469361D01*
X161298Y469293D01*
X161281Y469223D01*
X161268Y469153D01*
X161259Y469083D01*
X161253Y469011D01*
X161251Y468940D01*
X161252Y468940D02*
X161252Y466796D01*
X161251Y466796D02*
X161253Y466725D01*
X161259Y466653D01*
X161268Y466583D01*
X161281Y466513D01*
X161298Y466443D01*
X161319Y466375D01*
X161343Y466308D01*
X161371Y466242D01*
X161402Y466178D01*
X161437Y466115D01*
X161475Y466055D01*
X161516Y465996D01*
X161560Y465940D01*
X161607Y465886D01*
X161656Y465835D01*
X161709Y465787D01*
X161764Y465741D01*
X161821Y465699D01*
X161881Y465659D01*
X161942Y465623D01*
X162006Y465590D01*
X162071Y465561D01*
X162137Y465535D01*
X162205Y465512D01*
X162274Y465493D01*
X162344Y465478D01*
X162414Y465467D01*
X162485Y465459D01*
X162556Y465455D01*
X162628Y465455D01*
X162699Y465459D01*
X162770Y465467D01*
X162840Y465478D01*
X162910Y465493D01*
X162979Y465512D01*
X163047Y465535D01*
X163113Y465561D01*
X163178Y465590D01*
X163242Y465623D01*
X163303Y465659D01*
X163363Y465699D01*
X163420Y465741D01*
X163475Y465787D01*
X163528Y465835D01*
X163577Y465886D01*
X163624Y465940D01*
X163668Y465996D01*
X163709Y466055D01*
X163747Y466115D01*
X163782Y466178D01*
X163813Y466242D01*
X163841Y466308D01*
X163865Y466375D01*
X163886Y466443D01*
X163903Y466513D01*
X163916Y466583D01*
X163925Y466653D01*
X163931Y466725D01*
X163933Y466796D01*
X158117Y465455D02*
X158117Y470281D01*
X156777Y470281D01*
X156706Y470279D01*
X156634Y470273D01*
X156564Y470264D01*
X156494Y470251D01*
X156424Y470234D01*
X156356Y470213D01*
X156289Y470189D01*
X156223Y470161D01*
X156159Y470130D01*
X156096Y470095D01*
X156036Y470057D01*
X155977Y470016D01*
X155921Y469972D01*
X155867Y469925D01*
X155816Y469876D01*
X155768Y469823D01*
X155722Y469768D01*
X155680Y469711D01*
X155640Y469651D01*
X155604Y469590D01*
X155571Y469526D01*
X155542Y469461D01*
X155516Y469395D01*
X155493Y469327D01*
X155474Y469258D01*
X155459Y469188D01*
X155448Y469118D01*
X155440Y469047D01*
X155436Y468976D01*
X155436Y468904D01*
X155440Y468833D01*
X155448Y468762D01*
X155459Y468692D01*
X155474Y468622D01*
X155493Y468553D01*
X155516Y468485D01*
X155542Y468419D01*
X155571Y468354D01*
X155604Y468290D01*
X155640Y468229D01*
X155680Y468169D01*
X155722Y468112D01*
X155768Y468057D01*
X155816Y468004D01*
X155867Y467955D01*
X155921Y467908D01*
X155977Y467864D01*
X156036Y467823D01*
X156096Y467785D01*
X156159Y467750D01*
X156223Y467719D01*
X156289Y467691D01*
X156356Y467667D01*
X156424Y467646D01*
X156494Y467629D01*
X156564Y467616D01*
X156634Y467607D01*
X156706Y467601D01*
X156777Y467599D01*
X156777Y467600D02*
X158117Y467600D01*
X151985Y465455D02*
X151985Y470281D01*
X150645Y470281D02*
X153326Y470281D01*
X148486Y464919D02*
X146341Y464919D01*
X144084Y465455D02*
X142476Y470281D01*
X140867Y465455D01*
X141269Y466662D02*
X143682Y466662D01*
D10*
X130810Y386080D02*
X173990Y386080D01*
X173990Y325120D02*
X130810Y325120D01*
X121920Y345440D02*
X121920Y365580D01*
X182880Y365880D02*
X182880Y345440D01*
X134620Y355600D02*
X134625Y356036D01*
X134641Y356472D01*
X134668Y356908D01*
X134706Y357343D01*
X134754Y357776D01*
X134812Y358209D01*
X134882Y358640D01*
X134962Y359069D01*
X135052Y359496D01*
X135153Y359920D01*
X135264Y360342D01*
X135386Y360761D01*
X135517Y361177D01*
X135659Y361590D01*
X135811Y361999D01*
X135973Y362404D01*
X136145Y362805D01*
X136327Y363202D01*
X136518Y363594D01*
X136719Y363981D01*
X136930Y364364D01*
X137150Y364741D01*
X137379Y365112D01*
X137616Y365478D01*
X137863Y365838D01*
X138119Y366192D01*
X138383Y366539D01*
X138656Y366880D01*
X138937Y367213D01*
X139226Y367540D01*
X139523Y367860D01*
X139828Y368172D01*
X140140Y368477D01*
X140460Y368774D01*
X140787Y369063D01*
X141120Y369344D01*
X141461Y369617D01*
X141808Y369881D01*
X142162Y370137D01*
X142522Y370384D01*
X142888Y370621D01*
X143259Y370850D01*
X143636Y371070D01*
X144019Y371281D01*
X144406Y371482D01*
X144798Y371673D01*
X145195Y371855D01*
X145596Y372027D01*
X146001Y372189D01*
X146410Y372341D01*
X146823Y372483D01*
X147239Y372614D01*
X147658Y372736D01*
X148080Y372847D01*
X148504Y372948D01*
X148931Y373038D01*
X149360Y373118D01*
X149791Y373188D01*
X150224Y373246D01*
X150657Y373294D01*
X151092Y373332D01*
X151528Y373359D01*
X151964Y373375D01*
X152400Y373380D01*
X152836Y373375D01*
X153272Y373359D01*
X153708Y373332D01*
X154143Y373294D01*
X154576Y373246D01*
X155009Y373188D01*
X155440Y373118D01*
X155869Y373038D01*
X156296Y372948D01*
X156720Y372847D01*
X157142Y372736D01*
X157561Y372614D01*
X157977Y372483D01*
X158390Y372341D01*
X158799Y372189D01*
X159204Y372027D01*
X159605Y371855D01*
X160002Y371673D01*
X160394Y371482D01*
X160781Y371281D01*
X161164Y371070D01*
X161541Y370850D01*
X161912Y370621D01*
X162278Y370384D01*
X162638Y370137D01*
X162992Y369881D01*
X163339Y369617D01*
X163680Y369344D01*
X164013Y369063D01*
X164340Y368774D01*
X164660Y368477D01*
X164972Y368172D01*
X165277Y367860D01*
X165574Y367540D01*
X165863Y367213D01*
X166144Y366880D01*
X166417Y366539D01*
X166681Y366192D01*
X166937Y365838D01*
X167184Y365478D01*
X167421Y365112D01*
X167650Y364741D01*
X167870Y364364D01*
X168081Y363981D01*
X168282Y363594D01*
X168473Y363202D01*
X168655Y362805D01*
X168827Y362404D01*
X168989Y361999D01*
X169141Y361590D01*
X169283Y361177D01*
X169414Y360761D01*
X169536Y360342D01*
X169647Y359920D01*
X169748Y359496D01*
X169838Y359069D01*
X169918Y358640D01*
X169988Y358209D01*
X170046Y357776D01*
X170094Y357343D01*
X170132Y356908D01*
X170159Y356472D01*
X170175Y356036D01*
X170180Y355600D01*
X170175Y355164D01*
X170159Y354728D01*
X170132Y354292D01*
X170094Y353857D01*
X170046Y353424D01*
X169988Y352991D01*
X169918Y352560D01*
X169838Y352131D01*
X169748Y351704D01*
X169647Y351280D01*
X169536Y350858D01*
X169414Y350439D01*
X169283Y350023D01*
X169141Y349610D01*
X168989Y349201D01*
X168827Y348796D01*
X168655Y348395D01*
X168473Y347998D01*
X168282Y347606D01*
X168081Y347219D01*
X167870Y346836D01*
X167650Y346459D01*
X167421Y346088D01*
X167184Y345722D01*
X166937Y345362D01*
X166681Y345008D01*
X166417Y344661D01*
X166144Y344320D01*
X165863Y343987D01*
X165574Y343660D01*
X165277Y343340D01*
X164972Y343028D01*
X164660Y342723D01*
X164340Y342426D01*
X164013Y342137D01*
X163680Y341856D01*
X163339Y341583D01*
X162992Y341319D01*
X162638Y341063D01*
X162278Y340816D01*
X161912Y340579D01*
X161541Y340350D01*
X161164Y340130D01*
X160781Y339919D01*
X160394Y339718D01*
X160002Y339527D01*
X159605Y339345D01*
X159204Y339173D01*
X158799Y339011D01*
X158390Y338859D01*
X157977Y338717D01*
X157561Y338586D01*
X157142Y338464D01*
X156720Y338353D01*
X156296Y338252D01*
X155869Y338162D01*
X155440Y338082D01*
X155009Y338012D01*
X154576Y337954D01*
X154143Y337906D01*
X153708Y337868D01*
X153272Y337841D01*
X152836Y337825D01*
X152400Y337820D01*
X151964Y337825D01*
X151528Y337841D01*
X151092Y337868D01*
X150657Y337906D01*
X150224Y337954D01*
X149791Y338012D01*
X149360Y338082D01*
X148931Y338162D01*
X148504Y338252D01*
X148080Y338353D01*
X147658Y338464D01*
X147239Y338586D01*
X146823Y338717D01*
X146410Y338859D01*
X146001Y339011D01*
X145596Y339173D01*
X145195Y339345D01*
X144798Y339527D01*
X144406Y339718D01*
X144019Y339919D01*
X143636Y340130D01*
X143259Y340350D01*
X142888Y340579D01*
X142522Y340816D01*
X142162Y341063D01*
X141808Y341319D01*
X141461Y341583D01*
X141120Y341856D01*
X140787Y342137D01*
X140460Y342426D01*
X140140Y342723D01*
X139828Y343028D01*
X139523Y343340D01*
X139226Y343660D01*
X138937Y343987D01*
X138656Y344320D01*
X138383Y344661D01*
X138119Y345008D01*
X137863Y345362D01*
X137616Y345722D01*
X137379Y346088D01*
X137150Y346459D01*
X136930Y346836D01*
X136719Y347219D01*
X136518Y347606D01*
X136327Y347998D01*
X136145Y348395D01*
X135973Y348796D01*
X135811Y349201D01*
X135659Y349610D01*
X135517Y350023D01*
X135386Y350439D01*
X135264Y350858D01*
X135153Y351280D01*
X135052Y351704D01*
X134962Y352131D01*
X134882Y352560D01*
X134812Y352991D01*
X134754Y353424D01*
X134706Y353857D01*
X134668Y354292D01*
X134641Y354728D01*
X134625Y355164D01*
X134620Y355600D01*
D11*
X163964Y390596D02*
X163964Y392740D01*
X163962Y392811D01*
X163956Y392883D01*
X163947Y392953D01*
X163934Y393023D01*
X163917Y393093D01*
X163896Y393161D01*
X163872Y393228D01*
X163844Y393294D01*
X163813Y393358D01*
X163778Y393421D01*
X163740Y393481D01*
X163699Y393540D01*
X163655Y393596D01*
X163608Y393650D01*
X163559Y393701D01*
X163506Y393749D01*
X163451Y393795D01*
X163394Y393837D01*
X163334Y393877D01*
X163273Y393913D01*
X163209Y393946D01*
X163144Y393975D01*
X163078Y394001D01*
X163010Y394024D01*
X162941Y394043D01*
X162871Y394058D01*
X162801Y394069D01*
X162730Y394077D01*
X162659Y394081D01*
X162587Y394081D01*
X162516Y394077D01*
X162445Y394069D01*
X162375Y394058D01*
X162305Y394043D01*
X162236Y394024D01*
X162168Y394001D01*
X162102Y393975D01*
X162037Y393946D01*
X161973Y393913D01*
X161912Y393877D01*
X161852Y393837D01*
X161795Y393795D01*
X161740Y393749D01*
X161687Y393701D01*
X161638Y393650D01*
X161591Y393596D01*
X161547Y393540D01*
X161506Y393481D01*
X161468Y393421D01*
X161433Y393358D01*
X161402Y393294D01*
X161374Y393228D01*
X161350Y393161D01*
X161329Y393093D01*
X161312Y393023D01*
X161299Y392953D01*
X161290Y392883D01*
X161284Y392811D01*
X161282Y392740D01*
X161282Y390596D01*
X161284Y390525D01*
X161290Y390453D01*
X161299Y390383D01*
X161312Y390313D01*
X161329Y390243D01*
X161350Y390175D01*
X161374Y390108D01*
X161402Y390042D01*
X161433Y389978D01*
X161468Y389915D01*
X161506Y389855D01*
X161547Y389796D01*
X161591Y389740D01*
X161638Y389686D01*
X161687Y389635D01*
X161740Y389587D01*
X161795Y389541D01*
X161852Y389499D01*
X161912Y389459D01*
X161973Y389423D01*
X162037Y389390D01*
X162102Y389361D01*
X162168Y389335D01*
X162236Y389312D01*
X162305Y389293D01*
X162375Y389278D01*
X162445Y389267D01*
X162516Y389259D01*
X162587Y389255D01*
X162659Y389255D01*
X162730Y389259D01*
X162801Y389267D01*
X162871Y389278D01*
X162941Y389293D01*
X163010Y389312D01*
X163078Y389335D01*
X163144Y389361D01*
X163209Y389390D01*
X163273Y389423D01*
X163334Y389459D01*
X163394Y389499D01*
X163451Y389541D01*
X163506Y389587D01*
X163559Y389635D01*
X163608Y389686D01*
X163655Y389740D01*
X163699Y389796D01*
X163740Y389855D01*
X163778Y389915D01*
X163813Y389978D01*
X163844Y390042D01*
X163872Y390108D01*
X163896Y390175D01*
X163917Y390243D01*
X163934Y390313D01*
X163947Y390383D01*
X163956Y390453D01*
X163962Y390525D01*
X163964Y390596D01*
X158148Y389255D02*
X158148Y394081D01*
X156807Y394081D01*
X156736Y394079D01*
X156664Y394073D01*
X156594Y394064D01*
X156524Y394051D01*
X156454Y394034D01*
X156386Y394013D01*
X156319Y393989D01*
X156253Y393961D01*
X156189Y393930D01*
X156126Y393895D01*
X156066Y393857D01*
X156007Y393816D01*
X155951Y393772D01*
X155897Y393725D01*
X155846Y393676D01*
X155798Y393623D01*
X155752Y393568D01*
X155710Y393511D01*
X155670Y393451D01*
X155634Y393390D01*
X155601Y393326D01*
X155572Y393261D01*
X155546Y393195D01*
X155523Y393127D01*
X155504Y393058D01*
X155489Y392988D01*
X155478Y392918D01*
X155470Y392847D01*
X155466Y392776D01*
X155466Y392704D01*
X155470Y392633D01*
X155478Y392562D01*
X155489Y392492D01*
X155504Y392422D01*
X155523Y392353D01*
X155546Y392285D01*
X155572Y392219D01*
X155601Y392154D01*
X155634Y392090D01*
X155670Y392029D01*
X155710Y391969D01*
X155752Y391912D01*
X155798Y391857D01*
X155846Y391804D01*
X155897Y391755D01*
X155951Y391708D01*
X156007Y391664D01*
X156066Y391623D01*
X156126Y391585D01*
X156189Y391550D01*
X156253Y391519D01*
X156319Y391491D01*
X156386Y391467D01*
X156454Y391446D01*
X156524Y391429D01*
X156594Y391416D01*
X156664Y391407D01*
X156736Y391401D01*
X156807Y391399D01*
X156807Y391400D02*
X158148Y391400D01*
X152016Y389255D02*
X152016Y394081D01*
X153357Y394081D02*
X150675Y394081D01*
X148517Y388719D02*
X146372Y388719D01*
X143518Y391936D02*
X142177Y391936D01*
X142177Y391937D02*
X142106Y391935D01*
X142034Y391929D01*
X141964Y391920D01*
X141894Y391907D01*
X141824Y391890D01*
X141756Y391869D01*
X141689Y391845D01*
X141623Y391817D01*
X141559Y391786D01*
X141496Y391751D01*
X141436Y391713D01*
X141377Y391672D01*
X141321Y391628D01*
X141267Y391581D01*
X141216Y391532D01*
X141168Y391479D01*
X141122Y391424D01*
X141080Y391367D01*
X141040Y391307D01*
X141004Y391246D01*
X140971Y391182D01*
X140942Y391117D01*
X140916Y391051D01*
X140893Y390983D01*
X140874Y390914D01*
X140859Y390844D01*
X140848Y390774D01*
X140840Y390703D01*
X140836Y390632D01*
X140836Y390560D01*
X140840Y390489D01*
X140848Y390418D01*
X140859Y390348D01*
X140874Y390278D01*
X140893Y390209D01*
X140916Y390141D01*
X140942Y390075D01*
X140971Y390010D01*
X141004Y389946D01*
X141040Y389885D01*
X141080Y389825D01*
X141122Y389768D01*
X141168Y389713D01*
X141216Y389660D01*
X141267Y389611D01*
X141321Y389564D01*
X141377Y389520D01*
X141436Y389479D01*
X141496Y389441D01*
X141559Y389406D01*
X141623Y389375D01*
X141689Y389347D01*
X141756Y389323D01*
X141824Y389302D01*
X141894Y389285D01*
X141964Y389272D01*
X142034Y389263D01*
X142106Y389257D01*
X142177Y389255D01*
X143518Y389255D01*
X143518Y394081D01*
X142177Y394081D01*
X142112Y394079D01*
X142048Y394073D01*
X141984Y394063D01*
X141920Y394050D01*
X141858Y394032D01*
X141797Y394011D01*
X141737Y393987D01*
X141679Y393958D01*
X141622Y393926D01*
X141568Y393891D01*
X141516Y393853D01*
X141466Y393811D01*
X141419Y393767D01*
X141375Y393720D01*
X141333Y393670D01*
X141295Y393618D01*
X141260Y393564D01*
X141228Y393507D01*
X141199Y393449D01*
X141175Y393389D01*
X141154Y393328D01*
X141136Y393266D01*
X141123Y393202D01*
X141113Y393138D01*
X141107Y393074D01*
X141105Y393009D01*
X141107Y392944D01*
X141113Y392880D01*
X141123Y392816D01*
X141136Y392752D01*
X141154Y392690D01*
X141175Y392629D01*
X141199Y392569D01*
X141228Y392511D01*
X141260Y392454D01*
X141295Y392400D01*
X141333Y392348D01*
X141375Y392298D01*
X141419Y392251D01*
X141466Y392207D01*
X141516Y392165D01*
X141568Y392127D01*
X141622Y392092D01*
X141679Y392060D01*
X141737Y392031D01*
X141797Y392007D01*
X141858Y391986D01*
X141920Y391968D01*
X141984Y391955D01*
X142048Y391945D01*
X142112Y391939D01*
X142177Y391937D01*
D10*
X130810Y309880D02*
X173990Y309880D01*
X173990Y248920D02*
X130810Y248920D01*
X121920Y269240D02*
X121920Y289380D01*
X182880Y289680D02*
X182880Y269240D01*
X134620Y279400D02*
X134625Y279836D01*
X134641Y280272D01*
X134668Y280708D01*
X134706Y281143D01*
X134754Y281576D01*
X134812Y282009D01*
X134882Y282440D01*
X134962Y282869D01*
X135052Y283296D01*
X135153Y283720D01*
X135264Y284142D01*
X135386Y284561D01*
X135517Y284977D01*
X135659Y285390D01*
X135811Y285799D01*
X135973Y286204D01*
X136145Y286605D01*
X136327Y287002D01*
X136518Y287394D01*
X136719Y287781D01*
X136930Y288164D01*
X137150Y288541D01*
X137379Y288912D01*
X137616Y289278D01*
X137863Y289638D01*
X138119Y289992D01*
X138383Y290339D01*
X138656Y290680D01*
X138937Y291013D01*
X139226Y291340D01*
X139523Y291660D01*
X139828Y291972D01*
X140140Y292277D01*
X140460Y292574D01*
X140787Y292863D01*
X141120Y293144D01*
X141461Y293417D01*
X141808Y293681D01*
X142162Y293937D01*
X142522Y294184D01*
X142888Y294421D01*
X143259Y294650D01*
X143636Y294870D01*
X144019Y295081D01*
X144406Y295282D01*
X144798Y295473D01*
X145195Y295655D01*
X145596Y295827D01*
X146001Y295989D01*
X146410Y296141D01*
X146823Y296283D01*
X147239Y296414D01*
X147658Y296536D01*
X148080Y296647D01*
X148504Y296748D01*
X148931Y296838D01*
X149360Y296918D01*
X149791Y296988D01*
X150224Y297046D01*
X150657Y297094D01*
X151092Y297132D01*
X151528Y297159D01*
X151964Y297175D01*
X152400Y297180D01*
X152836Y297175D01*
X153272Y297159D01*
X153708Y297132D01*
X154143Y297094D01*
X154576Y297046D01*
X155009Y296988D01*
X155440Y296918D01*
X155869Y296838D01*
X156296Y296748D01*
X156720Y296647D01*
X157142Y296536D01*
X157561Y296414D01*
X157977Y296283D01*
X158390Y296141D01*
X158799Y295989D01*
X159204Y295827D01*
X159605Y295655D01*
X160002Y295473D01*
X160394Y295282D01*
X160781Y295081D01*
X161164Y294870D01*
X161541Y294650D01*
X161912Y294421D01*
X162278Y294184D01*
X162638Y293937D01*
X162992Y293681D01*
X163339Y293417D01*
X163680Y293144D01*
X164013Y292863D01*
X164340Y292574D01*
X164660Y292277D01*
X164972Y291972D01*
X165277Y291660D01*
X165574Y291340D01*
X165863Y291013D01*
X166144Y290680D01*
X166417Y290339D01*
X166681Y289992D01*
X166937Y289638D01*
X167184Y289278D01*
X167421Y288912D01*
X167650Y288541D01*
X167870Y288164D01*
X168081Y287781D01*
X168282Y287394D01*
X168473Y287002D01*
X168655Y286605D01*
X168827Y286204D01*
X168989Y285799D01*
X169141Y285390D01*
X169283Y284977D01*
X169414Y284561D01*
X169536Y284142D01*
X169647Y283720D01*
X169748Y283296D01*
X169838Y282869D01*
X169918Y282440D01*
X169988Y282009D01*
X170046Y281576D01*
X170094Y281143D01*
X170132Y280708D01*
X170159Y280272D01*
X170175Y279836D01*
X170180Y279400D01*
X170175Y278964D01*
X170159Y278528D01*
X170132Y278092D01*
X170094Y277657D01*
X170046Y277224D01*
X169988Y276791D01*
X169918Y276360D01*
X169838Y275931D01*
X169748Y275504D01*
X169647Y275080D01*
X169536Y274658D01*
X169414Y274239D01*
X169283Y273823D01*
X169141Y273410D01*
X168989Y273001D01*
X168827Y272596D01*
X168655Y272195D01*
X168473Y271798D01*
X168282Y271406D01*
X168081Y271019D01*
X167870Y270636D01*
X167650Y270259D01*
X167421Y269888D01*
X167184Y269522D01*
X166937Y269162D01*
X166681Y268808D01*
X166417Y268461D01*
X166144Y268120D01*
X165863Y267787D01*
X165574Y267460D01*
X165277Y267140D01*
X164972Y266828D01*
X164660Y266523D01*
X164340Y266226D01*
X164013Y265937D01*
X163680Y265656D01*
X163339Y265383D01*
X162992Y265119D01*
X162638Y264863D01*
X162278Y264616D01*
X161912Y264379D01*
X161541Y264150D01*
X161164Y263930D01*
X160781Y263719D01*
X160394Y263518D01*
X160002Y263327D01*
X159605Y263145D01*
X159204Y262973D01*
X158799Y262811D01*
X158390Y262659D01*
X157977Y262517D01*
X157561Y262386D01*
X157142Y262264D01*
X156720Y262153D01*
X156296Y262052D01*
X155869Y261962D01*
X155440Y261882D01*
X155009Y261812D01*
X154576Y261754D01*
X154143Y261706D01*
X153708Y261668D01*
X153272Y261641D01*
X152836Y261625D01*
X152400Y261620D01*
X151964Y261625D01*
X151528Y261641D01*
X151092Y261668D01*
X150657Y261706D01*
X150224Y261754D01*
X149791Y261812D01*
X149360Y261882D01*
X148931Y261962D01*
X148504Y262052D01*
X148080Y262153D01*
X147658Y262264D01*
X147239Y262386D01*
X146823Y262517D01*
X146410Y262659D01*
X146001Y262811D01*
X145596Y262973D01*
X145195Y263145D01*
X144798Y263327D01*
X144406Y263518D01*
X144019Y263719D01*
X143636Y263930D01*
X143259Y264150D01*
X142888Y264379D01*
X142522Y264616D01*
X142162Y264863D01*
X141808Y265119D01*
X141461Y265383D01*
X141120Y265656D01*
X140787Y265937D01*
X140460Y266226D01*
X140140Y266523D01*
X139828Y266828D01*
X139523Y267140D01*
X139226Y267460D01*
X138937Y267787D01*
X138656Y268120D01*
X138383Y268461D01*
X138119Y268808D01*
X137863Y269162D01*
X137616Y269522D01*
X137379Y269888D01*
X137150Y270259D01*
X136930Y270636D01*
X136719Y271019D01*
X136518Y271406D01*
X136327Y271798D01*
X136145Y272195D01*
X135973Y272596D01*
X135811Y273001D01*
X135659Y273410D01*
X135517Y273823D01*
X135386Y274239D01*
X135264Y274658D01*
X135153Y275080D01*
X135052Y275504D01*
X134962Y275931D01*
X134882Y276360D01*
X134812Y276791D01*
X134754Y277224D01*
X134706Y277657D01*
X134668Y278092D01*
X134641Y278528D01*
X134625Y278964D01*
X134620Y279400D01*
D11*
X163516Y314396D02*
X163516Y316540D01*
X163517Y316540D02*
X163515Y316611D01*
X163509Y316683D01*
X163500Y316753D01*
X163487Y316823D01*
X163470Y316893D01*
X163449Y316961D01*
X163425Y317028D01*
X163397Y317094D01*
X163366Y317158D01*
X163331Y317221D01*
X163293Y317281D01*
X163252Y317340D01*
X163208Y317396D01*
X163161Y317450D01*
X163112Y317501D01*
X163059Y317549D01*
X163004Y317595D01*
X162947Y317637D01*
X162887Y317677D01*
X162826Y317713D01*
X162762Y317746D01*
X162697Y317775D01*
X162631Y317801D01*
X162563Y317824D01*
X162494Y317843D01*
X162424Y317858D01*
X162354Y317869D01*
X162283Y317877D01*
X162212Y317881D01*
X162140Y317881D01*
X162069Y317877D01*
X161998Y317869D01*
X161928Y317858D01*
X161858Y317843D01*
X161789Y317824D01*
X161721Y317801D01*
X161655Y317775D01*
X161590Y317746D01*
X161526Y317713D01*
X161465Y317677D01*
X161405Y317637D01*
X161348Y317595D01*
X161293Y317549D01*
X161240Y317501D01*
X161191Y317450D01*
X161144Y317396D01*
X161100Y317340D01*
X161059Y317281D01*
X161021Y317221D01*
X160986Y317158D01*
X160955Y317094D01*
X160927Y317028D01*
X160903Y316961D01*
X160882Y316893D01*
X160865Y316823D01*
X160852Y316753D01*
X160843Y316683D01*
X160837Y316611D01*
X160835Y316540D01*
X160835Y314396D01*
X160837Y314325D01*
X160843Y314253D01*
X160852Y314183D01*
X160865Y314113D01*
X160882Y314043D01*
X160903Y313975D01*
X160927Y313908D01*
X160955Y313842D01*
X160986Y313778D01*
X161021Y313715D01*
X161059Y313655D01*
X161100Y313596D01*
X161144Y313540D01*
X161191Y313486D01*
X161240Y313435D01*
X161293Y313387D01*
X161348Y313341D01*
X161405Y313299D01*
X161465Y313259D01*
X161526Y313223D01*
X161590Y313190D01*
X161655Y313161D01*
X161721Y313135D01*
X161789Y313112D01*
X161858Y313093D01*
X161928Y313078D01*
X161998Y313067D01*
X162069Y313059D01*
X162140Y313055D01*
X162212Y313055D01*
X162283Y313059D01*
X162354Y313067D01*
X162424Y313078D01*
X162494Y313093D01*
X162563Y313112D01*
X162631Y313135D01*
X162697Y313161D01*
X162762Y313190D01*
X162826Y313223D01*
X162887Y313259D01*
X162947Y313299D01*
X163004Y313341D01*
X163059Y313387D01*
X163112Y313435D01*
X163161Y313486D01*
X163208Y313540D01*
X163252Y313596D01*
X163293Y313655D01*
X163331Y313715D01*
X163366Y313778D01*
X163397Y313842D01*
X163425Y313908D01*
X163449Y313975D01*
X163470Y314043D01*
X163487Y314113D01*
X163500Y314183D01*
X163509Y314253D01*
X163515Y314325D01*
X163517Y314396D01*
X157701Y313055D02*
X157701Y317881D01*
X156360Y317881D01*
X156289Y317879D01*
X156217Y317873D01*
X156147Y317864D01*
X156077Y317851D01*
X156007Y317834D01*
X155939Y317813D01*
X155872Y317789D01*
X155806Y317761D01*
X155742Y317730D01*
X155679Y317695D01*
X155619Y317657D01*
X155560Y317616D01*
X155504Y317572D01*
X155450Y317525D01*
X155399Y317476D01*
X155351Y317423D01*
X155305Y317368D01*
X155263Y317311D01*
X155223Y317251D01*
X155187Y317190D01*
X155154Y317126D01*
X155125Y317061D01*
X155099Y316995D01*
X155076Y316927D01*
X155057Y316858D01*
X155042Y316788D01*
X155031Y316718D01*
X155023Y316647D01*
X155019Y316576D01*
X155019Y316504D01*
X155023Y316433D01*
X155031Y316362D01*
X155042Y316292D01*
X155057Y316222D01*
X155076Y316153D01*
X155099Y316085D01*
X155125Y316019D01*
X155154Y315954D01*
X155187Y315890D01*
X155223Y315829D01*
X155263Y315769D01*
X155305Y315712D01*
X155351Y315657D01*
X155399Y315604D01*
X155450Y315555D01*
X155504Y315508D01*
X155560Y315464D01*
X155619Y315423D01*
X155679Y315385D01*
X155742Y315350D01*
X155806Y315319D01*
X155872Y315291D01*
X155939Y315267D01*
X156007Y315246D01*
X156077Y315229D01*
X156147Y315216D01*
X156217Y315207D01*
X156289Y315201D01*
X156360Y315199D01*
X156360Y315200D02*
X157701Y315200D01*
X151569Y313055D02*
X151569Y317881D01*
X152909Y317881D02*
X150228Y317881D01*
X148069Y312519D02*
X145924Y312519D01*
X142356Y313055D02*
X141284Y313055D01*
X142356Y313055D02*
X142421Y313057D01*
X142485Y313063D01*
X142549Y313073D01*
X142613Y313086D01*
X142675Y313104D01*
X142736Y313125D01*
X142796Y313149D01*
X142854Y313178D01*
X142911Y313210D01*
X142965Y313245D01*
X143017Y313283D01*
X143067Y313325D01*
X143114Y313369D01*
X143158Y313416D01*
X143200Y313466D01*
X143238Y313518D01*
X143273Y313572D01*
X143305Y313629D01*
X143334Y313687D01*
X143358Y313747D01*
X143379Y313808D01*
X143397Y313870D01*
X143410Y313934D01*
X143420Y313998D01*
X143426Y314062D01*
X143428Y314127D01*
X143428Y316809D01*
X143426Y316874D01*
X143420Y316938D01*
X143410Y317002D01*
X143397Y317066D01*
X143379Y317128D01*
X143358Y317189D01*
X143334Y317249D01*
X143305Y317307D01*
X143273Y317364D01*
X143238Y317418D01*
X143200Y317470D01*
X143158Y317520D01*
X143114Y317567D01*
X143067Y317611D01*
X143017Y317653D01*
X142965Y317691D01*
X142911Y317726D01*
X142854Y317758D01*
X142796Y317787D01*
X142736Y317811D01*
X142675Y317832D01*
X142613Y317850D01*
X142549Y317863D01*
X142485Y317873D01*
X142421Y317879D01*
X142356Y317881D01*
X141284Y317881D01*
D10*
X130810Y233680D02*
X173990Y233680D01*
X173990Y172720D02*
X130810Y172720D01*
X121920Y193040D02*
X121920Y213180D01*
X182880Y213480D02*
X182880Y193040D01*
X134620Y203200D02*
X134625Y203636D01*
X134641Y204072D01*
X134668Y204508D01*
X134706Y204943D01*
X134754Y205376D01*
X134812Y205809D01*
X134882Y206240D01*
X134962Y206669D01*
X135052Y207096D01*
X135153Y207520D01*
X135264Y207942D01*
X135386Y208361D01*
X135517Y208777D01*
X135659Y209190D01*
X135811Y209599D01*
X135973Y210004D01*
X136145Y210405D01*
X136327Y210802D01*
X136518Y211194D01*
X136719Y211581D01*
X136930Y211964D01*
X137150Y212341D01*
X137379Y212712D01*
X137616Y213078D01*
X137863Y213438D01*
X138119Y213792D01*
X138383Y214139D01*
X138656Y214480D01*
X138937Y214813D01*
X139226Y215140D01*
X139523Y215460D01*
X139828Y215772D01*
X140140Y216077D01*
X140460Y216374D01*
X140787Y216663D01*
X141120Y216944D01*
X141461Y217217D01*
X141808Y217481D01*
X142162Y217737D01*
X142522Y217984D01*
X142888Y218221D01*
X143259Y218450D01*
X143636Y218670D01*
X144019Y218881D01*
X144406Y219082D01*
X144798Y219273D01*
X145195Y219455D01*
X145596Y219627D01*
X146001Y219789D01*
X146410Y219941D01*
X146823Y220083D01*
X147239Y220214D01*
X147658Y220336D01*
X148080Y220447D01*
X148504Y220548D01*
X148931Y220638D01*
X149360Y220718D01*
X149791Y220788D01*
X150224Y220846D01*
X150657Y220894D01*
X151092Y220932D01*
X151528Y220959D01*
X151964Y220975D01*
X152400Y220980D01*
X152836Y220975D01*
X153272Y220959D01*
X153708Y220932D01*
X154143Y220894D01*
X154576Y220846D01*
X155009Y220788D01*
X155440Y220718D01*
X155869Y220638D01*
X156296Y220548D01*
X156720Y220447D01*
X157142Y220336D01*
X157561Y220214D01*
X157977Y220083D01*
X158390Y219941D01*
X158799Y219789D01*
X159204Y219627D01*
X159605Y219455D01*
X160002Y219273D01*
X160394Y219082D01*
X160781Y218881D01*
X161164Y218670D01*
X161541Y218450D01*
X161912Y218221D01*
X162278Y217984D01*
X162638Y217737D01*
X162992Y217481D01*
X163339Y217217D01*
X163680Y216944D01*
X164013Y216663D01*
X164340Y216374D01*
X164660Y216077D01*
X164972Y215772D01*
X165277Y215460D01*
X165574Y215140D01*
X165863Y214813D01*
X166144Y214480D01*
X166417Y214139D01*
X166681Y213792D01*
X166937Y213438D01*
X167184Y213078D01*
X167421Y212712D01*
X167650Y212341D01*
X167870Y211964D01*
X168081Y211581D01*
X168282Y211194D01*
X168473Y210802D01*
X168655Y210405D01*
X168827Y210004D01*
X168989Y209599D01*
X169141Y209190D01*
X169283Y208777D01*
X169414Y208361D01*
X169536Y207942D01*
X169647Y207520D01*
X169748Y207096D01*
X169838Y206669D01*
X169918Y206240D01*
X169988Y205809D01*
X170046Y205376D01*
X170094Y204943D01*
X170132Y204508D01*
X170159Y204072D01*
X170175Y203636D01*
X170180Y203200D01*
X170175Y202764D01*
X170159Y202328D01*
X170132Y201892D01*
X170094Y201457D01*
X170046Y201024D01*
X169988Y200591D01*
X169918Y200160D01*
X169838Y199731D01*
X169748Y199304D01*
X169647Y198880D01*
X169536Y198458D01*
X169414Y198039D01*
X169283Y197623D01*
X169141Y197210D01*
X168989Y196801D01*
X168827Y196396D01*
X168655Y195995D01*
X168473Y195598D01*
X168282Y195206D01*
X168081Y194819D01*
X167870Y194436D01*
X167650Y194059D01*
X167421Y193688D01*
X167184Y193322D01*
X166937Y192962D01*
X166681Y192608D01*
X166417Y192261D01*
X166144Y191920D01*
X165863Y191587D01*
X165574Y191260D01*
X165277Y190940D01*
X164972Y190628D01*
X164660Y190323D01*
X164340Y190026D01*
X164013Y189737D01*
X163680Y189456D01*
X163339Y189183D01*
X162992Y188919D01*
X162638Y188663D01*
X162278Y188416D01*
X161912Y188179D01*
X161541Y187950D01*
X161164Y187730D01*
X160781Y187519D01*
X160394Y187318D01*
X160002Y187127D01*
X159605Y186945D01*
X159204Y186773D01*
X158799Y186611D01*
X158390Y186459D01*
X157977Y186317D01*
X157561Y186186D01*
X157142Y186064D01*
X156720Y185953D01*
X156296Y185852D01*
X155869Y185762D01*
X155440Y185682D01*
X155009Y185612D01*
X154576Y185554D01*
X154143Y185506D01*
X153708Y185468D01*
X153272Y185441D01*
X152836Y185425D01*
X152400Y185420D01*
X151964Y185425D01*
X151528Y185441D01*
X151092Y185468D01*
X150657Y185506D01*
X150224Y185554D01*
X149791Y185612D01*
X149360Y185682D01*
X148931Y185762D01*
X148504Y185852D01*
X148080Y185953D01*
X147658Y186064D01*
X147239Y186186D01*
X146823Y186317D01*
X146410Y186459D01*
X146001Y186611D01*
X145596Y186773D01*
X145195Y186945D01*
X144798Y187127D01*
X144406Y187318D01*
X144019Y187519D01*
X143636Y187730D01*
X143259Y187950D01*
X142888Y188179D01*
X142522Y188416D01*
X142162Y188663D01*
X141808Y188919D01*
X141461Y189183D01*
X141120Y189456D01*
X140787Y189737D01*
X140460Y190026D01*
X140140Y190323D01*
X139828Y190628D01*
X139523Y190940D01*
X139226Y191260D01*
X138937Y191587D01*
X138656Y191920D01*
X138383Y192261D01*
X138119Y192608D01*
X137863Y192962D01*
X137616Y193322D01*
X137379Y193688D01*
X137150Y194059D01*
X136930Y194436D01*
X136719Y194819D01*
X136518Y195206D01*
X136327Y195598D01*
X136145Y195995D01*
X135973Y196396D01*
X135811Y196801D01*
X135659Y197210D01*
X135517Y197623D01*
X135386Y198039D01*
X135264Y198458D01*
X135153Y198880D01*
X135052Y199304D01*
X134962Y199731D01*
X134882Y200160D01*
X134812Y200591D01*
X134754Y201024D01*
X134706Y201457D01*
X134668Y201892D01*
X134641Y202328D01*
X134625Y202764D01*
X134620Y203200D01*
D11*
X163890Y238196D02*
X163890Y240340D01*
X163891Y240340D02*
X163889Y240411D01*
X163883Y240483D01*
X163874Y240553D01*
X163861Y240623D01*
X163844Y240693D01*
X163823Y240761D01*
X163799Y240828D01*
X163771Y240894D01*
X163740Y240958D01*
X163705Y241021D01*
X163667Y241081D01*
X163626Y241140D01*
X163582Y241196D01*
X163535Y241250D01*
X163486Y241301D01*
X163433Y241349D01*
X163378Y241395D01*
X163321Y241437D01*
X163261Y241477D01*
X163200Y241513D01*
X163136Y241546D01*
X163071Y241575D01*
X163005Y241601D01*
X162937Y241624D01*
X162868Y241643D01*
X162798Y241658D01*
X162728Y241669D01*
X162657Y241677D01*
X162586Y241681D01*
X162514Y241681D01*
X162443Y241677D01*
X162372Y241669D01*
X162302Y241658D01*
X162232Y241643D01*
X162163Y241624D01*
X162095Y241601D01*
X162029Y241575D01*
X161964Y241546D01*
X161900Y241513D01*
X161839Y241477D01*
X161779Y241437D01*
X161722Y241395D01*
X161667Y241349D01*
X161614Y241301D01*
X161565Y241250D01*
X161518Y241196D01*
X161474Y241140D01*
X161433Y241081D01*
X161395Y241021D01*
X161360Y240958D01*
X161329Y240894D01*
X161301Y240828D01*
X161277Y240761D01*
X161256Y240693D01*
X161239Y240623D01*
X161226Y240553D01*
X161217Y240483D01*
X161211Y240411D01*
X161209Y240340D01*
X161209Y238196D01*
X161211Y238125D01*
X161217Y238053D01*
X161226Y237983D01*
X161239Y237913D01*
X161256Y237843D01*
X161277Y237775D01*
X161301Y237708D01*
X161329Y237642D01*
X161360Y237578D01*
X161395Y237515D01*
X161433Y237455D01*
X161474Y237396D01*
X161518Y237340D01*
X161565Y237286D01*
X161614Y237235D01*
X161667Y237187D01*
X161722Y237141D01*
X161779Y237099D01*
X161839Y237059D01*
X161900Y237023D01*
X161964Y236990D01*
X162029Y236961D01*
X162095Y236935D01*
X162163Y236912D01*
X162232Y236893D01*
X162302Y236878D01*
X162372Y236867D01*
X162443Y236859D01*
X162514Y236855D01*
X162586Y236855D01*
X162657Y236859D01*
X162728Y236867D01*
X162798Y236878D01*
X162868Y236893D01*
X162937Y236912D01*
X163005Y236935D01*
X163071Y236961D01*
X163136Y236990D01*
X163200Y237023D01*
X163261Y237059D01*
X163321Y237099D01*
X163378Y237141D01*
X163433Y237187D01*
X163486Y237235D01*
X163535Y237286D01*
X163582Y237340D01*
X163626Y237396D01*
X163667Y237455D01*
X163705Y237515D01*
X163740Y237578D01*
X163771Y237642D01*
X163799Y237708D01*
X163823Y237775D01*
X163844Y237843D01*
X163861Y237913D01*
X163874Y237983D01*
X163883Y238053D01*
X163889Y238125D01*
X163891Y238196D01*
X158075Y236855D02*
X158075Y241681D01*
X156734Y241681D01*
X156663Y241679D01*
X156591Y241673D01*
X156521Y241664D01*
X156451Y241651D01*
X156381Y241634D01*
X156313Y241613D01*
X156246Y241589D01*
X156180Y241561D01*
X156116Y241530D01*
X156053Y241495D01*
X155993Y241457D01*
X155934Y241416D01*
X155878Y241372D01*
X155824Y241325D01*
X155773Y241276D01*
X155725Y241223D01*
X155679Y241168D01*
X155637Y241111D01*
X155597Y241051D01*
X155561Y240990D01*
X155528Y240926D01*
X155499Y240861D01*
X155473Y240795D01*
X155450Y240727D01*
X155431Y240658D01*
X155416Y240588D01*
X155405Y240518D01*
X155397Y240447D01*
X155393Y240376D01*
X155393Y240304D01*
X155397Y240233D01*
X155405Y240162D01*
X155416Y240092D01*
X155431Y240022D01*
X155450Y239953D01*
X155473Y239885D01*
X155499Y239819D01*
X155528Y239754D01*
X155561Y239690D01*
X155597Y239629D01*
X155637Y239569D01*
X155679Y239512D01*
X155725Y239457D01*
X155773Y239404D01*
X155824Y239355D01*
X155878Y239308D01*
X155934Y239264D01*
X155993Y239223D01*
X156053Y239185D01*
X156116Y239150D01*
X156180Y239119D01*
X156246Y239091D01*
X156313Y239067D01*
X156381Y239046D01*
X156451Y239029D01*
X156521Y239016D01*
X156591Y239007D01*
X156663Y239001D01*
X156734Y238999D01*
X156734Y239000D02*
X158075Y239000D01*
X151943Y236855D02*
X151943Y241681D01*
X153283Y241681D02*
X150602Y241681D01*
X148443Y236319D02*
X146298Y236319D01*
X143591Y236855D02*
X143591Y241681D01*
X142250Y241681D01*
X142180Y241679D01*
X142110Y241674D01*
X142040Y241664D01*
X141971Y241652D01*
X141903Y241635D01*
X141836Y241615D01*
X141769Y241592D01*
X141705Y241565D01*
X141641Y241535D01*
X141580Y241501D01*
X141520Y241465D01*
X141462Y241425D01*
X141406Y241382D01*
X141353Y241337D01*
X141302Y241288D01*
X141253Y241237D01*
X141208Y241184D01*
X141165Y241128D01*
X141125Y241070D01*
X141089Y241011D01*
X141055Y240949D01*
X141025Y240885D01*
X140998Y240821D01*
X140975Y240754D01*
X140955Y240687D01*
X140938Y240619D01*
X140926Y240550D01*
X140916Y240480D01*
X140911Y240410D01*
X140909Y240340D01*
X140910Y240340D02*
X140910Y238196D01*
X140909Y238196D02*
X140911Y238126D01*
X140916Y238056D01*
X140926Y237986D01*
X140938Y237917D01*
X140955Y237849D01*
X140975Y237782D01*
X140998Y237715D01*
X141025Y237651D01*
X141055Y237587D01*
X141089Y237526D01*
X141125Y237466D01*
X141165Y237408D01*
X141208Y237352D01*
X141253Y237299D01*
X141302Y237248D01*
X141353Y237199D01*
X141406Y237154D01*
X141462Y237111D01*
X141520Y237071D01*
X141580Y237035D01*
X141641Y237001D01*
X141705Y236971D01*
X141769Y236944D01*
X141836Y236921D01*
X141903Y236901D01*
X141971Y236884D01*
X142040Y236872D01*
X142110Y236862D01*
X142180Y236857D01*
X142250Y236855D01*
X143591Y236855D01*
D10*
X127000Y527050D02*
X127000Y565150D01*
D12*
X127474Y565766D01*
X127963Y566371D01*
X128467Y566963D01*
X128985Y567543D01*
X129517Y568110D01*
X130063Y568664D01*
X130622Y569204D01*
X131195Y569730D01*
X131780Y570243D01*
X132377Y570740D01*
X132986Y571223D01*
X133607Y571691D01*
X134240Y572144D01*
X134883Y572581D01*
X135537Y573002D01*
X136201Y573406D01*
X136874Y573795D01*
X137557Y574167D01*
X138249Y574522D01*
X138949Y574860D01*
X139657Y575181D01*
X140373Y575484D01*
X141097Y575770D01*
X141826Y576038D01*
X142563Y576288D01*
X143305Y576519D01*
X144053Y576733D01*
X144805Y576928D01*
X145563Y577105D01*
X146324Y577263D01*
X147089Y577403D01*
X147857Y577523D01*
X148628Y577625D01*
X149401Y577708D01*
X150176Y577772D01*
X150952Y577817D01*
X151729Y577843D01*
X152507Y577850D01*
X153284Y577838D01*
X154061Y577807D01*
X154837Y577756D01*
X155612Y577687D01*
X156384Y577599D01*
X157154Y577492D01*
X157922Y577366D01*
X158686Y577222D01*
X159446Y577058D01*
X160202Y576876D01*
X160953Y576676D01*
X161700Y576458D01*
X162440Y576221D01*
X163175Y575966D01*
X163903Y575693D01*
X164624Y575402D01*
X165338Y575094D01*
X166044Y574769D01*
X166742Y574426D01*
X167432Y574066D01*
X168112Y573690D01*
X168783Y573297D01*
X169444Y572887D01*
X170095Y572462D01*
X170735Y572021D01*
X171364Y571564D01*
X171982Y571092D01*
X172588Y570605D01*
X173182Y570103D01*
X173764Y569587D01*
X174333Y569057D01*
X174888Y568513D01*
X175431Y567955D01*
X175959Y567385D01*
X176473Y566802D01*
X176973Y566206D01*
X177458Y565598D01*
X177928Y564979D01*
X178382Y564348D01*
X178821Y563706D01*
X179245Y563054D01*
X179652Y562391D01*
X180043Y561719D01*
X180417Y561037D01*
X180774Y560347D01*
X181114Y559648D01*
X181438Y558940D01*
X181743Y558226D01*
X182032Y557503D01*
X182302Y556774D01*
X182554Y556039D01*
X182789Y555297D01*
X183005Y554550D01*
X183203Y553798D01*
X183382Y553042D01*
X183543Y552281D01*
X183685Y551517D01*
X183808Y550749D01*
X183912Y549978D01*
X183998Y549205D01*
X184064Y548431D01*
X184112Y547655D01*
X184140Y546878D01*
X184150Y546100D01*
X184140Y545322D01*
X184112Y544545D01*
X184064Y543769D01*
X183998Y542995D01*
X183912Y542222D01*
X183808Y541451D01*
X183685Y540683D01*
X183543Y539919D01*
X183382Y539158D01*
X183203Y538402D01*
X183005Y537650D01*
X182789Y536903D01*
X182554Y536161D01*
X182302Y535426D01*
X182032Y534697D01*
X181743Y533974D01*
X181438Y533260D01*
X181114Y532552D01*
X180774Y531853D01*
X180417Y531163D01*
X180043Y530481D01*
X179652Y529809D01*
X179245Y529146D01*
X178821Y528494D01*
X178382Y527852D01*
X177928Y527221D01*
X177458Y526602D01*
X176973Y525994D01*
X176473Y525398D01*
X175959Y524815D01*
X175431Y524245D01*
X174888Y523687D01*
X174333Y523143D01*
X173764Y522613D01*
X173182Y522097D01*
X172588Y521595D01*
X171982Y521108D01*
X171364Y520636D01*
X170735Y520179D01*
X170095Y519738D01*
X169444Y519313D01*
X168783Y518903D01*
X168112Y518510D01*
X167432Y518134D01*
X166742Y517774D01*
X166044Y517431D01*
X165338Y517106D01*
X164624Y516798D01*
X163903Y516507D01*
X163175Y516234D01*
X162440Y515979D01*
X161700Y515742D01*
X160953Y515524D01*
X160202Y515324D01*
X159446Y515142D01*
X158686Y514978D01*
X157922Y514834D01*
X157154Y514708D01*
X156384Y514601D01*
X155612Y514513D01*
X154837Y514444D01*
X154061Y514393D01*
X153284Y514362D01*
X152507Y514350D01*
X151729Y514357D01*
X150952Y514383D01*
X150176Y514428D01*
X149401Y514492D01*
X148628Y514575D01*
X147857Y514677D01*
X147089Y514797D01*
X146324Y514937D01*
X145563Y515095D01*
X144805Y515272D01*
X144053Y515467D01*
X143305Y515681D01*
X142563Y515912D01*
X141826Y516162D01*
X141097Y516430D01*
X140373Y516716D01*
X139657Y517019D01*
X138949Y517340D01*
X138249Y517678D01*
X137557Y518033D01*
X136874Y518405D01*
X136201Y518794D01*
X135537Y519198D01*
X134883Y519619D01*
X134240Y520056D01*
X133607Y520509D01*
X132986Y520977D01*
X132377Y521460D01*
X131780Y521957D01*
X131195Y522470D01*
X130622Y522996D01*
X130063Y523536D01*
X129517Y524090D01*
X128985Y524657D01*
X128467Y525237D01*
X127963Y525829D01*
X127474Y526434D01*
X127000Y527050D01*
D13*
X127000Y546100D02*
X127008Y546723D01*
X127031Y547346D01*
X127069Y547969D01*
X127122Y548590D01*
X127191Y549209D01*
X127275Y549827D01*
X127374Y550442D01*
X127488Y551055D01*
X127617Y551665D01*
X127761Y552272D01*
X127920Y552875D01*
X128094Y553473D01*
X128282Y554068D01*
X128485Y554657D01*
X128702Y555241D01*
X128933Y555820D01*
X129179Y556393D01*
X129439Y556960D01*
X129712Y557520D01*
X129999Y558073D01*
X130300Y558620D01*
X130614Y559158D01*
X130941Y559689D01*
X131281Y560211D01*
X131633Y560726D01*
X131999Y561231D01*
X132376Y561727D01*
X132766Y562214D01*
X133167Y562691D01*
X133580Y563158D01*
X134004Y563614D01*
X134439Y564061D01*
X134886Y564496D01*
X135342Y564920D01*
X135809Y565333D01*
X136286Y565734D01*
X136773Y566124D01*
X137269Y566501D01*
X137774Y566867D01*
X138289Y567219D01*
X138811Y567559D01*
X139342Y567886D01*
X139880Y568200D01*
X140427Y568501D01*
X140980Y568788D01*
X141540Y569061D01*
X142107Y569321D01*
X142680Y569567D01*
X143259Y569798D01*
X143843Y570015D01*
X144432Y570218D01*
X145027Y570406D01*
X145625Y570580D01*
X146228Y570739D01*
X146835Y570883D01*
X147445Y571012D01*
X148058Y571126D01*
X148673Y571225D01*
X149291Y571309D01*
X149910Y571378D01*
X150531Y571431D01*
X151154Y571469D01*
X151777Y571492D01*
X152400Y571500D01*
X153023Y571492D01*
X153646Y571469D01*
X154269Y571431D01*
X154890Y571378D01*
X155509Y571309D01*
X156127Y571225D01*
X156742Y571126D01*
X157355Y571012D01*
X157965Y570883D01*
X158572Y570739D01*
X159175Y570580D01*
X159773Y570406D01*
X160368Y570218D01*
X160957Y570015D01*
X161541Y569798D01*
X162120Y569567D01*
X162693Y569321D01*
X163260Y569061D01*
X163820Y568788D01*
X164373Y568501D01*
X164920Y568200D01*
X165458Y567886D01*
X165989Y567559D01*
X166511Y567219D01*
X167026Y566867D01*
X167531Y566501D01*
X168027Y566124D01*
X168514Y565734D01*
X168991Y565333D01*
X169458Y564920D01*
X169914Y564496D01*
X170361Y564061D01*
X170796Y563614D01*
X171220Y563158D01*
X171633Y562691D01*
X172034Y562214D01*
X172424Y561727D01*
X172801Y561231D01*
X173167Y560726D01*
X173519Y560211D01*
X173859Y559689D01*
X174186Y559158D01*
X174500Y558620D01*
X174801Y558073D01*
X175088Y557520D01*
X175361Y556960D01*
X175621Y556393D01*
X175867Y555820D01*
X176098Y555241D01*
X176315Y554657D01*
X176518Y554068D01*
X176706Y553473D01*
X176880Y552875D01*
X177039Y552272D01*
X177183Y551665D01*
X177312Y551055D01*
X177426Y550442D01*
X177525Y549827D01*
X177609Y549209D01*
X177678Y548590D01*
X177731Y547969D01*
X177769Y547346D01*
X177792Y546723D01*
X177800Y546100D01*
X177792Y545477D01*
X177769Y544854D01*
X177731Y544231D01*
X177678Y543610D01*
X177609Y542991D01*
X177525Y542373D01*
X177426Y541758D01*
X177312Y541145D01*
X177183Y540535D01*
X177039Y539928D01*
X176880Y539325D01*
X176706Y538727D01*
X176518Y538132D01*
X176315Y537543D01*
X176098Y536959D01*
X175867Y536380D01*
X175621Y535807D01*
X175361Y535240D01*
X175088Y534680D01*
X174801Y534127D01*
X174500Y533580D01*
X174186Y533042D01*
X173859Y532511D01*
X173519Y531989D01*
X173167Y531474D01*
X172801Y530969D01*
X172424Y530473D01*
X172034Y529986D01*
X171633Y529509D01*
X171220Y529042D01*
X170796Y528586D01*
X170361Y528139D01*
X169914Y527704D01*
X169458Y527280D01*
X168991Y526867D01*
X168514Y526466D01*
X168027Y526076D01*
X167531Y525699D01*
X167026Y525333D01*
X166511Y524981D01*
X165989Y524641D01*
X165458Y524314D01*
X164920Y524000D01*
X164373Y523699D01*
X163820Y523412D01*
X163260Y523139D01*
X162693Y522879D01*
X162120Y522633D01*
X161541Y522402D01*
X160957Y522185D01*
X160368Y521982D01*
X159773Y521794D01*
X159175Y521620D01*
X158572Y521461D01*
X157965Y521317D01*
X157355Y521188D01*
X156742Y521074D01*
X156127Y520975D01*
X155509Y520891D01*
X154890Y520822D01*
X154269Y520769D01*
X153646Y520731D01*
X153023Y520708D01*
X152400Y520700D01*
X151777Y520708D01*
X151154Y520731D01*
X150531Y520769D01*
X149910Y520822D01*
X149291Y520891D01*
X148673Y520975D01*
X148058Y521074D01*
X147445Y521188D01*
X146835Y521317D01*
X146228Y521461D01*
X145625Y521620D01*
X145027Y521794D01*
X144432Y521982D01*
X143843Y522185D01*
X143259Y522402D01*
X142680Y522633D01*
X142107Y522879D01*
X141540Y523139D01*
X140980Y523412D01*
X140427Y523699D01*
X139880Y524000D01*
X139342Y524314D01*
X138811Y524641D01*
X138289Y524981D01*
X137774Y525333D01*
X137269Y525699D01*
X136773Y526076D01*
X136286Y526466D01*
X135809Y526867D01*
X135342Y527280D01*
X134886Y527704D01*
X134439Y528139D01*
X134004Y528586D01*
X133580Y529042D01*
X133167Y529509D01*
X132766Y529986D01*
X132376Y530473D01*
X131999Y530969D01*
X131633Y531474D01*
X131281Y531989D01*
X130941Y532511D01*
X130614Y533042D01*
X130300Y533580D01*
X129999Y534127D01*
X129712Y534680D01*
X129439Y535240D01*
X129179Y535807D01*
X128933Y536380D01*
X128702Y536959D01*
X128485Y537543D01*
X128282Y538132D01*
X128094Y538727D01*
X127920Y539325D01*
X127761Y539928D01*
X127617Y540535D01*
X127488Y541145D01*
X127374Y541758D01*
X127275Y542373D01*
X127191Y542991D01*
X127122Y543610D01*
X127069Y544231D01*
X127031Y544854D01*
X127008Y545477D01*
X127000Y546100D01*
D11*
X116205Y552069D02*
X116105Y552071D01*
X116006Y552077D01*
X115906Y552087D01*
X115808Y552100D01*
X115709Y552118D01*
X115612Y552139D01*
X115516Y552164D01*
X115420Y552193D01*
X115326Y552226D01*
X115233Y552262D01*
X115142Y552302D01*
X115052Y552346D01*
X114964Y552393D01*
X114878Y552443D01*
X114794Y552497D01*
X114712Y552554D01*
X114633Y552614D01*
X114555Y552678D01*
X114481Y552744D01*
X114409Y552813D01*
X114340Y552885D01*
X114274Y552959D01*
X114210Y553037D01*
X114150Y553116D01*
X114093Y553198D01*
X114039Y553282D01*
X113989Y553368D01*
X113942Y553456D01*
X113898Y553546D01*
X113858Y553637D01*
X113822Y553730D01*
X113789Y553824D01*
X113760Y553920D01*
X113735Y554016D01*
X113714Y554113D01*
X113696Y554212D01*
X113683Y554310D01*
X113673Y554410D01*
X113667Y554509D01*
X113665Y554609D01*
X116205Y552069D02*
X116346Y552071D01*
X116487Y552076D01*
X116628Y552086D01*
X116769Y552099D01*
X116909Y552115D01*
X117049Y552136D01*
X117188Y552160D01*
X117327Y552188D01*
X117464Y552219D01*
X117601Y552254D01*
X117737Y552292D01*
X117872Y552334D01*
X118005Y552380D01*
X118138Y552429D01*
X118269Y552482D01*
X118398Y552538D01*
X118527Y552597D01*
X118653Y552660D01*
X118778Y552726D01*
X118901Y552795D01*
X119022Y552868D01*
X119141Y552944D01*
X119259Y553023D01*
X119374Y553104D01*
X119486Y553189D01*
X119597Y553277D01*
X119705Y553368D01*
X119811Y553461D01*
X119914Y553558D01*
X120015Y553657D01*
X119698Y560959D02*
X119696Y561059D01*
X119690Y561158D01*
X119680Y561258D01*
X119667Y561356D01*
X119649Y561455D01*
X119628Y561552D01*
X119603Y561648D01*
X119574Y561744D01*
X119541Y561838D01*
X119505Y561931D01*
X119465Y562022D01*
X119421Y562112D01*
X119374Y562200D01*
X119324Y562286D01*
X119270Y562370D01*
X119213Y562452D01*
X119153Y562531D01*
X119089Y562609D01*
X119023Y562683D01*
X118954Y562755D01*
X118882Y562824D01*
X118808Y562890D01*
X118730Y562954D01*
X118651Y563014D01*
X118569Y563071D01*
X118485Y563125D01*
X118399Y563175D01*
X118311Y563222D01*
X118221Y563266D01*
X118130Y563306D01*
X118037Y563342D01*
X117943Y563375D01*
X117847Y563404D01*
X117751Y563429D01*
X117654Y563450D01*
X117555Y563468D01*
X117457Y563481D01*
X117357Y563491D01*
X117258Y563497D01*
X117158Y563499D01*
X117158Y563500D02*
X117025Y563498D01*
X116892Y563493D01*
X116759Y563483D01*
X116626Y563470D01*
X116494Y563453D01*
X116362Y563433D01*
X116231Y563409D01*
X116101Y563381D01*
X115971Y563350D01*
X115843Y563315D01*
X115715Y563276D01*
X115589Y563234D01*
X115464Y563188D01*
X115340Y563139D01*
X115217Y563087D01*
X115096Y563031D01*
X114977Y562971D01*
X114859Y562909D01*
X114744Y562843D01*
X114630Y562774D01*
X114518Y562701D01*
X114408Y562626D01*
X114300Y562547D01*
X118428Y558736D02*
X118512Y558788D01*
X118595Y558843D01*
X118675Y558902D01*
X118753Y558963D01*
X118828Y559027D01*
X118901Y559095D01*
X118972Y559165D01*
X119039Y559237D01*
X119104Y559312D01*
X119166Y559390D01*
X119225Y559470D01*
X119281Y559552D01*
X119333Y559636D01*
X119382Y559722D01*
X119428Y559810D01*
X119471Y559900D01*
X119510Y559991D01*
X119545Y560084D01*
X119577Y560178D01*
X119605Y560273D01*
X119630Y560369D01*
X119650Y560466D01*
X119668Y560564D01*
X119681Y560662D01*
X119690Y560761D01*
X119696Y560860D01*
X119698Y560959D01*
X114935Y556832D02*
X114851Y556780D01*
X114768Y556725D01*
X114688Y556666D01*
X114610Y556605D01*
X114535Y556541D01*
X114462Y556473D01*
X114391Y556403D01*
X114324Y556331D01*
X114259Y556256D01*
X114197Y556178D01*
X114138Y556098D01*
X114082Y556016D01*
X114030Y555932D01*
X113981Y555846D01*
X113935Y555758D01*
X113892Y555668D01*
X113853Y555577D01*
X113818Y555484D01*
X113786Y555390D01*
X113758Y555295D01*
X113733Y555199D01*
X113713Y555102D01*
X113695Y555004D01*
X113682Y554906D01*
X113673Y554807D01*
X113667Y554708D01*
X113665Y554609D01*
X114935Y556832D02*
X118428Y558737D01*
X106553Y563499D02*
X106553Y552069D01*
X109728Y563499D02*
X103378Y563499D01*
X95885Y563499D02*
X99695Y552069D01*
X92075Y552069D02*
X95885Y563499D01*
X93028Y554927D02*
X98743Y554927D01*
X85217Y552069D02*
X85217Y563499D01*
X88392Y563499D02*
X82042Y563499D01*
M02*
