G04 EAGLE Gerber X2 export*
%TF.Part,Single*%
%TF.FileFunction,Soldermask,Top,1*%
%TF.FilePolarity,Negative*%
%TF.GenerationSoftware,Autodesk,EAGLE,8.7.0*%
%TF.CreationDate,2018-05-28T14:24:44Z*%
G75*
%MOMM*%
%FSLAX34Y34*%
%LPD*%
%AMOC8*
5,1,8,0,0,1.08239X$1,22.5*%
G01*
%ADD10C,1.524000*%
%ADD11C,2.082800*%
%ADD12P,1.649562X8X202.500000*%
%ADD13P,1.951982X8X22.500000*%
%ADD14C,0.959600*%


D10*
X177800Y628396D02*
X177800Y641604D01*
X203200Y641604D02*
X203200Y628396D01*
X228600Y628396D02*
X228600Y641604D01*
X254000Y641604D02*
X254000Y628396D01*
X254000Y704596D02*
X254000Y717804D01*
X228600Y717804D02*
X228600Y704596D01*
X203200Y704596D02*
X203200Y717804D01*
X177800Y717804D02*
X177800Y704596D01*
D11*
X184912Y454406D03*
X119888Y454406D03*
X184912Y409194D03*
X119888Y409194D03*
X184912Y378206D03*
X119888Y378206D03*
X184912Y332994D03*
X119888Y332994D03*
X184912Y302006D03*
X119888Y302006D03*
X184912Y256794D03*
X119888Y256794D03*
X184912Y225806D03*
X119888Y225806D03*
X184912Y180594D03*
X119888Y180594D03*
D10*
X101612Y704862D02*
X101612Y718070D01*
X76612Y718070D02*
X76612Y704862D01*
X126612Y704862D02*
X126612Y718070D01*
X50800Y717804D02*
X50800Y704596D01*
X25400Y704596D02*
X25400Y717804D01*
D11*
X152400Y609600D03*
X152400Y685800D03*
X98571Y658213D03*
X28429Y687987D03*
D12*
X165100Y546100D03*
X139700Y546100D03*
D11*
X127000Y609600D03*
X127000Y685800D03*
X25400Y635000D03*
X101600Y635000D03*
X25400Y609600D03*
X101600Y609600D03*
X279400Y711200D03*
X279400Y635000D03*
X177800Y609600D03*
X254000Y609600D03*
D13*
X279400Y584200D03*
X215900Y584200D03*
D14*
X190500Y571500D03*
X63500Y571500D03*
X88900Y571500D03*
X38100Y571500D03*
X114300Y571500D03*
X241300Y571500D03*
M02*
